%TF.GenerationSoftware,KiCad,Pcbnew,9.0.7*%
%TF.CreationDate,2026-01-06T11:15:33-08:00*%
%TF.ProjectId,v1.2,76312e32-2e6b-4696-9361-645f70636258,rev?*%
%TF.SameCoordinates,Original*%
%TF.FileFunction,Legend,Bot*%
%TF.FilePolarity,Positive*%
%FSLAX46Y46*%
G04 Gerber Fmt 4.6, Leading zero omitted, Abs format (unit mm)*
G04 Created by KiCad (PCBNEW 9.0.7) date 2026-01-06 11:15:33*
%MOMM*%
%LPD*%
G01*
G04 APERTURE LIST*
%ADD10C,0.100000*%
%ADD11C,0.300000*%
%ADD12C,0.250000*%
%ADD13C,0.150000*%
%ADD14C,0.120000*%
G04 APERTURE END LIST*
D10*
X131524800Y-110456265D02*
X131572419Y-110599122D01*
X131572419Y-110599122D02*
X131572419Y-110837217D01*
X131572419Y-110837217D02*
X131524800Y-110932455D01*
X131524800Y-110932455D02*
X131477180Y-110980074D01*
X131477180Y-110980074D02*
X131381942Y-111027693D01*
X131381942Y-111027693D02*
X131286704Y-111027693D01*
X131286704Y-111027693D02*
X131191466Y-110980074D01*
X131191466Y-110980074D02*
X131143847Y-110932455D01*
X131143847Y-110932455D02*
X131096228Y-110837217D01*
X131096228Y-110837217D02*
X131048609Y-110646741D01*
X131048609Y-110646741D02*
X131000990Y-110551503D01*
X131000990Y-110551503D02*
X130953371Y-110503884D01*
X130953371Y-110503884D02*
X130858133Y-110456265D01*
X130858133Y-110456265D02*
X130762895Y-110456265D01*
X130762895Y-110456265D02*
X130667657Y-110503884D01*
X130667657Y-110503884D02*
X130620038Y-110551503D01*
X130620038Y-110551503D02*
X130572419Y-110646741D01*
X130572419Y-110646741D02*
X130572419Y-110884836D01*
X130572419Y-110884836D02*
X130620038Y-111027693D01*
X131524800Y-111837217D02*
X131572419Y-111741979D01*
X131572419Y-111741979D02*
X131572419Y-111551503D01*
X131572419Y-111551503D02*
X131524800Y-111456265D01*
X131524800Y-111456265D02*
X131429561Y-111408646D01*
X131429561Y-111408646D02*
X131048609Y-111408646D01*
X131048609Y-111408646D02*
X130953371Y-111456265D01*
X130953371Y-111456265D02*
X130905752Y-111551503D01*
X130905752Y-111551503D02*
X130905752Y-111741979D01*
X130905752Y-111741979D02*
X130953371Y-111837217D01*
X130953371Y-111837217D02*
X131048609Y-111884836D01*
X131048609Y-111884836D02*
X131143847Y-111884836D01*
X131143847Y-111884836D02*
X131239085Y-111408646D01*
X130905752Y-112313408D02*
X131572419Y-112313408D01*
X131000990Y-112313408D02*
X130953371Y-112361027D01*
X130953371Y-112361027D02*
X130905752Y-112456265D01*
X130905752Y-112456265D02*
X130905752Y-112599122D01*
X130905752Y-112599122D02*
X130953371Y-112694360D01*
X130953371Y-112694360D02*
X131048609Y-112741979D01*
X131048609Y-112741979D02*
X131572419Y-112741979D01*
X131524800Y-113170551D02*
X131572419Y-113265789D01*
X131572419Y-113265789D02*
X131572419Y-113456265D01*
X131572419Y-113456265D02*
X131524800Y-113551503D01*
X131524800Y-113551503D02*
X131429561Y-113599122D01*
X131429561Y-113599122D02*
X131381942Y-113599122D01*
X131381942Y-113599122D02*
X131286704Y-113551503D01*
X131286704Y-113551503D02*
X131239085Y-113456265D01*
X131239085Y-113456265D02*
X131239085Y-113313408D01*
X131239085Y-113313408D02*
X131191466Y-113218170D01*
X131191466Y-113218170D02*
X131096228Y-113170551D01*
X131096228Y-113170551D02*
X131048609Y-113170551D01*
X131048609Y-113170551D02*
X130953371Y-113218170D01*
X130953371Y-113218170D02*
X130905752Y-113313408D01*
X130905752Y-113313408D02*
X130905752Y-113456265D01*
X130905752Y-113456265D02*
X130953371Y-113551503D01*
X131572419Y-114170551D02*
X131524800Y-114075313D01*
X131524800Y-114075313D02*
X131477180Y-114027694D01*
X131477180Y-114027694D02*
X131381942Y-113980075D01*
X131381942Y-113980075D02*
X131096228Y-113980075D01*
X131096228Y-113980075D02*
X131000990Y-114027694D01*
X131000990Y-114027694D02*
X130953371Y-114075313D01*
X130953371Y-114075313D02*
X130905752Y-114170551D01*
X130905752Y-114170551D02*
X130905752Y-114313408D01*
X130905752Y-114313408D02*
X130953371Y-114408646D01*
X130953371Y-114408646D02*
X131000990Y-114456265D01*
X131000990Y-114456265D02*
X131096228Y-114503884D01*
X131096228Y-114503884D02*
X131381942Y-114503884D01*
X131381942Y-114503884D02*
X131477180Y-114456265D01*
X131477180Y-114456265D02*
X131524800Y-114408646D01*
X131524800Y-114408646D02*
X131572419Y-114313408D01*
X131572419Y-114313408D02*
X131572419Y-114170551D01*
X131572419Y-114932456D02*
X130905752Y-114932456D01*
X131096228Y-114932456D02*
X131000990Y-114980075D01*
X131000990Y-114980075D02*
X130953371Y-115027694D01*
X130953371Y-115027694D02*
X130905752Y-115122932D01*
X130905752Y-115122932D02*
X130905752Y-115218170D01*
X131572419Y-116789599D02*
X131572419Y-116313409D01*
X131572419Y-116313409D02*
X130572419Y-116313409D01*
X131524800Y-138356265D02*
X131572419Y-138499122D01*
X131572419Y-138499122D02*
X131572419Y-138737217D01*
X131572419Y-138737217D02*
X131524800Y-138832455D01*
X131524800Y-138832455D02*
X131477180Y-138880074D01*
X131477180Y-138880074D02*
X131381942Y-138927693D01*
X131381942Y-138927693D02*
X131286704Y-138927693D01*
X131286704Y-138927693D02*
X131191466Y-138880074D01*
X131191466Y-138880074D02*
X131143847Y-138832455D01*
X131143847Y-138832455D02*
X131096228Y-138737217D01*
X131096228Y-138737217D02*
X131048609Y-138546741D01*
X131048609Y-138546741D02*
X131000990Y-138451503D01*
X131000990Y-138451503D02*
X130953371Y-138403884D01*
X130953371Y-138403884D02*
X130858133Y-138356265D01*
X130858133Y-138356265D02*
X130762895Y-138356265D01*
X130762895Y-138356265D02*
X130667657Y-138403884D01*
X130667657Y-138403884D02*
X130620038Y-138451503D01*
X130620038Y-138451503D02*
X130572419Y-138546741D01*
X130572419Y-138546741D02*
X130572419Y-138784836D01*
X130572419Y-138784836D02*
X130620038Y-138927693D01*
X131524800Y-139737217D02*
X131572419Y-139641979D01*
X131572419Y-139641979D02*
X131572419Y-139451503D01*
X131572419Y-139451503D02*
X131524800Y-139356265D01*
X131524800Y-139356265D02*
X131429561Y-139308646D01*
X131429561Y-139308646D02*
X131048609Y-139308646D01*
X131048609Y-139308646D02*
X130953371Y-139356265D01*
X130953371Y-139356265D02*
X130905752Y-139451503D01*
X130905752Y-139451503D02*
X130905752Y-139641979D01*
X130905752Y-139641979D02*
X130953371Y-139737217D01*
X130953371Y-139737217D02*
X131048609Y-139784836D01*
X131048609Y-139784836D02*
X131143847Y-139784836D01*
X131143847Y-139784836D02*
X131239085Y-139308646D01*
X130905752Y-140213408D02*
X131572419Y-140213408D01*
X131000990Y-140213408D02*
X130953371Y-140261027D01*
X130953371Y-140261027D02*
X130905752Y-140356265D01*
X130905752Y-140356265D02*
X130905752Y-140499122D01*
X130905752Y-140499122D02*
X130953371Y-140594360D01*
X130953371Y-140594360D02*
X131048609Y-140641979D01*
X131048609Y-140641979D02*
X131572419Y-140641979D01*
X131524800Y-141070551D02*
X131572419Y-141165789D01*
X131572419Y-141165789D02*
X131572419Y-141356265D01*
X131572419Y-141356265D02*
X131524800Y-141451503D01*
X131524800Y-141451503D02*
X131429561Y-141499122D01*
X131429561Y-141499122D02*
X131381942Y-141499122D01*
X131381942Y-141499122D02*
X131286704Y-141451503D01*
X131286704Y-141451503D02*
X131239085Y-141356265D01*
X131239085Y-141356265D02*
X131239085Y-141213408D01*
X131239085Y-141213408D02*
X131191466Y-141118170D01*
X131191466Y-141118170D02*
X131096228Y-141070551D01*
X131096228Y-141070551D02*
X131048609Y-141070551D01*
X131048609Y-141070551D02*
X130953371Y-141118170D01*
X130953371Y-141118170D02*
X130905752Y-141213408D01*
X130905752Y-141213408D02*
X130905752Y-141356265D01*
X130905752Y-141356265D02*
X130953371Y-141451503D01*
X131572419Y-142070551D02*
X131524800Y-141975313D01*
X131524800Y-141975313D02*
X131477180Y-141927694D01*
X131477180Y-141927694D02*
X131381942Y-141880075D01*
X131381942Y-141880075D02*
X131096228Y-141880075D01*
X131096228Y-141880075D02*
X131000990Y-141927694D01*
X131000990Y-141927694D02*
X130953371Y-141975313D01*
X130953371Y-141975313D02*
X130905752Y-142070551D01*
X130905752Y-142070551D02*
X130905752Y-142213408D01*
X130905752Y-142213408D02*
X130953371Y-142308646D01*
X130953371Y-142308646D02*
X131000990Y-142356265D01*
X131000990Y-142356265D02*
X131096228Y-142403884D01*
X131096228Y-142403884D02*
X131381942Y-142403884D01*
X131381942Y-142403884D02*
X131477180Y-142356265D01*
X131477180Y-142356265D02*
X131524800Y-142308646D01*
X131524800Y-142308646D02*
X131572419Y-142213408D01*
X131572419Y-142213408D02*
X131572419Y-142070551D01*
X131572419Y-142832456D02*
X130905752Y-142832456D01*
X131096228Y-142832456D02*
X131000990Y-142880075D01*
X131000990Y-142880075D02*
X130953371Y-142927694D01*
X130953371Y-142927694D02*
X130905752Y-143022932D01*
X130905752Y-143022932D02*
X130905752Y-143118170D01*
X131572419Y-144784837D02*
X131096228Y-144451504D01*
X131572419Y-144213409D02*
X130572419Y-144213409D01*
X130572419Y-144213409D02*
X130572419Y-144594361D01*
X130572419Y-144594361D02*
X130620038Y-144689599D01*
X130620038Y-144689599D02*
X130667657Y-144737218D01*
X130667657Y-144737218D02*
X130762895Y-144784837D01*
X130762895Y-144784837D02*
X130905752Y-144784837D01*
X130905752Y-144784837D02*
X131000990Y-144737218D01*
X131000990Y-144737218D02*
X131048609Y-144689599D01*
X131048609Y-144689599D02*
X131096228Y-144594361D01*
X131096228Y-144594361D02*
X131096228Y-144213409D01*
X131524800Y-124756265D02*
X131572419Y-124899122D01*
X131572419Y-124899122D02*
X131572419Y-125137217D01*
X131572419Y-125137217D02*
X131524800Y-125232455D01*
X131524800Y-125232455D02*
X131477180Y-125280074D01*
X131477180Y-125280074D02*
X131381942Y-125327693D01*
X131381942Y-125327693D02*
X131286704Y-125327693D01*
X131286704Y-125327693D02*
X131191466Y-125280074D01*
X131191466Y-125280074D02*
X131143847Y-125232455D01*
X131143847Y-125232455D02*
X131096228Y-125137217D01*
X131096228Y-125137217D02*
X131048609Y-124946741D01*
X131048609Y-124946741D02*
X131000990Y-124851503D01*
X131000990Y-124851503D02*
X130953371Y-124803884D01*
X130953371Y-124803884D02*
X130858133Y-124756265D01*
X130858133Y-124756265D02*
X130762895Y-124756265D01*
X130762895Y-124756265D02*
X130667657Y-124803884D01*
X130667657Y-124803884D02*
X130620038Y-124851503D01*
X130620038Y-124851503D02*
X130572419Y-124946741D01*
X130572419Y-124946741D02*
X130572419Y-125184836D01*
X130572419Y-125184836D02*
X130620038Y-125327693D01*
X131524800Y-126137217D02*
X131572419Y-126041979D01*
X131572419Y-126041979D02*
X131572419Y-125851503D01*
X131572419Y-125851503D02*
X131524800Y-125756265D01*
X131524800Y-125756265D02*
X131429561Y-125708646D01*
X131429561Y-125708646D02*
X131048609Y-125708646D01*
X131048609Y-125708646D02*
X130953371Y-125756265D01*
X130953371Y-125756265D02*
X130905752Y-125851503D01*
X130905752Y-125851503D02*
X130905752Y-126041979D01*
X130905752Y-126041979D02*
X130953371Y-126137217D01*
X130953371Y-126137217D02*
X131048609Y-126184836D01*
X131048609Y-126184836D02*
X131143847Y-126184836D01*
X131143847Y-126184836D02*
X131239085Y-125708646D01*
X130905752Y-126613408D02*
X131572419Y-126613408D01*
X131000990Y-126613408D02*
X130953371Y-126661027D01*
X130953371Y-126661027D02*
X130905752Y-126756265D01*
X130905752Y-126756265D02*
X130905752Y-126899122D01*
X130905752Y-126899122D02*
X130953371Y-126994360D01*
X130953371Y-126994360D02*
X131048609Y-127041979D01*
X131048609Y-127041979D02*
X131572419Y-127041979D01*
X131524800Y-127470551D02*
X131572419Y-127565789D01*
X131572419Y-127565789D02*
X131572419Y-127756265D01*
X131572419Y-127756265D02*
X131524800Y-127851503D01*
X131524800Y-127851503D02*
X131429561Y-127899122D01*
X131429561Y-127899122D02*
X131381942Y-127899122D01*
X131381942Y-127899122D02*
X131286704Y-127851503D01*
X131286704Y-127851503D02*
X131239085Y-127756265D01*
X131239085Y-127756265D02*
X131239085Y-127613408D01*
X131239085Y-127613408D02*
X131191466Y-127518170D01*
X131191466Y-127518170D02*
X131096228Y-127470551D01*
X131096228Y-127470551D02*
X131048609Y-127470551D01*
X131048609Y-127470551D02*
X130953371Y-127518170D01*
X130953371Y-127518170D02*
X130905752Y-127613408D01*
X130905752Y-127613408D02*
X130905752Y-127756265D01*
X130905752Y-127756265D02*
X130953371Y-127851503D01*
X131572419Y-128470551D02*
X131524800Y-128375313D01*
X131524800Y-128375313D02*
X131477180Y-128327694D01*
X131477180Y-128327694D02*
X131381942Y-128280075D01*
X131381942Y-128280075D02*
X131096228Y-128280075D01*
X131096228Y-128280075D02*
X131000990Y-128327694D01*
X131000990Y-128327694D02*
X130953371Y-128375313D01*
X130953371Y-128375313D02*
X130905752Y-128470551D01*
X130905752Y-128470551D02*
X130905752Y-128613408D01*
X130905752Y-128613408D02*
X130953371Y-128708646D01*
X130953371Y-128708646D02*
X131000990Y-128756265D01*
X131000990Y-128756265D02*
X131096228Y-128803884D01*
X131096228Y-128803884D02*
X131381942Y-128803884D01*
X131381942Y-128803884D02*
X131477180Y-128756265D01*
X131477180Y-128756265D02*
X131524800Y-128708646D01*
X131524800Y-128708646D02*
X131572419Y-128613408D01*
X131572419Y-128613408D02*
X131572419Y-128470551D01*
X131572419Y-129232456D02*
X130905752Y-129232456D01*
X131096228Y-129232456D02*
X131000990Y-129280075D01*
X131000990Y-129280075D02*
X130953371Y-129327694D01*
X130953371Y-129327694D02*
X130905752Y-129422932D01*
X130905752Y-129422932D02*
X130905752Y-129518170D01*
X131477180Y-131184837D02*
X131524800Y-131137218D01*
X131524800Y-131137218D02*
X131572419Y-130994361D01*
X131572419Y-130994361D02*
X131572419Y-130899123D01*
X131572419Y-130899123D02*
X131524800Y-130756266D01*
X131524800Y-130756266D02*
X131429561Y-130661028D01*
X131429561Y-130661028D02*
X131334323Y-130613409D01*
X131334323Y-130613409D02*
X131143847Y-130565790D01*
X131143847Y-130565790D02*
X131000990Y-130565790D01*
X131000990Y-130565790D02*
X130810514Y-130613409D01*
X130810514Y-130613409D02*
X130715276Y-130661028D01*
X130715276Y-130661028D02*
X130620038Y-130756266D01*
X130620038Y-130756266D02*
X130572419Y-130899123D01*
X130572419Y-130899123D02*
X130572419Y-130994361D01*
X130572419Y-130994361D02*
X130620038Y-131137218D01*
X130620038Y-131137218D02*
X130667657Y-131184837D01*
X119562782Y-110248609D02*
X119896115Y-110248609D01*
X119896115Y-110772419D02*
X119896115Y-109772419D01*
X119896115Y-109772419D02*
X119419925Y-109772419D01*
X119038972Y-110772419D02*
X119038972Y-110105752D01*
X119038972Y-109772419D02*
X119086591Y-109820038D01*
X119086591Y-109820038D02*
X119038972Y-109867657D01*
X119038972Y-109867657D02*
X118991353Y-109820038D01*
X118991353Y-109820038D02*
X119038972Y-109772419D01*
X119038972Y-109772419D02*
X119038972Y-109867657D01*
X118419925Y-110772419D02*
X118515163Y-110724800D01*
X118515163Y-110724800D02*
X118562782Y-110629561D01*
X118562782Y-110629561D02*
X118562782Y-109772419D01*
X118038972Y-110772419D02*
X118038972Y-110105752D01*
X118038972Y-110200990D02*
X117991353Y-110153371D01*
X117991353Y-110153371D02*
X117896115Y-110105752D01*
X117896115Y-110105752D02*
X117753258Y-110105752D01*
X117753258Y-110105752D02*
X117658020Y-110153371D01*
X117658020Y-110153371D02*
X117610401Y-110248609D01*
X117610401Y-110248609D02*
X117610401Y-110772419D01*
X117610401Y-110248609D02*
X117562782Y-110153371D01*
X117562782Y-110153371D02*
X117467544Y-110105752D01*
X117467544Y-110105752D02*
X117324687Y-110105752D01*
X117324687Y-110105752D02*
X117229448Y-110153371D01*
X117229448Y-110153371D02*
X117181829Y-110248609D01*
X117181829Y-110248609D02*
X117181829Y-110772419D01*
X115943734Y-110772419D02*
X115943734Y-109772419D01*
X115943734Y-109772419D02*
X115562782Y-109772419D01*
X115562782Y-109772419D02*
X115467544Y-109820038D01*
X115467544Y-109820038D02*
X115419925Y-109867657D01*
X115419925Y-109867657D02*
X115372306Y-109962895D01*
X115372306Y-109962895D02*
X115372306Y-110105752D01*
X115372306Y-110105752D02*
X115419925Y-110200990D01*
X115419925Y-110200990D02*
X115467544Y-110248609D01*
X115467544Y-110248609D02*
X115562782Y-110296228D01*
X115562782Y-110296228D02*
X115943734Y-110296228D01*
X114800877Y-110772419D02*
X114896115Y-110724800D01*
X114896115Y-110724800D02*
X114943734Y-110629561D01*
X114943734Y-110629561D02*
X114943734Y-109772419D01*
X113991353Y-110772419D02*
X113991353Y-110248609D01*
X113991353Y-110248609D02*
X114038972Y-110153371D01*
X114038972Y-110153371D02*
X114134210Y-110105752D01*
X114134210Y-110105752D02*
X114324686Y-110105752D01*
X114324686Y-110105752D02*
X114419924Y-110153371D01*
X113991353Y-110724800D02*
X114086591Y-110772419D01*
X114086591Y-110772419D02*
X114324686Y-110772419D01*
X114324686Y-110772419D02*
X114419924Y-110724800D01*
X114419924Y-110724800D02*
X114467543Y-110629561D01*
X114467543Y-110629561D02*
X114467543Y-110534323D01*
X114467543Y-110534323D02*
X114419924Y-110439085D01*
X114419924Y-110439085D02*
X114324686Y-110391466D01*
X114324686Y-110391466D02*
X114086591Y-110391466D01*
X114086591Y-110391466D02*
X113991353Y-110343847D01*
X113515162Y-110105752D02*
X113515162Y-110772419D01*
X113515162Y-110200990D02*
X113467543Y-110153371D01*
X113467543Y-110153371D02*
X113372305Y-110105752D01*
X113372305Y-110105752D02*
X113229448Y-110105752D01*
X113229448Y-110105752D02*
X113134210Y-110153371D01*
X113134210Y-110153371D02*
X113086591Y-110248609D01*
X113086591Y-110248609D02*
X113086591Y-110772419D01*
X112229448Y-110724800D02*
X112324686Y-110772419D01*
X112324686Y-110772419D02*
X112515162Y-110772419D01*
X112515162Y-110772419D02*
X112610400Y-110724800D01*
X112610400Y-110724800D02*
X112658019Y-110629561D01*
X112658019Y-110629561D02*
X112658019Y-110248609D01*
X112658019Y-110248609D02*
X112610400Y-110153371D01*
X112610400Y-110153371D02*
X112515162Y-110105752D01*
X112515162Y-110105752D02*
X112324686Y-110105752D01*
X112324686Y-110105752D02*
X112229448Y-110153371D01*
X112229448Y-110153371D02*
X112181829Y-110248609D01*
X112181829Y-110248609D02*
X112181829Y-110343847D01*
X112181829Y-110343847D02*
X112658019Y-110439085D01*
D11*
X114514484Y-123257143D02*
X114585912Y-123471429D01*
X114585912Y-123471429D02*
X114585912Y-123828571D01*
X114585912Y-123828571D02*
X114514484Y-123971429D01*
X114514484Y-123971429D02*
X114443055Y-124042857D01*
X114443055Y-124042857D02*
X114300198Y-124114286D01*
X114300198Y-124114286D02*
X114157341Y-124114286D01*
X114157341Y-124114286D02*
X114014484Y-124042857D01*
X114014484Y-124042857D02*
X113943055Y-123971429D01*
X113943055Y-123971429D02*
X113871626Y-123828571D01*
X113871626Y-123828571D02*
X113800198Y-123542857D01*
X113800198Y-123542857D02*
X113728769Y-123400000D01*
X113728769Y-123400000D02*
X113657341Y-123328571D01*
X113657341Y-123328571D02*
X113514484Y-123257143D01*
X113514484Y-123257143D02*
X113371626Y-123257143D01*
X113371626Y-123257143D02*
X113228769Y-123328571D01*
X113228769Y-123328571D02*
X113157341Y-123400000D01*
X113157341Y-123400000D02*
X113085912Y-123542857D01*
X113085912Y-123542857D02*
X113085912Y-123900000D01*
X113085912Y-123900000D02*
X113157341Y-124114286D01*
X114014484Y-124757142D02*
X114014484Y-125900000D01*
X114514484Y-126542857D02*
X114585912Y-126757143D01*
X114585912Y-126757143D02*
X114585912Y-127114285D01*
X114585912Y-127114285D02*
X114514484Y-127257143D01*
X114514484Y-127257143D02*
X114443055Y-127328571D01*
X114443055Y-127328571D02*
X114300198Y-127400000D01*
X114300198Y-127400000D02*
X114157341Y-127400000D01*
X114157341Y-127400000D02*
X114014484Y-127328571D01*
X114014484Y-127328571D02*
X113943055Y-127257143D01*
X113943055Y-127257143D02*
X113871626Y-127114285D01*
X113871626Y-127114285D02*
X113800198Y-126828571D01*
X113800198Y-126828571D02*
X113728769Y-126685714D01*
X113728769Y-126685714D02*
X113657341Y-126614285D01*
X113657341Y-126614285D02*
X113514484Y-126542857D01*
X113514484Y-126542857D02*
X113371626Y-126542857D01*
X113371626Y-126542857D02*
X113228769Y-126614285D01*
X113228769Y-126614285D02*
X113157341Y-126685714D01*
X113157341Y-126685714D02*
X113085912Y-126828571D01*
X113085912Y-126828571D02*
X113085912Y-127185714D01*
X113085912Y-127185714D02*
X113157341Y-127400000D01*
X114514484Y-128614285D02*
X114585912Y-128471428D01*
X114585912Y-128471428D02*
X114585912Y-128185714D01*
X114585912Y-128185714D02*
X114514484Y-128042856D01*
X114514484Y-128042856D02*
X114371626Y-127971428D01*
X114371626Y-127971428D02*
X113800198Y-127971428D01*
X113800198Y-127971428D02*
X113657341Y-128042856D01*
X113657341Y-128042856D02*
X113585912Y-128185714D01*
X113585912Y-128185714D02*
X113585912Y-128471428D01*
X113585912Y-128471428D02*
X113657341Y-128614285D01*
X113657341Y-128614285D02*
X113800198Y-128685714D01*
X113800198Y-128685714D02*
X113943055Y-128685714D01*
X113943055Y-128685714D02*
X114085912Y-127971428D01*
X113585912Y-129328570D02*
X114585912Y-129328570D01*
X113728769Y-129328570D02*
X113657341Y-129399999D01*
X113657341Y-129399999D02*
X113585912Y-129542856D01*
X113585912Y-129542856D02*
X113585912Y-129757142D01*
X113585912Y-129757142D02*
X113657341Y-129899999D01*
X113657341Y-129899999D02*
X113800198Y-129971428D01*
X113800198Y-129971428D02*
X114585912Y-129971428D01*
X114514484Y-130614285D02*
X114585912Y-130757142D01*
X114585912Y-130757142D02*
X114585912Y-131042856D01*
X114585912Y-131042856D02*
X114514484Y-131185713D01*
X114514484Y-131185713D02*
X114371626Y-131257142D01*
X114371626Y-131257142D02*
X114300198Y-131257142D01*
X114300198Y-131257142D02*
X114157341Y-131185713D01*
X114157341Y-131185713D02*
X114085912Y-131042856D01*
X114085912Y-131042856D02*
X114085912Y-130828571D01*
X114085912Y-130828571D02*
X114014484Y-130685713D01*
X114014484Y-130685713D02*
X113871626Y-130614285D01*
X113871626Y-130614285D02*
X113800198Y-130614285D01*
X113800198Y-130614285D02*
X113657341Y-130685713D01*
X113657341Y-130685713D02*
X113585912Y-130828571D01*
X113585912Y-130828571D02*
X113585912Y-131042856D01*
X113585912Y-131042856D02*
X113657341Y-131185713D01*
X114585912Y-132114285D02*
X114514484Y-131971428D01*
X114514484Y-131971428D02*
X114443055Y-131899999D01*
X114443055Y-131899999D02*
X114300198Y-131828571D01*
X114300198Y-131828571D02*
X113871626Y-131828571D01*
X113871626Y-131828571D02*
X113728769Y-131899999D01*
X113728769Y-131899999D02*
X113657341Y-131971428D01*
X113657341Y-131971428D02*
X113585912Y-132114285D01*
X113585912Y-132114285D02*
X113585912Y-132328571D01*
X113585912Y-132328571D02*
X113657341Y-132471428D01*
X113657341Y-132471428D02*
X113728769Y-132542857D01*
X113728769Y-132542857D02*
X113871626Y-132614285D01*
X113871626Y-132614285D02*
X114300198Y-132614285D01*
X114300198Y-132614285D02*
X114443055Y-132542857D01*
X114443055Y-132542857D02*
X114514484Y-132471428D01*
X114514484Y-132471428D02*
X114585912Y-132328571D01*
X114585912Y-132328571D02*
X114585912Y-132114285D01*
X114585912Y-133257142D02*
X113585912Y-133257142D01*
X113871626Y-133257142D02*
X113728769Y-133328571D01*
X113728769Y-133328571D02*
X113657341Y-133400000D01*
X113657341Y-133400000D02*
X113585912Y-133542857D01*
X113585912Y-133542857D02*
X113585912Y-133685714D01*
X116000828Y-124578572D02*
X117000828Y-124935715D01*
X117000828Y-124935715D02*
X116000828Y-125292858D01*
X116929400Y-126435715D02*
X117000828Y-126292858D01*
X117000828Y-126292858D02*
X117000828Y-126007144D01*
X117000828Y-126007144D02*
X116929400Y-125864286D01*
X116929400Y-125864286D02*
X116786542Y-125792858D01*
X116786542Y-125792858D02*
X116215114Y-125792858D01*
X116215114Y-125792858D02*
X116072257Y-125864286D01*
X116072257Y-125864286D02*
X116000828Y-126007144D01*
X116000828Y-126007144D02*
X116000828Y-126292858D01*
X116000828Y-126292858D02*
X116072257Y-126435715D01*
X116072257Y-126435715D02*
X116215114Y-126507144D01*
X116215114Y-126507144D02*
X116357971Y-126507144D01*
X116357971Y-126507144D02*
X116500828Y-125792858D01*
X117000828Y-127150000D02*
X116000828Y-127150000D01*
X116286542Y-127150000D02*
X116143685Y-127221429D01*
X116143685Y-127221429D02*
X116072257Y-127292858D01*
X116072257Y-127292858D02*
X116000828Y-127435715D01*
X116000828Y-127435715D02*
X116000828Y-127578572D01*
X117000828Y-130007143D02*
X117000828Y-129150000D01*
X117000828Y-129578571D02*
X115500828Y-129578571D01*
X115500828Y-129578571D02*
X115715114Y-129435714D01*
X115715114Y-129435714D02*
X115857971Y-129292857D01*
X115857971Y-129292857D02*
X115929400Y-129150000D01*
X116857971Y-130649999D02*
X116929400Y-130721428D01*
X116929400Y-130721428D02*
X117000828Y-130649999D01*
X117000828Y-130649999D02*
X116929400Y-130578571D01*
X116929400Y-130578571D02*
X116857971Y-130649999D01*
X116857971Y-130649999D02*
X117000828Y-130649999D01*
X115500828Y-131650000D02*
X115500828Y-131792857D01*
X115500828Y-131792857D02*
X115572257Y-131935714D01*
X115572257Y-131935714D02*
X115643685Y-132007143D01*
X115643685Y-132007143D02*
X115786542Y-132078571D01*
X115786542Y-132078571D02*
X116072257Y-132150000D01*
X116072257Y-132150000D02*
X116429400Y-132150000D01*
X116429400Y-132150000D02*
X116715114Y-132078571D01*
X116715114Y-132078571D02*
X116857971Y-132007143D01*
X116857971Y-132007143D02*
X116929400Y-131935714D01*
X116929400Y-131935714D02*
X117000828Y-131792857D01*
X117000828Y-131792857D02*
X117000828Y-131650000D01*
X117000828Y-131650000D02*
X116929400Y-131507143D01*
X116929400Y-131507143D02*
X116857971Y-131435714D01*
X116857971Y-131435714D02*
X116715114Y-131364285D01*
X116715114Y-131364285D02*
X116429400Y-131292857D01*
X116429400Y-131292857D02*
X116072257Y-131292857D01*
X116072257Y-131292857D02*
X115786542Y-131364285D01*
X115786542Y-131364285D02*
X115643685Y-131435714D01*
X115643685Y-131435714D02*
X115572257Y-131507143D01*
X115572257Y-131507143D02*
X115500828Y-131650000D01*
D12*
X70410983Y-141209523D02*
X69077649Y-141209523D01*
X70410983Y-142066666D02*
X69363364Y-142066666D01*
X69363364Y-142066666D02*
X69172888Y-141971428D01*
X69172888Y-141971428D02*
X69077649Y-141780952D01*
X69077649Y-141780952D02*
X69077649Y-141495237D01*
X69077649Y-141495237D02*
X69172888Y-141304761D01*
X69172888Y-141304761D02*
X69268126Y-141209523D01*
X69268126Y-139114285D02*
X69172888Y-139209523D01*
X69172888Y-139209523D02*
X69077649Y-139495237D01*
X69077649Y-139495237D02*
X69077649Y-139685713D01*
X69077649Y-139685713D02*
X69172888Y-139971428D01*
X69172888Y-139971428D02*
X69363364Y-140161904D01*
X69363364Y-140161904D02*
X69553840Y-140257142D01*
X69553840Y-140257142D02*
X69934792Y-140352380D01*
X69934792Y-140352380D02*
X70220507Y-140352380D01*
X70220507Y-140352380D02*
X70601459Y-140257142D01*
X70601459Y-140257142D02*
X70791935Y-140161904D01*
X70791935Y-140161904D02*
X70982411Y-139971428D01*
X70982411Y-139971428D02*
X71077649Y-139685713D01*
X71077649Y-139685713D02*
X71077649Y-139495237D01*
X71077649Y-139495237D02*
X70982411Y-139209523D01*
X70982411Y-139209523D02*
X70887173Y-139114285D01*
X69077649Y-138257142D02*
X71077649Y-138257142D01*
X69077649Y-137399999D02*
X70125268Y-137399999D01*
X70125268Y-137399999D02*
X70315745Y-137495237D01*
X70315745Y-137495237D02*
X70410983Y-137685713D01*
X70410983Y-137685713D02*
X70410983Y-137971428D01*
X70410983Y-137971428D02*
X70315745Y-138161904D01*
X70315745Y-138161904D02*
X70220507Y-138257142D01*
X69077649Y-136447618D02*
X70410983Y-136447618D01*
X70030030Y-136447618D02*
X70220507Y-136352380D01*
X70220507Y-136352380D02*
X70315745Y-136257142D01*
X70315745Y-136257142D02*
X70410983Y-136066666D01*
X70410983Y-136066666D02*
X70410983Y-135876189D01*
X69077649Y-134923809D02*
X69172888Y-135114285D01*
X69172888Y-135114285D02*
X69268126Y-135209523D01*
X69268126Y-135209523D02*
X69458602Y-135304761D01*
X69458602Y-135304761D02*
X70030030Y-135304761D01*
X70030030Y-135304761D02*
X70220507Y-135209523D01*
X70220507Y-135209523D02*
X70315745Y-135114285D01*
X70315745Y-135114285D02*
X70410983Y-134923809D01*
X70410983Y-134923809D02*
X70410983Y-134638094D01*
X70410983Y-134638094D02*
X70315745Y-134447618D01*
X70315745Y-134447618D02*
X70220507Y-134352380D01*
X70220507Y-134352380D02*
X70030030Y-134257142D01*
X70030030Y-134257142D02*
X69458602Y-134257142D01*
X69458602Y-134257142D02*
X69268126Y-134352380D01*
X69268126Y-134352380D02*
X69172888Y-134447618D01*
X69172888Y-134447618D02*
X69077649Y-134638094D01*
X69077649Y-134638094D02*
X69077649Y-134923809D01*
X70410983Y-133399999D02*
X69077649Y-133399999D01*
X70220507Y-133399999D02*
X70315745Y-133304761D01*
X70315745Y-133304761D02*
X70410983Y-133114285D01*
X70410983Y-133114285D02*
X70410983Y-132828570D01*
X70410983Y-132828570D02*
X70315745Y-132638094D01*
X70315745Y-132638094D02*
X70125268Y-132542856D01*
X70125268Y-132542856D02*
X69077649Y-132542856D01*
X69077649Y-131304761D02*
X69172888Y-131495237D01*
X69172888Y-131495237D02*
X69268126Y-131590475D01*
X69268126Y-131590475D02*
X69458602Y-131685713D01*
X69458602Y-131685713D02*
X70030030Y-131685713D01*
X70030030Y-131685713D02*
X70220507Y-131590475D01*
X70220507Y-131590475D02*
X70315745Y-131495237D01*
X70315745Y-131495237D02*
X70410983Y-131304761D01*
X70410983Y-131304761D02*
X70410983Y-131019046D01*
X70410983Y-131019046D02*
X70315745Y-130828570D01*
X70315745Y-130828570D02*
X70220507Y-130733332D01*
X70220507Y-130733332D02*
X70030030Y-130638094D01*
X70030030Y-130638094D02*
X69458602Y-130638094D01*
X69458602Y-130638094D02*
X69268126Y-130733332D01*
X69268126Y-130733332D02*
X69172888Y-130828570D01*
X69172888Y-130828570D02*
X69077649Y-131019046D01*
X69077649Y-131019046D02*
X69077649Y-131304761D01*
X69172888Y-128352379D02*
X69077649Y-128066665D01*
X69077649Y-128066665D02*
X69077649Y-127590474D01*
X69077649Y-127590474D02*
X69172888Y-127399998D01*
X69172888Y-127399998D02*
X69268126Y-127304760D01*
X69268126Y-127304760D02*
X69458602Y-127209522D01*
X69458602Y-127209522D02*
X69649078Y-127209522D01*
X69649078Y-127209522D02*
X69839554Y-127304760D01*
X69839554Y-127304760D02*
X69934792Y-127399998D01*
X69934792Y-127399998D02*
X70030030Y-127590474D01*
X70030030Y-127590474D02*
X70125268Y-127971427D01*
X70125268Y-127971427D02*
X70220507Y-128161903D01*
X70220507Y-128161903D02*
X70315745Y-128257141D01*
X70315745Y-128257141D02*
X70506221Y-128352379D01*
X70506221Y-128352379D02*
X70696697Y-128352379D01*
X70696697Y-128352379D02*
X70887173Y-128257141D01*
X70887173Y-128257141D02*
X70982411Y-128161903D01*
X70982411Y-128161903D02*
X71077649Y-127971427D01*
X71077649Y-127971427D02*
X71077649Y-127495236D01*
X71077649Y-127495236D02*
X70982411Y-127209522D01*
X69839554Y-126352379D02*
X69839554Y-124828570D01*
X69077649Y-123876189D02*
X71077649Y-123876189D01*
X71077649Y-123876189D02*
X69649078Y-123209522D01*
X69649078Y-123209522D02*
X71077649Y-122542856D01*
X71077649Y-122542856D02*
X69077649Y-122542856D01*
X69172888Y-120828570D02*
X69077649Y-121019046D01*
X69077649Y-121019046D02*
X69077649Y-121399999D01*
X69077649Y-121399999D02*
X69172888Y-121590475D01*
X69172888Y-121590475D02*
X69363364Y-121685713D01*
X69363364Y-121685713D02*
X70125268Y-121685713D01*
X70125268Y-121685713D02*
X70315745Y-121590475D01*
X70315745Y-121590475D02*
X70410983Y-121399999D01*
X70410983Y-121399999D02*
X70410983Y-121019046D01*
X70410983Y-121019046D02*
X70315745Y-120828570D01*
X70315745Y-120828570D02*
X70125268Y-120733332D01*
X70125268Y-120733332D02*
X69934792Y-120733332D01*
X69934792Y-120733332D02*
X69744316Y-121685713D01*
X70410983Y-120161903D02*
X70410983Y-119399999D01*
X71077649Y-119876189D02*
X69363364Y-119876189D01*
X69363364Y-119876189D02*
X69172888Y-119780951D01*
X69172888Y-119780951D02*
X69077649Y-119590475D01*
X69077649Y-119590475D02*
X69077649Y-119399999D01*
X69172888Y-117971427D02*
X69077649Y-118161903D01*
X69077649Y-118161903D02*
X69077649Y-118542856D01*
X69077649Y-118542856D02*
X69172888Y-118733332D01*
X69172888Y-118733332D02*
X69363364Y-118828570D01*
X69363364Y-118828570D02*
X70125268Y-118828570D01*
X70125268Y-118828570D02*
X70315745Y-118733332D01*
X70315745Y-118733332D02*
X70410983Y-118542856D01*
X70410983Y-118542856D02*
X70410983Y-118161903D01*
X70410983Y-118161903D02*
X70315745Y-117971427D01*
X70315745Y-117971427D02*
X70125268Y-117876189D01*
X70125268Y-117876189D02*
X69934792Y-117876189D01*
X69934792Y-117876189D02*
X69744316Y-118828570D01*
X69077649Y-117019046D02*
X70410983Y-117019046D01*
X70030030Y-117019046D02*
X70220507Y-116923808D01*
X70220507Y-116923808D02*
X70315745Y-116828570D01*
X70315745Y-116828570D02*
X70410983Y-116638094D01*
X70410983Y-116638094D02*
X70410983Y-116447617D01*
X67191095Y-134495238D02*
X65857761Y-134019048D01*
X65857761Y-134019048D02*
X67191095Y-133542857D01*
X65953000Y-132019047D02*
X65857761Y-132209523D01*
X65857761Y-132209523D02*
X65857761Y-132590476D01*
X65857761Y-132590476D02*
X65953000Y-132780952D01*
X65953000Y-132780952D02*
X66143476Y-132876190D01*
X66143476Y-132876190D02*
X66905380Y-132876190D01*
X66905380Y-132876190D02*
X67095857Y-132780952D01*
X67095857Y-132780952D02*
X67191095Y-132590476D01*
X67191095Y-132590476D02*
X67191095Y-132209523D01*
X67191095Y-132209523D02*
X67095857Y-132019047D01*
X67095857Y-132019047D02*
X66905380Y-131923809D01*
X66905380Y-131923809D02*
X66714904Y-131923809D01*
X66714904Y-131923809D02*
X66524428Y-132876190D01*
X65857761Y-131066666D02*
X67191095Y-131066666D01*
X66810142Y-131066666D02*
X67000619Y-130971428D01*
X67000619Y-130971428D02*
X67095857Y-130876190D01*
X67095857Y-130876190D02*
X67191095Y-130685714D01*
X67191095Y-130685714D02*
X67191095Y-130495237D01*
X65857761Y-127257142D02*
X65857761Y-128399999D01*
X65857761Y-127828571D02*
X67857761Y-127828571D01*
X67857761Y-127828571D02*
X67572047Y-128019047D01*
X67572047Y-128019047D02*
X67381571Y-128209523D01*
X67381571Y-128209523D02*
X67286333Y-128399999D01*
X66048238Y-126399999D02*
X65953000Y-126304761D01*
X65953000Y-126304761D02*
X65857761Y-126399999D01*
X65857761Y-126399999D02*
X65953000Y-126495237D01*
X65953000Y-126495237D02*
X66048238Y-126399999D01*
X66048238Y-126399999D02*
X65857761Y-126399999D01*
X67857761Y-125066666D02*
X67857761Y-124876189D01*
X67857761Y-124876189D02*
X67762523Y-124685713D01*
X67762523Y-124685713D02*
X67667285Y-124590475D01*
X67667285Y-124590475D02*
X67476809Y-124495237D01*
X67476809Y-124495237D02*
X67095857Y-124399999D01*
X67095857Y-124399999D02*
X66619666Y-124399999D01*
X66619666Y-124399999D02*
X66238714Y-124495237D01*
X66238714Y-124495237D02*
X66048238Y-124590475D01*
X66048238Y-124590475D02*
X65953000Y-124685713D01*
X65953000Y-124685713D02*
X65857761Y-124876189D01*
X65857761Y-124876189D02*
X65857761Y-125066666D01*
X65857761Y-125066666D02*
X65953000Y-125257142D01*
X65953000Y-125257142D02*
X66048238Y-125352380D01*
X66048238Y-125352380D02*
X66238714Y-125447618D01*
X66238714Y-125447618D02*
X66619666Y-125542856D01*
X66619666Y-125542856D02*
X67095857Y-125542856D01*
X67095857Y-125542856D02*
X67476809Y-125447618D01*
X67476809Y-125447618D02*
X67667285Y-125352380D01*
X67667285Y-125352380D02*
X67762523Y-125257142D01*
X67762523Y-125257142D02*
X67857761Y-125066666D01*
D10*
X111900000Y-109500000D02*
X135900000Y-109500000D01*
X135900000Y-145500000D01*
X111900000Y-145500000D01*
X111900000Y-109500000D01*
D13*
X124778094Y-138954819D02*
X124778094Y-137954819D01*
X124778094Y-137954819D02*
X124539999Y-137954819D01*
X124539999Y-137954819D02*
X124397142Y-138002438D01*
X124397142Y-138002438D02*
X124301904Y-138097676D01*
X124301904Y-138097676D02*
X124254285Y-138192914D01*
X124254285Y-138192914D02*
X124206666Y-138383390D01*
X124206666Y-138383390D02*
X124206666Y-138526247D01*
X124206666Y-138526247D02*
X124254285Y-138716723D01*
X124254285Y-138716723D02*
X124301904Y-138811961D01*
X124301904Y-138811961D02*
X124397142Y-138907200D01*
X124397142Y-138907200D02*
X124539999Y-138954819D01*
X124539999Y-138954819D02*
X124778094Y-138954819D01*
X123825713Y-138050057D02*
X123778094Y-138002438D01*
X123778094Y-138002438D02*
X123682856Y-137954819D01*
X123682856Y-137954819D02*
X123444761Y-137954819D01*
X123444761Y-137954819D02*
X123349523Y-138002438D01*
X123349523Y-138002438D02*
X123301904Y-138050057D01*
X123301904Y-138050057D02*
X123254285Y-138145295D01*
X123254285Y-138145295D02*
X123254285Y-138240533D01*
X123254285Y-138240533D02*
X123301904Y-138383390D01*
X123301904Y-138383390D02*
X123873332Y-138954819D01*
X123873332Y-138954819D02*
X123254285Y-138954819D01*
X124838094Y-110854819D02*
X124838094Y-109854819D01*
X124838094Y-109854819D02*
X124599999Y-109854819D01*
X124599999Y-109854819D02*
X124457142Y-109902438D01*
X124457142Y-109902438D02*
X124361904Y-109997676D01*
X124361904Y-109997676D02*
X124314285Y-110092914D01*
X124314285Y-110092914D02*
X124266666Y-110283390D01*
X124266666Y-110283390D02*
X124266666Y-110426247D01*
X124266666Y-110426247D02*
X124314285Y-110616723D01*
X124314285Y-110616723D02*
X124361904Y-110711961D01*
X124361904Y-110711961D02*
X124457142Y-110807200D01*
X124457142Y-110807200D02*
X124599999Y-110854819D01*
X124599999Y-110854819D02*
X124838094Y-110854819D01*
X123933332Y-109854819D02*
X123314285Y-109854819D01*
X123314285Y-109854819D02*
X123647618Y-110235771D01*
X123647618Y-110235771D02*
X123504761Y-110235771D01*
X123504761Y-110235771D02*
X123409523Y-110283390D01*
X123409523Y-110283390D02*
X123361904Y-110331009D01*
X123361904Y-110331009D02*
X123314285Y-110426247D01*
X123314285Y-110426247D02*
X123314285Y-110664342D01*
X123314285Y-110664342D02*
X123361904Y-110759580D01*
X123361904Y-110759580D02*
X123409523Y-110807200D01*
X123409523Y-110807200D02*
X123504761Y-110854819D01*
X123504761Y-110854819D02*
X123790475Y-110854819D01*
X123790475Y-110854819D02*
X123885713Y-110807200D01*
X123885713Y-110807200D02*
X123933332Y-110759580D01*
X124778094Y-124754819D02*
X124778094Y-123754819D01*
X124778094Y-123754819D02*
X124539999Y-123754819D01*
X124539999Y-123754819D02*
X124397142Y-123802438D01*
X124397142Y-123802438D02*
X124301904Y-123897676D01*
X124301904Y-123897676D02*
X124254285Y-123992914D01*
X124254285Y-123992914D02*
X124206666Y-124183390D01*
X124206666Y-124183390D02*
X124206666Y-124326247D01*
X124206666Y-124326247D02*
X124254285Y-124516723D01*
X124254285Y-124516723D02*
X124301904Y-124611961D01*
X124301904Y-124611961D02*
X124397142Y-124707200D01*
X124397142Y-124707200D02*
X124539999Y-124754819D01*
X124539999Y-124754819D02*
X124778094Y-124754819D01*
X123349523Y-124088152D02*
X123349523Y-124754819D01*
X123587618Y-123707200D02*
X123825713Y-124421485D01*
X123825713Y-124421485D02*
X123206666Y-124421485D01*
X51033332Y-110327200D02*
X50890475Y-110374819D01*
X50890475Y-110374819D02*
X50652380Y-110374819D01*
X50652380Y-110374819D02*
X50557142Y-110327200D01*
X50557142Y-110327200D02*
X50509523Y-110279580D01*
X50509523Y-110279580D02*
X50461904Y-110184342D01*
X50461904Y-110184342D02*
X50461904Y-110089104D01*
X50461904Y-110089104D02*
X50509523Y-109993866D01*
X50509523Y-109993866D02*
X50557142Y-109946247D01*
X50557142Y-109946247D02*
X50652380Y-109898628D01*
X50652380Y-109898628D02*
X50842856Y-109851009D01*
X50842856Y-109851009D02*
X50938094Y-109803390D01*
X50938094Y-109803390D02*
X50985713Y-109755771D01*
X50985713Y-109755771D02*
X51033332Y-109660533D01*
X51033332Y-109660533D02*
X51033332Y-109565295D01*
X51033332Y-109565295D02*
X50985713Y-109470057D01*
X50985713Y-109470057D02*
X50938094Y-109422438D01*
X50938094Y-109422438D02*
X50842856Y-109374819D01*
X50842856Y-109374819D02*
X50604761Y-109374819D01*
X50604761Y-109374819D02*
X50461904Y-109422438D01*
X50128570Y-109374819D02*
X49890475Y-110374819D01*
X49890475Y-110374819D02*
X49699999Y-109660533D01*
X49699999Y-109660533D02*
X49509523Y-110374819D01*
X49509523Y-110374819D02*
X49271428Y-109374819D01*
X48985713Y-109374819D02*
X48366666Y-109374819D01*
X48366666Y-109374819D02*
X48699999Y-109755771D01*
X48699999Y-109755771D02*
X48557142Y-109755771D01*
X48557142Y-109755771D02*
X48461904Y-109803390D01*
X48461904Y-109803390D02*
X48414285Y-109851009D01*
X48414285Y-109851009D02*
X48366666Y-109946247D01*
X48366666Y-109946247D02*
X48366666Y-110184342D01*
X48366666Y-110184342D02*
X48414285Y-110279580D01*
X48414285Y-110279580D02*
X48461904Y-110327200D01*
X48461904Y-110327200D02*
X48557142Y-110374819D01*
X48557142Y-110374819D02*
X48842856Y-110374819D01*
X48842856Y-110374819D02*
X48938094Y-110327200D01*
X48938094Y-110327200D02*
X48985713Y-110279580D01*
X84654819Y-125866666D02*
X85369104Y-125866666D01*
X85369104Y-125866666D02*
X85511961Y-125819047D01*
X85511961Y-125819047D02*
X85607200Y-125723809D01*
X85607200Y-125723809D02*
X85654819Y-125580952D01*
X85654819Y-125580952D02*
X85654819Y-125485714D01*
X85654819Y-126866666D02*
X85654819Y-126295238D01*
X85654819Y-126580952D02*
X84654819Y-126580952D01*
X84654819Y-126580952D02*
X84797676Y-126485714D01*
X84797676Y-126485714D02*
X84892914Y-126390476D01*
X84892914Y-126390476D02*
X84940533Y-126295238D01*
D10*
X92913104Y-131498020D02*
X92113104Y-131231353D01*
X92113104Y-131231353D02*
X92913104Y-130964687D01*
X92189295Y-130240877D02*
X92151200Y-130278973D01*
X92151200Y-130278973D02*
X92113104Y-130393258D01*
X92113104Y-130393258D02*
X92113104Y-130469449D01*
X92113104Y-130469449D02*
X92151200Y-130583735D01*
X92151200Y-130583735D02*
X92227390Y-130659925D01*
X92227390Y-130659925D02*
X92303580Y-130698020D01*
X92303580Y-130698020D02*
X92455961Y-130736116D01*
X92455961Y-130736116D02*
X92570247Y-130736116D01*
X92570247Y-130736116D02*
X92722628Y-130698020D01*
X92722628Y-130698020D02*
X92798819Y-130659925D01*
X92798819Y-130659925D02*
X92875009Y-130583735D01*
X92875009Y-130583735D02*
X92913104Y-130469449D01*
X92913104Y-130469449D02*
X92913104Y-130393258D01*
X92913104Y-130393258D02*
X92875009Y-130278973D01*
X92875009Y-130278973D02*
X92836914Y-130240877D01*
X92189295Y-129440877D02*
X92151200Y-129478973D01*
X92151200Y-129478973D02*
X92113104Y-129593258D01*
X92113104Y-129593258D02*
X92113104Y-129669449D01*
X92113104Y-129669449D02*
X92151200Y-129783735D01*
X92151200Y-129783735D02*
X92227390Y-129859925D01*
X92227390Y-129859925D02*
X92303580Y-129898020D01*
X92303580Y-129898020D02*
X92455961Y-129936116D01*
X92455961Y-129936116D02*
X92570247Y-129936116D01*
X92570247Y-129936116D02*
X92722628Y-129898020D01*
X92722628Y-129898020D02*
X92798819Y-129859925D01*
X92798819Y-129859925D02*
X92875009Y-129783735D01*
X92875009Y-129783735D02*
X92913104Y-129669449D01*
X92913104Y-129669449D02*
X92913104Y-129593258D01*
X92913104Y-129593258D02*
X92875009Y-129478973D01*
X92875009Y-129478973D02*
X92836914Y-129440877D01*
X92875009Y-127964687D02*
X92913104Y-128040877D01*
X92913104Y-128040877D02*
X92913104Y-128155163D01*
X92913104Y-128155163D02*
X92875009Y-128269449D01*
X92875009Y-128269449D02*
X92798819Y-128345639D01*
X92798819Y-128345639D02*
X92722628Y-128383734D01*
X92722628Y-128383734D02*
X92570247Y-128421830D01*
X92570247Y-128421830D02*
X92455961Y-128421830D01*
X92455961Y-128421830D02*
X92303580Y-128383734D01*
X92303580Y-128383734D02*
X92227390Y-128345639D01*
X92227390Y-128345639D02*
X92151200Y-128269449D01*
X92151200Y-128269449D02*
X92113104Y-128155163D01*
X92113104Y-128155163D02*
X92113104Y-128078972D01*
X92113104Y-128078972D02*
X92151200Y-127964687D01*
X92151200Y-127964687D02*
X92189295Y-127926591D01*
X92189295Y-127926591D02*
X92455961Y-127926591D01*
X92455961Y-127926591D02*
X92455961Y-128078972D01*
X92113104Y-127583734D02*
X92913104Y-127583734D01*
X92913104Y-127583734D02*
X92113104Y-127126591D01*
X92113104Y-127126591D02*
X92913104Y-127126591D01*
X92113104Y-126745639D02*
X92913104Y-126745639D01*
X92913104Y-126745639D02*
X92913104Y-126555163D01*
X92913104Y-126555163D02*
X92875009Y-126440877D01*
X92875009Y-126440877D02*
X92798819Y-126364687D01*
X92798819Y-126364687D02*
X92722628Y-126326592D01*
X92722628Y-126326592D02*
X92570247Y-126288496D01*
X92570247Y-126288496D02*
X92455961Y-126288496D01*
X92455961Y-126288496D02*
X92303580Y-126326592D01*
X92303580Y-126326592D02*
X92227390Y-126364687D01*
X92227390Y-126364687D02*
X92151200Y-126440877D01*
X92151200Y-126440877D02*
X92113104Y-126555163D01*
X92113104Y-126555163D02*
X92113104Y-126745639D01*
X92151200Y-125421830D02*
X92113104Y-125307544D01*
X92113104Y-125307544D02*
X92113104Y-125117068D01*
X92113104Y-125117068D02*
X92151200Y-125040877D01*
X92151200Y-125040877D02*
X92189295Y-125002782D01*
X92189295Y-125002782D02*
X92265485Y-124964687D01*
X92265485Y-124964687D02*
X92341676Y-124964687D01*
X92341676Y-124964687D02*
X92417866Y-125002782D01*
X92417866Y-125002782D02*
X92455961Y-125040877D01*
X92455961Y-125040877D02*
X92494057Y-125117068D01*
X92494057Y-125117068D02*
X92532152Y-125269449D01*
X92532152Y-125269449D02*
X92570247Y-125345639D01*
X92570247Y-125345639D02*
X92608342Y-125383734D01*
X92608342Y-125383734D02*
X92684533Y-125421830D01*
X92684533Y-125421830D02*
X92760723Y-125421830D01*
X92760723Y-125421830D02*
X92836914Y-125383734D01*
X92836914Y-125383734D02*
X92875009Y-125345639D01*
X92875009Y-125345639D02*
X92913104Y-125269449D01*
X92913104Y-125269449D02*
X92913104Y-125078972D01*
X92913104Y-125078972D02*
X92875009Y-124964687D01*
X92189295Y-124164686D02*
X92151200Y-124202782D01*
X92151200Y-124202782D02*
X92113104Y-124317067D01*
X92113104Y-124317067D02*
X92113104Y-124393258D01*
X92113104Y-124393258D02*
X92151200Y-124507544D01*
X92151200Y-124507544D02*
X92227390Y-124583734D01*
X92227390Y-124583734D02*
X92303580Y-124621829D01*
X92303580Y-124621829D02*
X92455961Y-124659925D01*
X92455961Y-124659925D02*
X92570247Y-124659925D01*
X92570247Y-124659925D02*
X92722628Y-124621829D01*
X92722628Y-124621829D02*
X92798819Y-124583734D01*
X92798819Y-124583734D02*
X92875009Y-124507544D01*
X92875009Y-124507544D02*
X92913104Y-124393258D01*
X92913104Y-124393258D02*
X92913104Y-124317067D01*
X92913104Y-124317067D02*
X92875009Y-124202782D01*
X92875009Y-124202782D02*
X92836914Y-124164686D01*
X92113104Y-123440877D02*
X92113104Y-123821829D01*
X92113104Y-123821829D02*
X92913104Y-123821829D01*
X92151200Y-122421830D02*
X92113104Y-122307544D01*
X92113104Y-122307544D02*
X92113104Y-122117068D01*
X92113104Y-122117068D02*
X92151200Y-122040877D01*
X92151200Y-122040877D02*
X92189295Y-122002782D01*
X92189295Y-122002782D02*
X92265485Y-121964687D01*
X92265485Y-121964687D02*
X92341676Y-121964687D01*
X92341676Y-121964687D02*
X92417866Y-122002782D01*
X92417866Y-122002782D02*
X92455961Y-122040877D01*
X92455961Y-122040877D02*
X92494057Y-122117068D01*
X92494057Y-122117068D02*
X92532152Y-122269449D01*
X92532152Y-122269449D02*
X92570247Y-122345639D01*
X92570247Y-122345639D02*
X92608342Y-122383734D01*
X92608342Y-122383734D02*
X92684533Y-122421830D01*
X92684533Y-122421830D02*
X92760723Y-122421830D01*
X92760723Y-122421830D02*
X92836914Y-122383734D01*
X92836914Y-122383734D02*
X92875009Y-122345639D01*
X92875009Y-122345639D02*
X92913104Y-122269449D01*
X92913104Y-122269449D02*
X92913104Y-122078972D01*
X92913104Y-122078972D02*
X92875009Y-121964687D01*
X92113104Y-121621829D02*
X92913104Y-121621829D01*
X92913104Y-121621829D02*
X92913104Y-121431353D01*
X92913104Y-121431353D02*
X92875009Y-121317067D01*
X92875009Y-121317067D02*
X92798819Y-121240877D01*
X92798819Y-121240877D02*
X92722628Y-121202782D01*
X92722628Y-121202782D02*
X92570247Y-121164686D01*
X92570247Y-121164686D02*
X92455961Y-121164686D01*
X92455961Y-121164686D02*
X92303580Y-121202782D01*
X92303580Y-121202782D02*
X92227390Y-121240877D01*
X92227390Y-121240877D02*
X92151200Y-121317067D01*
X92151200Y-121317067D02*
X92113104Y-121431353D01*
X92113104Y-121431353D02*
X92113104Y-121621829D01*
X92341676Y-120859925D02*
X92341676Y-120478972D01*
X92113104Y-120936115D02*
X92913104Y-120669448D01*
X92913104Y-120669448D02*
X92113104Y-120402782D01*
D13*
X84666666Y-139859580D02*
X84714285Y-139907200D01*
X84714285Y-139907200D02*
X84857142Y-139954819D01*
X84857142Y-139954819D02*
X84952380Y-139954819D01*
X84952380Y-139954819D02*
X85095237Y-139907200D01*
X85095237Y-139907200D02*
X85190475Y-139811961D01*
X85190475Y-139811961D02*
X85238094Y-139716723D01*
X85238094Y-139716723D02*
X85285713Y-139526247D01*
X85285713Y-139526247D02*
X85285713Y-139383390D01*
X85285713Y-139383390D02*
X85238094Y-139192914D01*
X85238094Y-139192914D02*
X85190475Y-139097676D01*
X85190475Y-139097676D02*
X85095237Y-139002438D01*
X85095237Y-139002438D02*
X84952380Y-138954819D01*
X84952380Y-138954819D02*
X84857142Y-138954819D01*
X84857142Y-138954819D02*
X84714285Y-139002438D01*
X84714285Y-139002438D02*
X84666666Y-139050057D01*
X84333332Y-138954819D02*
X83714285Y-138954819D01*
X83714285Y-138954819D02*
X84047618Y-139335771D01*
X84047618Y-139335771D02*
X83904761Y-139335771D01*
X83904761Y-139335771D02*
X83809523Y-139383390D01*
X83809523Y-139383390D02*
X83761904Y-139431009D01*
X83761904Y-139431009D02*
X83714285Y-139526247D01*
X83714285Y-139526247D02*
X83714285Y-139764342D01*
X83714285Y-139764342D02*
X83761904Y-139859580D01*
X83761904Y-139859580D02*
X83809523Y-139907200D01*
X83809523Y-139907200D02*
X83904761Y-139954819D01*
X83904761Y-139954819D02*
X84190475Y-139954819D01*
X84190475Y-139954819D02*
X84285713Y-139907200D01*
X84285713Y-139907200D02*
X84333332Y-139859580D01*
X51033332Y-136427200D02*
X50890475Y-136474819D01*
X50890475Y-136474819D02*
X50652380Y-136474819D01*
X50652380Y-136474819D02*
X50557142Y-136427200D01*
X50557142Y-136427200D02*
X50509523Y-136379580D01*
X50509523Y-136379580D02*
X50461904Y-136284342D01*
X50461904Y-136284342D02*
X50461904Y-136189104D01*
X50461904Y-136189104D02*
X50509523Y-136093866D01*
X50509523Y-136093866D02*
X50557142Y-136046247D01*
X50557142Y-136046247D02*
X50652380Y-135998628D01*
X50652380Y-135998628D02*
X50842856Y-135951009D01*
X50842856Y-135951009D02*
X50938094Y-135903390D01*
X50938094Y-135903390D02*
X50985713Y-135855771D01*
X50985713Y-135855771D02*
X51033332Y-135760533D01*
X51033332Y-135760533D02*
X51033332Y-135665295D01*
X51033332Y-135665295D02*
X50985713Y-135570057D01*
X50985713Y-135570057D02*
X50938094Y-135522438D01*
X50938094Y-135522438D02*
X50842856Y-135474819D01*
X50842856Y-135474819D02*
X50604761Y-135474819D01*
X50604761Y-135474819D02*
X50461904Y-135522438D01*
X50128570Y-135474819D02*
X49890475Y-136474819D01*
X49890475Y-136474819D02*
X49699999Y-135760533D01*
X49699999Y-135760533D02*
X49509523Y-136474819D01*
X49509523Y-136474819D02*
X49271428Y-135474819D01*
X48366666Y-136474819D02*
X48938094Y-136474819D01*
X48652380Y-136474819D02*
X48652380Y-135474819D01*
X48652380Y-135474819D02*
X48747618Y-135617676D01*
X48747618Y-135617676D02*
X48842856Y-135712914D01*
X48842856Y-135712914D02*
X48938094Y-135760533D01*
X84666666Y-141659580D02*
X84714285Y-141707200D01*
X84714285Y-141707200D02*
X84857142Y-141754819D01*
X84857142Y-141754819D02*
X84952380Y-141754819D01*
X84952380Y-141754819D02*
X85095237Y-141707200D01*
X85095237Y-141707200D02*
X85190475Y-141611961D01*
X85190475Y-141611961D02*
X85238094Y-141516723D01*
X85238094Y-141516723D02*
X85285713Y-141326247D01*
X85285713Y-141326247D02*
X85285713Y-141183390D01*
X85285713Y-141183390D02*
X85238094Y-140992914D01*
X85238094Y-140992914D02*
X85190475Y-140897676D01*
X85190475Y-140897676D02*
X85095237Y-140802438D01*
X85095237Y-140802438D02*
X84952380Y-140754819D01*
X84952380Y-140754819D02*
X84857142Y-140754819D01*
X84857142Y-140754819D02*
X84714285Y-140802438D01*
X84714285Y-140802438D02*
X84666666Y-140850057D01*
X83714285Y-141754819D02*
X84285713Y-141754819D01*
X83999999Y-141754819D02*
X83999999Y-140754819D01*
X83999999Y-140754819D02*
X84095237Y-140897676D01*
X84095237Y-140897676D02*
X84190475Y-140992914D01*
X84190475Y-140992914D02*
X84285713Y-141040533D01*
X51033332Y-123327200D02*
X50890475Y-123374819D01*
X50890475Y-123374819D02*
X50652380Y-123374819D01*
X50652380Y-123374819D02*
X50557142Y-123327200D01*
X50557142Y-123327200D02*
X50509523Y-123279580D01*
X50509523Y-123279580D02*
X50461904Y-123184342D01*
X50461904Y-123184342D02*
X50461904Y-123089104D01*
X50461904Y-123089104D02*
X50509523Y-122993866D01*
X50509523Y-122993866D02*
X50557142Y-122946247D01*
X50557142Y-122946247D02*
X50652380Y-122898628D01*
X50652380Y-122898628D02*
X50842856Y-122851009D01*
X50842856Y-122851009D02*
X50938094Y-122803390D01*
X50938094Y-122803390D02*
X50985713Y-122755771D01*
X50985713Y-122755771D02*
X51033332Y-122660533D01*
X51033332Y-122660533D02*
X51033332Y-122565295D01*
X51033332Y-122565295D02*
X50985713Y-122470057D01*
X50985713Y-122470057D02*
X50938094Y-122422438D01*
X50938094Y-122422438D02*
X50842856Y-122374819D01*
X50842856Y-122374819D02*
X50604761Y-122374819D01*
X50604761Y-122374819D02*
X50461904Y-122422438D01*
X50128570Y-122374819D02*
X49890475Y-123374819D01*
X49890475Y-123374819D02*
X49699999Y-122660533D01*
X49699999Y-122660533D02*
X49509523Y-123374819D01*
X49509523Y-123374819D02*
X49271428Y-122374819D01*
X48938094Y-122470057D02*
X48890475Y-122422438D01*
X48890475Y-122422438D02*
X48795237Y-122374819D01*
X48795237Y-122374819D02*
X48557142Y-122374819D01*
X48557142Y-122374819D02*
X48461904Y-122422438D01*
X48461904Y-122422438D02*
X48414285Y-122470057D01*
X48414285Y-122470057D02*
X48366666Y-122565295D01*
X48366666Y-122565295D02*
X48366666Y-122660533D01*
X48366666Y-122660533D02*
X48414285Y-122803390D01*
X48414285Y-122803390D02*
X48985713Y-123374819D01*
X48985713Y-123374819D02*
X48366666Y-123374819D01*
X84766666Y-137859580D02*
X84814285Y-137907200D01*
X84814285Y-137907200D02*
X84957142Y-137954819D01*
X84957142Y-137954819D02*
X85052380Y-137954819D01*
X85052380Y-137954819D02*
X85195237Y-137907200D01*
X85195237Y-137907200D02*
X85290475Y-137811961D01*
X85290475Y-137811961D02*
X85338094Y-137716723D01*
X85338094Y-137716723D02*
X85385713Y-137526247D01*
X85385713Y-137526247D02*
X85385713Y-137383390D01*
X85385713Y-137383390D02*
X85338094Y-137192914D01*
X85338094Y-137192914D02*
X85290475Y-137097676D01*
X85290475Y-137097676D02*
X85195237Y-137002438D01*
X85195237Y-137002438D02*
X85052380Y-136954819D01*
X85052380Y-136954819D02*
X84957142Y-136954819D01*
X84957142Y-136954819D02*
X84814285Y-137002438D01*
X84814285Y-137002438D02*
X84766666Y-137050057D01*
X84385713Y-137050057D02*
X84338094Y-137002438D01*
X84338094Y-137002438D02*
X84242856Y-136954819D01*
X84242856Y-136954819D02*
X84004761Y-136954819D01*
X84004761Y-136954819D02*
X83909523Y-137002438D01*
X83909523Y-137002438D02*
X83861904Y-137050057D01*
X83861904Y-137050057D02*
X83814285Y-137145295D01*
X83814285Y-137145295D02*
X83814285Y-137240533D01*
X83814285Y-137240533D02*
X83861904Y-137383390D01*
X83861904Y-137383390D02*
X84433332Y-137954819D01*
X84433332Y-137954819D02*
X83814285Y-137954819D01*
D14*
%TO.C,D2*%
X121650000Y-139500000D02*
X126450000Y-139500000D01*
X121650000Y-140300000D02*
X121650000Y-139500000D01*
X121650000Y-143900000D02*
X121650000Y-143010000D01*
X126450000Y-139500000D02*
X126450000Y-140300000D01*
X126450000Y-143010000D02*
X126450000Y-143900000D01*
X126450000Y-143900000D02*
X121650000Y-143900000D01*
X126460000Y-140300000D02*
X127640000Y-140300000D01*
X127640000Y-143010000D02*
X126450000Y-143010000D01*
%TO.C,D3*%
X121600000Y-111100000D02*
X126400000Y-111100000D01*
X121600000Y-111900000D02*
X121600000Y-111100000D01*
X121600000Y-115500000D02*
X121600000Y-114610000D01*
X126400000Y-111100000D02*
X126400000Y-111900000D01*
X126400000Y-114610000D02*
X126400000Y-115500000D01*
X126400000Y-115500000D02*
X121600000Y-115500000D01*
X126410000Y-111900000D02*
X127590000Y-111900000D01*
X127590000Y-114610000D02*
X126400000Y-114610000D01*
%TO.C,D4*%
X121650000Y-125300000D02*
X126450000Y-125300000D01*
X121650000Y-126100000D02*
X121650000Y-125300000D01*
X121650000Y-129700000D02*
X121650000Y-128810000D01*
X126450000Y-125300000D02*
X126450000Y-126100000D01*
X126450000Y-128810000D02*
X126450000Y-129700000D01*
X126450000Y-129700000D02*
X121650000Y-129700000D01*
X126460000Y-126100000D02*
X127640000Y-126100000D01*
X127640000Y-128810000D02*
X126450000Y-128810000D01*
%TO.C,SW3*%
X51510000Y-114935000D02*
X50303333Y-114935000D01*
X50303333Y-116205000D01*
X51510000Y-116205000D01*
X51510000Y-114935000D01*
G36*
X51510000Y-114935000D02*
G01*
X50303333Y-114935000D01*
X50303333Y-116205000D01*
X51510000Y-116205000D01*
X51510000Y-114935000D01*
G37*
X51510000Y-114935000D02*
X47890000Y-114935000D01*
X47890000Y-116205000D01*
X51510000Y-116205000D01*
X51510000Y-114935000D01*
X51510000Y-112395000D02*
X50303333Y-112395000D01*
X50303333Y-113665000D01*
X51510000Y-113665000D01*
X51510000Y-112395000D01*
G36*
X51510000Y-112395000D02*
G01*
X50303333Y-112395000D01*
X50303333Y-113665000D01*
X51510000Y-113665000D01*
X51510000Y-112395000D01*
G37*
X51510000Y-112395000D02*
X47890000Y-112395000D01*
X47890000Y-113665000D01*
X51510000Y-113665000D01*
X51510000Y-112395000D01*
X53350000Y-110680000D02*
X53350000Y-112063000D01*
X53350000Y-110680000D02*
X51967000Y-110680000D01*
X53110000Y-117680000D02*
X46290000Y-117680000D01*
X53110000Y-116370000D02*
X53110000Y-117680000D01*
X53110000Y-113830000D02*
X53110000Y-114770000D01*
X53110000Y-110920000D02*
X53110000Y-112230000D01*
X53110000Y-110920000D02*
X46290000Y-110920000D01*
X50303333Y-114935000D02*
X50303333Y-116205000D01*
X50303333Y-112395000D02*
X50303333Y-113665000D01*
X46290000Y-116370000D02*
X46290000Y-117680000D01*
X46290000Y-113830000D02*
X46290000Y-114770000D01*
X46290000Y-110920000D02*
X46290000Y-112230000D01*
%TO.C,J1*%
D10*
X97010000Y-145140000D02*
X63010000Y-145140000D01*
X63010000Y-109140000D01*
X97010000Y-109140000D01*
X97010000Y-145140000D01*
D14*
X96010000Y-131570000D02*
X93390000Y-131570000D01*
X93390000Y-121250000D01*
X96010000Y-121250000D01*
X96010000Y-131570000D01*
X96010000Y-128950000D02*
X93390000Y-128950000D01*
%TO.C,C3*%
X87465580Y-138890000D02*
X87184420Y-138890000D01*
X87465580Y-139910000D02*
X87184420Y-139910000D01*
%TO.C,SW1*%
X46290000Y-137020000D02*
X46290000Y-138330000D01*
X46290000Y-139930000D02*
X46290000Y-140870000D01*
X46290000Y-142470000D02*
X46290000Y-143780000D01*
X50303333Y-138495000D02*
X50303333Y-139765000D01*
X50303333Y-141035000D02*
X50303333Y-142305000D01*
X53110000Y-137020000D02*
X46290000Y-137020000D01*
X53110000Y-137020000D02*
X53110000Y-138330000D01*
X53110000Y-139930000D02*
X53110000Y-140870000D01*
X53110000Y-142470000D02*
X53110000Y-143780000D01*
X53110000Y-143780000D02*
X46290000Y-143780000D01*
X53350000Y-136780000D02*
X51967000Y-136780000D01*
X53350000Y-136780000D02*
X53350000Y-138163000D01*
X51510000Y-138495000D02*
X47890000Y-138495000D01*
X47890000Y-139765000D01*
X51510000Y-139765000D01*
X51510000Y-138495000D01*
X51510000Y-138495000D02*
X50303333Y-138495000D01*
X50303333Y-139765000D01*
X51510000Y-139765000D01*
X51510000Y-138495000D01*
G36*
X51510000Y-138495000D02*
G01*
X50303333Y-138495000D01*
X50303333Y-139765000D01*
X51510000Y-139765000D01*
X51510000Y-138495000D01*
G37*
X51510000Y-141035000D02*
X47890000Y-141035000D01*
X47890000Y-142305000D01*
X51510000Y-142305000D01*
X51510000Y-141035000D01*
X51510000Y-141035000D02*
X50303333Y-141035000D01*
X50303333Y-142305000D01*
X51510000Y-142305000D01*
X51510000Y-141035000D01*
G36*
X51510000Y-141035000D02*
G01*
X50303333Y-141035000D01*
X50303333Y-142305000D01*
X51510000Y-142305000D01*
X51510000Y-141035000D01*
G37*
%TO.C,C1*%
X87465580Y-140790000D02*
X87184420Y-140790000D01*
X87465580Y-141810000D02*
X87184420Y-141810000D01*
%TO.C,SW2*%
X46290000Y-123920000D02*
X46290000Y-125230000D01*
X46290000Y-126830000D02*
X46290000Y-127770000D01*
X46290000Y-129370000D02*
X46290000Y-130680000D01*
X50303333Y-125395000D02*
X50303333Y-126665000D01*
X50303333Y-127935000D02*
X50303333Y-129205000D01*
X53110000Y-123920000D02*
X46290000Y-123920000D01*
X53110000Y-123920000D02*
X53110000Y-125230000D01*
X53110000Y-126830000D02*
X53110000Y-127770000D01*
X53110000Y-129370000D02*
X53110000Y-130680000D01*
X53110000Y-130680000D02*
X46290000Y-130680000D01*
X53350000Y-123680000D02*
X51967000Y-123680000D01*
X53350000Y-123680000D02*
X53350000Y-125063000D01*
X51510000Y-125395000D02*
X47890000Y-125395000D01*
X47890000Y-126665000D01*
X51510000Y-126665000D01*
X51510000Y-125395000D01*
X51510000Y-125395000D02*
X50303333Y-125395000D01*
X50303333Y-126665000D01*
X51510000Y-126665000D01*
X51510000Y-125395000D01*
G36*
X51510000Y-125395000D02*
G01*
X50303333Y-125395000D01*
X50303333Y-126665000D01*
X51510000Y-126665000D01*
X51510000Y-125395000D01*
G37*
X51510000Y-127935000D02*
X47890000Y-127935000D01*
X47890000Y-129205000D01*
X51510000Y-129205000D01*
X51510000Y-127935000D01*
X51510000Y-127935000D02*
X50303333Y-127935000D01*
X50303333Y-129205000D01*
X51510000Y-129205000D01*
X51510000Y-127935000D01*
G36*
X51510000Y-127935000D02*
G01*
X50303333Y-127935000D01*
X50303333Y-129205000D01*
X51510000Y-129205000D01*
X51510000Y-127935000D01*
G37*
%TO.C,C2*%
X87465580Y-136990000D02*
X87184420Y-136990000D01*
X87465580Y-138010000D02*
X87184420Y-138010000D01*
%TD*%
M02*
