%TF.GenerationSoftware,KiCad,Pcbnew,9.0.7*%
%TF.CreationDate,2026-01-06T11:15:33-08:00*%
%TF.ProjectId,v1.2,76312e32-2e6b-4696-9361-645f70636258,rev?*%
%TF.SameCoordinates,Original*%
%TF.FileFunction,Copper,L2,Bot*%
%TF.FilePolarity,Positive*%
%FSLAX46Y46*%
G04 Gerber Fmt 4.6, Leading zero omitted, Abs format (unit mm)*
G04 Created by KiCad (PCBNEW 9.0.7) date 2026-01-06 11:15:33*
%MOMM*%
%LPD*%
G01*
G04 APERTURE LIST*
G04 Aperture macros list*
%AMRoundRect*
0 Rectangle with rounded corners*
0 $1 Rounding radius*
0 $2 $3 $4 $5 $6 $7 $8 $9 X,Y pos of 4 corners*
0 Add a 4 corners polygon primitive as box body*
4,1,4,$2,$3,$4,$5,$6,$7,$8,$9,$2,$3,0*
0 Add four circle primitives for the rounded corners*
1,1,$1+$1,$2,$3*
1,1,$1+$1,$4,$5*
1,1,$1+$1,$6,$7*
1,1,$1+$1,$8,$9*
0 Add four rect primitives between the rounded corners*
20,1,$1+$1,$2,$3,$4,$5,0*
20,1,$1+$1,$4,$5,$6,$7,0*
20,1,$1+$1,$6,$7,$8,$9,0*
20,1,$1+$1,$8,$9,$2,$3,0*%
G04 Aperture macros list end*
%TA.AperFunction,SMDPad,CuDef*%
%ADD10RoundRect,0.175000X-0.525000X-0.825000X0.525000X-0.825000X0.525000X0.825000X-0.525000X0.825000X0*%
%TD*%
%TA.AperFunction,SMDPad,CuDef*%
%ADD11RoundRect,0.150000X-0.550000X-0.450000X0.550000X-0.450000X0.550000X0.450000X-0.550000X0.450000X0*%
%TD*%
%TA.AperFunction,SMDPad,CuDef*%
%ADD12RoundRect,0.250000X0.830000X0.310000X-0.830000X0.310000X-0.830000X-0.310000X0.830000X-0.310000X0*%
%TD*%
%TA.AperFunction,ComponentPad*%
%ADD13C,1.600000*%
%TD*%
%TA.AperFunction,ComponentPad*%
%ADD14R,1.600000X1.600000*%
%TD*%
%TA.AperFunction,ComponentPad*%
%ADD15O,1.600000X1.600000*%
%TD*%
%TA.AperFunction,SMDPad,CuDef*%
%ADD16RoundRect,0.225000X0.225000X0.250000X-0.225000X0.250000X-0.225000X-0.250000X0.225000X-0.250000X0*%
%TD*%
%TA.AperFunction,ViaPad*%
%ADD17C,0.600000*%
%TD*%
%TA.AperFunction,ViaPad*%
%ADD18C,2.000000*%
%TD*%
%TA.AperFunction,Conductor*%
%ADD19C,0.200000*%
%TD*%
G04 APERTURE END LIST*
D10*
%TO.P,D2,1,K*%
%TO.N,Net-(D2-K)*%
X127100000Y-141700000D03*
D11*
%TO.P,D2,2,A*%
%TO.N,Net-(D2-A)*%
X121000000Y-141700000D03*
%TD*%
D10*
%TO.P,D3,1,K*%
%TO.N,Net-(D2-K)*%
X127050000Y-113300000D03*
D11*
%TO.P,D3,2,A*%
%TO.N,Net-(D3-A)*%
X120950000Y-113300000D03*
%TD*%
D10*
%TO.P,D4,1,K*%
%TO.N,Net-(D2-K)*%
X127100000Y-127500000D03*
D11*
%TO.P,D4,2,A*%
%TO.N,Net-(D4-A)*%
X121000000Y-127500000D03*
%TD*%
D12*
%TO.P,SW3,4,A*%
%TO.N,GND*%
X46335000Y-113030000D03*
%TO.P,SW3,3,K*%
X46335000Y-115570000D03*
%TO.P,SW3,2,2*%
%TO.N,Net-(A1-D7)*%
X53065000Y-115570000D03*
%TO.P,SW3,1,1*%
X53065000Y-113030000D03*
%TD*%
D13*
%TO.P,J1,4,SDA*%
%TO.N,Net-(A1-A4)*%
X94700000Y-122600000D03*
%TO.P,J1,3,SCK*%
%TO.N,Net-(A1-A5)*%
X94700000Y-125140000D03*
%TO.P,J1,2,GND*%
%TO.N,GND*%
X94700000Y-127680000D03*
D14*
%TO.P,J1,1,VCC*%
%TO.N,Net-(A1-+5V)*%
X94700000Y-130220000D03*
%TD*%
%TO.P,J4,1,Pin_1*%
%TO.N,Net-(A1-+5V)*%
X102400000Y-145300000D03*
D13*
%TO.P,J4,2,Pin_2*%
%TO.N,Net-(J4-Pin_2)*%
X102400000Y-142760000D03*
%TO.P,J4,3,Pin_3*%
%TO.N,Net-(J4-Pin_3)*%
X102400000Y-137680000D03*
%TO.P,J4,4,Pin_4*%
%TO.N,Net-(J4-Pin_4)*%
X102400000Y-140220000D03*
%TO.P,J4,5,Pin_5*%
%TO.N,GND*%
X102400000Y-135140000D03*
%TO.P,J4,6,Pin_6*%
%TO.N,Net-(A1-A6)*%
X102400000Y-132600000D03*
%TD*%
D14*
%TO.P,J3,1,Pin_1*%
%TO.N,Net-(D2-K)*%
X108600000Y-145400000D03*
D13*
%TO.P,J3,2,Pin_2*%
%TO.N,Net-(D2-A)*%
X108600000Y-142860000D03*
%TO.P,J3,3,Pin_3*%
%TO.N,Net-(D3-A)*%
X108600000Y-137780000D03*
%TO.P,J3,4,Pin_4*%
%TO.N,Net-(D4-A)*%
X108600000Y-140320000D03*
%TO.P,J3,5,Pin_5*%
%TO.N,Net-(J3-Pin_5)*%
X108600000Y-135240000D03*
%TO.P,J3,6,Pin_6*%
%TO.N,Net-(J3-Pin_6)*%
X108600000Y-132700000D03*
%TD*%
D14*
%TO.P,J2,1,Vin*%
%TO.N,Net-(A1-+5V)*%
X102400000Y-128300000D03*
D13*
%TO.P,J2,2,GND*%
%TO.N,GND*%
X102400000Y-125760000D03*
%TO.P,J2,3,3Vo*%
%TO.N,Net-(J2-3Vo)*%
X102400000Y-123220000D03*
%TO.P,J2,4,Int*%
%TO.N,Net-(J2-Int)*%
X102400000Y-120680000D03*
%TO.P,J2,5,SDA*%
%TO.N,Net-(A1-A4)*%
X102400000Y-118140000D03*
%TO.P,J2,6,SCL*%
%TO.N,Net-(A1-A5)*%
X102400000Y-115600000D03*
%TD*%
D14*
%TO.P,J5,1,Vin*%
%TO.N,unconnected-(J5-Vin-Pad1)*%
X108600000Y-128400000D03*
D13*
%TO.P,J5,2,GND*%
%TO.N,unconnected-(J5-GND-Pad2)*%
X108600000Y-125860000D03*
%TO.P,J5,3,3Vo*%
%TO.N,unconnected-(J5-3Vo-Pad3)*%
X108600000Y-123320000D03*
%TO.P,J5,4,Int*%
%TO.N,unconnected-(J5-Int-Pad4)*%
X108600000Y-120780000D03*
%TO.P,J5,5,SDA*%
%TO.N,unconnected-(J5-SDA-Pad5)*%
X108600000Y-118240000D03*
%TO.P,J5,6,SCL*%
%TO.N,unconnected-(J5-SCL-Pad6)*%
X108600000Y-115700000D03*
%TD*%
D14*
%TO.P,A1,1,D1/TX*%
%TO.N,unconnected-(A1-D1{slash}TX-Pad1)*%
X75840000Y-144660000D03*
D15*
%TO.P,A1,2,D0/RX*%
%TO.N,unconnected-(A1-D0{slash}RX-Pad2)*%
X75840000Y-142120000D03*
%TO.P,A1,3,~{RESET}*%
%TO.N,unconnected-(A1-~{RESET}-Pad3)*%
X75840000Y-139580000D03*
%TO.P,A1,4,GND*%
%TO.N,GND*%
X75840000Y-137040000D03*
%TO.P,A1,5,D2*%
%TO.N,Net-(A1-D2)*%
X75840000Y-134500000D03*
%TO.P,A1,6,D3*%
%TO.N,Net-(A1-D3)*%
X75840000Y-131960000D03*
%TO.P,A1,7,D4*%
%TO.N,Net-(A1-D4)*%
X75840000Y-129420000D03*
%TO.P,A1,8,D5*%
%TO.N,Net-(A1-D5)*%
X75840000Y-126880000D03*
%TO.P,A1,9,D6*%
%TO.N,Net-(A1-D6)*%
X75840000Y-124340000D03*
%TO.P,A1,10,D7*%
%TO.N,Net-(A1-D7)*%
X75840000Y-121800000D03*
%TO.P,A1,11,D8*%
%TO.N,Net-(A1-D8)*%
X75840000Y-119260000D03*
%TO.P,A1,12,D9*%
%TO.N,Net-(A1-D9)*%
X75840000Y-116720000D03*
%TO.P,A1,13,D10*%
%TO.N,unconnected-(A1-D10-Pad13)*%
X75840000Y-114180000D03*
%TO.P,A1,14,D11*%
%TO.N,unconnected-(A1-D11-Pad14)*%
X75840000Y-111640000D03*
%TO.P,A1,15,D12*%
%TO.N,unconnected-(A1-D12-Pad15)*%
X75840000Y-109100000D03*
%TO.P,A1,16,D13*%
%TO.N,unconnected-(A1-D13-Pad16)*%
X60600000Y-109100000D03*
%TO.P,A1,17,3V3*%
%TO.N,unconnected-(A1-3V3-Pad17)*%
X60600000Y-111640000D03*
%TO.P,A1,18,AREF*%
%TO.N,unconnected-(A1-AREF-Pad18)*%
X60600000Y-114180000D03*
%TO.P,A1,19,A0*%
%TO.N,unconnected-(A1-A0-Pad19)*%
X60600000Y-116720000D03*
%TO.P,A1,20,A1*%
%TO.N,unconnected-(A1-A1-Pad20)*%
X60600000Y-119260000D03*
%TO.P,A1,21,A2*%
%TO.N,unconnected-(A1-A2-Pad21)*%
X60600000Y-121800000D03*
%TO.P,A1,22,A3*%
%TO.N,unconnected-(A1-A3-Pad22)*%
X60600000Y-124340000D03*
%TO.P,A1,23,A4*%
%TO.N,Net-(A1-A4)*%
X60600000Y-126880000D03*
%TO.P,A1,24,A5*%
%TO.N,Net-(A1-A5)*%
X60600000Y-129420000D03*
%TO.P,A1,25,A6*%
%TO.N,Net-(A1-A6)*%
X60600000Y-131960000D03*
%TO.P,A1,26,A7*%
%TO.N,unconnected-(A1-A7-Pad26)*%
X60600000Y-134500000D03*
%TO.P,A1,27,+5V*%
%TO.N,Net-(A1-+5V)*%
X60600000Y-137040000D03*
%TO.P,A1,28,~{RESET}*%
%TO.N,unconnected-(A1-~{RESET}-Pad28)*%
X60600000Y-139580000D03*
%TO.P,A1,29,GND*%
%TO.N,GND*%
X60600000Y-142120000D03*
%TO.P,A1,30,VIN*%
%TO.N,unconnected-(A1-VIN-Pad30)*%
X60600000Y-144660000D03*
%TD*%
D16*
%TO.P,C3,1*%
%TO.N,Net-(J4-Pin_4)*%
X88100000Y-139400000D03*
%TO.P,C3,2*%
%TO.N,GND*%
X86550000Y-139400000D03*
%TD*%
D12*
%TO.P,SW1,1,1*%
%TO.N,Net-(A1-D5)*%
X53065000Y-139130000D03*
%TO.P,SW1,2,2*%
X53065000Y-141670000D03*
%TO.P,SW1,3,K*%
%TO.N,GND*%
X46335000Y-141670000D03*
%TO.P,SW1,4,A*%
X46335000Y-139130000D03*
%TD*%
D16*
%TO.P,C1,1*%
%TO.N,Net-(J4-Pin_2)*%
X88100000Y-141300000D03*
%TO.P,C1,2*%
%TO.N,GND*%
X86550000Y-141300000D03*
%TD*%
D12*
%TO.P,SW2,1,1*%
%TO.N,Net-(A1-D6)*%
X53065000Y-126030000D03*
%TO.P,SW2,2,2*%
X53065000Y-128570000D03*
%TO.P,SW2,3,K*%
%TO.N,GND*%
X46335000Y-128570000D03*
%TO.P,SW2,4,A*%
X46335000Y-126030000D03*
%TD*%
D16*
%TO.P,C2,1*%
%TO.N,Net-(J4-Pin_3)*%
X88100000Y-137500000D03*
%TO.P,C2,2*%
%TO.N,GND*%
X86550000Y-137500000D03*
%TD*%
D17*
%TO.N,Net-(D2-A)*%
X121000000Y-144800000D03*
D18*
%TO.N,*%
X64800000Y-143400000D03*
X65000000Y-111100000D03*
X107900000Y-148100000D03*
X137000000Y-148100000D03*
X137100000Y-106800000D03*
X107800000Y-106900000D03*
X103000000Y-107000000D03*
X102900000Y-148000000D03*
X42000000Y-148000000D03*
X42000000Y-107000000D03*
D17*
%TO.N,Net-(A1-D6)*%
X66600000Y-125500000D03*
%TO.N,GND*%
X92000000Y-142700000D03*
X93800000Y-136200000D03*
X98000000Y-112900000D03*
%TO.N,Net-(A1-A5)*%
X67600000Y-115500000D03*
X90900000Y-125600000D03*
X78450000Y-114350000D03*
%TO.N,Net-(A1-D7)*%
X63800000Y-118200000D03*
%TO.N,Net-(A1-D4)*%
X77900000Y-135400000D03*
%TO.N,Net-(A1-A4)*%
X67600000Y-112900000D03*
X57900000Y-114500000D03*
X57900000Y-126300000D03*
X79000000Y-123100000D03*
%TO.N,Net-(J4-Pin_3)*%
X89300000Y-137500000D03*
%TO.N,Net-(J4-Pin_4)*%
X89300000Y-138800000D03*
%TO.N,Net-(D2-K)*%
X129100000Y-140300000D03*
X129200000Y-126000000D03*
X129000000Y-112200000D03*
%TO.N,Net-(D3-A)*%
X121000000Y-116500000D03*
%TO.N,Net-(J4-Pin_2)*%
X89300000Y-140500000D03*
%TO.N,Net-(D4-A)*%
X121000000Y-131100000D03*
%TD*%
D19*
%TO.N,Net-(D2-K)*%
X108600000Y-145100000D02*
X108600000Y-145400000D01*
X111200000Y-143800000D02*
X109900000Y-143800000D01*
X109900000Y-143800000D02*
X108600000Y-145100000D01*
X122700000Y-147000000D02*
X114400000Y-147000000D01*
X114400000Y-147000000D02*
X111200000Y-143800000D01*
X123600000Y-127000000D02*
X123600000Y-146100000D01*
X127050000Y-123550000D02*
X123600000Y-127000000D01*
X127050000Y-113300000D02*
X127050000Y-123550000D01*
X123600000Y-146100000D02*
X122700000Y-147000000D01*
X113300000Y-147800000D02*
X110900000Y-145400000D01*
X123700000Y-147800000D02*
X113300000Y-147800000D01*
X125400000Y-146100000D02*
X123700000Y-147800000D01*
X125400000Y-139700000D02*
X125400000Y-146100000D01*
X110900000Y-145400000D02*
X108600000Y-145400000D01*
X127100000Y-127500000D02*
X127100000Y-138000000D01*
X127100000Y-138000000D02*
X125400000Y-139700000D01*
X127100000Y-146000000D02*
X127100000Y-141700000D01*
X124600000Y-148500000D02*
X127100000Y-146000000D01*
X108600000Y-145400000D02*
X111700000Y-148500000D01*
X111700000Y-148500000D02*
X124600000Y-148500000D01*
%TO.N,GND*%
X67860000Y-137040000D02*
X75840000Y-137040000D01*
X62780000Y-142120000D02*
X67860000Y-137040000D01*
X60600000Y-142120000D02*
X62780000Y-142120000D01*
%TO.N,Net-(A1-D6)*%
X53065000Y-128570000D02*
X53065000Y-126030000D01*
X56500000Y-125500000D02*
X55970000Y-126030000D01*
X66600000Y-125500000D02*
X56500000Y-125500000D01*
X55970000Y-126030000D02*
X53065000Y-126030000D01*
%TO.N,GND*%
X88910000Y-135140000D02*
X102400000Y-135140000D01*
X102600000Y-112900000D02*
X104200000Y-114500000D01*
X49765000Y-145100000D02*
X46335000Y-141670000D01*
X46335000Y-115570000D02*
X46335000Y-113030000D01*
X60620000Y-142120000D02*
X60900000Y-142400000D01*
X92000000Y-142700000D02*
X92000000Y-138000000D01*
X104200000Y-133340000D02*
X102400000Y-135140000D01*
X102400000Y-135140000D02*
X101840000Y-135140000D01*
X104200000Y-114500000D02*
X104200000Y-123960000D01*
X102400000Y-125760000D02*
X104200000Y-127560000D01*
X86550000Y-137500000D02*
X86550000Y-141300000D01*
X79540000Y-137040000D02*
X75840000Y-137040000D01*
X80000000Y-137500000D02*
X79540000Y-137040000D01*
X57620000Y-145100000D02*
X49765000Y-145100000D01*
X104200000Y-127560000D02*
X104200000Y-133340000D01*
X46335000Y-139130000D02*
X46335000Y-128570000D01*
X86550000Y-137500000D02*
X80000000Y-137500000D01*
X46335000Y-126030000D02*
X46335000Y-115570000D01*
X60600000Y-142120000D02*
X57620000Y-145100000D01*
X98000000Y-112900000D02*
X102600000Y-112900000D01*
X60600000Y-142120000D02*
X60620000Y-142120000D01*
X86550000Y-137500000D02*
X88910000Y-135140000D01*
X46335000Y-141670000D02*
X46335000Y-139130000D01*
X92000000Y-138000000D02*
X93800000Y-136200000D01*
X104200000Y-123960000D02*
X102400000Y-125760000D01*
X46335000Y-128570000D02*
X46335000Y-126030000D01*
%TO.N,Net-(A1-A5)*%
X94700000Y-125140000D02*
X94700000Y-125100000D01*
X99300000Y-115600000D02*
X102400000Y-115600000D01*
X77300000Y-115500000D02*
X67600000Y-115500000D01*
X74100000Y-125600000D02*
X70280000Y-129420000D01*
X93400000Y-123800000D02*
X93400000Y-121500000D01*
X94700000Y-125100000D02*
X93400000Y-123800000D01*
X78450000Y-114350000D02*
X77300000Y-115500000D01*
X90900000Y-125600000D02*
X74100000Y-125600000D01*
X70280000Y-129420000D02*
X60600000Y-129420000D01*
X93400000Y-121500000D02*
X99300000Y-115600000D01*
%TO.N,Net-(A1-D7)*%
X63800000Y-118200000D02*
X61170000Y-115570000D01*
X53065000Y-115570000D02*
X61170000Y-115570000D01*
X53065000Y-113030000D02*
X53065000Y-115570000D01*
%TO.N,Net-(A1-D4)*%
X77900000Y-131480000D02*
X75840000Y-129420000D01*
X77900000Y-135400000D02*
X77900000Y-131480000D01*
%TO.N,Net-(A1-A4)*%
X57900000Y-126300000D02*
X58480000Y-126880000D01*
X59500000Y-112900000D02*
X57900000Y-114500000D01*
X97940000Y-122600000D02*
X102400000Y-118140000D01*
X61220000Y-127500000D02*
X60600000Y-126880000D01*
X79000000Y-123100000D02*
X72500000Y-123100000D01*
X94700000Y-122600000D02*
X97940000Y-122600000D01*
X68100000Y-127500000D02*
X61220000Y-127500000D01*
X67600000Y-112900000D02*
X59500000Y-112900000D01*
X58480000Y-126880000D02*
X60600000Y-126880000D01*
X72500000Y-123100000D02*
X68100000Y-127500000D01*
%TO.N,Net-(A1-D5)*%
X53065000Y-141670000D02*
X53065000Y-139130000D01*
X53065000Y-131735000D02*
X54000000Y-130800000D01*
X54000000Y-130800000D02*
X71920000Y-130800000D01*
X53065000Y-139130000D02*
X53065000Y-131735000D01*
X71920000Y-130800000D02*
X75840000Y-126880000D01*
%TO.N,Net-(J4-Pin_3)*%
X89300000Y-137500000D02*
X88100000Y-137500000D01*
%TO.N,Net-(J4-Pin_4)*%
X89300000Y-138800000D02*
X88700000Y-138800000D01*
X88700000Y-138800000D02*
X88100000Y-139400000D01*
%TO.N,Net-(D2-K)*%
X128500000Y-140300000D02*
X129100000Y-140300000D01*
X127100000Y-141700000D02*
X128500000Y-140300000D01*
X127050000Y-127450000D02*
X127100000Y-127500000D01*
X128600000Y-126000000D02*
X129200000Y-126000000D01*
X127900000Y-113300000D02*
X129000000Y-112200000D01*
X127000000Y-113300000D02*
X127900000Y-113300000D01*
X127050000Y-113300000D02*
X127000000Y-113300000D01*
X127100000Y-127500000D02*
X128600000Y-126000000D01*
%TO.N,Net-(D2-A)*%
X110500000Y-141700000D02*
X121000000Y-141700000D01*
X108600000Y-142860000D02*
X109340000Y-142860000D01*
X109340000Y-142860000D02*
X110500000Y-141700000D01*
%TO.N,Net-(D3-A)*%
X112220000Y-137780000D02*
X117300000Y-132700000D01*
X108600000Y-137780000D02*
X112220000Y-137780000D01*
X117300000Y-132700000D02*
X117300000Y-115200000D01*
X120950000Y-116450000D02*
X120950000Y-113300000D01*
X119200000Y-113300000D02*
X120950000Y-113300000D01*
X121000000Y-116500000D02*
X120950000Y-116450000D01*
X117300000Y-115200000D02*
X119200000Y-113300000D01*
%TO.N,Net-(J4-Pin_2)*%
X89300000Y-140500000D02*
X89300000Y-140700000D01*
X88700000Y-141300000D02*
X88100000Y-141300000D01*
X89300000Y-140700000D02*
X88700000Y-141300000D01*
%TO.N,Net-(D4-A)*%
X121000000Y-131100000D02*
X121000000Y-127500000D01*
%TO.N,Net-(D2-A)*%
X121000000Y-144800000D02*
X121000000Y-141700000D01*
%TO.N,Net-(D4-A)*%
X112600000Y-139700000D02*
X119000000Y-133300000D01*
X108600000Y-140320000D02*
X109220000Y-139700000D01*
X109220000Y-139700000D02*
X112600000Y-139700000D01*
X119000000Y-128000000D02*
X119500000Y-127500000D01*
X119000000Y-133300000D02*
X119000000Y-128000000D01*
X119500000Y-127500000D02*
X121000000Y-127500000D01*
%TD*%
%TA.AperFunction,Conductor*%
%TO.N,Net-(J3-Pin_5)*%
G36*
X136045150Y-105520185D02*
G01*
X136090905Y-105572989D01*
X136100849Y-105642147D01*
X136071824Y-105705703D01*
X136065792Y-105712181D01*
X135955485Y-105822487D01*
X135955485Y-105822488D01*
X135955483Y-105822490D01*
X135895862Y-105904550D01*
X135816657Y-106013566D01*
X135709433Y-106224003D01*
X135636446Y-106448631D01*
X135599500Y-106681902D01*
X135599500Y-106918097D01*
X135636446Y-107151368D01*
X135709433Y-107375996D01*
X135816657Y-107586433D01*
X135955483Y-107777510D01*
X136122490Y-107944517D01*
X136313567Y-108083343D01*
X136412991Y-108134002D01*
X136524003Y-108190566D01*
X136524005Y-108190566D01*
X136524008Y-108190568D01*
X136644412Y-108229689D01*
X136748631Y-108263553D01*
X136981903Y-108300500D01*
X136981908Y-108300500D01*
X137218097Y-108300500D01*
X137451368Y-108263553D01*
X137675992Y-108190568D01*
X137886433Y-108083343D01*
X138077510Y-107944517D01*
X138244517Y-107777510D01*
X138275182Y-107735302D01*
X138330511Y-107692637D01*
X138400125Y-107686658D01*
X138461920Y-107719263D01*
X138496277Y-107780102D01*
X138499500Y-107808188D01*
X138499500Y-147229448D01*
X138479815Y-147296487D01*
X138427011Y-147342242D01*
X138357853Y-147352186D01*
X138294297Y-147323161D01*
X138275182Y-147302334D01*
X138255295Y-147274962D01*
X138144517Y-147122490D01*
X137977510Y-146955483D01*
X137786433Y-146816657D01*
X137575996Y-146709433D01*
X137351368Y-146636446D01*
X137118097Y-146599500D01*
X137118092Y-146599500D01*
X136881908Y-146599500D01*
X136881903Y-146599500D01*
X136648631Y-146636446D01*
X136424003Y-146709433D01*
X136213566Y-146816657D01*
X136140853Y-146869487D01*
X136022490Y-146955483D01*
X136022488Y-146955485D01*
X136022487Y-146955485D01*
X135855485Y-147122487D01*
X135855485Y-147122488D01*
X135855483Y-147122490D01*
X135799532Y-147199500D01*
X135716657Y-147313566D01*
X135609433Y-147524003D01*
X135536446Y-147748631D01*
X135499500Y-147981902D01*
X135499500Y-148218097D01*
X135536446Y-148451368D01*
X135609433Y-148675996D01*
X135700641Y-148855000D01*
X135716657Y-148886433D01*
X135855483Y-149077510D01*
X136022490Y-149244517D01*
X136064697Y-149275182D01*
X136107362Y-149330513D01*
X136113341Y-149400126D01*
X136080735Y-149461921D01*
X136019896Y-149496278D01*
X135991811Y-149499500D01*
X108908189Y-149499500D01*
X108841150Y-149479815D01*
X108795395Y-149427011D01*
X108785451Y-149357853D01*
X108814476Y-149294297D01*
X108835303Y-149275182D01*
X108877510Y-149244517D01*
X109044517Y-149077510D01*
X109183343Y-148886433D01*
X109290568Y-148675992D01*
X109363553Y-148451368D01*
X109400500Y-148218097D01*
X109400500Y-147981902D01*
X109363553Y-147748631D01*
X109329689Y-147644412D01*
X109290568Y-147524008D01*
X109290566Y-147524005D01*
X109290566Y-147524003D01*
X109203020Y-147352186D01*
X109183343Y-147313567D01*
X109044517Y-147122490D01*
X108877510Y-146955483D01*
X108835301Y-146924816D01*
X108792636Y-146869487D01*
X108786657Y-146799874D01*
X108819263Y-146738079D01*
X108880102Y-146703721D01*
X108908187Y-146700499D01*
X108999902Y-146700499D01*
X109066941Y-146720184D01*
X109087583Y-146736818D01*
X111215139Y-148864374D01*
X111215149Y-148864385D01*
X111219479Y-148868715D01*
X111219480Y-148868716D01*
X111331284Y-148980520D01*
X111418095Y-149030639D01*
X111418097Y-149030641D01*
X111456151Y-149052611D01*
X111468215Y-149059577D01*
X111620943Y-149100501D01*
X111620946Y-149100501D01*
X111786653Y-149100501D01*
X111786669Y-149100500D01*
X124513331Y-149100500D01*
X124513347Y-149100501D01*
X124520943Y-149100501D01*
X124679054Y-149100501D01*
X124679057Y-149100501D01*
X124831785Y-149059577D01*
X124881904Y-149030639D01*
X124968716Y-148980520D01*
X125080520Y-148868716D01*
X125080520Y-148868714D01*
X125090728Y-148858507D01*
X125090730Y-148858504D01*
X127458506Y-146490728D01*
X127458511Y-146490724D01*
X127468714Y-146480520D01*
X127468716Y-146480520D01*
X127580520Y-146368716D01*
X127650289Y-146247872D01*
X127659577Y-146231785D01*
X127700501Y-146079057D01*
X127700501Y-145920943D01*
X127700501Y-145913348D01*
X127700500Y-145913330D01*
X127700500Y-143300250D01*
X127720185Y-143233211D01*
X127772989Y-143187456D01*
X127787595Y-143181869D01*
X127904270Y-143145512D01*
X128044653Y-143060648D01*
X128160648Y-142944653D01*
X128245512Y-142804270D01*
X128294315Y-142647657D01*
X128300500Y-142579594D01*
X128300500Y-141400096D01*
X128320185Y-141333057D01*
X128336815Y-141312419D01*
X128604972Y-141044261D01*
X128666295Y-141010777D01*
X128735987Y-141015761D01*
X128740105Y-141017382D01*
X128805000Y-141044262D01*
X128866503Y-141069737D01*
X129009530Y-141098187D01*
X129021153Y-141100499D01*
X129021156Y-141100500D01*
X129021158Y-141100500D01*
X129178844Y-141100500D01*
X129178845Y-141100499D01*
X129333497Y-141069737D01*
X129475840Y-141010777D01*
X129479172Y-141009397D01*
X129479172Y-141009396D01*
X129479179Y-141009394D01*
X129610289Y-140921789D01*
X129721789Y-140810289D01*
X129809394Y-140679179D01*
X129869737Y-140533497D01*
X129900500Y-140378842D01*
X129900500Y-140221158D01*
X129900500Y-140221157D01*
X129900500Y-140221155D01*
X129900499Y-140221153D01*
X129892417Y-140180524D01*
X129869737Y-140066503D01*
X129866427Y-140058511D01*
X129809397Y-139920827D01*
X129809390Y-139920814D01*
X129721789Y-139789711D01*
X129721786Y-139789707D01*
X129610292Y-139678213D01*
X129610288Y-139678210D01*
X129479185Y-139590609D01*
X129479172Y-139590602D01*
X129333501Y-139530264D01*
X129333489Y-139530261D01*
X129178845Y-139499500D01*
X129178842Y-139499500D01*
X129021158Y-139499500D01*
X129021155Y-139499500D01*
X128866510Y-139530261D01*
X128866498Y-139530264D01*
X128720827Y-139590602D01*
X128720814Y-139590609D01*
X128589127Y-139678601D01*
X128522450Y-139699479D01*
X128520236Y-139699499D01*
X128420943Y-139699499D01*
X128313587Y-139728265D01*
X128268210Y-139740424D01*
X128268209Y-139740425D01*
X128218096Y-139769359D01*
X128218095Y-139769360D01*
X128201294Y-139779060D01*
X128131285Y-139819479D01*
X128131282Y-139819481D01*
X128019478Y-139931286D01*
X127786359Y-140164404D01*
X127725036Y-140197889D01*
X127687465Y-140200215D01*
X127684506Y-140199946D01*
X127679594Y-140199500D01*
X126520406Y-140199500D01*
X126452343Y-140205685D01*
X126452339Y-140205686D01*
X126452335Y-140205687D01*
X126295736Y-140254485D01*
X126295734Y-140254486D01*
X126295731Y-140254487D01*
X126295730Y-140254488D01*
X126248229Y-140283203D01*
X126188649Y-140319220D01*
X126181553Y-140321093D01*
X126176011Y-140325896D01*
X126148233Y-140329890D01*
X126121094Y-140337055D01*
X126114114Y-140334795D01*
X126106853Y-140335840D01*
X126081321Y-140324180D01*
X126054621Y-140315537D01*
X126049970Y-140309862D01*
X126043297Y-140306815D01*
X126028123Y-140283203D01*
X126010333Y-140261496D01*
X126008557Y-140252759D01*
X126005523Y-140248037D01*
X126000500Y-140213102D01*
X126000500Y-140000096D01*
X126020185Y-139933057D01*
X126036814Y-139912420D01*
X127458506Y-138490727D01*
X127458511Y-138490724D01*
X127468714Y-138480520D01*
X127468716Y-138480520D01*
X127580520Y-138368716D01*
X127632191Y-138279219D01*
X127659577Y-138231785D01*
X127700500Y-138079057D01*
X127700500Y-137920943D01*
X127700500Y-129100250D01*
X127720185Y-129033211D01*
X127772989Y-128987456D01*
X127787595Y-128981869D01*
X127904270Y-128945512D01*
X128044653Y-128860648D01*
X128160648Y-128744653D01*
X128245512Y-128604270D01*
X128294315Y-128447657D01*
X128300500Y-128379594D01*
X128300500Y-127200096D01*
X128320185Y-127133057D01*
X128336815Y-127112419D01*
X128704973Y-126744260D01*
X128766294Y-126710777D01*
X128835985Y-126715761D01*
X128840104Y-126717382D01*
X128966498Y-126769735D01*
X128966503Y-126769737D01*
X129066391Y-126789606D01*
X129121153Y-126800499D01*
X129121156Y-126800500D01*
X129121158Y-126800500D01*
X129278844Y-126800500D01*
X129278845Y-126800499D01*
X129433497Y-126769737D01*
X129579179Y-126709394D01*
X129710289Y-126621789D01*
X129821789Y-126510289D01*
X129909394Y-126379179D01*
X129969737Y-126233497D01*
X130000500Y-126078842D01*
X130000500Y-125921158D01*
X130000500Y-125921155D01*
X130000499Y-125921153D01*
X129969738Y-125766510D01*
X129969737Y-125766503D01*
X129913728Y-125631284D01*
X129909397Y-125620827D01*
X129909390Y-125620814D01*
X129821789Y-125489711D01*
X129821786Y-125489707D01*
X129710292Y-125378213D01*
X129710288Y-125378210D01*
X129579185Y-125290609D01*
X129579172Y-125290602D01*
X129433501Y-125230264D01*
X129433489Y-125230261D01*
X129278845Y-125199500D01*
X129278842Y-125199500D01*
X129121158Y-125199500D01*
X129121155Y-125199500D01*
X128966510Y-125230261D01*
X128966498Y-125230264D01*
X128820827Y-125290602D01*
X128820814Y-125290609D01*
X128689125Y-125378602D01*
X128622447Y-125399480D01*
X128620234Y-125399500D01*
X128520940Y-125399500D01*
X128480019Y-125410464D01*
X128480019Y-125410465D01*
X128442751Y-125420451D01*
X128368214Y-125440423D01*
X128368209Y-125440426D01*
X128231290Y-125519475D01*
X128231282Y-125519481D01*
X128119478Y-125631286D01*
X127786359Y-125964404D01*
X127725036Y-125997889D01*
X127687465Y-126000215D01*
X127684506Y-125999946D01*
X127679594Y-125999500D01*
X126520406Y-125999500D01*
X126452343Y-126005685D01*
X126452339Y-126005686D01*
X126452335Y-126005687D01*
X126295736Y-126054485D01*
X126295727Y-126054488D01*
X126155351Y-126139348D01*
X126155347Y-126139351D01*
X126039351Y-126255347D01*
X126039348Y-126255351D01*
X125954488Y-126395727D01*
X125954485Y-126395736D01*
X125905687Y-126552335D01*
X125905685Y-126552343D01*
X125899500Y-126620406D01*
X125899500Y-128379594D01*
X125905685Y-128447657D01*
X125905686Y-128447662D01*
X125905687Y-128447664D01*
X125954485Y-128604263D01*
X125954488Y-128604272D01*
X126039348Y-128744648D01*
X126039351Y-128744652D01*
X126155347Y-128860648D01*
X126155351Y-128860651D01*
X126295728Y-128945511D01*
X126295730Y-128945512D01*
X126412392Y-128981865D01*
X126470538Y-129020602D01*
X126498512Y-129084627D01*
X126499500Y-129100250D01*
X126499500Y-137699902D01*
X126479815Y-137766941D01*
X126463181Y-137787583D01*
X124919481Y-139331282D01*
X124919479Y-139331285D01*
X124869361Y-139418094D01*
X124869359Y-139418096D01*
X124840425Y-139468209D01*
X124840424Y-139468210D01*
X124839198Y-139472786D01*
X124799499Y-139620943D01*
X124799499Y-139620945D01*
X124799499Y-139789046D01*
X124799500Y-139789059D01*
X124799500Y-145799903D01*
X124779815Y-145866942D01*
X124763181Y-145887584D01*
X124412181Y-146238584D01*
X124350858Y-146272069D01*
X124281166Y-146267085D01*
X124225233Y-146225213D01*
X124200816Y-146159749D01*
X124200500Y-146150903D01*
X124200500Y-127300097D01*
X124220185Y-127233058D01*
X124236819Y-127212416D01*
X125828421Y-125620814D01*
X127530520Y-123918716D01*
X127609577Y-123781785D01*
X127650501Y-123629057D01*
X127650501Y-123470942D01*
X127650501Y-123463347D01*
X127650500Y-123463329D01*
X127650500Y-114900250D01*
X127670185Y-114833211D01*
X127722989Y-114787456D01*
X127737595Y-114781869D01*
X127854270Y-114745512D01*
X127897333Y-114719480D01*
X127994648Y-114660651D01*
X127994647Y-114660651D01*
X127994653Y-114660648D01*
X128110648Y-114544653D01*
X128195512Y-114404270D01*
X128244315Y-114247657D01*
X128250500Y-114179594D01*
X128250500Y-113850098D01*
X128259144Y-113820658D01*
X128265667Y-113790673D01*
X128269422Y-113785656D01*
X128270185Y-113783059D01*
X128286812Y-113762423D01*
X128380520Y-113668716D01*
X128380521Y-113668713D01*
X129014662Y-113034572D01*
X129075983Y-113001089D01*
X129078150Y-113000638D01*
X129136085Y-112989113D01*
X129233497Y-112969737D01*
X129379179Y-112909394D01*
X129510289Y-112821789D01*
X129621789Y-112710289D01*
X129709394Y-112579179D01*
X129769737Y-112433497D01*
X129800500Y-112278842D01*
X129800500Y-112121158D01*
X129800500Y-112121155D01*
X129800499Y-112121153D01*
X129787409Y-112055347D01*
X129769737Y-111966503D01*
X129758491Y-111939352D01*
X129709397Y-111820827D01*
X129709390Y-111820814D01*
X129621789Y-111689711D01*
X129621786Y-111689707D01*
X129510292Y-111578213D01*
X129510288Y-111578210D01*
X129379185Y-111490609D01*
X129379172Y-111490602D01*
X129233501Y-111430264D01*
X129233489Y-111430261D01*
X129078845Y-111399500D01*
X129078842Y-111399500D01*
X128921158Y-111399500D01*
X128921155Y-111399500D01*
X128766510Y-111430261D01*
X128766498Y-111430264D01*
X128620827Y-111490602D01*
X128620814Y-111490609D01*
X128489711Y-111578210D01*
X128489707Y-111578213D01*
X128378213Y-111689707D01*
X128378210Y-111689711D01*
X128290609Y-111820814D01*
X128290604Y-111820824D01*
X128240224Y-111942453D01*
X128196383Y-111996856D01*
X128130089Y-112018921D01*
X128062389Y-112001642D01*
X128037982Y-111982681D01*
X127994652Y-111939351D01*
X127994648Y-111939348D01*
X127854272Y-111854488D01*
X127854263Y-111854485D01*
X127697664Y-111805687D01*
X127697662Y-111805686D01*
X127697657Y-111805685D01*
X127629594Y-111799500D01*
X126470406Y-111799500D01*
X126402343Y-111805685D01*
X126402339Y-111805686D01*
X126402335Y-111805687D01*
X126245736Y-111854485D01*
X126245727Y-111854488D01*
X126105351Y-111939348D01*
X126105347Y-111939351D01*
X125989351Y-112055347D01*
X125989348Y-112055351D01*
X125904488Y-112195727D01*
X125904485Y-112195736D01*
X125862049Y-112331919D01*
X125855685Y-112352343D01*
X125849500Y-112420406D01*
X125849500Y-114179594D01*
X125855685Y-114247657D01*
X125855686Y-114247662D01*
X125855687Y-114247664D01*
X125904485Y-114404263D01*
X125904488Y-114404272D01*
X125989348Y-114544648D01*
X125989351Y-114544652D01*
X126105347Y-114660648D01*
X126105351Y-114660651D01*
X126245728Y-114745511D01*
X126245730Y-114745512D01*
X126362392Y-114781865D01*
X126420538Y-114820602D01*
X126448512Y-114884627D01*
X126449500Y-114900250D01*
X126449500Y-123249902D01*
X126429815Y-123316941D01*
X126413181Y-123337583D01*
X123119481Y-126631282D01*
X123119477Y-126631287D01*
X123075642Y-126707213D01*
X123075639Y-126707219D01*
X123040423Y-126768215D01*
X122999499Y-126920943D01*
X122999499Y-126920945D01*
X122999499Y-127089046D01*
X122999500Y-127089059D01*
X122999500Y-145799903D01*
X122979815Y-145866942D01*
X122963181Y-145887584D01*
X122487584Y-146363181D01*
X122426261Y-146396666D01*
X122399903Y-146399500D01*
X114700097Y-146399500D01*
X114633058Y-146379815D01*
X114612416Y-146363181D01*
X111687590Y-143438355D01*
X111687588Y-143438352D01*
X111568717Y-143319481D01*
X111568716Y-143319480D01*
X111481904Y-143269360D01*
X111481904Y-143269359D01*
X111481900Y-143269358D01*
X111431785Y-143240423D01*
X111279057Y-143199499D01*
X111120943Y-143199499D01*
X111113347Y-143199499D01*
X111113331Y-143199500D01*
X110149096Y-143199500D01*
X110082057Y-143179815D01*
X110036302Y-143127011D01*
X110026358Y-143057853D01*
X110055383Y-142994297D01*
X110061415Y-142987819D01*
X110086883Y-142962352D01*
X110712417Y-142336819D01*
X110773740Y-142303334D01*
X110800098Y-142300500D01*
X119723226Y-142300500D01*
X119790265Y-142320185D01*
X119836020Y-142372989D01*
X119842303Y-142389907D01*
X119848255Y-142410396D01*
X119931917Y-142551862D01*
X119931923Y-142551870D01*
X120048129Y-142668076D01*
X120048133Y-142668079D01*
X120048135Y-142668081D01*
X120189602Y-142751744D01*
X120209924Y-142757648D01*
X120310095Y-142786751D01*
X120368981Y-142824357D01*
X120398187Y-142887829D01*
X120399500Y-142905827D01*
X120399500Y-144220234D01*
X120379815Y-144287273D01*
X120378602Y-144289125D01*
X120290609Y-144420814D01*
X120290602Y-144420827D01*
X120230264Y-144566498D01*
X120230261Y-144566510D01*
X120199500Y-144721153D01*
X120199500Y-144878846D01*
X120230261Y-145033489D01*
X120230264Y-145033501D01*
X120290602Y-145179172D01*
X120290609Y-145179185D01*
X120378210Y-145310288D01*
X120378213Y-145310292D01*
X120489707Y-145421786D01*
X120489711Y-145421789D01*
X120620814Y-145509390D01*
X120620827Y-145509397D01*
X120766498Y-145569735D01*
X120766503Y-145569737D01*
X120921153Y-145600499D01*
X120921156Y-145600500D01*
X120921158Y-145600500D01*
X121078844Y-145600500D01*
X121078845Y-145600499D01*
X121233497Y-145569737D01*
X121379179Y-145509394D01*
X121510289Y-145421789D01*
X121621789Y-145310289D01*
X121709394Y-145179179D01*
X121769737Y-145033497D01*
X121800500Y-144878842D01*
X121800500Y-144721158D01*
X121800500Y-144721155D01*
X121800499Y-144721153D01*
X121797304Y-144705093D01*
X121769737Y-144566503D01*
X121763778Y-144552116D01*
X121709397Y-144420827D01*
X121709390Y-144420814D01*
X121621398Y-144289125D01*
X121600520Y-144222447D01*
X121600500Y-144220234D01*
X121600500Y-142905827D01*
X121620185Y-142838788D01*
X121672989Y-142793033D01*
X121689905Y-142786751D01*
X121728587Y-142775512D01*
X121810398Y-142751744D01*
X121951865Y-142668081D01*
X122068081Y-142551865D01*
X122151744Y-142410398D01*
X122197598Y-142252569D01*
X122200500Y-142215694D01*
X122200500Y-141184306D01*
X122197598Y-141147431D01*
X122183672Y-141099499D01*
X122157493Y-141009390D01*
X122151744Y-140989602D01*
X122068081Y-140848135D01*
X122068079Y-140848133D01*
X122068076Y-140848129D01*
X121951870Y-140731923D01*
X121951862Y-140731917D01*
X121810396Y-140648255D01*
X121810393Y-140648254D01*
X121652573Y-140602402D01*
X121652567Y-140602401D01*
X121615701Y-140599500D01*
X121615694Y-140599500D01*
X120384306Y-140599500D01*
X120384298Y-140599500D01*
X120347432Y-140602401D01*
X120347426Y-140602402D01*
X120189606Y-140648254D01*
X120189603Y-140648255D01*
X120048137Y-140731917D01*
X120048129Y-140731923D01*
X119931923Y-140848129D01*
X119931917Y-140848137D01*
X119848255Y-140989603D01*
X119842303Y-141010093D01*
X119804697Y-141068980D01*
X119741225Y-141098187D01*
X119723226Y-141099500D01*
X110586670Y-141099500D01*
X110586654Y-141099499D01*
X110579058Y-141099499D01*
X110420943Y-141099499D01*
X110344579Y-141119961D01*
X110268214Y-141140423D01*
X110268209Y-141140426D01*
X110131290Y-141219475D01*
X110131282Y-141219481D01*
X109542673Y-141808089D01*
X109516527Y-141822365D01*
X109491709Y-141838847D01*
X109486192Y-141838929D01*
X109481350Y-141841574D01*
X109451632Y-141839448D01*
X109421847Y-141839896D01*
X109415573Y-141836870D01*
X109411658Y-141836590D01*
X109389526Y-141825718D01*
X109385713Y-141823347D01*
X109281610Y-141747713D01*
X109184222Y-141698091D01*
X109179748Y-141695310D01*
X109159849Y-141673030D01*
X109138123Y-141652511D01*
X109136818Y-141647243D01*
X109133206Y-141643199D01*
X109128510Y-141613694D01*
X109121328Y-141584690D01*
X109123077Y-141579555D01*
X109122225Y-141574198D01*
X109134227Y-141546837D01*
X109143865Y-141518555D01*
X109148331Y-141514684D01*
X109150293Y-141510213D01*
X109163986Y-141501119D01*
X109188917Y-141479516D01*
X109281610Y-141432287D01*
X109302770Y-141416913D01*
X109447213Y-141311971D01*
X109447215Y-141311968D01*
X109447219Y-141311966D01*
X109591966Y-141167219D01*
X109591968Y-141167215D01*
X109591971Y-141167213D01*
X109644732Y-141094590D01*
X109712287Y-141001610D01*
X109805220Y-140819219D01*
X109868477Y-140624534D01*
X109900500Y-140422352D01*
X109900500Y-140422349D01*
X109900883Y-140417489D01*
X109902520Y-140417617D01*
X109920185Y-140357461D01*
X109972989Y-140311706D01*
X110024500Y-140300500D01*
X112513331Y-140300500D01*
X112513347Y-140300501D01*
X112520943Y-140300501D01*
X112679054Y-140300501D01*
X112679057Y-140300501D01*
X112831785Y-140259577D01*
X112898328Y-140221158D01*
X112925129Y-140205685D01*
X112968709Y-140180524D01*
X112968708Y-140180524D01*
X112968716Y-140180520D01*
X113080520Y-140068716D01*
X113080520Y-140068714D01*
X113090724Y-140058511D01*
X113090727Y-140058506D01*
X119480520Y-133668716D01*
X119559577Y-133531785D01*
X119600501Y-133379057D01*
X119600501Y-133220942D01*
X119600501Y-133213347D01*
X119600500Y-133213329D01*
X119600500Y-128300098D01*
X119609144Y-128270657D01*
X119615668Y-128240671D01*
X119619422Y-128235655D01*
X119620185Y-128233059D01*
X119636819Y-128212417D01*
X119657394Y-128191842D01*
X119718717Y-128158357D01*
X119788409Y-128163341D01*
X119844342Y-128205213D01*
X119851807Y-128216402D01*
X119931917Y-128351862D01*
X119931923Y-128351870D01*
X120048129Y-128468076D01*
X120048133Y-128468079D01*
X120048135Y-128468081D01*
X120189602Y-128551744D01*
X120241535Y-128566832D01*
X120310095Y-128586751D01*
X120368981Y-128624357D01*
X120398187Y-128687829D01*
X120399500Y-128705827D01*
X120399500Y-130520234D01*
X120379815Y-130587273D01*
X120378602Y-130589125D01*
X120290609Y-130720814D01*
X120290602Y-130720827D01*
X120230264Y-130866498D01*
X120230261Y-130866510D01*
X120199500Y-131021153D01*
X120199500Y-131178846D01*
X120230261Y-131333489D01*
X120230264Y-131333501D01*
X120290602Y-131479172D01*
X120290609Y-131479185D01*
X120378210Y-131610288D01*
X120378213Y-131610292D01*
X120489707Y-131721786D01*
X120489711Y-131721789D01*
X120620814Y-131809390D01*
X120620827Y-131809397D01*
X120725567Y-131852781D01*
X120766503Y-131869737D01*
X120921153Y-131900499D01*
X120921156Y-131900500D01*
X120921158Y-131900500D01*
X121078844Y-131900500D01*
X121078845Y-131900499D01*
X121233497Y-131869737D01*
X121379179Y-131809394D01*
X121510289Y-131721789D01*
X121621789Y-131610289D01*
X121709394Y-131479179D01*
X121769737Y-131333497D01*
X121800500Y-131178842D01*
X121800500Y-131021158D01*
X121800500Y-131021155D01*
X121800499Y-131021153D01*
X121769738Y-130866510D01*
X121769737Y-130866503D01*
X121769735Y-130866498D01*
X121709397Y-130720827D01*
X121709390Y-130720814D01*
X121621398Y-130589125D01*
X121600520Y-130522447D01*
X121600500Y-130520234D01*
X121600500Y-128705827D01*
X121620185Y-128638788D01*
X121672989Y-128593033D01*
X121689905Y-128586751D01*
X121728587Y-128575512D01*
X121810398Y-128551744D01*
X121951865Y-128468081D01*
X122068081Y-128351865D01*
X122151744Y-128210398D01*
X122189902Y-128079060D01*
X122197597Y-128052573D01*
X122197598Y-128052567D01*
X122200499Y-128015701D01*
X122200500Y-128015694D01*
X122200500Y-126984306D01*
X122197598Y-126947431D01*
X122189902Y-126920943D01*
X122151745Y-126789606D01*
X122151744Y-126789603D01*
X122151744Y-126789602D01*
X122068081Y-126648135D01*
X122068079Y-126648133D01*
X122068076Y-126648129D01*
X121951870Y-126531923D01*
X121951862Y-126531917D01*
X121810396Y-126448255D01*
X121810393Y-126448254D01*
X121652573Y-126402402D01*
X121652567Y-126402401D01*
X121615701Y-126399500D01*
X121615694Y-126399500D01*
X120384306Y-126399500D01*
X120384298Y-126399500D01*
X120347432Y-126402401D01*
X120347426Y-126402402D01*
X120189606Y-126448254D01*
X120189603Y-126448255D01*
X120048137Y-126531917D01*
X120048129Y-126531923D01*
X119931923Y-126648129D01*
X119931917Y-126648137D01*
X119848255Y-126789603D01*
X119842303Y-126810093D01*
X119827988Y-126832508D01*
X119816939Y-126856703D01*
X119809473Y-126861500D01*
X119804697Y-126868980D01*
X119780534Y-126880098D01*
X119758161Y-126894477D01*
X119745254Y-126896332D01*
X119741225Y-126898187D01*
X119723226Y-126899500D01*
X119586670Y-126899500D01*
X119586654Y-126899499D01*
X119579058Y-126899499D01*
X119420943Y-126899499D01*
X119344579Y-126919961D01*
X119268214Y-126940423D01*
X119268209Y-126940426D01*
X119131290Y-127019475D01*
X119131282Y-127019481D01*
X118624217Y-127526546D01*
X118624214Y-127526548D01*
X118624215Y-127526549D01*
X118519478Y-127631286D01*
X118490325Y-127681783D01*
X118490324Y-127681785D01*
X118440423Y-127768214D01*
X118440423Y-127768215D01*
X118399499Y-127920943D01*
X118399499Y-127920945D01*
X118399499Y-128089046D01*
X118399500Y-128089059D01*
X118399500Y-132999902D01*
X118379815Y-133066941D01*
X118363181Y-133087583D01*
X112387584Y-139063181D01*
X112326261Y-139096666D01*
X112299903Y-139099500D01*
X109378039Y-139099500D01*
X109311000Y-139079815D01*
X109265245Y-139027011D01*
X109255301Y-138957853D01*
X109284326Y-138894297D01*
X109305151Y-138875183D01*
X109447219Y-138771966D01*
X109591966Y-138627219D01*
X109591968Y-138627215D01*
X109591971Y-138627213D01*
X109712284Y-138461614D01*
X109712285Y-138461613D01*
X109712287Y-138461610D01*
X109719117Y-138448204D01*
X109767091Y-138397409D01*
X109829602Y-138380500D01*
X112133331Y-138380500D01*
X112133347Y-138380501D01*
X112140943Y-138380501D01*
X112299054Y-138380501D01*
X112299057Y-138380501D01*
X112451785Y-138339577D01*
X112501904Y-138310639D01*
X112588716Y-138260520D01*
X112700520Y-138148716D01*
X112700520Y-138148714D01*
X112710728Y-138138507D01*
X112710730Y-138138504D01*
X117668713Y-133180521D01*
X117668716Y-133180520D01*
X117780520Y-133068716D01*
X117830639Y-132981904D01*
X117859577Y-132931785D01*
X117900501Y-132779057D01*
X117900501Y-132620943D01*
X117900501Y-132613348D01*
X117900500Y-132613330D01*
X117900500Y-115500097D01*
X117920185Y-115433058D01*
X117936819Y-115412416D01*
X119412417Y-113936819D01*
X119439344Y-113922115D01*
X119465163Y-113905523D01*
X119471363Y-113904631D01*
X119473740Y-113903334D01*
X119500098Y-113900500D01*
X119673226Y-113900500D01*
X119740265Y-113920185D01*
X119786020Y-113972989D01*
X119792303Y-113989907D01*
X119798255Y-114010396D01*
X119881917Y-114151862D01*
X119881923Y-114151870D01*
X119998129Y-114268076D01*
X119998133Y-114268079D01*
X119998135Y-114268081D01*
X120139602Y-114351744D01*
X120191535Y-114366832D01*
X120260095Y-114386751D01*
X120318981Y-114424357D01*
X120348187Y-114487829D01*
X120349500Y-114505827D01*
X120349500Y-115995064D01*
X120329815Y-116062103D01*
X120328603Y-116063954D01*
X120290608Y-116120817D01*
X120290602Y-116120828D01*
X120230264Y-116266498D01*
X120230261Y-116266510D01*
X120199500Y-116421153D01*
X120199500Y-116578846D01*
X120230261Y-116733489D01*
X120230264Y-116733501D01*
X120290602Y-116879172D01*
X120290609Y-116879185D01*
X120378210Y-117010288D01*
X120378213Y-117010292D01*
X120489707Y-117121786D01*
X120489711Y-117121789D01*
X120620814Y-117209390D01*
X120620827Y-117209397D01*
X120766498Y-117269735D01*
X120766503Y-117269737D01*
X120921153Y-117300499D01*
X120921156Y-117300500D01*
X120921158Y-117300500D01*
X121078844Y-117300500D01*
X121078845Y-117300499D01*
X121233497Y-117269737D01*
X121379179Y-117209394D01*
X121510289Y-117121789D01*
X121621789Y-117010289D01*
X121709394Y-116879179D01*
X121769737Y-116733497D01*
X121800500Y-116578842D01*
X121800500Y-116421158D01*
X121800500Y-116421155D01*
X121800499Y-116421153D01*
X121769738Y-116266510D01*
X121769737Y-116266503D01*
X121741869Y-116199223D01*
X121709397Y-116120827D01*
X121709390Y-116120814D01*
X121621789Y-115989711D01*
X121621786Y-115989707D01*
X121586819Y-115954740D01*
X121553334Y-115893417D01*
X121550500Y-115867059D01*
X121550500Y-114505827D01*
X121570185Y-114438788D01*
X121622989Y-114393033D01*
X121639905Y-114386751D01*
X121678587Y-114375512D01*
X121760398Y-114351744D01*
X121901865Y-114268081D01*
X122018081Y-114151865D01*
X122101744Y-114010398D01*
X122147598Y-113852569D01*
X122150500Y-113815694D01*
X122150500Y-112784306D01*
X122147598Y-112747431D01*
X122133672Y-112699499D01*
X122101745Y-112589606D01*
X122101744Y-112589603D01*
X122101744Y-112589602D01*
X122018081Y-112448135D01*
X122018079Y-112448133D01*
X122018076Y-112448129D01*
X121901870Y-112331923D01*
X121901862Y-112331917D01*
X121760396Y-112248255D01*
X121760393Y-112248254D01*
X121602573Y-112202402D01*
X121602567Y-112202401D01*
X121565701Y-112199500D01*
X121565694Y-112199500D01*
X120334306Y-112199500D01*
X120334298Y-112199500D01*
X120297432Y-112202401D01*
X120297426Y-112202402D01*
X120139606Y-112248254D01*
X120139603Y-112248255D01*
X119998137Y-112331917D01*
X119998129Y-112331923D01*
X119881923Y-112448129D01*
X119881917Y-112448137D01*
X119798255Y-112589603D01*
X119792303Y-112610093D01*
X119754697Y-112668980D01*
X119691225Y-112698187D01*
X119673226Y-112699500D01*
X119286670Y-112699500D01*
X119286654Y-112699499D01*
X119279058Y-112699499D01*
X119120943Y-112699499D01*
X119044579Y-112719961D01*
X118968214Y-112740423D01*
X118968209Y-112740426D01*
X118831290Y-112819475D01*
X118831282Y-112819481D01*
X116819481Y-114831282D01*
X116819480Y-114831284D01*
X116778660Y-114901987D01*
X116740423Y-114968215D01*
X116699499Y-115120943D01*
X116699499Y-115120945D01*
X116699499Y-115289046D01*
X116699500Y-115289059D01*
X116699500Y-132399903D01*
X116679815Y-132466942D01*
X116663181Y-132487584D01*
X112007584Y-137143181D01*
X111946261Y-137176666D01*
X111919903Y-137179500D01*
X109829602Y-137179500D01*
X109762563Y-137159815D01*
X109719117Y-137111795D01*
X109712284Y-137098385D01*
X109591971Y-136932786D01*
X109447213Y-136788028D01*
X109281611Y-136667713D01*
X109188369Y-136620203D01*
X109137574Y-136572229D01*
X109120779Y-136504407D01*
X109143317Y-136438273D01*
X109188371Y-136399234D01*
X109281346Y-136351861D01*
X109281347Y-136351861D01*
X109325921Y-136319474D01*
X108646447Y-135640000D01*
X108652661Y-135640000D01*
X108754394Y-135612741D01*
X108845606Y-135560080D01*
X108920080Y-135485606D01*
X108972741Y-135394394D01*
X109000000Y-135292661D01*
X109000000Y-135286447D01*
X109679474Y-135965921D01*
X109711859Y-135921349D01*
X109804755Y-135739031D01*
X109867990Y-135544417D01*
X109900000Y-135342317D01*
X109900000Y-135137682D01*
X109867990Y-134935582D01*
X109804755Y-134740968D01*
X109711859Y-134558650D01*
X109679474Y-134514077D01*
X109679474Y-134514076D01*
X109000000Y-135193551D01*
X109000000Y-135187339D01*
X108972741Y-135085606D01*
X108920080Y-134994394D01*
X108845606Y-134919920D01*
X108754394Y-134867259D01*
X108652661Y-134840000D01*
X108646446Y-134840000D01*
X109325922Y-134160524D01*
X109325921Y-134160523D01*
X109281359Y-134128147D01*
X109281350Y-134128141D01*
X109188369Y-134080765D01*
X109137573Y-134032790D01*
X109120778Y-133964969D01*
X109143315Y-133898835D01*
X109188370Y-133859795D01*
X109281610Y-133812287D01*
X109331144Y-133776298D01*
X109447213Y-133691971D01*
X109447215Y-133691968D01*
X109447219Y-133691966D01*
X109591966Y-133547219D01*
X109591968Y-133547215D01*
X109591971Y-133547213D01*
X109644732Y-133474590D01*
X109712287Y-133381610D01*
X109805220Y-133199219D01*
X109868477Y-133004534D01*
X109900500Y-132802352D01*
X109900500Y-132597648D01*
X109868477Y-132395466D01*
X109805220Y-132200781D01*
X109805218Y-132200778D01*
X109805218Y-132200776D01*
X109771503Y-132134607D01*
X109712287Y-132018390D01*
X109704556Y-132007749D01*
X109591971Y-131852786D01*
X109447213Y-131708028D01*
X109281613Y-131587715D01*
X109281612Y-131587714D01*
X109281610Y-131587713D01*
X109224653Y-131558691D01*
X109099223Y-131494781D01*
X108904534Y-131431522D01*
X108729995Y-131403878D01*
X108702352Y-131399500D01*
X108497648Y-131399500D01*
X108473329Y-131403351D01*
X108295465Y-131431522D01*
X108100776Y-131494781D01*
X107918386Y-131587715D01*
X107752786Y-131708028D01*
X107608028Y-131852786D01*
X107487715Y-132018386D01*
X107394781Y-132200776D01*
X107331522Y-132395465D01*
X107299500Y-132597648D01*
X107299500Y-132802351D01*
X107331522Y-133004534D01*
X107394781Y-133199223D01*
X107405846Y-133220938D01*
X107486412Y-133379057D01*
X107487715Y-133381613D01*
X107608028Y-133547213D01*
X107752786Y-133691971D01*
X107918385Y-133812284D01*
X107918387Y-133812285D01*
X107918390Y-133812287D01*
X108011630Y-133859795D01*
X108062426Y-133907770D01*
X108079221Y-133975591D01*
X108056684Y-134041725D01*
X108011630Y-134080765D01*
X107918644Y-134128143D01*
X107874077Y-134160523D01*
X107874077Y-134160524D01*
X108553554Y-134840000D01*
X108547339Y-134840000D01*
X108445606Y-134867259D01*
X108354394Y-134919920D01*
X108279920Y-134994394D01*
X108227259Y-135085606D01*
X108200000Y-135187339D01*
X108200000Y-135193553D01*
X107520524Y-134514077D01*
X107520523Y-134514077D01*
X107488143Y-134558644D01*
X107395244Y-134740968D01*
X107332009Y-134935582D01*
X107300000Y-135137682D01*
X107300000Y-135342317D01*
X107332009Y-135544417D01*
X107395244Y-135739031D01*
X107488141Y-135921350D01*
X107488147Y-135921359D01*
X107520523Y-135965921D01*
X107520524Y-135965922D01*
X108200000Y-135286446D01*
X108200000Y-135292661D01*
X108227259Y-135394394D01*
X108279920Y-135485606D01*
X108354394Y-135560080D01*
X108445606Y-135612741D01*
X108547339Y-135640000D01*
X108553553Y-135640000D01*
X107874076Y-136319474D01*
X107918652Y-136351861D01*
X108011628Y-136399234D01*
X108062425Y-136447208D01*
X108079220Y-136515029D01*
X108056683Y-136581164D01*
X108011630Y-136620203D01*
X107918388Y-136667713D01*
X107752786Y-136788028D01*
X107608028Y-136932786D01*
X107487715Y-137098386D01*
X107394781Y-137280776D01*
X107331522Y-137475465D01*
X107299500Y-137677648D01*
X107299500Y-137882351D01*
X107331522Y-138084534D01*
X107394781Y-138279223D01*
X107487715Y-138461613D01*
X107608028Y-138627213D01*
X107752786Y-138771971D01*
X107894845Y-138875181D01*
X107918390Y-138892287D01*
X108009840Y-138938883D01*
X108011080Y-138939515D01*
X108061876Y-138987490D01*
X108078671Y-139055311D01*
X108056134Y-139121446D01*
X108011080Y-139160485D01*
X107918386Y-139207715D01*
X107752786Y-139328028D01*
X107608028Y-139472786D01*
X107487715Y-139638386D01*
X107394781Y-139820776D01*
X107331522Y-140015465D01*
X107299500Y-140217648D01*
X107299500Y-140422351D01*
X107331522Y-140624534D01*
X107394781Y-140819223D01*
X107487715Y-141001613D01*
X107608028Y-141167213D01*
X107752786Y-141311971D01*
X107907749Y-141424556D01*
X107918390Y-141432287D01*
X108009840Y-141478883D01*
X108011080Y-141479515D01*
X108061876Y-141527490D01*
X108078671Y-141595311D01*
X108056134Y-141661446D01*
X108011080Y-141700485D01*
X107918386Y-141747715D01*
X107752786Y-141868028D01*
X107608028Y-142012786D01*
X107487715Y-142178386D01*
X107394781Y-142360776D01*
X107331522Y-142555465D01*
X107299500Y-142757648D01*
X107299500Y-142962351D01*
X107331522Y-143164534D01*
X107394781Y-143359223D01*
X107487715Y-143541613D01*
X107608028Y-143707213D01*
X107752784Y-143851969D01*
X107789068Y-143878330D01*
X107831735Y-143933659D01*
X107837715Y-144003273D01*
X107805109Y-144065068D01*
X107744271Y-144099426D01*
X107729440Y-144101938D01*
X107692519Y-144105907D01*
X107557671Y-144156202D01*
X107557664Y-144156206D01*
X107442455Y-144242452D01*
X107442452Y-144242455D01*
X107356206Y-144357664D01*
X107356202Y-144357671D01*
X107305908Y-144492517D01*
X107299501Y-144552116D01*
X107299500Y-144552135D01*
X107299500Y-146247870D01*
X107299501Y-146247873D01*
X107305908Y-146307483D01*
X107356202Y-146442328D01*
X107356206Y-146442335D01*
X107406904Y-146510058D01*
X107431322Y-146575522D01*
X107416471Y-146643795D01*
X107367066Y-146693201D01*
X107345960Y-146702299D01*
X107324004Y-146709433D01*
X107113566Y-146816657D01*
X107040853Y-146869487D01*
X106922490Y-146955483D01*
X106922488Y-146955485D01*
X106922487Y-146955485D01*
X106755484Y-147122488D01*
X106724818Y-147164697D01*
X106669487Y-147207362D01*
X106599874Y-147213341D01*
X106538079Y-147180735D01*
X106503722Y-147119896D01*
X106500500Y-147091811D01*
X106500500Y-115597648D01*
X107299500Y-115597648D01*
X107299500Y-115802351D01*
X107331522Y-116004534D01*
X107394781Y-116199223D01*
X107487715Y-116381613D01*
X107608028Y-116547213D01*
X107752786Y-116691971D01*
X107907749Y-116804556D01*
X107918390Y-116812287D01*
X108009840Y-116858883D01*
X108011080Y-116859515D01*
X108061876Y-116907490D01*
X108078671Y-116975311D01*
X108056134Y-117041446D01*
X108011080Y-117080485D01*
X107918386Y-117127715D01*
X107752786Y-117248028D01*
X107608028Y-117392786D01*
X107487715Y-117558386D01*
X107394781Y-117740776D01*
X107331522Y-117935465D01*
X107299500Y-118137648D01*
X107299500Y-118342351D01*
X107331522Y-118544534D01*
X107394781Y-118739223D01*
X107487715Y-118921613D01*
X107608028Y-119087213D01*
X107752786Y-119231971D01*
X107907749Y-119344556D01*
X107918390Y-119352287D01*
X108009840Y-119398883D01*
X108011080Y-119399515D01*
X108061876Y-119447490D01*
X108078671Y-119515311D01*
X108056134Y-119581446D01*
X108011080Y-119620485D01*
X107918386Y-119667715D01*
X107752786Y-119788028D01*
X107608028Y-119932786D01*
X107487715Y-120098386D01*
X107394781Y-120280776D01*
X107331522Y-120475465D01*
X107299500Y-120677648D01*
X107299500Y-120882351D01*
X107331522Y-121084534D01*
X107394781Y-121279223D01*
X107487715Y-121461613D01*
X107608028Y-121627213D01*
X107752786Y-121771971D01*
X107907749Y-121884556D01*
X107918390Y-121892287D01*
X108009840Y-121938883D01*
X108011080Y-121939515D01*
X108061876Y-121987490D01*
X108078671Y-122055311D01*
X108056134Y-122121446D01*
X108011080Y-122160485D01*
X107918386Y-122207715D01*
X107752786Y-122328028D01*
X107608028Y-122472786D01*
X107487715Y-122638386D01*
X107394781Y-122820776D01*
X107331522Y-123015465D01*
X107299500Y-123217648D01*
X107299500Y-123422351D01*
X107331522Y-123624534D01*
X107394781Y-123819223D01*
X107487715Y-124001613D01*
X107608028Y-124167213D01*
X107752786Y-124311971D01*
X107907749Y-124424556D01*
X107918390Y-124432287D01*
X108009840Y-124478883D01*
X108011080Y-124479515D01*
X108061876Y-124527490D01*
X108078671Y-124595311D01*
X108056134Y-124661446D01*
X108011080Y-124700485D01*
X107918386Y-124747715D01*
X107752786Y-124868028D01*
X107608028Y-125012786D01*
X107487715Y-125178386D01*
X107394781Y-125360776D01*
X107331522Y-125555465D01*
X107299500Y-125757648D01*
X107299500Y-125962351D01*
X107331522Y-126164534D01*
X107394781Y-126359223D01*
X107458691Y-126484653D01*
X107482777Y-126531923D01*
X107487715Y-126541613D01*
X107608028Y-126707213D01*
X107752784Y-126851969D01*
X107789068Y-126878330D01*
X107831735Y-126933659D01*
X107837715Y-127003273D01*
X107805109Y-127065068D01*
X107744271Y-127099426D01*
X107729440Y-127101938D01*
X107692519Y-127105907D01*
X107557671Y-127156202D01*
X107557664Y-127156206D01*
X107442455Y-127242452D01*
X107442452Y-127242455D01*
X107356206Y-127357664D01*
X107356202Y-127357671D01*
X107305908Y-127492517D01*
X107299501Y-127552116D01*
X107299501Y-127552123D01*
X107299500Y-127552135D01*
X107299500Y-129247870D01*
X107299501Y-129247876D01*
X107305908Y-129307483D01*
X107356202Y-129442328D01*
X107356206Y-129442335D01*
X107442452Y-129557544D01*
X107442455Y-129557547D01*
X107557664Y-129643793D01*
X107557671Y-129643797D01*
X107692517Y-129694091D01*
X107692516Y-129694091D01*
X107699444Y-129694835D01*
X107752127Y-129700500D01*
X109447872Y-129700499D01*
X109507483Y-129694091D01*
X109642331Y-129643796D01*
X109757546Y-129557546D01*
X109843796Y-129442331D01*
X109894091Y-129307483D01*
X109900500Y-129247873D01*
X109900499Y-127552128D01*
X109894091Y-127492517D01*
X109843796Y-127357669D01*
X109843795Y-127357668D01*
X109843793Y-127357664D01*
X109757547Y-127242455D01*
X109757544Y-127242452D01*
X109642335Y-127156206D01*
X109642328Y-127156202D01*
X109507482Y-127105908D01*
X109507483Y-127105908D01*
X109470560Y-127101939D01*
X109406009Y-127075201D01*
X109366160Y-127017809D01*
X109363667Y-126947984D01*
X109399319Y-126887895D01*
X109410930Y-126878331D01*
X109447219Y-126851966D01*
X109591966Y-126707219D01*
X109591968Y-126707215D01*
X109591971Y-126707213D01*
X109655039Y-126620406D01*
X109712287Y-126541610D01*
X109805220Y-126359219D01*
X109868477Y-126164534D01*
X109900500Y-125962352D01*
X109900500Y-125757648D01*
X109868477Y-125555466D01*
X109856784Y-125519480D01*
X109821363Y-125410464D01*
X109805220Y-125360781D01*
X109805218Y-125360778D01*
X109805218Y-125360776D01*
X109771503Y-125294607D01*
X109712287Y-125178390D01*
X109704556Y-125167749D01*
X109591971Y-125012786D01*
X109447213Y-124868028D01*
X109281614Y-124747715D01*
X109275006Y-124744348D01*
X109188917Y-124700483D01*
X109138123Y-124652511D01*
X109121328Y-124584690D01*
X109143865Y-124518555D01*
X109188917Y-124479516D01*
X109281610Y-124432287D01*
X109302770Y-124416913D01*
X109447213Y-124311971D01*
X109447215Y-124311968D01*
X109447219Y-124311966D01*
X109591966Y-124167219D01*
X109591968Y-124167215D01*
X109591971Y-124167213D01*
X109644732Y-124094590D01*
X109712287Y-124001610D01*
X109805220Y-123819219D01*
X109868477Y-123624534D01*
X109900500Y-123422352D01*
X109900500Y-123217648D01*
X109868477Y-123015466D01*
X109805220Y-122820781D01*
X109805218Y-122820778D01*
X109805218Y-122820776D01*
X109771503Y-122754607D01*
X109712287Y-122638390D01*
X109704556Y-122627749D01*
X109591971Y-122472786D01*
X109447213Y-122328028D01*
X109281614Y-122207715D01*
X109275006Y-122204348D01*
X109188917Y-122160483D01*
X109138123Y-122112511D01*
X109121328Y-122044690D01*
X109143865Y-121978555D01*
X109188917Y-121939516D01*
X109281610Y-121892287D01*
X109302770Y-121876913D01*
X109447213Y-121771971D01*
X109447215Y-121771968D01*
X109447219Y-121771966D01*
X109591966Y-121627219D01*
X109591968Y-121627215D01*
X109591971Y-121627213D01*
X109644732Y-121554590D01*
X109712287Y-121461610D01*
X109805220Y-121279219D01*
X109868477Y-121084534D01*
X109900500Y-120882352D01*
X109900500Y-120677648D01*
X109868477Y-120475466D01*
X109805220Y-120280781D01*
X109805218Y-120280778D01*
X109805218Y-120280776D01*
X109771503Y-120214607D01*
X109712287Y-120098390D01*
X109704556Y-120087749D01*
X109591971Y-119932786D01*
X109447213Y-119788028D01*
X109281614Y-119667715D01*
X109275006Y-119664348D01*
X109188917Y-119620483D01*
X109138123Y-119572511D01*
X109121328Y-119504690D01*
X109143865Y-119438555D01*
X109188917Y-119399516D01*
X109281610Y-119352287D01*
X109302770Y-119336913D01*
X109447213Y-119231971D01*
X109447215Y-119231968D01*
X109447219Y-119231966D01*
X109591966Y-119087219D01*
X109591968Y-119087215D01*
X109591971Y-119087213D01*
X109644732Y-119014590D01*
X109712287Y-118921610D01*
X109805220Y-118739219D01*
X109868477Y-118544534D01*
X109900500Y-118342352D01*
X109900500Y-118137648D01*
X109868477Y-117935466D01*
X109805220Y-117740781D01*
X109805218Y-117740778D01*
X109805218Y-117740776D01*
X109771503Y-117674607D01*
X109712287Y-117558390D01*
X109704556Y-117547749D01*
X109591971Y-117392786D01*
X109447213Y-117248028D01*
X109281614Y-117127715D01*
X109275006Y-117124348D01*
X109188917Y-117080483D01*
X109138123Y-117032511D01*
X109121328Y-116964690D01*
X109143865Y-116898555D01*
X109188917Y-116859516D01*
X109281610Y-116812287D01*
X109390051Y-116733501D01*
X109447213Y-116691971D01*
X109447215Y-116691968D01*
X109447219Y-116691966D01*
X109591966Y-116547219D01*
X109591968Y-116547215D01*
X109591971Y-116547213D01*
X109644732Y-116474590D01*
X109712287Y-116381610D01*
X109805220Y-116199219D01*
X109868477Y-116004534D01*
X109900500Y-115802352D01*
X109900500Y-115597648D01*
X109868477Y-115395466D01*
X109805220Y-115200781D01*
X109805218Y-115200778D01*
X109805218Y-115200776D01*
X109764540Y-115120943D01*
X109712287Y-115018390D01*
X109675832Y-114968213D01*
X109591971Y-114852786D01*
X109447213Y-114708028D01*
X109281613Y-114587715D01*
X109281612Y-114587714D01*
X109281610Y-114587713D01*
X109224653Y-114558691D01*
X109099223Y-114494781D01*
X108904534Y-114431522D01*
X108729995Y-114403878D01*
X108702352Y-114399500D01*
X108497648Y-114399500D01*
X108473329Y-114403351D01*
X108295465Y-114431522D01*
X108100776Y-114494781D01*
X107918386Y-114587715D01*
X107752786Y-114708028D01*
X107608028Y-114852786D01*
X107487715Y-115018386D01*
X107394781Y-115200776D01*
X107331522Y-115395465D01*
X107299500Y-115597648D01*
X106500500Y-115597648D01*
X106500500Y-108021889D01*
X106520185Y-107954850D01*
X106572989Y-107909095D01*
X106642147Y-107899151D01*
X106705703Y-107928176D01*
X106712181Y-107934208D01*
X106822490Y-108044517D01*
X107013567Y-108183343D01*
X107112991Y-108234002D01*
X107224003Y-108290566D01*
X107224005Y-108290566D01*
X107224008Y-108290568D01*
X107344412Y-108329689D01*
X107448631Y-108363553D01*
X107681903Y-108400500D01*
X107681908Y-108400500D01*
X107918097Y-108400500D01*
X108151368Y-108363553D01*
X108375992Y-108290568D01*
X108586433Y-108183343D01*
X108777510Y-108044517D01*
X108944517Y-107877510D01*
X109083343Y-107686433D01*
X109190568Y-107475992D01*
X109263553Y-107251368D01*
X109300500Y-107018097D01*
X109300500Y-106781902D01*
X109263553Y-106548631D01*
X109190566Y-106324003D01*
X109134002Y-106212991D01*
X109083343Y-106113567D01*
X108944517Y-105922490D01*
X108777510Y-105755483D01*
X108735302Y-105724817D01*
X108692638Y-105669487D01*
X108686659Y-105599874D01*
X108719265Y-105538079D01*
X108780104Y-105503722D01*
X108808189Y-105500500D01*
X135978111Y-105500500D01*
X136045150Y-105520185D01*
G37*
%TD.AperFunction*%
%TD*%
%TA.AperFunction,Conductor*%
%TO.N,GND*%
G36*
X102196488Y-105520185D02*
G01*
X102242243Y-105572989D01*
X102252187Y-105642147D01*
X102223162Y-105705703D01*
X102202337Y-105724815D01*
X102022490Y-105855483D01*
X102022488Y-105855485D01*
X102022487Y-105855485D01*
X101855485Y-106022487D01*
X101855485Y-106022488D01*
X101855483Y-106022490D01*
X101795862Y-106104550D01*
X101716657Y-106213566D01*
X101609433Y-106424003D01*
X101536446Y-106648631D01*
X101499500Y-106881902D01*
X101499500Y-107118097D01*
X101536446Y-107351368D01*
X101609433Y-107575996D01*
X101700641Y-107755000D01*
X101716657Y-107786433D01*
X101855483Y-107977510D01*
X102022490Y-108144517D01*
X102213567Y-108283343D01*
X102312991Y-108334002D01*
X102424003Y-108390566D01*
X102424005Y-108390566D01*
X102424008Y-108390568D01*
X102509623Y-108418386D01*
X102648631Y-108463553D01*
X102881903Y-108500500D01*
X102881908Y-108500500D01*
X103118097Y-108500500D01*
X103351368Y-108463553D01*
X103575992Y-108390568D01*
X103786433Y-108283343D01*
X103977510Y-108144517D01*
X104144517Y-107977510D01*
X104275183Y-107797664D01*
X104330512Y-107755000D01*
X104400126Y-107749021D01*
X104461920Y-107781627D01*
X104496278Y-107842466D01*
X104499500Y-107870551D01*
X104499500Y-147317562D01*
X104479815Y-147384601D01*
X104427011Y-147430356D01*
X104357853Y-147440300D01*
X104294297Y-147411275D01*
X104265015Y-147373857D01*
X104183342Y-147213566D01*
X104044517Y-147022490D01*
X103877510Y-146855483D01*
X103686433Y-146716657D01*
X103600726Y-146672987D01*
X103581230Y-146663053D01*
X103530434Y-146615078D01*
X103513639Y-146547257D01*
X103536177Y-146481122D01*
X103552151Y-146464693D01*
X103551275Y-146463817D01*
X103557542Y-146457548D01*
X103557546Y-146457546D01*
X103643796Y-146342331D01*
X103694091Y-146207483D01*
X103700500Y-146147873D01*
X103700499Y-144452128D01*
X103694091Y-144392517D01*
X103643796Y-144257669D01*
X103643795Y-144257668D01*
X103643793Y-144257664D01*
X103557547Y-144142455D01*
X103557544Y-144142452D01*
X103442335Y-144056206D01*
X103442328Y-144056202D01*
X103307482Y-144005908D01*
X103307483Y-144005908D01*
X103270560Y-144001939D01*
X103206009Y-143975201D01*
X103166160Y-143917809D01*
X103163667Y-143847984D01*
X103199319Y-143787895D01*
X103210930Y-143778331D01*
X103247219Y-143751966D01*
X103391966Y-143607219D01*
X103391968Y-143607215D01*
X103391971Y-143607213D01*
X103468081Y-143502455D01*
X103512287Y-143441610D01*
X103605220Y-143259219D01*
X103668477Y-143064534D01*
X103700500Y-142862352D01*
X103700500Y-142657648D01*
X103668477Y-142455466D01*
X103666264Y-142448656D01*
X103617747Y-142299336D01*
X103605220Y-142260781D01*
X103605218Y-142260778D01*
X103605218Y-142260776D01*
X103567028Y-142185826D01*
X103512287Y-142078390D01*
X103477142Y-142030016D01*
X103391971Y-141912786D01*
X103247213Y-141768028D01*
X103081614Y-141647715D01*
X103075006Y-141644348D01*
X102988917Y-141600483D01*
X102938123Y-141552511D01*
X102921328Y-141484690D01*
X102943865Y-141418555D01*
X102988917Y-141379516D01*
X103081610Y-141332287D01*
X103212475Y-141237209D01*
X103247213Y-141211971D01*
X103247215Y-141211968D01*
X103247219Y-141211966D01*
X103391966Y-141067219D01*
X103391968Y-141067215D01*
X103391971Y-141067213D01*
X103444732Y-140994590D01*
X103512287Y-140901610D01*
X103605220Y-140719219D01*
X103668477Y-140524534D01*
X103700500Y-140322352D01*
X103700500Y-140117648D01*
X103698187Y-140103044D01*
X103668477Y-139915465D01*
X103627908Y-139790609D01*
X103605220Y-139720781D01*
X103605218Y-139720778D01*
X103605218Y-139720776D01*
X103569155Y-139650000D01*
X103512287Y-139538390D01*
X103491223Y-139509397D01*
X103391971Y-139372786D01*
X103247213Y-139228028D01*
X103081614Y-139107715D01*
X103069764Y-139101677D01*
X102988917Y-139060483D01*
X102938123Y-139012511D01*
X102921328Y-138944690D01*
X102943865Y-138878555D01*
X102988917Y-138839516D01*
X103081610Y-138792287D01*
X103163514Y-138732781D01*
X103247213Y-138671971D01*
X103247215Y-138671968D01*
X103247219Y-138671966D01*
X103391966Y-138527219D01*
X103391968Y-138527215D01*
X103391971Y-138527213D01*
X103448068Y-138450000D01*
X103512287Y-138361610D01*
X103605220Y-138179219D01*
X103668477Y-137984534D01*
X103700500Y-137782352D01*
X103700500Y-137577648D01*
X103668477Y-137375466D01*
X103605220Y-137180781D01*
X103605218Y-137180778D01*
X103605218Y-137180776D01*
X103565228Y-137102292D01*
X103512287Y-136998390D01*
X103494693Y-136974174D01*
X103391971Y-136832786D01*
X103247213Y-136688028D01*
X103081611Y-136567713D01*
X102988369Y-136520203D01*
X102937574Y-136472229D01*
X102920779Y-136404407D01*
X102943317Y-136338273D01*
X102988371Y-136299234D01*
X103081346Y-136251861D01*
X103081347Y-136251861D01*
X103125921Y-136219474D01*
X102446447Y-135540000D01*
X102452661Y-135540000D01*
X102554394Y-135512741D01*
X102645606Y-135460080D01*
X102720080Y-135385606D01*
X102772741Y-135294394D01*
X102800000Y-135192661D01*
X102800000Y-135186448D01*
X103479474Y-135865922D01*
X103479474Y-135865921D01*
X103511859Y-135821349D01*
X103604755Y-135639031D01*
X103667990Y-135444417D01*
X103700000Y-135242317D01*
X103700000Y-135037682D01*
X103667990Y-134835582D01*
X103604755Y-134640968D01*
X103511859Y-134458650D01*
X103479474Y-134414077D01*
X103479474Y-134414076D01*
X102800000Y-135093551D01*
X102800000Y-135087339D01*
X102772741Y-134985606D01*
X102720080Y-134894394D01*
X102645606Y-134819920D01*
X102554394Y-134767259D01*
X102452661Y-134740000D01*
X102446446Y-134740000D01*
X103125922Y-134060524D01*
X103125921Y-134060523D01*
X103081359Y-134028147D01*
X103081350Y-134028141D01*
X102988369Y-133980765D01*
X102937573Y-133932790D01*
X102920778Y-133864969D01*
X102943315Y-133798835D01*
X102988370Y-133759795D01*
X103081610Y-133712287D01*
X103163514Y-133652781D01*
X103247213Y-133591971D01*
X103247215Y-133591968D01*
X103247219Y-133591966D01*
X103391966Y-133447219D01*
X103391968Y-133447215D01*
X103391971Y-133447213D01*
X103497875Y-133301446D01*
X103512287Y-133281610D01*
X103605220Y-133099219D01*
X103668477Y-132904534D01*
X103700500Y-132702352D01*
X103700500Y-132497648D01*
X103684321Y-132395497D01*
X103668477Y-132295465D01*
X103605218Y-132100776D01*
X103537594Y-131968058D01*
X103512287Y-131918390D01*
X103468156Y-131857648D01*
X103391971Y-131752786D01*
X103247213Y-131608028D01*
X103081613Y-131487715D01*
X103081612Y-131487714D01*
X103081610Y-131487713D01*
X103024653Y-131458691D01*
X102899223Y-131394781D01*
X102704534Y-131331522D01*
X102529995Y-131303878D01*
X102502352Y-131299500D01*
X102297648Y-131299500D01*
X102273329Y-131303351D01*
X102095465Y-131331522D01*
X101900776Y-131394781D01*
X101718386Y-131487715D01*
X101552786Y-131608028D01*
X101408028Y-131752786D01*
X101287715Y-131918386D01*
X101194781Y-132100776D01*
X101131522Y-132295465D01*
X101099500Y-132497648D01*
X101099500Y-132702351D01*
X101131522Y-132904534D01*
X101194781Y-133099223D01*
X101258691Y-133224653D01*
X101264122Y-133235311D01*
X101287715Y-133281613D01*
X101408028Y-133447213D01*
X101552786Y-133591971D01*
X101718385Y-133712284D01*
X101718387Y-133712285D01*
X101718390Y-133712287D01*
X101811630Y-133759795D01*
X101862426Y-133807770D01*
X101879221Y-133875591D01*
X101856684Y-133941725D01*
X101811630Y-133980765D01*
X101718644Y-134028143D01*
X101674077Y-134060523D01*
X101674077Y-134060524D01*
X102353554Y-134740000D01*
X102347339Y-134740000D01*
X102245606Y-134767259D01*
X102154394Y-134819920D01*
X102079920Y-134894394D01*
X102027259Y-134985606D01*
X102000000Y-135087339D01*
X102000000Y-135093553D01*
X101320524Y-134414077D01*
X101320523Y-134414077D01*
X101288143Y-134458644D01*
X101195244Y-134640968D01*
X101132009Y-134835582D01*
X101100000Y-135037682D01*
X101100000Y-135242317D01*
X101132009Y-135444417D01*
X101195244Y-135639031D01*
X101288141Y-135821350D01*
X101288147Y-135821359D01*
X101320523Y-135865921D01*
X101320524Y-135865922D01*
X102000000Y-135186446D01*
X102000000Y-135192661D01*
X102027259Y-135294394D01*
X102079920Y-135385606D01*
X102154394Y-135460080D01*
X102245606Y-135512741D01*
X102347339Y-135540000D01*
X102353553Y-135540000D01*
X101674076Y-136219474D01*
X101718652Y-136251861D01*
X101811628Y-136299234D01*
X101862425Y-136347208D01*
X101879220Y-136415029D01*
X101856683Y-136481164D01*
X101811630Y-136520203D01*
X101718388Y-136567713D01*
X101552786Y-136688028D01*
X101408028Y-136832786D01*
X101287715Y-136998386D01*
X101194781Y-137180776D01*
X101131522Y-137375465D01*
X101105586Y-137539223D01*
X101099500Y-137577648D01*
X101099500Y-137782352D01*
X101102033Y-137798344D01*
X101131522Y-137984534D01*
X101194781Y-138179223D01*
X101258567Y-138304407D01*
X101282640Y-138351654D01*
X101287715Y-138361613D01*
X101408028Y-138527213D01*
X101552786Y-138671971D01*
X101687732Y-138770013D01*
X101718390Y-138792287D01*
X101809840Y-138838883D01*
X101811080Y-138839515D01*
X101861876Y-138887490D01*
X101878671Y-138955311D01*
X101856134Y-139021446D01*
X101811080Y-139060485D01*
X101718386Y-139107715D01*
X101552786Y-139228028D01*
X101408028Y-139372786D01*
X101287715Y-139538386D01*
X101194781Y-139720776D01*
X101131522Y-139915465D01*
X101099500Y-140117648D01*
X101099500Y-140322351D01*
X101131522Y-140524534D01*
X101194781Y-140719223D01*
X101258691Y-140844653D01*
X101282640Y-140891654D01*
X101287715Y-140901613D01*
X101408028Y-141067213D01*
X101552786Y-141211971D01*
X101687732Y-141310013D01*
X101718390Y-141332287D01*
X101809840Y-141378883D01*
X101811080Y-141379515D01*
X101861876Y-141427490D01*
X101878671Y-141495311D01*
X101856134Y-141561446D01*
X101811080Y-141600485D01*
X101718386Y-141647715D01*
X101552786Y-141768028D01*
X101408028Y-141912786D01*
X101287715Y-142078386D01*
X101194781Y-142260776D01*
X101131522Y-142455465D01*
X101099500Y-142657648D01*
X101099500Y-142862351D01*
X101131522Y-143064534D01*
X101194781Y-143259223D01*
X101254731Y-143376880D01*
X101286061Y-143438368D01*
X101287715Y-143441613D01*
X101408028Y-143607213D01*
X101552784Y-143751969D01*
X101589068Y-143778330D01*
X101631735Y-143833659D01*
X101637715Y-143903273D01*
X101605109Y-143965068D01*
X101544271Y-143999426D01*
X101529440Y-144001938D01*
X101492519Y-144005907D01*
X101357671Y-144056202D01*
X101357664Y-144056206D01*
X101242455Y-144142452D01*
X101242452Y-144142455D01*
X101156206Y-144257664D01*
X101156202Y-144257671D01*
X101105908Y-144392517D01*
X101099501Y-144452116D01*
X101099501Y-144452123D01*
X101099500Y-144452135D01*
X101099500Y-146147870D01*
X101099501Y-146147876D01*
X101105908Y-146207483D01*
X101156202Y-146342328D01*
X101156206Y-146342335D01*
X101242452Y-146457544D01*
X101242455Y-146457547D01*
X101357664Y-146543793D01*
X101357671Y-146543797D01*
X101492517Y-146594091D01*
X101492516Y-146594091D01*
X101499444Y-146594835D01*
X101552127Y-146600500D01*
X101891812Y-146600499D01*
X101958850Y-146620183D01*
X102004605Y-146672987D01*
X102014549Y-146742146D01*
X101985524Y-146805701D01*
X101964699Y-146824816D01*
X101922486Y-146855486D01*
X101755485Y-147022487D01*
X101755485Y-147022488D01*
X101755483Y-147022490D01*
X101695862Y-147104550D01*
X101616657Y-147213566D01*
X101509433Y-147424003D01*
X101436446Y-147648631D01*
X101399500Y-147881902D01*
X101399500Y-148118097D01*
X101436446Y-148351368D01*
X101509433Y-148575996D01*
X101563668Y-148682437D01*
X101616657Y-148786433D01*
X101755483Y-148977510D01*
X101922490Y-149144517D01*
X102102335Y-149275183D01*
X102145000Y-149330512D01*
X102150979Y-149400126D01*
X102118373Y-149461920D01*
X102057534Y-149496278D01*
X102029449Y-149499500D01*
X42870551Y-149499500D01*
X42803512Y-149479815D01*
X42757757Y-149427011D01*
X42747813Y-149357853D01*
X42776838Y-149294297D01*
X42797662Y-149275184D01*
X42977510Y-149144517D01*
X43144517Y-148977510D01*
X43283343Y-148786433D01*
X43390568Y-148575992D01*
X43463553Y-148351368D01*
X43500500Y-148118097D01*
X43500500Y-147881902D01*
X43463553Y-147648631D01*
X43429689Y-147544412D01*
X43390568Y-147424008D01*
X43390566Y-147424005D01*
X43390566Y-147424003D01*
X43283342Y-147213566D01*
X43144517Y-147022490D01*
X42977510Y-146855483D01*
X42786433Y-146716657D01*
X42575996Y-146609433D01*
X42351368Y-146536446D01*
X42118097Y-146499500D01*
X42118092Y-146499500D01*
X41881908Y-146499500D01*
X41881903Y-146499500D01*
X41648631Y-146536446D01*
X41424003Y-146609433D01*
X41213566Y-146716657D01*
X41104550Y-146795862D01*
X41022490Y-146855483D01*
X41022488Y-146855485D01*
X41022487Y-146855485D01*
X40855485Y-147022487D01*
X40855485Y-147022488D01*
X40855483Y-147022490D01*
X40777773Y-147129448D01*
X40724818Y-147202334D01*
X40669488Y-147244999D01*
X40599874Y-147250978D01*
X40538079Y-147218372D01*
X40503722Y-147157533D01*
X40500500Y-147129448D01*
X40500500Y-142029986D01*
X44755001Y-142029986D01*
X44765494Y-142132697D01*
X44820641Y-142299119D01*
X44820643Y-142299124D01*
X44912684Y-142448345D01*
X45036654Y-142572315D01*
X45185875Y-142664356D01*
X45185880Y-142664358D01*
X45352302Y-142719505D01*
X45352309Y-142719506D01*
X45455019Y-142729999D01*
X46084999Y-142729999D01*
X46585000Y-142729999D01*
X47214972Y-142729999D01*
X47214986Y-142729998D01*
X47317697Y-142719505D01*
X47484119Y-142664358D01*
X47484124Y-142664356D01*
X47633345Y-142572315D01*
X47757315Y-142448345D01*
X47849356Y-142299124D01*
X47849358Y-142299119D01*
X47904505Y-142132697D01*
X47904506Y-142132690D01*
X47914999Y-142029986D01*
X47915000Y-142029973D01*
X47915000Y-141920000D01*
X46585000Y-141920000D01*
X46585000Y-142729999D01*
X46084999Y-142729999D01*
X46085000Y-142729998D01*
X46085000Y-141920000D01*
X44755001Y-141920000D01*
X44755001Y-142029986D01*
X40500500Y-142029986D01*
X40500500Y-141310013D01*
X44755000Y-141310013D01*
X44755000Y-141420000D01*
X46085000Y-141420000D01*
X46585000Y-141420000D01*
X47914999Y-141420000D01*
X47914999Y-141310028D01*
X47914998Y-141310013D01*
X47904505Y-141207302D01*
X47849358Y-141040880D01*
X47849356Y-141040875D01*
X47757315Y-140891654D01*
X47633345Y-140767684D01*
X47484124Y-140675643D01*
X47484119Y-140675641D01*
X47317697Y-140620494D01*
X47317690Y-140620493D01*
X47214986Y-140610000D01*
X46585000Y-140610000D01*
X46585000Y-141420000D01*
X46085000Y-141420000D01*
X46085000Y-140610000D01*
X45455028Y-140610000D01*
X45455012Y-140610001D01*
X45352302Y-140620494D01*
X45185880Y-140675641D01*
X45185875Y-140675643D01*
X45036654Y-140767684D01*
X44912684Y-140891654D01*
X44820643Y-141040875D01*
X44820641Y-141040880D01*
X44765494Y-141207302D01*
X44765493Y-141207309D01*
X44755000Y-141310013D01*
X40500500Y-141310013D01*
X40500500Y-139489986D01*
X44755001Y-139489986D01*
X44765494Y-139592697D01*
X44820641Y-139759119D01*
X44820643Y-139759124D01*
X44912684Y-139908345D01*
X45036654Y-140032315D01*
X45185875Y-140124356D01*
X45185880Y-140124358D01*
X45352302Y-140179505D01*
X45352309Y-140179506D01*
X45455019Y-140189999D01*
X46084999Y-140189999D01*
X46585000Y-140189999D01*
X47214972Y-140189999D01*
X47214986Y-140189998D01*
X47317697Y-140179505D01*
X47484119Y-140124358D01*
X47484124Y-140124356D01*
X47633345Y-140032315D01*
X47757315Y-139908345D01*
X47849356Y-139759124D01*
X47849358Y-139759119D01*
X47904505Y-139592697D01*
X47904506Y-139592690D01*
X47914999Y-139489986D01*
X47915000Y-139489973D01*
X47915000Y-139380000D01*
X46585000Y-139380000D01*
X46585000Y-140189999D01*
X46084999Y-140189999D01*
X46085000Y-140189998D01*
X46085000Y-139380000D01*
X44755001Y-139380000D01*
X44755001Y-139489986D01*
X40500500Y-139489986D01*
X40500500Y-138770013D01*
X44755000Y-138770013D01*
X44755000Y-138880000D01*
X46085000Y-138880000D01*
X46585000Y-138880000D01*
X47914999Y-138880000D01*
X47914999Y-138770028D01*
X47914998Y-138770013D01*
X47904505Y-138667302D01*
X47849358Y-138500880D01*
X47849356Y-138500875D01*
X47757315Y-138351654D01*
X47633345Y-138227684D01*
X47484124Y-138135643D01*
X47484119Y-138135641D01*
X47317697Y-138080494D01*
X47317690Y-138080493D01*
X47214986Y-138070000D01*
X46585000Y-138070000D01*
X46585000Y-138880000D01*
X46085000Y-138880000D01*
X46085000Y-138070000D01*
X45455028Y-138070000D01*
X45455012Y-138070001D01*
X45352302Y-138080494D01*
X45185880Y-138135641D01*
X45185875Y-138135643D01*
X45036654Y-138227684D01*
X44912684Y-138351654D01*
X44820643Y-138500875D01*
X44820641Y-138500880D01*
X44765494Y-138667302D01*
X44765493Y-138667309D01*
X44755000Y-138770013D01*
X40500500Y-138770013D01*
X40500500Y-128929986D01*
X44755001Y-128929986D01*
X44765494Y-129032697D01*
X44820641Y-129199119D01*
X44820643Y-129199124D01*
X44912684Y-129348345D01*
X45036654Y-129472315D01*
X45185875Y-129564356D01*
X45185880Y-129564358D01*
X45352302Y-129619505D01*
X45352309Y-129619506D01*
X45455019Y-129629999D01*
X46084999Y-129629999D01*
X46585000Y-129629999D01*
X47214972Y-129629999D01*
X47214986Y-129629998D01*
X47317697Y-129619505D01*
X47484119Y-129564358D01*
X47484124Y-129564356D01*
X47633345Y-129472315D01*
X47757315Y-129348345D01*
X47849356Y-129199124D01*
X47849358Y-129199119D01*
X47904505Y-129032697D01*
X47904506Y-129032690D01*
X47914999Y-128929986D01*
X47915000Y-128929973D01*
X47915000Y-128820000D01*
X46585000Y-128820000D01*
X46585000Y-129629999D01*
X46084999Y-129629999D01*
X46085000Y-129629998D01*
X46085000Y-128820000D01*
X44755001Y-128820000D01*
X44755001Y-128929986D01*
X40500500Y-128929986D01*
X40500500Y-128210013D01*
X44755000Y-128210013D01*
X44755000Y-128320000D01*
X46085000Y-128320000D01*
X46585000Y-128320000D01*
X47914999Y-128320000D01*
X47914999Y-128210028D01*
X47914998Y-128210013D01*
X47904505Y-128107302D01*
X47849358Y-127940880D01*
X47849356Y-127940875D01*
X47757315Y-127791654D01*
X47633345Y-127667684D01*
X47484124Y-127575643D01*
X47484119Y-127575641D01*
X47317697Y-127520494D01*
X47317690Y-127520493D01*
X47214986Y-127510000D01*
X46585000Y-127510000D01*
X46585000Y-128320000D01*
X46085000Y-128320000D01*
X46085000Y-127510000D01*
X45455028Y-127510000D01*
X45455012Y-127510001D01*
X45352302Y-127520494D01*
X45185880Y-127575641D01*
X45185875Y-127575643D01*
X45036654Y-127667684D01*
X44912684Y-127791654D01*
X44820643Y-127940875D01*
X44820641Y-127940880D01*
X44765494Y-128107302D01*
X44765493Y-128107309D01*
X44755000Y-128210013D01*
X40500500Y-128210013D01*
X40500500Y-126389986D01*
X44755001Y-126389986D01*
X44765494Y-126492697D01*
X44820641Y-126659119D01*
X44820643Y-126659124D01*
X44912684Y-126808345D01*
X45036654Y-126932315D01*
X45185875Y-127024356D01*
X45185880Y-127024358D01*
X45352302Y-127079505D01*
X45352309Y-127079506D01*
X45455019Y-127089999D01*
X46084999Y-127089999D01*
X46585000Y-127089999D01*
X47214972Y-127089999D01*
X47214986Y-127089998D01*
X47317697Y-127079505D01*
X47484119Y-127024358D01*
X47484124Y-127024356D01*
X47633345Y-126932315D01*
X47757315Y-126808345D01*
X47849356Y-126659124D01*
X47849358Y-126659119D01*
X47904505Y-126492697D01*
X47904506Y-126492690D01*
X47914999Y-126389986D01*
X47915000Y-126389973D01*
X47915000Y-126280000D01*
X46585000Y-126280000D01*
X46585000Y-127089999D01*
X46084999Y-127089999D01*
X46085000Y-127089998D01*
X46085000Y-126280000D01*
X44755001Y-126280000D01*
X44755001Y-126389986D01*
X40500500Y-126389986D01*
X40500500Y-125670013D01*
X44755000Y-125670013D01*
X44755000Y-125780000D01*
X46085000Y-125780000D01*
X46585000Y-125780000D01*
X47914999Y-125780000D01*
X47914999Y-125670028D01*
X47914998Y-125670013D01*
X47904505Y-125567302D01*
X47849358Y-125400880D01*
X47849356Y-125400875D01*
X47757315Y-125251654D01*
X47633345Y-125127684D01*
X47484124Y-125035643D01*
X47484119Y-125035641D01*
X47317697Y-124980494D01*
X47317690Y-124980493D01*
X47214986Y-124970000D01*
X46585000Y-124970000D01*
X46585000Y-125780000D01*
X46085000Y-125780000D01*
X46085000Y-124970000D01*
X45455028Y-124970000D01*
X45455012Y-124970001D01*
X45352302Y-124980494D01*
X45185880Y-125035641D01*
X45185875Y-125035643D01*
X45036654Y-125127684D01*
X44912684Y-125251654D01*
X44820643Y-125400875D01*
X44820641Y-125400880D01*
X44765494Y-125567302D01*
X44765493Y-125567309D01*
X44755000Y-125670013D01*
X40500500Y-125670013D01*
X40500500Y-115929986D01*
X44755001Y-115929986D01*
X44765494Y-116032697D01*
X44820641Y-116199119D01*
X44820643Y-116199124D01*
X44912684Y-116348345D01*
X45036654Y-116472315D01*
X45185875Y-116564356D01*
X45185880Y-116564358D01*
X45352302Y-116619505D01*
X45352309Y-116619506D01*
X45455019Y-116629999D01*
X46084999Y-116629999D01*
X46585000Y-116629999D01*
X47214972Y-116629999D01*
X47214986Y-116629998D01*
X47317697Y-116619505D01*
X47484119Y-116564358D01*
X47484124Y-116564356D01*
X47633345Y-116472315D01*
X47757315Y-116348345D01*
X47849356Y-116199124D01*
X47849358Y-116199119D01*
X47904505Y-116032697D01*
X47904506Y-116032690D01*
X47914999Y-115929986D01*
X47915000Y-115929973D01*
X47915000Y-115820000D01*
X46585000Y-115820000D01*
X46585000Y-116629999D01*
X46084999Y-116629999D01*
X46085000Y-116629998D01*
X46085000Y-115820000D01*
X44755001Y-115820000D01*
X44755001Y-115929986D01*
X40500500Y-115929986D01*
X40500500Y-115210013D01*
X44755000Y-115210013D01*
X44755000Y-115320000D01*
X46085000Y-115320000D01*
X46585000Y-115320000D01*
X47914999Y-115320000D01*
X47914999Y-115210028D01*
X47914998Y-115210013D01*
X47904505Y-115107302D01*
X47849358Y-114940880D01*
X47849356Y-114940875D01*
X47757315Y-114791654D01*
X47633345Y-114667684D01*
X47484124Y-114575643D01*
X47484119Y-114575641D01*
X47317697Y-114520494D01*
X47317690Y-114520493D01*
X47214986Y-114510000D01*
X46585000Y-114510000D01*
X46585000Y-115320000D01*
X46085000Y-115320000D01*
X46085000Y-114510000D01*
X45455028Y-114510000D01*
X45455012Y-114510001D01*
X45352302Y-114520494D01*
X45185880Y-114575641D01*
X45185875Y-114575643D01*
X45036654Y-114667684D01*
X44912684Y-114791654D01*
X44820643Y-114940875D01*
X44820641Y-114940880D01*
X44765494Y-115107302D01*
X44765493Y-115107309D01*
X44755000Y-115210013D01*
X40500500Y-115210013D01*
X40500500Y-113389986D01*
X44755001Y-113389986D01*
X44765494Y-113492697D01*
X44820641Y-113659119D01*
X44820643Y-113659124D01*
X44912684Y-113808345D01*
X45036654Y-113932315D01*
X45185875Y-114024356D01*
X45185880Y-114024358D01*
X45352302Y-114079505D01*
X45352309Y-114079506D01*
X45455019Y-114089999D01*
X46084999Y-114089999D01*
X46585000Y-114089999D01*
X47214972Y-114089999D01*
X47214986Y-114089998D01*
X47317697Y-114079505D01*
X47484119Y-114024358D01*
X47484124Y-114024356D01*
X47633345Y-113932315D01*
X47757315Y-113808345D01*
X47849356Y-113659124D01*
X47849358Y-113659119D01*
X47904505Y-113492697D01*
X47904506Y-113492690D01*
X47914999Y-113389986D01*
X47915000Y-113389973D01*
X47915000Y-113280000D01*
X46585000Y-113280000D01*
X46585000Y-114089999D01*
X46084999Y-114089999D01*
X46085000Y-114089998D01*
X46085000Y-113280000D01*
X44755001Y-113280000D01*
X44755001Y-113389986D01*
X40500500Y-113389986D01*
X40500500Y-112670013D01*
X44755000Y-112670013D01*
X44755000Y-112780000D01*
X46085000Y-112780000D01*
X46585000Y-112780000D01*
X47914999Y-112780000D01*
X47914999Y-112670024D01*
X47914998Y-112670016D01*
X47914995Y-112669983D01*
X51484500Y-112669983D01*
X51484500Y-113390001D01*
X51484501Y-113390019D01*
X51495000Y-113492796D01*
X51495001Y-113492799D01*
X51550185Y-113659331D01*
X51550187Y-113659336D01*
X51574875Y-113699361D01*
X51642288Y-113808656D01*
X51766344Y-113932712D01*
X51915666Y-114024814D01*
X52082203Y-114079999D01*
X52184991Y-114090500D01*
X52340500Y-114090499D01*
X52349185Y-114093049D01*
X52358147Y-114091761D01*
X52382184Y-114102738D01*
X52407539Y-114110183D01*
X52413467Y-114117025D01*
X52421703Y-114120786D01*
X52435989Y-114143017D01*
X52453294Y-114162987D01*
X52455581Y-114173502D01*
X52459477Y-114179564D01*
X52464500Y-114214499D01*
X52464500Y-114385500D01*
X52444815Y-114452539D01*
X52392011Y-114498294D01*
X52340501Y-114509500D01*
X52184999Y-114509500D01*
X52184980Y-114509501D01*
X52082203Y-114520000D01*
X52082200Y-114520001D01*
X51915668Y-114575185D01*
X51915663Y-114575187D01*
X51766342Y-114667289D01*
X51642289Y-114791342D01*
X51550187Y-114940663D01*
X51550185Y-114940668D01*
X51541908Y-114965648D01*
X51495001Y-115107203D01*
X51495001Y-115107204D01*
X51495000Y-115107204D01*
X51484500Y-115209983D01*
X51484500Y-115930001D01*
X51484501Y-115930019D01*
X51495000Y-116032796D01*
X51495001Y-116032799D01*
X51550185Y-116199331D01*
X51550187Y-116199336D01*
X51573307Y-116236819D01*
X51642288Y-116348656D01*
X51766344Y-116472712D01*
X51915666Y-116564814D01*
X52082203Y-116619999D01*
X52184991Y-116630500D01*
X53945008Y-116630499D01*
X54047797Y-116619999D01*
X54214334Y-116564814D01*
X54363656Y-116472712D01*
X54487712Y-116348656D01*
X54561267Y-116229402D01*
X54613215Y-116182679D01*
X54666806Y-116170500D01*
X59240445Y-116170500D01*
X59307484Y-116190185D01*
X59353239Y-116242989D01*
X59363183Y-116312147D01*
X59358376Y-116332818D01*
X59331523Y-116415461D01*
X59331523Y-116415464D01*
X59299500Y-116617648D01*
X59299500Y-116822351D01*
X59331522Y-117024534D01*
X59394781Y-117219223D01*
X59487715Y-117401613D01*
X59608028Y-117567213D01*
X59752786Y-117711971D01*
X59907749Y-117824556D01*
X59918390Y-117832287D01*
X60009840Y-117878883D01*
X60011080Y-117879515D01*
X60061876Y-117927490D01*
X60078671Y-117995311D01*
X60056134Y-118061446D01*
X60011080Y-118100485D01*
X59918386Y-118147715D01*
X59752786Y-118268028D01*
X59608028Y-118412786D01*
X59487715Y-118578386D01*
X59394781Y-118760776D01*
X59331522Y-118955465D01*
X59299500Y-119157648D01*
X59299500Y-119362351D01*
X59331522Y-119564534D01*
X59394781Y-119759223D01*
X59487715Y-119941613D01*
X59608028Y-120107213D01*
X59752786Y-120251971D01*
X59907749Y-120364556D01*
X59918390Y-120372287D01*
X60009840Y-120418883D01*
X60011080Y-120419515D01*
X60061876Y-120467490D01*
X60078671Y-120535311D01*
X60056134Y-120601446D01*
X60011080Y-120640485D01*
X59918386Y-120687715D01*
X59752786Y-120808028D01*
X59608028Y-120952786D01*
X59487715Y-121118386D01*
X59394781Y-121300776D01*
X59331522Y-121495465D01*
X59299500Y-121697648D01*
X59299500Y-121902351D01*
X59331522Y-122104534D01*
X59394781Y-122299223D01*
X59458691Y-122424653D01*
X59486798Y-122479815D01*
X59487715Y-122481613D01*
X59608028Y-122647213D01*
X59752786Y-122791971D01*
X59907749Y-122904556D01*
X59918390Y-122912287D01*
X60009090Y-122958501D01*
X60011080Y-122959515D01*
X60061876Y-123007490D01*
X60078671Y-123075311D01*
X60056134Y-123141446D01*
X60011080Y-123180485D01*
X59918386Y-123227715D01*
X59752786Y-123348028D01*
X59608028Y-123492786D01*
X59487715Y-123658386D01*
X59394781Y-123840776D01*
X59331522Y-124035465D01*
X59299500Y-124237648D01*
X59299500Y-124442351D01*
X59331522Y-124644534D01*
X59361626Y-124737181D01*
X59363621Y-124807023D01*
X59327541Y-124866856D01*
X59264840Y-124897684D01*
X59243695Y-124899500D01*
X56579057Y-124899500D01*
X56420943Y-124899500D01*
X56268215Y-124940423D01*
X56268214Y-124940423D01*
X56268212Y-124940424D01*
X56268209Y-124940425D01*
X56218096Y-124969359D01*
X56218095Y-124969360D01*
X56182853Y-124989707D01*
X56131285Y-125019479D01*
X56131282Y-125019481D01*
X56072120Y-125078644D01*
X56019480Y-125131284D01*
X56019478Y-125131286D01*
X55884255Y-125266510D01*
X55757584Y-125393181D01*
X55696261Y-125426666D01*
X55669903Y-125429500D01*
X54666806Y-125429500D01*
X54599767Y-125409815D01*
X54561267Y-125370597D01*
X54487712Y-125251344D01*
X54363656Y-125127288D01*
X54222828Y-125040425D01*
X54214336Y-125035187D01*
X54214331Y-125035185D01*
X54210984Y-125034076D01*
X54047797Y-124980001D01*
X54047795Y-124980000D01*
X53945010Y-124969500D01*
X52184998Y-124969500D01*
X52184981Y-124969501D01*
X52082203Y-124980000D01*
X52082200Y-124980001D01*
X51915668Y-125035185D01*
X51915663Y-125035187D01*
X51766342Y-125127289D01*
X51642289Y-125251342D01*
X51550187Y-125400663D01*
X51550185Y-125400668D01*
X51522349Y-125484670D01*
X51495001Y-125567203D01*
X51495001Y-125567204D01*
X51495000Y-125567204D01*
X51484500Y-125669983D01*
X51484500Y-126390001D01*
X51484501Y-126390019D01*
X51495000Y-126492796D01*
X51495001Y-126492799D01*
X51550185Y-126659331D01*
X51550187Y-126659336D01*
X51585069Y-126715888D01*
X51642288Y-126808656D01*
X51766344Y-126932712D01*
X51915666Y-127024814D01*
X52082203Y-127079999D01*
X52184991Y-127090500D01*
X52340500Y-127090499D01*
X52349185Y-127093049D01*
X52358147Y-127091761D01*
X52382184Y-127102738D01*
X52407539Y-127110183D01*
X52413467Y-127117025D01*
X52421703Y-127120786D01*
X52435989Y-127143017D01*
X52453294Y-127162987D01*
X52455581Y-127173502D01*
X52459477Y-127179564D01*
X52464500Y-127214499D01*
X52464500Y-127385500D01*
X52444815Y-127452539D01*
X52392011Y-127498294D01*
X52340501Y-127509500D01*
X52184999Y-127509500D01*
X52184980Y-127509501D01*
X52082203Y-127520000D01*
X52082200Y-127520001D01*
X51915668Y-127575185D01*
X51915663Y-127575187D01*
X51766342Y-127667289D01*
X51642289Y-127791342D01*
X51550187Y-127940663D01*
X51550185Y-127940668D01*
X51535688Y-127984417D01*
X51495001Y-128107203D01*
X51495001Y-128107204D01*
X51495000Y-128107204D01*
X51484500Y-128209983D01*
X51484500Y-128930001D01*
X51484501Y-128930019D01*
X51495000Y-129032796D01*
X51495001Y-129032799D01*
X51550185Y-129199331D01*
X51550187Y-129199336D01*
X51555212Y-129207483D01*
X51642288Y-129348656D01*
X51766344Y-129472712D01*
X51915666Y-129564814D01*
X52082203Y-129619999D01*
X52184991Y-129630500D01*
X53945008Y-129630499D01*
X54047797Y-129619999D01*
X54214334Y-129564814D01*
X54363656Y-129472712D01*
X54487712Y-129348656D01*
X54579814Y-129199334D01*
X54634999Y-129032797D01*
X54645500Y-128930009D01*
X54645499Y-128209992D01*
X54634999Y-128107203D01*
X54579814Y-127940666D01*
X54487712Y-127791344D01*
X54363656Y-127667288D01*
X54214334Y-127575186D01*
X54047797Y-127520001D01*
X54047795Y-127520000D01*
X53945016Y-127509500D01*
X53945009Y-127509500D01*
X53789500Y-127509500D01*
X53780814Y-127506949D01*
X53771853Y-127508238D01*
X53747812Y-127497259D01*
X53722461Y-127489815D01*
X53716533Y-127482974D01*
X53708297Y-127479213D01*
X53694007Y-127456978D01*
X53676706Y-127437011D01*
X53674418Y-127426496D01*
X53670523Y-127420435D01*
X53665500Y-127385500D01*
X53665500Y-127214499D01*
X53685185Y-127147460D01*
X53737989Y-127101705D01*
X53789500Y-127090499D01*
X53945002Y-127090499D01*
X53945008Y-127090499D01*
X54047797Y-127079999D01*
X54214334Y-127024814D01*
X54363656Y-126932712D01*
X54487712Y-126808656D01*
X54561267Y-126689402D01*
X54613215Y-126642679D01*
X54666806Y-126630500D01*
X55883331Y-126630500D01*
X55883347Y-126630501D01*
X55890943Y-126630501D01*
X56049054Y-126630501D01*
X56049057Y-126630501D01*
X56201785Y-126589577D01*
X56251904Y-126560639D01*
X56338716Y-126510520D01*
X56450520Y-126398716D01*
X56450521Y-126398713D01*
X56712417Y-126136816D01*
X56739349Y-126122111D01*
X56765162Y-126105523D01*
X56771362Y-126104631D01*
X56773739Y-126103334D01*
X56800097Y-126100500D01*
X56975500Y-126100500D01*
X57042539Y-126120185D01*
X57088294Y-126172989D01*
X57099500Y-126224500D01*
X57099500Y-126378846D01*
X57130261Y-126533489D01*
X57130264Y-126533501D01*
X57190602Y-126679172D01*
X57190609Y-126679185D01*
X57278210Y-126810288D01*
X57278213Y-126810292D01*
X57389707Y-126921786D01*
X57389711Y-126921789D01*
X57520814Y-127009390D01*
X57520827Y-127009397D01*
X57633826Y-127056202D01*
X57666503Y-127069737D01*
X57731147Y-127082595D01*
X57821849Y-127100638D01*
X57838605Y-127109402D01*
X57857085Y-127113423D01*
X57882123Y-127132167D01*
X57883760Y-127133023D01*
X57885339Y-127134574D01*
X57995139Y-127244374D01*
X57995149Y-127244385D01*
X57999479Y-127248715D01*
X57999480Y-127248716D01*
X58111284Y-127360520D01*
X58178800Y-127399500D01*
X58248215Y-127439577D01*
X58400943Y-127480501D01*
X58400946Y-127480501D01*
X58566653Y-127480501D01*
X58566669Y-127480500D01*
X59370398Y-127480500D01*
X59437437Y-127500185D01*
X59480883Y-127548205D01*
X59487715Y-127561614D01*
X59608028Y-127727213D01*
X59752786Y-127871971D01*
X59902193Y-127980519D01*
X59918390Y-127992287D01*
X59993660Y-128030639D01*
X60011080Y-128039515D01*
X60061876Y-128087490D01*
X60078671Y-128155311D01*
X60056134Y-128221446D01*
X60011080Y-128260485D01*
X59918386Y-128307715D01*
X59752786Y-128428028D01*
X59608028Y-128572786D01*
X59487715Y-128738386D01*
X59394781Y-128920776D01*
X59331522Y-129115465D01*
X59299500Y-129317648D01*
X59299500Y-129522351D01*
X59331522Y-129724534D01*
X59394783Y-129919228D01*
X59445725Y-130019205D01*
X59458622Y-130087874D01*
X59432346Y-130152614D01*
X59375240Y-130192872D01*
X59335241Y-130199500D01*
X54086670Y-130199500D01*
X54086654Y-130199499D01*
X54079058Y-130199499D01*
X53920943Y-130199499D01*
X53844579Y-130219961D01*
X53768214Y-130240423D01*
X53768209Y-130240426D01*
X53631290Y-130319475D01*
X53631282Y-130319481D01*
X52584479Y-131366284D01*
X52577977Y-131377547D01*
X52564470Y-131400943D01*
X52505423Y-131503215D01*
X52464499Y-131655943D01*
X52464499Y-131655945D01*
X52464499Y-131824046D01*
X52464500Y-131824059D01*
X52464500Y-137945500D01*
X52444815Y-138012539D01*
X52392011Y-138058294D01*
X52340501Y-138069500D01*
X52184999Y-138069500D01*
X52184980Y-138069501D01*
X52082203Y-138080000D01*
X52082200Y-138080001D01*
X51915668Y-138135185D01*
X51915663Y-138135187D01*
X51766342Y-138227289D01*
X51642289Y-138351342D01*
X51550187Y-138500663D01*
X51550185Y-138500668D01*
X51550115Y-138500880D01*
X51495001Y-138667203D01*
X51495001Y-138667204D01*
X51495000Y-138667204D01*
X51484500Y-138769983D01*
X51484500Y-139490001D01*
X51484501Y-139490019D01*
X51495000Y-139592796D01*
X51495001Y-139592799D01*
X51529976Y-139698344D01*
X51550186Y-139759334D01*
X51642288Y-139908656D01*
X51766344Y-140032712D01*
X51915666Y-140124814D01*
X52082203Y-140179999D01*
X52184991Y-140190500D01*
X52340500Y-140190499D01*
X52349185Y-140193049D01*
X52358147Y-140191761D01*
X52382184Y-140202738D01*
X52407539Y-140210183D01*
X52413467Y-140217025D01*
X52421703Y-140220786D01*
X52435989Y-140243017D01*
X52453294Y-140262987D01*
X52455581Y-140273502D01*
X52459477Y-140279564D01*
X52464500Y-140314499D01*
X52464500Y-140485500D01*
X52444815Y-140552539D01*
X52392011Y-140598294D01*
X52340501Y-140609500D01*
X52184999Y-140609500D01*
X52184980Y-140609501D01*
X52082203Y-140620000D01*
X52082200Y-140620001D01*
X51915668Y-140675185D01*
X51915663Y-140675187D01*
X51766342Y-140767289D01*
X51642289Y-140891342D01*
X51550187Y-141040663D01*
X51550185Y-141040668D01*
X51550115Y-141040880D01*
X51495001Y-141207203D01*
X51495001Y-141207204D01*
X51495000Y-141207204D01*
X51484500Y-141309983D01*
X51484500Y-142030001D01*
X51484501Y-142030019D01*
X51495000Y-142132796D01*
X51495001Y-142132799D01*
X51542288Y-142275499D01*
X51550186Y-142299334D01*
X51642288Y-142448656D01*
X51766344Y-142572712D01*
X51915666Y-142664814D01*
X52082203Y-142719999D01*
X52184991Y-142730500D01*
X53945008Y-142730499D01*
X54047797Y-142719999D01*
X54214334Y-142664814D01*
X54363656Y-142572712D01*
X54487712Y-142448656D01*
X54579814Y-142299334D01*
X54634999Y-142132797D01*
X54645500Y-142030009D01*
X54645499Y-141309992D01*
X54641698Y-141272786D01*
X54634999Y-141207203D01*
X54634998Y-141207200D01*
X54608763Y-141128028D01*
X54579814Y-141040666D01*
X54487712Y-140891344D01*
X54363656Y-140767288D01*
X54242059Y-140692287D01*
X54214336Y-140675187D01*
X54214331Y-140675185D01*
X54212862Y-140674698D01*
X54047797Y-140620001D01*
X54047795Y-140620000D01*
X53945016Y-140609500D01*
X53945009Y-140609500D01*
X53789500Y-140609500D01*
X53780814Y-140606949D01*
X53771853Y-140608238D01*
X53747812Y-140597259D01*
X53722461Y-140589815D01*
X53716533Y-140582974D01*
X53708297Y-140579213D01*
X53694007Y-140556978D01*
X53676706Y-140537011D01*
X53674418Y-140526496D01*
X53670523Y-140520435D01*
X53665500Y-140485500D01*
X53665500Y-140314499D01*
X53685185Y-140247460D01*
X53737989Y-140201705D01*
X53789500Y-140190499D01*
X53945002Y-140190499D01*
X53945008Y-140190499D01*
X54047797Y-140179999D01*
X54214334Y-140124814D01*
X54363656Y-140032712D01*
X54487712Y-139908656D01*
X54579814Y-139759334D01*
X54634999Y-139592797D01*
X54645500Y-139490009D01*
X54645499Y-138769992D01*
X54641698Y-138732786D01*
X54634999Y-138667203D01*
X54634998Y-138667200D01*
X54608763Y-138588028D01*
X54579814Y-138500666D01*
X54487712Y-138351344D01*
X54363656Y-138227288D01*
X54242059Y-138152287D01*
X54214336Y-138135187D01*
X54214331Y-138135185D01*
X54212862Y-138134698D01*
X54047797Y-138080001D01*
X54047795Y-138080000D01*
X53945016Y-138069500D01*
X53945009Y-138069500D01*
X53789500Y-138069500D01*
X53722461Y-138049815D01*
X53676706Y-137997011D01*
X53665500Y-137945500D01*
X53665500Y-132035097D01*
X53685185Y-131968058D01*
X53701819Y-131947416D01*
X54212417Y-131436819D01*
X54273740Y-131403334D01*
X54300098Y-131400500D01*
X59243695Y-131400500D01*
X59310734Y-131420185D01*
X59356489Y-131472989D01*
X59366433Y-131542147D01*
X59361626Y-131562819D01*
X59331522Y-131655465D01*
X59299500Y-131857648D01*
X59299500Y-132062351D01*
X59331522Y-132264534D01*
X59394781Y-132459223D01*
X59487715Y-132641613D01*
X59608028Y-132807213D01*
X59752786Y-132951971D01*
X59907749Y-133064556D01*
X59918390Y-133072287D01*
X60009840Y-133118883D01*
X60011080Y-133119515D01*
X60061876Y-133167490D01*
X60078671Y-133235311D01*
X60056134Y-133301446D01*
X60011080Y-133340485D01*
X59918386Y-133387715D01*
X59752786Y-133508028D01*
X59608028Y-133652786D01*
X59487715Y-133818386D01*
X59394781Y-134000776D01*
X59331522Y-134195465D01*
X59299500Y-134397648D01*
X59299500Y-134602351D01*
X59331522Y-134804534D01*
X59394781Y-134999223D01*
X59458691Y-135124653D01*
X59480019Y-135166510D01*
X59487715Y-135181613D01*
X59608028Y-135347213D01*
X59752786Y-135491971D01*
X59907749Y-135604556D01*
X59918390Y-135612287D01*
X60009840Y-135658883D01*
X60011080Y-135659515D01*
X60061876Y-135707490D01*
X60078671Y-135775311D01*
X60056134Y-135841446D01*
X60011080Y-135880485D01*
X59918386Y-135927715D01*
X59752786Y-136048028D01*
X59608028Y-136192786D01*
X59487715Y-136358386D01*
X59394781Y-136540776D01*
X59331522Y-136735465D01*
X59299500Y-136937648D01*
X59299500Y-137142351D01*
X59331522Y-137344534D01*
X59394781Y-137539223D01*
X59487715Y-137721613D01*
X59608028Y-137887213D01*
X59752786Y-138031971D01*
X59895481Y-138135643D01*
X59918390Y-138152287D01*
X60009840Y-138198883D01*
X60011080Y-138199515D01*
X60061876Y-138247490D01*
X60078671Y-138315311D01*
X60056134Y-138381446D01*
X60011080Y-138420485D01*
X59918386Y-138467715D01*
X59752786Y-138588028D01*
X59608028Y-138732786D01*
X59487715Y-138898386D01*
X59394781Y-139080776D01*
X59331522Y-139275465D01*
X59308347Y-139421789D01*
X59299500Y-139477648D01*
X59299500Y-139682352D01*
X59302033Y-139698344D01*
X59331522Y-139884534D01*
X59394781Y-140079223D01*
X59452123Y-140191761D01*
X59480503Y-140247460D01*
X59487715Y-140261613D01*
X59608028Y-140427213D01*
X59752786Y-140571971D01*
X59895481Y-140675643D01*
X59918390Y-140692287D01*
X59971247Y-140719219D01*
X60011629Y-140739795D01*
X60062425Y-140787770D01*
X60079220Y-140855591D01*
X60056682Y-140921726D01*
X60011629Y-140960765D01*
X59918650Y-141008140D01*
X59753105Y-141128417D01*
X59753104Y-141128417D01*
X59608417Y-141273104D01*
X59608417Y-141273105D01*
X59488140Y-141438650D01*
X59395244Y-141620970D01*
X59332009Y-141815586D01*
X59323391Y-141870000D01*
X60166988Y-141870000D01*
X60134075Y-141927007D01*
X60100000Y-142054174D01*
X60100000Y-142185826D01*
X60134075Y-142312993D01*
X60166988Y-142370000D01*
X59323391Y-142370000D01*
X59332009Y-142424413D01*
X59395244Y-142619029D01*
X59488140Y-142801349D01*
X59608417Y-142966894D01*
X59608417Y-142966895D01*
X59753104Y-143111582D01*
X59918652Y-143231861D01*
X60011628Y-143279234D01*
X60062425Y-143327208D01*
X60079220Y-143395029D01*
X60056683Y-143461164D01*
X60011630Y-143500203D01*
X59918388Y-143547713D01*
X59752786Y-143668028D01*
X59608028Y-143812786D01*
X59487715Y-143978386D01*
X59394781Y-144160776D01*
X59331522Y-144355465D01*
X59299500Y-144557648D01*
X59299500Y-144762351D01*
X59331522Y-144964534D01*
X59394781Y-145159223D01*
X59487715Y-145341613D01*
X59608028Y-145507213D01*
X59752786Y-145651971D01*
X59907749Y-145764556D01*
X59918390Y-145772287D01*
X60007212Y-145817544D01*
X60100776Y-145865218D01*
X60100778Y-145865218D01*
X60100781Y-145865220D01*
X60205137Y-145899127D01*
X60295465Y-145928477D01*
X60396557Y-145944488D01*
X60497648Y-145960500D01*
X60497649Y-145960500D01*
X60702351Y-145960500D01*
X60702352Y-145960500D01*
X60904534Y-145928477D01*
X61099219Y-145865220D01*
X61281610Y-145772287D01*
X61377901Y-145702328D01*
X61447213Y-145651971D01*
X61447215Y-145651968D01*
X61447219Y-145651966D01*
X61591966Y-145507219D01*
X61591968Y-145507215D01*
X61591971Y-145507213D01*
X61644732Y-145434590D01*
X61712287Y-145341610D01*
X61805220Y-145159219D01*
X61868477Y-144964534D01*
X61900500Y-144762352D01*
X61900500Y-144557648D01*
X61883785Y-144452116D01*
X61868477Y-144355465D01*
X61805218Y-144160776D01*
X61751934Y-144056202D01*
X61712287Y-143978390D01*
X61657712Y-143903273D01*
X61591971Y-143812786D01*
X61447213Y-143668028D01*
X61281611Y-143547713D01*
X61188369Y-143500203D01*
X61182587Y-143494742D01*
X61175015Y-143492310D01*
X61157550Y-143471096D01*
X61137574Y-143452229D01*
X61135662Y-143444508D01*
X61130607Y-143438368D01*
X61127383Y-143411076D01*
X61120779Y-143384407D01*
X61123344Y-143376880D01*
X61122411Y-143368981D01*
X61134453Y-143344280D01*
X61143317Y-143318273D01*
X61150326Y-143311725D01*
X61153031Y-143306178D01*
X61170621Y-143292766D01*
X61180279Y-143283745D01*
X61183312Y-143281902D01*
X63299500Y-143281902D01*
X63299500Y-143518097D01*
X63336446Y-143751368D01*
X63409433Y-143975996D01*
X63494249Y-144142455D01*
X63516657Y-144186433D01*
X63655483Y-144377510D01*
X63822490Y-144544517D01*
X64013567Y-144683343D01*
X64112991Y-144734002D01*
X64224003Y-144790566D01*
X64224005Y-144790566D01*
X64224008Y-144790568D01*
X64344412Y-144829689D01*
X64448631Y-144863553D01*
X64681903Y-144900500D01*
X64681908Y-144900500D01*
X64918097Y-144900500D01*
X65151368Y-144863553D01*
X65375992Y-144790568D01*
X65586433Y-144683343D01*
X65777510Y-144544517D01*
X65944517Y-144377510D01*
X66083343Y-144186433D01*
X66190568Y-143975992D01*
X66263553Y-143751368D01*
X66276753Y-143668028D01*
X66300500Y-143518097D01*
X66300500Y-143281902D01*
X66263553Y-143048631D01*
X66190566Y-142824003D01*
X66134002Y-142712991D01*
X66083343Y-142613567D01*
X65944517Y-142422490D01*
X65777510Y-142255483D01*
X65586433Y-142116657D01*
X65523979Y-142084835D01*
X65375996Y-142009433D01*
X65151368Y-141936446D01*
X64918097Y-141899500D01*
X64918092Y-141899500D01*
X64681908Y-141899500D01*
X64681903Y-141899500D01*
X64448631Y-141936446D01*
X64224003Y-142009433D01*
X64013566Y-142116657D01*
X63918364Y-142185826D01*
X63822490Y-142255483D01*
X63822488Y-142255485D01*
X63822487Y-142255485D01*
X63655485Y-142422487D01*
X63655485Y-142422488D01*
X63655483Y-142422490D01*
X63595862Y-142504550D01*
X63516657Y-142613566D01*
X63409433Y-142824003D01*
X63336446Y-143048631D01*
X63299500Y-143281902D01*
X61183312Y-143281902D01*
X61361377Y-143173715D01*
X61446894Y-143111582D01*
X61446895Y-143111582D01*
X61591582Y-142966895D01*
X61591582Y-142966894D01*
X61711859Y-142801349D01*
X61804755Y-142619029D01*
X61867990Y-142424413D01*
X61876609Y-142370000D01*
X61033012Y-142370000D01*
X61065925Y-142312993D01*
X61100000Y-142185826D01*
X61100000Y-142054174D01*
X61065925Y-141927007D01*
X61033012Y-141870000D01*
X61876609Y-141870000D01*
X61867990Y-141815586D01*
X61804755Y-141620970D01*
X61711859Y-141438650D01*
X61591582Y-141273105D01*
X61591582Y-141273104D01*
X61446895Y-141128417D01*
X61281349Y-141008140D01*
X61188370Y-140960765D01*
X61137574Y-140912790D01*
X61120779Y-140844969D01*
X61143316Y-140778835D01*
X61188370Y-140739795D01*
X61188920Y-140739515D01*
X61281610Y-140692287D01*
X61305149Y-140675185D01*
X61447213Y-140571971D01*
X61447215Y-140571968D01*
X61447219Y-140571966D01*
X61591966Y-140427219D01*
X61591968Y-140427215D01*
X61591971Y-140427213D01*
X61648068Y-140350000D01*
X61712287Y-140261610D01*
X61805220Y-140079219D01*
X61868477Y-139884534D01*
X61900500Y-139682352D01*
X61900500Y-139477648D01*
X61883891Y-139372786D01*
X61868477Y-139275465D01*
X61837189Y-139179172D01*
X61805220Y-139080781D01*
X61805218Y-139080777D01*
X61805218Y-139080776D01*
X61765228Y-139002292D01*
X61712287Y-138898390D01*
X61697876Y-138878555D01*
X61591971Y-138732786D01*
X61447213Y-138588028D01*
X61281614Y-138467715D01*
X61246846Y-138450000D01*
X61188917Y-138420483D01*
X61138123Y-138372511D01*
X61121328Y-138304690D01*
X61143865Y-138238555D01*
X61188917Y-138199516D01*
X61281610Y-138152287D01*
X61323587Y-138121789D01*
X61447213Y-138031971D01*
X61447215Y-138031968D01*
X61447219Y-138031966D01*
X61591966Y-137887219D01*
X61591968Y-137887215D01*
X61591971Y-137887213D01*
X61656553Y-137798322D01*
X61712287Y-137721610D01*
X61805220Y-137539219D01*
X61868477Y-137344534D01*
X61900500Y-137142352D01*
X61900500Y-136937648D01*
X61883891Y-136832786D01*
X61868477Y-136735465D01*
X61816038Y-136574075D01*
X61805220Y-136540781D01*
X61805218Y-136540778D01*
X61805218Y-136540776D01*
X61741146Y-136415029D01*
X61712287Y-136358390D01*
X61669308Y-136299234D01*
X61591971Y-136192786D01*
X61447213Y-136048028D01*
X61281614Y-135927715D01*
X61247419Y-135910292D01*
X61188917Y-135880483D01*
X61138123Y-135832511D01*
X61121328Y-135764690D01*
X61143865Y-135698555D01*
X61188917Y-135659516D01*
X61281610Y-135612287D01*
X61302770Y-135596913D01*
X61447213Y-135491971D01*
X61447215Y-135491968D01*
X61447219Y-135491966D01*
X61591966Y-135347219D01*
X61591968Y-135347215D01*
X61591971Y-135347213D01*
X61646835Y-135271698D01*
X61712287Y-135181610D01*
X61805220Y-134999219D01*
X61868477Y-134804534D01*
X61900500Y-134602352D01*
X61900500Y-134397648D01*
X61868477Y-134195466D01*
X61805220Y-134000781D01*
X61805218Y-134000778D01*
X61805218Y-134000776D01*
X61741432Y-133875591D01*
X61712287Y-133818390D01*
X61669716Y-133759795D01*
X61591971Y-133652786D01*
X61447213Y-133508028D01*
X61281614Y-133387715D01*
X61275006Y-133384348D01*
X61188917Y-133340483D01*
X61138123Y-133292511D01*
X61121328Y-133224690D01*
X61143865Y-133158555D01*
X61188917Y-133119516D01*
X61281610Y-133072287D01*
X61302770Y-133056913D01*
X61447213Y-132951971D01*
X61447215Y-132951968D01*
X61447219Y-132951966D01*
X61591966Y-132807219D01*
X61591968Y-132807215D01*
X61591971Y-132807213D01*
X61644732Y-132734590D01*
X61712287Y-132641610D01*
X61805220Y-132459219D01*
X61868477Y-132264534D01*
X61900500Y-132062352D01*
X61900500Y-131857648D01*
X61883891Y-131752786D01*
X61868477Y-131655465D01*
X61838374Y-131562819D01*
X61836379Y-131492977D01*
X61872459Y-131433144D01*
X61935160Y-131402316D01*
X61956305Y-131400500D01*
X71833331Y-131400500D01*
X71833347Y-131400501D01*
X71840943Y-131400501D01*
X71999054Y-131400501D01*
X71999057Y-131400501D01*
X72151785Y-131359577D01*
X72216492Y-131322218D01*
X72288716Y-131280520D01*
X72400520Y-131168716D01*
X72400520Y-131168714D01*
X72410724Y-131158511D01*
X72410728Y-131158506D01*
X74327819Y-129241415D01*
X74389142Y-129207930D01*
X74458834Y-129212914D01*
X74514767Y-129254786D01*
X74539184Y-129320250D01*
X74539500Y-129329096D01*
X74539500Y-129522351D01*
X74571522Y-129724534D01*
X74634781Y-129919223D01*
X74671776Y-129991828D01*
X74720714Y-130087874D01*
X74727715Y-130101613D01*
X74848028Y-130267213D01*
X74992786Y-130411971D01*
X75147749Y-130524556D01*
X75158390Y-130532287D01*
X75249840Y-130578883D01*
X75251080Y-130579515D01*
X75301876Y-130627490D01*
X75318671Y-130695311D01*
X75296134Y-130761446D01*
X75251080Y-130800485D01*
X75158386Y-130847715D01*
X74992786Y-130968028D01*
X74848028Y-131112786D01*
X74727715Y-131278386D01*
X74634781Y-131460776D01*
X74571522Y-131655465D01*
X74539500Y-131857648D01*
X74539500Y-132062351D01*
X74571522Y-132264534D01*
X74634781Y-132459223D01*
X74727715Y-132641613D01*
X74848028Y-132807213D01*
X74992786Y-132951971D01*
X75147749Y-133064556D01*
X75158390Y-133072287D01*
X75249840Y-133118883D01*
X75251080Y-133119515D01*
X75301876Y-133167490D01*
X75318671Y-133235311D01*
X75296134Y-133301446D01*
X75251080Y-133340485D01*
X75158386Y-133387715D01*
X74992786Y-133508028D01*
X74848028Y-133652786D01*
X74727715Y-133818386D01*
X74634781Y-134000776D01*
X74571522Y-134195465D01*
X74539500Y-134397648D01*
X74539500Y-134602351D01*
X74571522Y-134804534D01*
X74634781Y-134999223D01*
X74698691Y-135124653D01*
X74720019Y-135166510D01*
X74727715Y-135181613D01*
X74848028Y-135347213D01*
X74992786Y-135491971D01*
X75147749Y-135604556D01*
X75158390Y-135612287D01*
X75210878Y-135639031D01*
X75251629Y-135659795D01*
X75302425Y-135707770D01*
X75319220Y-135775591D01*
X75296682Y-135841726D01*
X75251629Y-135880765D01*
X75158650Y-135928140D01*
X74993105Y-136048417D01*
X74993104Y-136048417D01*
X74848417Y-136193104D01*
X74848417Y-136193105D01*
X74728140Y-136358650D01*
X74635244Y-136540970D01*
X74572009Y-136735586D01*
X74563391Y-136790000D01*
X75406988Y-136790000D01*
X75374075Y-136847007D01*
X75340000Y-136974174D01*
X75340000Y-137105826D01*
X75374075Y-137232993D01*
X75406988Y-137290000D01*
X74563391Y-137290000D01*
X74572009Y-137344413D01*
X74635244Y-137539029D01*
X74728140Y-137721349D01*
X74848417Y-137886894D01*
X74848417Y-137886895D01*
X74993104Y-138031582D01*
X75158652Y-138151861D01*
X75251628Y-138199234D01*
X75302425Y-138247208D01*
X75319220Y-138315029D01*
X75296683Y-138381164D01*
X75251630Y-138420203D01*
X75158388Y-138467713D01*
X74992786Y-138588028D01*
X74848028Y-138732786D01*
X74727715Y-138898386D01*
X74634781Y-139080776D01*
X74571522Y-139275465D01*
X74548347Y-139421789D01*
X74539500Y-139477648D01*
X74539500Y-139682352D01*
X74542033Y-139698344D01*
X74571522Y-139884534D01*
X74634781Y-140079223D01*
X74692123Y-140191761D01*
X74720503Y-140247460D01*
X74727715Y-140261613D01*
X74848028Y-140427213D01*
X74992786Y-140571971D01*
X75135481Y-140675643D01*
X75158390Y-140692287D01*
X75239269Y-140733497D01*
X75251080Y-140739515D01*
X75301876Y-140787490D01*
X75318671Y-140855311D01*
X75296134Y-140921446D01*
X75251080Y-140960485D01*
X75158386Y-141007715D01*
X74992786Y-141128028D01*
X74848028Y-141272786D01*
X74727715Y-141438386D01*
X74634781Y-141620776D01*
X74571522Y-141815465D01*
X74539500Y-142017648D01*
X74539500Y-142222351D01*
X74571522Y-142424534D01*
X74634781Y-142619223D01*
X74727715Y-142801613D01*
X74848028Y-142967213D01*
X74992784Y-143111969D01*
X75029068Y-143138330D01*
X75071735Y-143193659D01*
X75077715Y-143263273D01*
X75045109Y-143325068D01*
X74984271Y-143359426D01*
X74969440Y-143361938D01*
X74932519Y-143365907D01*
X74797671Y-143416202D01*
X74797664Y-143416206D01*
X74682455Y-143502452D01*
X74682452Y-143502455D01*
X74596206Y-143617664D01*
X74596202Y-143617671D01*
X74545908Y-143752517D01*
X74542105Y-143787895D01*
X74539501Y-143812123D01*
X74539500Y-143812135D01*
X74539500Y-145507870D01*
X74539501Y-145507876D01*
X74545908Y-145567483D01*
X74596202Y-145702328D01*
X74596206Y-145702335D01*
X74682452Y-145817544D01*
X74682455Y-145817547D01*
X74797664Y-145903793D01*
X74797671Y-145903797D01*
X74932517Y-145954091D01*
X74932516Y-145954091D01*
X74939444Y-145954835D01*
X74992127Y-145960500D01*
X76687872Y-145960499D01*
X76747483Y-145954091D01*
X76882331Y-145903796D01*
X76997546Y-145817546D01*
X77083796Y-145702331D01*
X77134091Y-145567483D01*
X77140500Y-145507873D01*
X77140499Y-143812128D01*
X77134091Y-143752517D01*
X77133885Y-143751966D01*
X77083797Y-143617671D01*
X77083793Y-143617664D01*
X76997547Y-143502455D01*
X76997544Y-143502452D01*
X76882335Y-143416206D01*
X76882328Y-143416202D01*
X76747482Y-143365908D01*
X76747483Y-143365908D01*
X76710560Y-143361939D01*
X76646009Y-143335201D01*
X76606160Y-143277809D01*
X76603667Y-143207984D01*
X76639319Y-143147895D01*
X76650930Y-143138331D01*
X76687219Y-143111966D01*
X76831966Y-142967219D01*
X76831968Y-142967215D01*
X76831971Y-142967213D01*
X76884732Y-142894590D01*
X76952287Y-142801610D01*
X77045220Y-142619219D01*
X77108477Y-142424534D01*
X77140500Y-142222352D01*
X77140500Y-142017648D01*
X77138186Y-142003040D01*
X77108477Y-141815465D01*
X77053971Y-141647715D01*
X77045220Y-141620781D01*
X77045218Y-141620778D01*
X77045218Y-141620776D01*
X77033777Y-141598322D01*
X85600001Y-141598322D01*
X85610144Y-141697607D01*
X85663452Y-141858481D01*
X85663457Y-141858492D01*
X85752424Y-142002728D01*
X85752427Y-142002732D01*
X85872267Y-142122572D01*
X85872271Y-142122575D01*
X86016507Y-142211542D01*
X86016518Y-142211547D01*
X86177393Y-142264855D01*
X86276683Y-142274999D01*
X86300000Y-142274998D01*
X86300000Y-141550000D01*
X85600001Y-141550000D01*
X85600001Y-141598322D01*
X77033777Y-141598322D01*
X77011669Y-141554933D01*
X76998143Y-141528388D01*
X76952287Y-141438390D01*
X76937876Y-141418555D01*
X76831971Y-141272786D01*
X76687219Y-141128034D01*
X76647046Y-141098847D01*
X76647044Y-141098844D01*
X76521614Y-141007715D01*
X76509764Y-141001677D01*
X85600000Y-141001677D01*
X85600000Y-141050000D01*
X86300000Y-141050000D01*
X86300000Y-139650000D01*
X85600001Y-139650000D01*
X85600001Y-139698322D01*
X85610144Y-139797607D01*
X85663452Y-139958481D01*
X85663457Y-139958492D01*
X85752424Y-140102728D01*
X85752427Y-140102732D01*
X85872268Y-140222573D01*
X85907755Y-140244462D01*
X85954479Y-140296410D01*
X85965700Y-140365373D01*
X85937856Y-140429455D01*
X85907755Y-140455538D01*
X85872268Y-140477426D01*
X85752427Y-140597267D01*
X85752424Y-140597271D01*
X85663457Y-140741507D01*
X85663452Y-140741518D01*
X85610144Y-140902393D01*
X85600000Y-141001677D01*
X76509764Y-141001677D01*
X76428917Y-140960483D01*
X76378123Y-140912511D01*
X76361328Y-140844690D01*
X76383865Y-140778555D01*
X76428917Y-140739516D01*
X76521610Y-140692287D01*
X76545149Y-140675185D01*
X76687213Y-140571971D01*
X76687215Y-140571968D01*
X76687219Y-140571966D01*
X76831966Y-140427219D01*
X76831968Y-140427215D01*
X76831971Y-140427213D01*
X76888068Y-140350000D01*
X76952287Y-140261610D01*
X77045220Y-140079219D01*
X77108477Y-139884534D01*
X77140500Y-139682352D01*
X77140500Y-139477648D01*
X77108477Y-139275466D01*
X77108476Y-139275462D01*
X77108476Y-139275461D01*
X77063437Y-139136846D01*
X77053971Y-139107713D01*
X77052010Y-139101677D01*
X85600000Y-139101677D01*
X85600000Y-139150000D01*
X86300000Y-139150000D01*
X86300000Y-137750000D01*
X85600001Y-137750000D01*
X85600001Y-137798322D01*
X85610144Y-137897607D01*
X85663452Y-138058481D01*
X85663457Y-138058492D01*
X85752424Y-138202728D01*
X85752427Y-138202732D01*
X85872268Y-138322573D01*
X85907755Y-138344462D01*
X85954479Y-138396410D01*
X85965700Y-138465373D01*
X85937856Y-138529455D01*
X85907755Y-138555538D01*
X85872268Y-138577426D01*
X85752427Y-138697267D01*
X85752424Y-138697271D01*
X85663457Y-138841507D01*
X85663452Y-138841518D01*
X85610144Y-139002393D01*
X85600000Y-139101677D01*
X77052010Y-139101677D01*
X77045220Y-139080781D01*
X76952287Y-138898390D01*
X76937876Y-138878555D01*
X76831971Y-138732786D01*
X76687213Y-138588028D01*
X76521611Y-138467713D01*
X76428369Y-138420203D01*
X76377574Y-138372229D01*
X76360779Y-138304407D01*
X76383317Y-138238273D01*
X76428371Y-138199234D01*
X76521347Y-138151861D01*
X76686894Y-138031582D01*
X76686895Y-138031582D01*
X76831582Y-137886895D01*
X76831582Y-137886894D01*
X76951859Y-137721349D01*
X77044755Y-137539029D01*
X77107990Y-137344413D01*
X77116609Y-137290000D01*
X76273012Y-137290000D01*
X76305925Y-137232993D01*
X76314316Y-137201677D01*
X85600000Y-137201677D01*
X85600000Y-137250000D01*
X86300000Y-137250000D01*
X86300000Y-136525000D01*
X86800000Y-136525000D01*
X86800000Y-142274999D01*
X86823308Y-142274999D01*
X86823322Y-142274998D01*
X86922607Y-142264855D01*
X87083481Y-142211547D01*
X87083492Y-142211542D01*
X87227731Y-142122573D01*
X87236959Y-142113345D01*
X87298279Y-142079856D01*
X87367971Y-142084835D01*
X87412327Y-142113339D01*
X87421955Y-142122967D01*
X87421959Y-142122970D01*
X87566294Y-142211998D01*
X87566297Y-142211999D01*
X87566303Y-142212003D01*
X87727292Y-142265349D01*
X87826655Y-142275500D01*
X88373344Y-142275499D01*
X88373352Y-142275498D01*
X88373355Y-142275498D01*
X88427760Y-142269940D01*
X88472708Y-142265349D01*
X88633697Y-142212003D01*
X88778044Y-142122968D01*
X88897968Y-142003044D01*
X88987003Y-141858697D01*
X88987005Y-141858689D01*
X88990056Y-141852150D01*
X88992641Y-141853355D01*
X89019700Y-141811914D01*
X89029340Y-141803253D01*
X89068716Y-141780520D01*
X89180520Y-141668716D01*
X89180521Y-141668713D01*
X89594585Y-141254648D01*
X89634809Y-141227771D01*
X89679179Y-141209394D01*
X89810289Y-141121789D01*
X89921789Y-141010289D01*
X90009394Y-140879179D01*
X90069737Y-140733497D01*
X90100500Y-140578842D01*
X90100500Y-140421158D01*
X90100500Y-140421155D01*
X90100499Y-140421153D01*
X90093904Y-140387997D01*
X90069737Y-140266503D01*
X90061849Y-140247460D01*
X90009397Y-140120827D01*
X90009390Y-140120814D01*
X89921789Y-139989711D01*
X89921786Y-139989707D01*
X89810292Y-139878213D01*
X89810288Y-139878210D01*
X89679185Y-139790609D01*
X89679172Y-139790602D01*
X89616301Y-139764561D01*
X89561897Y-139720721D01*
X89539832Y-139654427D01*
X89557111Y-139586727D01*
X89608248Y-139539116D01*
X89616301Y-139535439D01*
X89679172Y-139509397D01*
X89679172Y-139509396D01*
X89679179Y-139509394D01*
X89810289Y-139421789D01*
X89921789Y-139310289D01*
X90009394Y-139179179D01*
X90069737Y-139033497D01*
X90100500Y-138878842D01*
X90100500Y-138721158D01*
X90100500Y-138721155D01*
X90100499Y-138721153D01*
X90069737Y-138566503D01*
X90065195Y-138555538D01*
X90009397Y-138420827D01*
X90009390Y-138420814D01*
X89921789Y-138289711D01*
X89921786Y-138289707D01*
X89869760Y-138237681D01*
X89836275Y-138176358D01*
X89841259Y-138106666D01*
X89869760Y-138062319D01*
X89921786Y-138010292D01*
X89921789Y-138010289D01*
X90009394Y-137879179D01*
X90069737Y-137733497D01*
X90100500Y-137578842D01*
X90100500Y-137421158D01*
X90100500Y-137421155D01*
X90100499Y-137421153D01*
X90069738Y-137266510D01*
X90069737Y-137266503D01*
X90055857Y-137232993D01*
X90009397Y-137120827D01*
X90009390Y-137120814D01*
X89921789Y-136989711D01*
X89921786Y-136989707D01*
X89810292Y-136878213D01*
X89810288Y-136878210D01*
X89679185Y-136790609D01*
X89679172Y-136790602D01*
X89533501Y-136730264D01*
X89533489Y-136730261D01*
X89378845Y-136699500D01*
X89378842Y-136699500D01*
X89221158Y-136699500D01*
X89221155Y-136699500D01*
X89066510Y-136730261D01*
X89066498Y-136730264D01*
X88976718Y-136767452D01*
X88907248Y-136774921D01*
X88844769Y-136743645D01*
X88841585Y-136740573D01*
X88816171Y-136715159D01*
X88778044Y-136677032D01*
X88778041Y-136677030D01*
X88778040Y-136677029D01*
X88633705Y-136588001D01*
X88633699Y-136587998D01*
X88633697Y-136587997D01*
X88591683Y-136574075D01*
X88472709Y-136534651D01*
X88373346Y-136524500D01*
X87826662Y-136524500D01*
X87826644Y-136524501D01*
X87727292Y-136534650D01*
X87727289Y-136534651D01*
X87566305Y-136587996D01*
X87566294Y-136588001D01*
X87421959Y-136677029D01*
X87421953Y-136677033D01*
X87412324Y-136686663D01*
X87351000Y-136720146D01*
X87281308Y-136715159D01*
X87236965Y-136686660D01*
X87227732Y-136677427D01*
X87227728Y-136677424D01*
X87083492Y-136588457D01*
X87083481Y-136588452D01*
X86922606Y-136535144D01*
X86823322Y-136525000D01*
X86800000Y-136525000D01*
X86300000Y-136525000D01*
X86300000Y-136524999D01*
X86276693Y-136525000D01*
X86276674Y-136525001D01*
X86177392Y-136535144D01*
X86016518Y-136588452D01*
X86016507Y-136588457D01*
X85872271Y-136677424D01*
X85872267Y-136677427D01*
X85752427Y-136797267D01*
X85752424Y-136797271D01*
X85663457Y-136941507D01*
X85663452Y-136941518D01*
X85610144Y-137102393D01*
X85600000Y-137201677D01*
X76314316Y-137201677D01*
X76340000Y-137105826D01*
X76340000Y-136974174D01*
X76305925Y-136847007D01*
X76273012Y-136790000D01*
X77116609Y-136790000D01*
X77107990Y-136735586D01*
X77044755Y-136540970D01*
X76951859Y-136358650D01*
X76831582Y-136193105D01*
X76831582Y-136193104D01*
X76686895Y-136048417D01*
X76521349Y-135928140D01*
X76428370Y-135880765D01*
X76377574Y-135832790D01*
X76360779Y-135764969D01*
X76383316Y-135698835D01*
X76428370Y-135659795D01*
X76428920Y-135659515D01*
X76521610Y-135612287D01*
X76542770Y-135596913D01*
X76687213Y-135491971D01*
X76687215Y-135491968D01*
X76687219Y-135491966D01*
X76831966Y-135347219D01*
X76831968Y-135347215D01*
X76831971Y-135347213D01*
X76875182Y-135287738D01*
X76930511Y-135245072D01*
X77000125Y-135239093D01*
X77061920Y-135271698D01*
X77096277Y-135332537D01*
X77099500Y-135360623D01*
X77099500Y-135478846D01*
X77130261Y-135633489D01*
X77130264Y-135633501D01*
X77190602Y-135779172D01*
X77190609Y-135779185D01*
X77278210Y-135910288D01*
X77278213Y-135910292D01*
X77389707Y-136021786D01*
X77389711Y-136021789D01*
X77520814Y-136109390D01*
X77520827Y-136109397D01*
X77666498Y-136169735D01*
X77666503Y-136169737D01*
X77821153Y-136200499D01*
X77821156Y-136200500D01*
X77821158Y-136200500D01*
X77978844Y-136200500D01*
X77978845Y-136200499D01*
X78133497Y-136169737D01*
X78279179Y-136109394D01*
X78410289Y-136021789D01*
X78521789Y-135910289D01*
X78609394Y-135779179D01*
X78615396Y-135764690D01*
X78639088Y-135707490D01*
X78669737Y-135633497D01*
X78700500Y-135478842D01*
X78700500Y-135321158D01*
X78700500Y-135321155D01*
X78700499Y-135321153D01*
X78674940Y-135192661D01*
X78669737Y-135166503D01*
X78609394Y-135020821D01*
X78521789Y-134889711D01*
X78521035Y-134888957D01*
X78517407Y-134882741D01*
X78509877Y-134852332D01*
X78500520Y-134822447D01*
X78500500Y-134820234D01*
X78500500Y-131569059D01*
X78500501Y-131569046D01*
X78500501Y-131400944D01*
X78500501Y-131400943D01*
X78459577Y-131248215D01*
X78430639Y-131198095D01*
X78380520Y-131111284D01*
X78268716Y-130999480D01*
X78268715Y-130999479D01*
X78264385Y-130995149D01*
X78264374Y-130995139D01*
X77134077Y-129864842D01*
X77100592Y-129803519D01*
X77103828Y-129738841D01*
X77108477Y-129724534D01*
X77140500Y-129522352D01*
X77140500Y-129317648D01*
X77139687Y-129312516D01*
X77108477Y-129115465D01*
X77051801Y-128941036D01*
X77045220Y-128920781D01*
X77045218Y-128920778D01*
X77045218Y-128920776D01*
X76993869Y-128820000D01*
X76952287Y-128738390D01*
X76944556Y-128727749D01*
X76831971Y-128572786D01*
X76687213Y-128428028D01*
X76521614Y-128307715D01*
X76446591Y-128269489D01*
X76428917Y-128260483D01*
X76378123Y-128212511D01*
X76361328Y-128144690D01*
X76383865Y-128078555D01*
X76428917Y-128039516D01*
X76521610Y-127992287D01*
X76542770Y-127976913D01*
X76687213Y-127871971D01*
X76687215Y-127871968D01*
X76687219Y-127871966D01*
X76831966Y-127727219D01*
X76831968Y-127727215D01*
X76831971Y-127727213D01*
X76904532Y-127627339D01*
X76952287Y-127561610D01*
X77008071Y-127452127D01*
X77045218Y-127379223D01*
X77045218Y-127379222D01*
X77045220Y-127379219D01*
X77108477Y-127184534D01*
X77140500Y-126982352D01*
X77140500Y-126777648D01*
X77108477Y-126575466D01*
X77103660Y-126560642D01*
X77094838Y-126533489D01*
X77045220Y-126380781D01*
X77045215Y-126380771D01*
X77045215Y-126380770D01*
X77043353Y-126376272D01*
X77044305Y-126375877D01*
X77032330Y-126312132D01*
X77058603Y-126247390D01*
X77115708Y-126207130D01*
X77155712Y-126200500D01*
X90320234Y-126200500D01*
X90387273Y-126220185D01*
X90389125Y-126221398D01*
X90520814Y-126309390D01*
X90520827Y-126309397D01*
X90666498Y-126369735D01*
X90666503Y-126369737D01*
X90812174Y-126398713D01*
X90821153Y-126400499D01*
X90821156Y-126400500D01*
X90821158Y-126400500D01*
X90978844Y-126400500D01*
X90978845Y-126400499D01*
X91133497Y-126369737D01*
X91279179Y-126309394D01*
X91410289Y-126221789D01*
X91521789Y-126110289D01*
X91609394Y-125979179D01*
X91669737Y-125833497D01*
X91700500Y-125678842D01*
X91700500Y-125521158D01*
X91700500Y-125521155D01*
X91700499Y-125521153D01*
X91685258Y-125444534D01*
X91669737Y-125366503D01*
X91628314Y-125266498D01*
X91609397Y-125220827D01*
X91609390Y-125220814D01*
X91521789Y-125089711D01*
X91521786Y-125089707D01*
X91410292Y-124978213D01*
X91410288Y-124978210D01*
X91279185Y-124890609D01*
X91279172Y-124890602D01*
X91133501Y-124830264D01*
X91133489Y-124830261D01*
X90978845Y-124799500D01*
X90978842Y-124799500D01*
X90821158Y-124799500D01*
X90821155Y-124799500D01*
X90666510Y-124830261D01*
X90666498Y-124830264D01*
X90520827Y-124890602D01*
X90520814Y-124890609D01*
X90389125Y-124978602D01*
X90322447Y-124999480D01*
X90320234Y-124999500D01*
X77163813Y-124999500D01*
X77096774Y-124979815D01*
X77051019Y-124927011D01*
X77041075Y-124857853D01*
X77045882Y-124837182D01*
X77108476Y-124644538D01*
X77108476Y-124644537D01*
X77108477Y-124644534D01*
X77140500Y-124442352D01*
X77140500Y-124237648D01*
X77113505Y-124067213D01*
X77108477Y-124035465D01*
X77075025Y-123932511D01*
X77052379Y-123862817D01*
X77050385Y-123792977D01*
X77086465Y-123733144D01*
X77149166Y-123702316D01*
X77170311Y-123700500D01*
X78420234Y-123700500D01*
X78487273Y-123720185D01*
X78489125Y-123721398D01*
X78620814Y-123809390D01*
X78620827Y-123809397D01*
X78696584Y-123840776D01*
X78766503Y-123869737D01*
X78921153Y-123900499D01*
X78921156Y-123900500D01*
X78921158Y-123900500D01*
X79078844Y-123900500D01*
X79078845Y-123900499D01*
X79186657Y-123879054D01*
X92799498Y-123879054D01*
X92799499Y-123879057D01*
X92839332Y-124027715D01*
X92840424Y-124031787D01*
X92849879Y-124048163D01*
X92849880Y-124048165D01*
X92919477Y-124168712D01*
X92919481Y-124168717D01*
X93038349Y-124287585D01*
X93038355Y-124287590D01*
X93415731Y-124664966D01*
X93449216Y-124726289D01*
X93445981Y-124790964D01*
X93431524Y-124835457D01*
X93431523Y-124835464D01*
X93399500Y-125037648D01*
X93399500Y-125242351D01*
X93431522Y-125444534D01*
X93494781Y-125639223D01*
X93542813Y-125733489D01*
X93583153Y-125812661D01*
X93587715Y-125821613D01*
X93708028Y-125987213D01*
X93852786Y-126131971D01*
X94018385Y-126252284D01*
X94018387Y-126252285D01*
X94018390Y-126252287D01*
X94111630Y-126299795D01*
X94162426Y-126347770D01*
X94179221Y-126415591D01*
X94156684Y-126481725D01*
X94111630Y-126520765D01*
X94018644Y-126568143D01*
X93974077Y-126600523D01*
X93974077Y-126600524D01*
X94653554Y-127280000D01*
X94647339Y-127280000D01*
X94545606Y-127307259D01*
X94454394Y-127359920D01*
X94379920Y-127434394D01*
X94327259Y-127525606D01*
X94300000Y-127627339D01*
X94300000Y-127633553D01*
X93620524Y-126954077D01*
X93620523Y-126954077D01*
X93588143Y-126998644D01*
X93495244Y-127180968D01*
X93432009Y-127375582D01*
X93400000Y-127577682D01*
X93400000Y-127782317D01*
X93432009Y-127984417D01*
X93495244Y-128179031D01*
X93588141Y-128361350D01*
X93588147Y-128361359D01*
X93620523Y-128405921D01*
X93620524Y-128405922D01*
X94300000Y-127726446D01*
X94300000Y-127732661D01*
X94327259Y-127834394D01*
X94379920Y-127925606D01*
X94454394Y-128000080D01*
X94545606Y-128052741D01*
X94647339Y-128080000D01*
X94653553Y-128080000D01*
X93974076Y-128759474D01*
X93976146Y-128785772D01*
X93961781Y-128854149D01*
X93912730Y-128903906D01*
X93855405Y-128918762D01*
X93855423Y-128919099D01*
X93855429Y-128919146D01*
X93855426Y-128919146D01*
X93855436Y-128919324D01*
X93852668Y-128919472D01*
X93852561Y-128919500D01*
X93852146Y-128919500D01*
X93852123Y-128919501D01*
X93792516Y-128925908D01*
X93657671Y-128976202D01*
X93657664Y-128976206D01*
X93542455Y-129062452D01*
X93542452Y-129062455D01*
X93456206Y-129177664D01*
X93456202Y-129177671D01*
X93405908Y-129312517D01*
X93402023Y-129348656D01*
X93399501Y-129372123D01*
X93399500Y-129372135D01*
X93399500Y-131067870D01*
X93399501Y-131067876D01*
X93405908Y-131127483D01*
X93456202Y-131262328D01*
X93456206Y-131262335D01*
X93542452Y-131377544D01*
X93542455Y-131377547D01*
X93657664Y-131463793D01*
X93657671Y-131463797D01*
X93792517Y-131514091D01*
X93792516Y-131514091D01*
X93799444Y-131514835D01*
X93852127Y-131520500D01*
X95547872Y-131520499D01*
X95607483Y-131514091D01*
X95742331Y-131463796D01*
X95857546Y-131377546D01*
X95943796Y-131262331D01*
X95994091Y-131127483D01*
X96000500Y-131067873D01*
X96000499Y-129372128D01*
X95994091Y-129312517D01*
X95951877Y-129199336D01*
X95943797Y-129177671D01*
X95943793Y-129177664D01*
X95857547Y-129062455D01*
X95857544Y-129062452D01*
X95742335Y-128976206D01*
X95742328Y-128976202D01*
X95607482Y-128925908D01*
X95607483Y-128925908D01*
X95547883Y-128919501D01*
X95547881Y-128919500D01*
X95547873Y-128919500D01*
X95547865Y-128919500D01*
X95547470Y-128919500D01*
X95547381Y-128919474D01*
X95544548Y-128919322D01*
X95544583Y-128918652D01*
X95480431Y-128899815D01*
X95434676Y-128847011D01*
X95423852Y-128785771D01*
X95425921Y-128759473D01*
X94746447Y-128080000D01*
X94752661Y-128080000D01*
X94854394Y-128052741D01*
X94945606Y-128000080D01*
X95020080Y-127925606D01*
X95072741Y-127834394D01*
X95100000Y-127732661D01*
X95100000Y-127726447D01*
X95779474Y-128405921D01*
X95811859Y-128361349D01*
X95904755Y-128179031D01*
X95967990Y-127984417D01*
X96000000Y-127782317D01*
X96000000Y-127577682D01*
X95982660Y-127468204D01*
X95967990Y-127375582D01*
X95904755Y-127180968D01*
X95811859Y-126998650D01*
X95779474Y-126954077D01*
X95779474Y-126954076D01*
X95100000Y-127633551D01*
X95100000Y-127627339D01*
X95072741Y-127525606D01*
X95020080Y-127434394D01*
X94945606Y-127359920D01*
X94854394Y-127307259D01*
X94752661Y-127280000D01*
X94746446Y-127280000D01*
X95425922Y-126600524D01*
X95425921Y-126600523D01*
X95381359Y-126568147D01*
X95381350Y-126568141D01*
X95288369Y-126520765D01*
X95237573Y-126472790D01*
X95220778Y-126404969D01*
X95243315Y-126338835D01*
X95288370Y-126299795D01*
X95381610Y-126252287D01*
X95445976Y-126205523D01*
X95547213Y-126131971D01*
X95547215Y-126131968D01*
X95547219Y-126131966D01*
X95691966Y-125987219D01*
X95691968Y-125987215D01*
X95691971Y-125987213D01*
X95744876Y-125914394D01*
X95812287Y-125821610D01*
X95905220Y-125639219D01*
X95968477Y-125444534D01*
X96000500Y-125242352D01*
X96000500Y-125037648D01*
X95991447Y-124980493D01*
X95968477Y-124835465D01*
X95907611Y-124648141D01*
X95905220Y-124640781D01*
X95905218Y-124640778D01*
X95905218Y-124640776D01*
X95860386Y-124552790D01*
X95812287Y-124458390D01*
X95800634Y-124442351D01*
X95691971Y-124292786D01*
X95547213Y-124148028D01*
X95381614Y-124027715D01*
X95375006Y-124024348D01*
X95288917Y-123980483D01*
X95238123Y-123932511D01*
X95221328Y-123864690D01*
X95243865Y-123798555D01*
X95288917Y-123759516D01*
X95381610Y-123712287D01*
X95402770Y-123696913D01*
X95547213Y-123591971D01*
X95547215Y-123591968D01*
X95547219Y-123591966D01*
X95691966Y-123447219D01*
X95691968Y-123447215D01*
X95691971Y-123447213D01*
X95812284Y-123281614D01*
X95812283Y-123281614D01*
X95812287Y-123281610D01*
X95819117Y-123268204D01*
X95867091Y-123217409D01*
X95929602Y-123200500D01*
X97853331Y-123200500D01*
X97853347Y-123200501D01*
X97860943Y-123200501D01*
X98019054Y-123200501D01*
X98019057Y-123200501D01*
X98171785Y-123159577D01*
X98221904Y-123130639D01*
X98308716Y-123080520D01*
X98420520Y-122968716D01*
X98420520Y-122968714D01*
X98430728Y-122958507D01*
X98430730Y-122958504D01*
X100887819Y-120501415D01*
X100949142Y-120467930D01*
X101018834Y-120472914D01*
X101074767Y-120514786D01*
X101099184Y-120580250D01*
X101099500Y-120589096D01*
X101099500Y-120782351D01*
X101131522Y-120984534D01*
X101194781Y-121179223D01*
X101246036Y-121279815D01*
X101272382Y-121331522D01*
X101287715Y-121361613D01*
X101408028Y-121527213D01*
X101552786Y-121671971D01*
X101664014Y-121752781D01*
X101718390Y-121792287D01*
X101809840Y-121838883D01*
X101811080Y-121839515D01*
X101861876Y-121887490D01*
X101878671Y-121955311D01*
X101856134Y-122021446D01*
X101811080Y-122060485D01*
X101718386Y-122107715D01*
X101552786Y-122228028D01*
X101408028Y-122372786D01*
X101287715Y-122538386D01*
X101194781Y-122720776D01*
X101131522Y-122915465D01*
X101099500Y-123117648D01*
X101099500Y-123322351D01*
X101131522Y-123524534D01*
X101194781Y-123719223D01*
X101240728Y-123809397D01*
X101287147Y-123900500D01*
X101287715Y-123901613D01*
X101408028Y-124067213D01*
X101552786Y-124211971D01*
X101718385Y-124332284D01*
X101718387Y-124332285D01*
X101718390Y-124332287D01*
X101811630Y-124379795D01*
X101862426Y-124427770D01*
X101879221Y-124495591D01*
X101856684Y-124561725D01*
X101811630Y-124600765D01*
X101718644Y-124648143D01*
X101674077Y-124680523D01*
X101674077Y-124680524D01*
X102353554Y-125360000D01*
X102347339Y-125360000D01*
X102245606Y-125387259D01*
X102154394Y-125439920D01*
X102079920Y-125514394D01*
X102027259Y-125605606D01*
X102000000Y-125707339D01*
X102000000Y-125713553D01*
X101320524Y-125034077D01*
X101320523Y-125034077D01*
X101288143Y-125078644D01*
X101195244Y-125260968D01*
X101132009Y-125455582D01*
X101100000Y-125657682D01*
X101100000Y-125862317D01*
X101132009Y-126064417D01*
X101195244Y-126259031D01*
X101288141Y-126441350D01*
X101288147Y-126441359D01*
X101320523Y-126485921D01*
X101320524Y-126485922D01*
X102000000Y-125806446D01*
X102000000Y-125812661D01*
X102027259Y-125914394D01*
X102079920Y-126005606D01*
X102154394Y-126080080D01*
X102245606Y-126132741D01*
X102347339Y-126160000D01*
X102353553Y-126160000D01*
X101674076Y-126839474D01*
X101676146Y-126865772D01*
X101661781Y-126934149D01*
X101612730Y-126983906D01*
X101555405Y-126998762D01*
X101555423Y-126999099D01*
X101555429Y-126999146D01*
X101555426Y-126999146D01*
X101555436Y-126999324D01*
X101552668Y-126999472D01*
X101552561Y-126999500D01*
X101552146Y-126999500D01*
X101552123Y-126999501D01*
X101492516Y-127005908D01*
X101357671Y-127056202D01*
X101357664Y-127056206D01*
X101242455Y-127142452D01*
X101242452Y-127142455D01*
X101156206Y-127257664D01*
X101156202Y-127257671D01*
X101105908Y-127392517D01*
X101100849Y-127439577D01*
X101099501Y-127452123D01*
X101099500Y-127452135D01*
X101099500Y-129147870D01*
X101099501Y-129147876D01*
X101105908Y-129207483D01*
X101156202Y-129342328D01*
X101156206Y-129342335D01*
X101242452Y-129457544D01*
X101242455Y-129457547D01*
X101357664Y-129543793D01*
X101357671Y-129543797D01*
X101492517Y-129594091D01*
X101492516Y-129594091D01*
X101499444Y-129594835D01*
X101552127Y-129600500D01*
X103247872Y-129600499D01*
X103307483Y-129594091D01*
X103442331Y-129543796D01*
X103557546Y-129457546D01*
X103643796Y-129342331D01*
X103694091Y-129207483D01*
X103700500Y-129147873D01*
X103700499Y-127452128D01*
X103694091Y-127392517D01*
X103689131Y-127379219D01*
X103643797Y-127257671D01*
X103643793Y-127257664D01*
X103557547Y-127142455D01*
X103557544Y-127142452D01*
X103442335Y-127056206D01*
X103442328Y-127056202D01*
X103307482Y-127005908D01*
X103307483Y-127005908D01*
X103247883Y-126999501D01*
X103247881Y-126999500D01*
X103247873Y-126999500D01*
X103247865Y-126999500D01*
X103247470Y-126999500D01*
X103247381Y-126999474D01*
X103244548Y-126999322D01*
X103244583Y-126998652D01*
X103180431Y-126979815D01*
X103134676Y-126927011D01*
X103123852Y-126865771D01*
X103125921Y-126839473D01*
X102446447Y-126160000D01*
X102452661Y-126160000D01*
X102554394Y-126132741D01*
X102645606Y-126080080D01*
X102720080Y-126005606D01*
X102772741Y-125914394D01*
X102800000Y-125812661D01*
X102800000Y-125806448D01*
X103479474Y-126485922D01*
X103479474Y-126485921D01*
X103511859Y-126441349D01*
X103604755Y-126259031D01*
X103667990Y-126064417D01*
X103700000Y-125862317D01*
X103700000Y-125657682D01*
X103667990Y-125455582D01*
X103604755Y-125260968D01*
X103511859Y-125078650D01*
X103479474Y-125034077D01*
X103479474Y-125034076D01*
X102800000Y-125713551D01*
X102800000Y-125707339D01*
X102772741Y-125605606D01*
X102720080Y-125514394D01*
X102645606Y-125439920D01*
X102554394Y-125387259D01*
X102452661Y-125360000D01*
X102446446Y-125360000D01*
X103125922Y-124680524D01*
X103125921Y-124680523D01*
X103081359Y-124648147D01*
X103081350Y-124648141D01*
X102988369Y-124600765D01*
X102937573Y-124552790D01*
X102920778Y-124484969D01*
X102943315Y-124418835D01*
X102988370Y-124379795D01*
X103081610Y-124332287D01*
X103143138Y-124287585D01*
X103247213Y-124211971D01*
X103247215Y-124211968D01*
X103247219Y-124211966D01*
X103391966Y-124067219D01*
X103391968Y-124067215D01*
X103391971Y-124067213D01*
X103454981Y-123980485D01*
X103512287Y-123901610D01*
X103605220Y-123719219D01*
X103668477Y-123524534D01*
X103700500Y-123322352D01*
X103700500Y-123117648D01*
X103685217Y-123021155D01*
X103668477Y-122915465D01*
X103605233Y-122720821D01*
X103605220Y-122720781D01*
X103605218Y-122720778D01*
X103605218Y-122720776D01*
X103538434Y-122589707D01*
X103512287Y-122538390D01*
X103484032Y-122499500D01*
X103391971Y-122372786D01*
X103247213Y-122228028D01*
X103081614Y-122107715D01*
X103075006Y-122104348D01*
X102988917Y-122060483D01*
X102938123Y-122012511D01*
X102921328Y-121944690D01*
X102943865Y-121878555D01*
X102988917Y-121839516D01*
X103081610Y-121792287D01*
X103135986Y-121752781D01*
X103247213Y-121671971D01*
X103247215Y-121671968D01*
X103247219Y-121671966D01*
X103391966Y-121527219D01*
X103391968Y-121527215D01*
X103391971Y-121527213D01*
X103488187Y-121394781D01*
X103512287Y-121361610D01*
X103605220Y-121179219D01*
X103668477Y-120984534D01*
X103700500Y-120782352D01*
X103700500Y-120577648D01*
X103692112Y-120524690D01*
X103668477Y-120375465D01*
X103605218Y-120180776D01*
X103567735Y-120107213D01*
X103512287Y-119998390D01*
X103504556Y-119987749D01*
X103391971Y-119832786D01*
X103247213Y-119688028D01*
X103081614Y-119567715D01*
X103075006Y-119564348D01*
X102988917Y-119520483D01*
X102938123Y-119472511D01*
X102921328Y-119404690D01*
X102943865Y-119338555D01*
X102988917Y-119299516D01*
X103081610Y-119252287D01*
X103102770Y-119236913D01*
X103247213Y-119131971D01*
X103247215Y-119131968D01*
X103247219Y-119131966D01*
X103391966Y-118987219D01*
X103391968Y-118987215D01*
X103391971Y-118987213D01*
X103444732Y-118914590D01*
X103512287Y-118821610D01*
X103605220Y-118639219D01*
X103668477Y-118444534D01*
X103700500Y-118242352D01*
X103700500Y-118037648D01*
X103668477Y-117835466D01*
X103663720Y-117820827D01*
X103605218Y-117640776D01*
X103528703Y-117490609D01*
X103512287Y-117458390D01*
X103504556Y-117447749D01*
X103391971Y-117292786D01*
X103247213Y-117148028D01*
X103081614Y-117027715D01*
X103075006Y-117024348D01*
X102988917Y-116980483D01*
X102938123Y-116932511D01*
X102921328Y-116864690D01*
X102943865Y-116798555D01*
X102988917Y-116759516D01*
X103081610Y-116712287D01*
X103102770Y-116696913D01*
X103247213Y-116591971D01*
X103247215Y-116591968D01*
X103247219Y-116591966D01*
X103391966Y-116447219D01*
X103391968Y-116447215D01*
X103391971Y-116447213D01*
X103463575Y-116348657D01*
X103512287Y-116281610D01*
X103605220Y-116099219D01*
X103668477Y-115904534D01*
X103700500Y-115702352D01*
X103700500Y-115497648D01*
X103668477Y-115295466D01*
X103659066Y-115266503D01*
X103621419Y-115150637D01*
X103605220Y-115100781D01*
X103605218Y-115100778D01*
X103605218Y-115100776D01*
X103558171Y-115008443D01*
X103512287Y-114918390D01*
X103483097Y-114878213D01*
X103391971Y-114752786D01*
X103247213Y-114608028D01*
X103081613Y-114487715D01*
X103081612Y-114487714D01*
X103081610Y-114487713D01*
X103012577Y-114452539D01*
X102899223Y-114394781D01*
X102704534Y-114331522D01*
X102513489Y-114301264D01*
X102502352Y-114299500D01*
X102297648Y-114299500D01*
X102286511Y-114301264D01*
X102095465Y-114331522D01*
X101900776Y-114394781D01*
X101718386Y-114487715D01*
X101552786Y-114608028D01*
X101408028Y-114752786D01*
X101287715Y-114918385D01*
X101280883Y-114931795D01*
X101232909Y-114982591D01*
X101170398Y-114999500D01*
X99386669Y-114999500D01*
X99386653Y-114999499D01*
X99379057Y-114999499D01*
X99220943Y-114999499D01*
X99141010Y-115020917D01*
X99068216Y-115040422D01*
X99035355Y-115059395D01*
X99035354Y-115059394D01*
X98931287Y-115119477D01*
X98931282Y-115119481D01*
X92919479Y-121131284D01*
X92900027Y-121164977D01*
X92891805Y-121179219D01*
X92840423Y-121268215D01*
X92799499Y-121420943D01*
X92799499Y-121579057D01*
X92799499Y-121579059D01*
X92799500Y-121589053D01*
X92799500Y-123713330D01*
X92799499Y-123713348D01*
X92799499Y-123879054D01*
X92799498Y-123879054D01*
X79186657Y-123879054D01*
X79233497Y-123869737D01*
X79379179Y-123809394D01*
X79510289Y-123721789D01*
X79621789Y-123610289D01*
X79709394Y-123479179D01*
X79769737Y-123333497D01*
X79800500Y-123178842D01*
X79800500Y-123021158D01*
X79800500Y-123021155D01*
X79800499Y-123021153D01*
X79796004Y-122998555D01*
X79769737Y-122866503D01*
X79738863Y-122791966D01*
X79709397Y-122720827D01*
X79709390Y-122720814D01*
X79621789Y-122589711D01*
X79621786Y-122589707D01*
X79510292Y-122478213D01*
X79510288Y-122478210D01*
X79379185Y-122390609D01*
X79379172Y-122390602D01*
X79233501Y-122330264D01*
X79233489Y-122330261D01*
X79078845Y-122299500D01*
X79078842Y-122299500D01*
X78921158Y-122299500D01*
X78921155Y-122299500D01*
X78766510Y-122330261D01*
X78766498Y-122330264D01*
X78620827Y-122390602D01*
X78620814Y-122390609D01*
X78489125Y-122478602D01*
X78422447Y-122499480D01*
X78420234Y-122499500D01*
X77145522Y-122499500D01*
X77078483Y-122479815D01*
X77032728Y-122427011D01*
X77022784Y-122357853D01*
X77035037Y-122319206D01*
X77045217Y-122299226D01*
X77045217Y-122299222D01*
X77045220Y-122299219D01*
X77108477Y-122104534D01*
X77140500Y-121902352D01*
X77140500Y-121697648D01*
X77108477Y-121495466D01*
X77108476Y-121495462D01*
X77108476Y-121495461D01*
X77094073Y-121451133D01*
X77045218Y-121300776D01*
X76972394Y-121157853D01*
X76952287Y-121118390D01*
X76930076Y-121087819D01*
X76831971Y-120952786D01*
X76687213Y-120808028D01*
X76521614Y-120687715D01*
X76515006Y-120684348D01*
X76428917Y-120640483D01*
X76378123Y-120592511D01*
X76361328Y-120524690D01*
X76383865Y-120458555D01*
X76428917Y-120419516D01*
X76521610Y-120372287D01*
X76542770Y-120356913D01*
X76687213Y-120251971D01*
X76687215Y-120251968D01*
X76687219Y-120251966D01*
X76831966Y-120107219D01*
X76831968Y-120107215D01*
X76831971Y-120107213D01*
X76911037Y-119998386D01*
X76952287Y-119941610D01*
X77045220Y-119759219D01*
X77108477Y-119564534D01*
X77140500Y-119362352D01*
X77140500Y-119157648D01*
X77113505Y-118987213D01*
X77108477Y-118955465D01*
X77065042Y-118821786D01*
X77045220Y-118760781D01*
X77045218Y-118760778D01*
X77045218Y-118760776D01*
X76955574Y-118584842D01*
X76952287Y-118578390D01*
X76916178Y-118528690D01*
X76831971Y-118412786D01*
X76687213Y-118268028D01*
X76521614Y-118147715D01*
X76515006Y-118144348D01*
X76428917Y-118100483D01*
X76378123Y-118052511D01*
X76361328Y-117984690D01*
X76383865Y-117918555D01*
X76428917Y-117879516D01*
X76521610Y-117832287D01*
X76542770Y-117816913D01*
X76687213Y-117711971D01*
X76687215Y-117711968D01*
X76687219Y-117711966D01*
X76831966Y-117567219D01*
X76831968Y-117567215D01*
X76831971Y-117567213D01*
X76911037Y-117458386D01*
X76952287Y-117401610D01*
X77045220Y-117219219D01*
X77108477Y-117024534D01*
X77140500Y-116822352D01*
X77140500Y-116617648D01*
X77108477Y-116415466D01*
X77108476Y-116415462D01*
X77108476Y-116415461D01*
X77058879Y-116262818D01*
X77058075Y-116234698D01*
X77054072Y-116206853D01*
X77057091Y-116200241D01*
X77056884Y-116192977D01*
X77071410Y-116168887D01*
X77083097Y-116143297D01*
X77089210Y-116139367D01*
X77092964Y-116133144D01*
X77118210Y-116120731D01*
X77141875Y-116105523D01*
X77152145Y-116104046D01*
X77155665Y-116102316D01*
X77176810Y-116100500D01*
X77213331Y-116100500D01*
X77213347Y-116100501D01*
X77220943Y-116100501D01*
X77379054Y-116100501D01*
X77379057Y-116100501D01*
X77531785Y-116059577D01*
X77588994Y-116026547D01*
X77668716Y-115980520D01*
X77780520Y-115868716D01*
X77780520Y-115868714D01*
X77790724Y-115858511D01*
X77790727Y-115858506D01*
X78464665Y-115184570D01*
X78525984Y-115151088D01*
X78528151Y-115150637D01*
X78528840Y-115150500D01*
X78528842Y-115150500D01*
X78683497Y-115119737D01*
X78829179Y-115059394D01*
X78960289Y-114971789D01*
X79071789Y-114860289D01*
X79159394Y-114729179D01*
X79219737Y-114583497D01*
X79250500Y-114428842D01*
X79250500Y-114271158D01*
X79250500Y-114271155D01*
X79250499Y-114271153D01*
X79239230Y-114214499D01*
X79219737Y-114116503D01*
X79217119Y-114110183D01*
X79159397Y-113970827D01*
X79159390Y-113970814D01*
X79071789Y-113839711D01*
X79071786Y-113839707D01*
X78960292Y-113728213D01*
X78960288Y-113728210D01*
X78829185Y-113640609D01*
X78829172Y-113640602D01*
X78683501Y-113580264D01*
X78683489Y-113580261D01*
X78528845Y-113549500D01*
X78528842Y-113549500D01*
X78371158Y-113549500D01*
X78371155Y-113549500D01*
X78216510Y-113580261D01*
X78216498Y-113580264D01*
X78070827Y-113640602D01*
X78070814Y-113640609D01*
X77939711Y-113728210D01*
X77939707Y-113728213D01*
X77828213Y-113839707D01*
X77828210Y-113839711D01*
X77740609Y-113970814D01*
X77740602Y-113970827D01*
X77680264Y-114116498D01*
X77680261Y-114116508D01*
X77649362Y-114271848D01*
X77616977Y-114333759D01*
X77615426Y-114335337D01*
X77301507Y-114649257D01*
X77240184Y-114682742D01*
X77170493Y-114677758D01*
X77114559Y-114635887D01*
X77090142Y-114570422D01*
X77095895Y-114523257D01*
X77108477Y-114484534D01*
X77109320Y-114479213D01*
X77140500Y-114282352D01*
X77140500Y-114077648D01*
X77132132Y-114024814D01*
X77108477Y-113875465D01*
X77061298Y-113730264D01*
X77045220Y-113680781D01*
X77045218Y-113680778D01*
X77045218Y-113680776D01*
X76994002Y-113580261D01*
X76952287Y-113498390D01*
X76888281Y-113410292D01*
X76831971Y-113332786D01*
X76687213Y-113188028D01*
X76521614Y-113067715D01*
X76515006Y-113064348D01*
X76428917Y-113020483D01*
X76378123Y-112972511D01*
X76361328Y-112904690D01*
X76383865Y-112838555D01*
X76428917Y-112799516D01*
X76521610Y-112752287D01*
X76542770Y-112736913D01*
X76687213Y-112631971D01*
X76687215Y-112631968D01*
X76687219Y-112631966D01*
X76831966Y-112487219D01*
X76831968Y-112487215D01*
X76831971Y-112487213D01*
X76938616Y-112340426D01*
X76952287Y-112321610D01*
X77045220Y-112139219D01*
X77108477Y-111944534D01*
X77140500Y-111742352D01*
X77140500Y-111537648D01*
X77108477Y-111335466D01*
X77045220Y-111140781D01*
X77045218Y-111140778D01*
X77045218Y-111140776D01*
X77011503Y-111074607D01*
X76952287Y-110958390D01*
X76944556Y-110947749D01*
X76831971Y-110792786D01*
X76687213Y-110648028D01*
X76521614Y-110527715D01*
X76514329Y-110524003D01*
X76428917Y-110480483D01*
X76378123Y-110432511D01*
X76361328Y-110364690D01*
X76383865Y-110298555D01*
X76428917Y-110259516D01*
X76521610Y-110212287D01*
X76542770Y-110196913D01*
X76687213Y-110091971D01*
X76687215Y-110091968D01*
X76687219Y-110091966D01*
X76831966Y-109947219D01*
X76831968Y-109947215D01*
X76831971Y-109947213D01*
X76926824Y-109816657D01*
X76952287Y-109781610D01*
X77045220Y-109599219D01*
X77108477Y-109404534D01*
X77140500Y-109202352D01*
X77140500Y-108997648D01*
X77108477Y-108795466D01*
X77045220Y-108600781D01*
X77045218Y-108600778D01*
X77045218Y-108600776D01*
X76994124Y-108500500D01*
X76952287Y-108418390D01*
X76932072Y-108390566D01*
X76831971Y-108252786D01*
X76687213Y-108108028D01*
X76521613Y-107987715D01*
X76521612Y-107987714D01*
X76521610Y-107987713D01*
X76464653Y-107958691D01*
X76339223Y-107894781D01*
X76144534Y-107831522D01*
X75967682Y-107803512D01*
X75942352Y-107799500D01*
X75737648Y-107799500D01*
X75713329Y-107803351D01*
X75535465Y-107831522D01*
X75340776Y-107894781D01*
X75158386Y-107987715D01*
X74992786Y-108108028D01*
X74848028Y-108252786D01*
X74727715Y-108418386D01*
X74634781Y-108600776D01*
X74571522Y-108795465D01*
X74539500Y-108997648D01*
X74539500Y-109202351D01*
X74571522Y-109404534D01*
X74634781Y-109599223D01*
X74727715Y-109781613D01*
X74848028Y-109947213D01*
X74992786Y-110091971D01*
X75147749Y-110204556D01*
X75158390Y-110212287D01*
X75249840Y-110258883D01*
X75251080Y-110259515D01*
X75301876Y-110307490D01*
X75318671Y-110375311D01*
X75296134Y-110441446D01*
X75251080Y-110480485D01*
X75158386Y-110527715D01*
X74992786Y-110648028D01*
X74848028Y-110792786D01*
X74727715Y-110958386D01*
X74634781Y-111140776D01*
X74571522Y-111335465D01*
X74539500Y-111537648D01*
X74539500Y-111742351D01*
X74571522Y-111944534D01*
X74634781Y-112139223D01*
X74698691Y-112264653D01*
X74716447Y-112299500D01*
X74727715Y-112321613D01*
X74848028Y-112487213D01*
X74992786Y-112631971D01*
X75147749Y-112744556D01*
X75158390Y-112752287D01*
X75249840Y-112798883D01*
X75251080Y-112799515D01*
X75301876Y-112847490D01*
X75318671Y-112915311D01*
X75296134Y-112981446D01*
X75251080Y-113020485D01*
X75158386Y-113067715D01*
X74992786Y-113188028D01*
X74848028Y-113332786D01*
X74727715Y-113498386D01*
X74634781Y-113680776D01*
X74571522Y-113875465D01*
X74539500Y-114077648D01*
X74539500Y-114282351D01*
X74571522Y-114484534D01*
X74634781Y-114679223D01*
X74655154Y-114719205D01*
X74668050Y-114787874D01*
X74641774Y-114852614D01*
X74584668Y-114892872D01*
X74544669Y-114899500D01*
X68179766Y-114899500D01*
X68112727Y-114879815D01*
X68110875Y-114878602D01*
X67979185Y-114790609D01*
X67979172Y-114790602D01*
X67833501Y-114730264D01*
X67833489Y-114730261D01*
X67678845Y-114699500D01*
X67678842Y-114699500D01*
X67521158Y-114699500D01*
X67521155Y-114699500D01*
X67366510Y-114730261D01*
X67366498Y-114730264D01*
X67220827Y-114790602D01*
X67220814Y-114790609D01*
X67089711Y-114878210D01*
X67089707Y-114878213D01*
X66978213Y-114989707D01*
X66978210Y-114989711D01*
X66890609Y-115120814D01*
X66890602Y-115120827D01*
X66830264Y-115266498D01*
X66830261Y-115266510D01*
X66799500Y-115421153D01*
X66799500Y-115578846D01*
X66830261Y-115733489D01*
X66830264Y-115733501D01*
X66890602Y-115879172D01*
X66890609Y-115879185D01*
X66978210Y-116010288D01*
X66978213Y-116010292D01*
X67089707Y-116121786D01*
X67089711Y-116121789D01*
X67220814Y-116209390D01*
X67220827Y-116209397D01*
X67349799Y-116262818D01*
X67366503Y-116269737D01*
X67521153Y-116300499D01*
X67521156Y-116300500D01*
X67521158Y-116300500D01*
X67678844Y-116300500D01*
X67678845Y-116300499D01*
X67833497Y-116269737D01*
X67979179Y-116209394D01*
X67992490Y-116200500D01*
X68110875Y-116121398D01*
X68177553Y-116100520D01*
X68179766Y-116100500D01*
X74503190Y-116100500D01*
X74570229Y-116120185D01*
X74615984Y-116172989D01*
X74625928Y-116242147D01*
X74621121Y-116262818D01*
X74571523Y-116415461D01*
X74571523Y-116415464D01*
X74539500Y-116617648D01*
X74539500Y-116822351D01*
X74571522Y-117024534D01*
X74634781Y-117219223D01*
X74727715Y-117401613D01*
X74848028Y-117567213D01*
X74992786Y-117711971D01*
X75147749Y-117824556D01*
X75158390Y-117832287D01*
X75249840Y-117878883D01*
X75251080Y-117879515D01*
X75301876Y-117927490D01*
X75318671Y-117995311D01*
X75296134Y-118061446D01*
X75251080Y-118100485D01*
X75158386Y-118147715D01*
X74992786Y-118268028D01*
X74848028Y-118412786D01*
X74727715Y-118578386D01*
X74634781Y-118760776D01*
X74571522Y-118955465D01*
X74539500Y-119157648D01*
X74539500Y-119362351D01*
X74571522Y-119564534D01*
X74634781Y-119759223D01*
X74727715Y-119941613D01*
X74848028Y-120107213D01*
X74992786Y-120251971D01*
X75147749Y-120364556D01*
X75158390Y-120372287D01*
X75249840Y-120418883D01*
X75251080Y-120419515D01*
X75301876Y-120467490D01*
X75318671Y-120535311D01*
X75296134Y-120601446D01*
X75251080Y-120640485D01*
X75158386Y-120687715D01*
X74992786Y-120808028D01*
X74848028Y-120952786D01*
X74727715Y-121118386D01*
X74634781Y-121300776D01*
X74571522Y-121495465D01*
X74539500Y-121697648D01*
X74539500Y-121902351D01*
X74571522Y-122104534D01*
X74634782Y-122299226D01*
X74644963Y-122319206D01*
X74657859Y-122387875D01*
X74631582Y-122452616D01*
X74574475Y-122492872D01*
X74534478Y-122499500D01*
X72586670Y-122499500D01*
X72586654Y-122499499D01*
X72579058Y-122499499D01*
X72420943Y-122499499D01*
X72344579Y-122519961D01*
X72268214Y-122540423D01*
X72268209Y-122540426D01*
X72131290Y-122619475D01*
X72131282Y-122619481D01*
X67887584Y-126863181D01*
X67826261Y-126896666D01*
X67799903Y-126899500D01*
X62024500Y-126899500D01*
X61957461Y-126879815D01*
X61911706Y-126827011D01*
X61902005Y-126782422D01*
X61900883Y-126782511D01*
X61900500Y-126777650D01*
X61868477Y-126575465D01*
X61838019Y-126481725D01*
X61805220Y-126380781D01*
X61805217Y-126380776D01*
X61805216Y-126380771D01*
X61754275Y-126280795D01*
X61741378Y-126212126D01*
X61767654Y-126147386D01*
X61824760Y-126107128D01*
X61864759Y-126100500D01*
X66020234Y-126100500D01*
X66087273Y-126120185D01*
X66089125Y-126121398D01*
X66220814Y-126209390D01*
X66220827Y-126209397D01*
X66340656Y-126259031D01*
X66366503Y-126269737D01*
X66517614Y-126299795D01*
X66521153Y-126300499D01*
X66521156Y-126300500D01*
X66521158Y-126300500D01*
X66678844Y-126300500D01*
X66678845Y-126300499D01*
X66833497Y-126269737D01*
X66953127Y-126220185D01*
X66979172Y-126209397D01*
X66979172Y-126209396D01*
X66979179Y-126209394D01*
X67110289Y-126121789D01*
X67221789Y-126010289D01*
X67309394Y-125879179D01*
X67369737Y-125733497D01*
X67400500Y-125578842D01*
X67400500Y-125421158D01*
X67400500Y-125421155D01*
X67400499Y-125421153D01*
X67369738Y-125266510D01*
X67369737Y-125266503D01*
X67367444Y-125260968D01*
X67309397Y-125120827D01*
X67309390Y-125120814D01*
X67221789Y-124989711D01*
X67221786Y-124989707D01*
X67110292Y-124878213D01*
X67110288Y-124878210D01*
X66979185Y-124790609D01*
X66979172Y-124790602D01*
X66833501Y-124730264D01*
X66833489Y-124730261D01*
X66678845Y-124699500D01*
X66678842Y-124699500D01*
X66521158Y-124699500D01*
X66521155Y-124699500D01*
X66366510Y-124730261D01*
X66366498Y-124730264D01*
X66220827Y-124790602D01*
X66220814Y-124790609D01*
X66089125Y-124878602D01*
X66022447Y-124899480D01*
X66020234Y-124899500D01*
X61956305Y-124899500D01*
X61889266Y-124879815D01*
X61843511Y-124827011D01*
X61833567Y-124757853D01*
X61838374Y-124737181D01*
X61840622Y-124730264D01*
X61868477Y-124644534D01*
X61900500Y-124442352D01*
X61900500Y-124237648D01*
X61873505Y-124067213D01*
X61868477Y-124035465D01*
X61835025Y-123932511D01*
X61805220Y-123840781D01*
X61805218Y-123840778D01*
X61805218Y-123840776D01*
X61763813Y-123759515D01*
X61712287Y-123658390D01*
X61677339Y-123610288D01*
X61591971Y-123492786D01*
X61447213Y-123348028D01*
X61281614Y-123227715D01*
X61261387Y-123217409D01*
X61188917Y-123180483D01*
X61138123Y-123132511D01*
X61121328Y-123064690D01*
X61143865Y-122998555D01*
X61188917Y-122959516D01*
X61281610Y-122912287D01*
X61344634Y-122866498D01*
X61447213Y-122791971D01*
X61447215Y-122791968D01*
X61447219Y-122791966D01*
X61591966Y-122647219D01*
X61591968Y-122647215D01*
X61591971Y-122647213D01*
X61699289Y-122499500D01*
X61712287Y-122481610D01*
X61805220Y-122299219D01*
X61868477Y-122104534D01*
X61900500Y-121902352D01*
X61900500Y-121697648D01*
X61868477Y-121495466D01*
X61868476Y-121495464D01*
X61835762Y-121394780D01*
X61805220Y-121300781D01*
X61805218Y-121300778D01*
X61805218Y-121300776D01*
X61732394Y-121157853D01*
X61712287Y-121118390D01*
X61690076Y-121087819D01*
X61591971Y-120952786D01*
X61447213Y-120808028D01*
X61281614Y-120687715D01*
X61275006Y-120684348D01*
X61188917Y-120640483D01*
X61138123Y-120592511D01*
X61121328Y-120524690D01*
X61143865Y-120458555D01*
X61188917Y-120419516D01*
X61281610Y-120372287D01*
X61302770Y-120356913D01*
X61447213Y-120251971D01*
X61447215Y-120251968D01*
X61447219Y-120251966D01*
X61591966Y-120107219D01*
X61591968Y-120107215D01*
X61591971Y-120107213D01*
X61671037Y-119998386D01*
X61712287Y-119941610D01*
X61805220Y-119759219D01*
X61868477Y-119564534D01*
X61900500Y-119362352D01*
X61900500Y-119157648D01*
X61873505Y-118987213D01*
X61868477Y-118955465D01*
X61825042Y-118821786D01*
X61805220Y-118760781D01*
X61805218Y-118760778D01*
X61805218Y-118760776D01*
X61715574Y-118584842D01*
X61712287Y-118578390D01*
X61676178Y-118528690D01*
X61591971Y-118412786D01*
X61447213Y-118268028D01*
X61281614Y-118147715D01*
X61275006Y-118144348D01*
X61188917Y-118100483D01*
X61138123Y-118052511D01*
X61121328Y-117984690D01*
X61143865Y-117918555D01*
X61188917Y-117879516D01*
X61281610Y-117832287D01*
X61302770Y-117816913D01*
X61447213Y-117711971D01*
X61447215Y-117711968D01*
X61447219Y-117711966D01*
X61591966Y-117567219D01*
X61591968Y-117567215D01*
X61591971Y-117567213D01*
X61712284Y-117401614D01*
X61712285Y-117401613D01*
X61712287Y-117401610D01*
X61783352Y-117262136D01*
X61831325Y-117211342D01*
X61899146Y-117194547D01*
X61965281Y-117217084D01*
X61981517Y-117230752D01*
X62965425Y-118214660D01*
X62998910Y-118275983D01*
X62999361Y-118278149D01*
X63030261Y-118433491D01*
X63030264Y-118433501D01*
X63090602Y-118579172D01*
X63090609Y-118579185D01*
X63178210Y-118710288D01*
X63178213Y-118710292D01*
X63289707Y-118821786D01*
X63289711Y-118821789D01*
X63420814Y-118909390D01*
X63420827Y-118909397D01*
X63532047Y-118955465D01*
X63566503Y-118969737D01*
X63721153Y-119000499D01*
X63721156Y-119000500D01*
X63721158Y-119000500D01*
X63878844Y-119000500D01*
X63878845Y-119000499D01*
X64033497Y-118969737D01*
X64179179Y-118909394D01*
X64310289Y-118821789D01*
X64421789Y-118710289D01*
X64509394Y-118579179D01*
X64509723Y-118578386D01*
X64569735Y-118433501D01*
X64569737Y-118433497D01*
X64600500Y-118278842D01*
X64600500Y-118121158D01*
X64600500Y-118121155D01*
X64600499Y-118121153D01*
X64588622Y-118061446D01*
X64569737Y-117966503D01*
X64569735Y-117966498D01*
X64509397Y-117820827D01*
X64509390Y-117820814D01*
X64421789Y-117689711D01*
X64421786Y-117689707D01*
X64310292Y-117578213D01*
X64310288Y-117578210D01*
X64179185Y-117490609D01*
X64179172Y-117490602D01*
X64033501Y-117430264D01*
X64033491Y-117430261D01*
X63878151Y-117399362D01*
X63816241Y-117366977D01*
X63814662Y-117365426D01*
X61657590Y-115208355D01*
X61657589Y-115208354D01*
X61650520Y-115201285D01*
X61650520Y-115201284D01*
X61618244Y-115169008D01*
X61584759Y-115107685D01*
X61587972Y-115062779D01*
X61589744Y-115037994D01*
X61605608Y-115008443D01*
X61676696Y-114910597D01*
X61712287Y-114861610D01*
X61805220Y-114679219D01*
X61868477Y-114484534D01*
X61900500Y-114282352D01*
X61900500Y-114077648D01*
X61892132Y-114024814D01*
X61868477Y-113875465D01*
X61840903Y-113790602D01*
X61805220Y-113680781D01*
X61805216Y-113680773D01*
X61805215Y-113680770D01*
X61803353Y-113676272D01*
X61804305Y-113675877D01*
X61792330Y-113612132D01*
X61818603Y-113547390D01*
X61875708Y-113507130D01*
X61915712Y-113500500D01*
X67020234Y-113500500D01*
X67087273Y-113520185D01*
X67089125Y-113521398D01*
X67220814Y-113609390D01*
X67220827Y-113609397D01*
X67356093Y-113665425D01*
X67366503Y-113669737D01*
X67513165Y-113698910D01*
X67521153Y-113700499D01*
X67521156Y-113700500D01*
X67521158Y-113700500D01*
X67678844Y-113700500D01*
X67678845Y-113700499D01*
X67833497Y-113669737D01*
X67979179Y-113609394D01*
X68110289Y-113521789D01*
X68221789Y-113410289D01*
X68309394Y-113279179D01*
X68369737Y-113133497D01*
X68400500Y-112978842D01*
X68400500Y-112821158D01*
X68400500Y-112821155D01*
X68400499Y-112821153D01*
X68392313Y-112780000D01*
X68369737Y-112666503D01*
X68369735Y-112666498D01*
X68309397Y-112520827D01*
X68309390Y-112520814D01*
X68221789Y-112389711D01*
X68221786Y-112389707D01*
X68110292Y-112278213D01*
X68110288Y-112278210D01*
X67979185Y-112190609D01*
X67979172Y-112190602D01*
X67833501Y-112130264D01*
X67833489Y-112130261D01*
X67678845Y-112099500D01*
X67678842Y-112099500D01*
X67521158Y-112099500D01*
X67521155Y-112099500D01*
X67366510Y-112130261D01*
X67366498Y-112130264D01*
X67220827Y-112190602D01*
X67220814Y-112190609D01*
X67089125Y-112278602D01*
X67022447Y-112299480D01*
X67020234Y-112299500D01*
X66221889Y-112299500D01*
X66154850Y-112279815D01*
X66109095Y-112227011D01*
X66099151Y-112157853D01*
X66128176Y-112094297D01*
X66134208Y-112087819D01*
X66144517Y-112077510D01*
X66283343Y-111886433D01*
X66390568Y-111675992D01*
X66463553Y-111451368D01*
X66481910Y-111335465D01*
X66500500Y-111218097D01*
X66500500Y-110981902D01*
X66463553Y-110748631D01*
X66391772Y-110527715D01*
X66390568Y-110524008D01*
X66390566Y-110524005D01*
X66390566Y-110524003D01*
X66283342Y-110313566D01*
X66144517Y-110122490D01*
X65977510Y-109955483D01*
X65786433Y-109816657D01*
X65575996Y-109709433D01*
X65351368Y-109636446D01*
X65118097Y-109599500D01*
X65118092Y-109599500D01*
X64881908Y-109599500D01*
X64881903Y-109599500D01*
X64648631Y-109636446D01*
X64424003Y-109709433D01*
X64213566Y-109816657D01*
X64104550Y-109895862D01*
X64022490Y-109955483D01*
X64022488Y-109955485D01*
X64022487Y-109955485D01*
X63855485Y-110122487D01*
X63855485Y-110122488D01*
X63855483Y-110122490D01*
X63795862Y-110204550D01*
X63716657Y-110313566D01*
X63609433Y-110524003D01*
X63536446Y-110748631D01*
X63499500Y-110981902D01*
X63499500Y-111218097D01*
X63536446Y-111451368D01*
X63609433Y-111675996D01*
X63716657Y-111886433D01*
X63855483Y-112077510D01*
X63855485Y-112077512D01*
X63865792Y-112087819D01*
X63899277Y-112149142D01*
X63894293Y-112218834D01*
X63852421Y-112274767D01*
X63786957Y-112299184D01*
X63778111Y-112299500D01*
X61923813Y-112299500D01*
X61856774Y-112279815D01*
X61811019Y-112227011D01*
X61801075Y-112157853D01*
X61805882Y-112137182D01*
X61868476Y-111944538D01*
X61868476Y-111944537D01*
X61868477Y-111944534D01*
X61900500Y-111742352D01*
X61900500Y-111537648D01*
X61868477Y-111335466D01*
X61805220Y-111140781D01*
X61805218Y-111140778D01*
X61805218Y-111140776D01*
X61771503Y-111074607D01*
X61712287Y-110958390D01*
X61704556Y-110947749D01*
X61591971Y-110792786D01*
X61447213Y-110648028D01*
X61281614Y-110527715D01*
X61274329Y-110524003D01*
X61188917Y-110480483D01*
X61138123Y-110432511D01*
X61121328Y-110364690D01*
X61143865Y-110298555D01*
X61188917Y-110259516D01*
X61281610Y-110212287D01*
X61302770Y-110196913D01*
X61447213Y-110091971D01*
X61447215Y-110091968D01*
X61447219Y-110091966D01*
X61591966Y-109947219D01*
X61591968Y-109947215D01*
X61591971Y-109947213D01*
X61686824Y-109816657D01*
X61712287Y-109781610D01*
X61805220Y-109599219D01*
X61868477Y-109404534D01*
X61900500Y-109202352D01*
X61900500Y-108997648D01*
X61868477Y-108795466D01*
X61805220Y-108600781D01*
X61805218Y-108600778D01*
X61805218Y-108600776D01*
X61754124Y-108500500D01*
X61712287Y-108418390D01*
X61692072Y-108390566D01*
X61591971Y-108252786D01*
X61447213Y-108108028D01*
X61281613Y-107987715D01*
X61281612Y-107987714D01*
X61281610Y-107987713D01*
X61224653Y-107958691D01*
X61099223Y-107894781D01*
X60904534Y-107831522D01*
X60727682Y-107803512D01*
X60702352Y-107799500D01*
X60497648Y-107799500D01*
X60473329Y-107803351D01*
X60295465Y-107831522D01*
X60100776Y-107894781D01*
X59918386Y-107987715D01*
X59752786Y-108108028D01*
X59608028Y-108252786D01*
X59487715Y-108418386D01*
X59394781Y-108600776D01*
X59331522Y-108795465D01*
X59299500Y-108997648D01*
X59299500Y-109202351D01*
X59331522Y-109404534D01*
X59394781Y-109599223D01*
X59487715Y-109781613D01*
X59608028Y-109947213D01*
X59752786Y-110091971D01*
X59907749Y-110204556D01*
X59918390Y-110212287D01*
X60009840Y-110258883D01*
X60011080Y-110259515D01*
X60061876Y-110307490D01*
X60078671Y-110375311D01*
X60056134Y-110441446D01*
X60011080Y-110480485D01*
X59918386Y-110527715D01*
X59752786Y-110648028D01*
X59608028Y-110792786D01*
X59487715Y-110958386D01*
X59394781Y-111140776D01*
X59331522Y-111335465D01*
X59299500Y-111537648D01*
X59299500Y-111742351D01*
X59331522Y-111944534D01*
X59394782Y-112139225D01*
X59400260Y-112149975D01*
X59413157Y-112218644D01*
X59386881Y-112283385D01*
X59329775Y-112323642D01*
X59321871Y-112326045D01*
X59268220Y-112340421D01*
X59268209Y-112340426D01*
X59131290Y-112419475D01*
X59131282Y-112419481D01*
X57885339Y-113665425D01*
X57824016Y-113698910D01*
X57821850Y-113699361D01*
X57666508Y-113730261D01*
X57666498Y-113730264D01*
X57520827Y-113790602D01*
X57520814Y-113790609D01*
X57389711Y-113878210D01*
X57389707Y-113878213D01*
X57278213Y-113989707D01*
X57278210Y-113989711D01*
X57190609Y-114120814D01*
X57190602Y-114120827D01*
X57130264Y-114266498D01*
X57130261Y-114266510D01*
X57099500Y-114421153D01*
X57099500Y-114578846D01*
X57130261Y-114733489D01*
X57130264Y-114733501D01*
X57157000Y-114798048D01*
X57164469Y-114867518D01*
X57133193Y-114929997D01*
X57073104Y-114965648D01*
X57042439Y-114969500D01*
X54666806Y-114969500D01*
X54599767Y-114949815D01*
X54561267Y-114910597D01*
X54487712Y-114791344D01*
X54363656Y-114667288D01*
X54227815Y-114583501D01*
X54214336Y-114575187D01*
X54214331Y-114575185D01*
X54199957Y-114570422D01*
X54047797Y-114520001D01*
X54047795Y-114520000D01*
X53945016Y-114509500D01*
X53945009Y-114509500D01*
X53789500Y-114509500D01*
X53780814Y-114506949D01*
X53771853Y-114508238D01*
X53747812Y-114497259D01*
X53722461Y-114489815D01*
X53716533Y-114482974D01*
X53708297Y-114479213D01*
X53694007Y-114456978D01*
X53676706Y-114437011D01*
X53674418Y-114426496D01*
X53670523Y-114420435D01*
X53665500Y-114385500D01*
X53665500Y-114214499D01*
X53685185Y-114147460D01*
X53737989Y-114101705D01*
X53789500Y-114090499D01*
X53945002Y-114090499D01*
X53945008Y-114090499D01*
X54047797Y-114079999D01*
X54214334Y-114024814D01*
X54363656Y-113932712D01*
X54487712Y-113808656D01*
X54579814Y-113659334D01*
X54634999Y-113492797D01*
X54645500Y-113390009D01*
X54645499Y-112669992D01*
X54645143Y-112666510D01*
X54634999Y-112567203D01*
X54634998Y-112567200D01*
X54608493Y-112487213D01*
X54579814Y-112400666D01*
X54487712Y-112251344D01*
X54363656Y-112127288D01*
X54214334Y-112035186D01*
X54047797Y-111980001D01*
X54047795Y-111980000D01*
X53945010Y-111969500D01*
X52184998Y-111969500D01*
X52184981Y-111969501D01*
X52082203Y-111980000D01*
X52082200Y-111980001D01*
X51915668Y-112035185D01*
X51915663Y-112035187D01*
X51766342Y-112127289D01*
X51642289Y-112251342D01*
X51550187Y-112400663D01*
X51550185Y-112400668D01*
X51543951Y-112419481D01*
X51495001Y-112567203D01*
X51495001Y-112567204D01*
X51495000Y-112567204D01*
X51484500Y-112669983D01*
X47914995Y-112669983D01*
X47904505Y-112567302D01*
X47849358Y-112400880D01*
X47849356Y-112400875D01*
X47757315Y-112251654D01*
X47633345Y-112127684D01*
X47484124Y-112035643D01*
X47484119Y-112035641D01*
X47317697Y-111980494D01*
X47317690Y-111980493D01*
X47214986Y-111970000D01*
X46585000Y-111970000D01*
X46585000Y-112780000D01*
X46085000Y-112780000D01*
X46085000Y-111970000D01*
X45455028Y-111970000D01*
X45455012Y-111970001D01*
X45352302Y-111980494D01*
X45185880Y-112035641D01*
X45185875Y-112035643D01*
X45036654Y-112127684D01*
X44912684Y-112251654D01*
X44820643Y-112400875D01*
X44820641Y-112400880D01*
X44765494Y-112567302D01*
X44765493Y-112567309D01*
X44755000Y-112670013D01*
X40500500Y-112670013D01*
X40500500Y-107870551D01*
X40520185Y-107803512D01*
X40572989Y-107757757D01*
X40642147Y-107747813D01*
X40705703Y-107776838D01*
X40724815Y-107797662D01*
X40855483Y-107977510D01*
X41022490Y-108144517D01*
X41213567Y-108283343D01*
X41312991Y-108334002D01*
X41424003Y-108390566D01*
X41424005Y-108390566D01*
X41424008Y-108390568D01*
X41509623Y-108418386D01*
X41648631Y-108463553D01*
X41881903Y-108500500D01*
X41881908Y-108500500D01*
X42118097Y-108500500D01*
X42351368Y-108463553D01*
X42575992Y-108390568D01*
X42786433Y-108283343D01*
X42977510Y-108144517D01*
X43144517Y-107977510D01*
X43283343Y-107786433D01*
X43390568Y-107575992D01*
X43463553Y-107351368D01*
X43500500Y-107118097D01*
X43500500Y-106881902D01*
X43463553Y-106648631D01*
X43390566Y-106424003D01*
X43299358Y-106244999D01*
X43283343Y-106213567D01*
X43144517Y-106022490D01*
X42977510Y-105855483D01*
X42797664Y-105724816D01*
X42755000Y-105669488D01*
X42749021Y-105599874D01*
X42781627Y-105538080D01*
X42842466Y-105503722D01*
X42870551Y-105500500D01*
X102129449Y-105500500D01*
X102196488Y-105520185D01*
G37*
%TD.AperFunction*%
%TD*%
M02*
