%TF.GenerationSoftware,KiCad,Pcbnew,9.0.7*%
%TF.CreationDate,2026-01-06T19:33:02-08:00*%
%TF.ProjectId,v1.2,76312e32-2e6b-4696-9361-645f70636258,rev?*%
%TF.SameCoordinates,Original*%
%TF.FileFunction,Drillmap*%
%TF.FilePolarity,Positive*%
%FSLAX45Y45*%
G04 Gerber Fmt 4.5, Leading zero omitted, Abs format (unit mm)*
G04 Created by KiCad (PCBNEW 9.0.7) date 2026-01-06 19:33:02*
%MOMM*%
%LPD*%
G01*
G04 APERTURE LIST*
%ADD10C,0.050000*%
%ADD11C,0.200000*%
%ADD12C,0.100000*%
%ADD13C,0.110000*%
%ADD14C,0.150000*%
G04 APERTURE END LIST*
D10*
X10600000Y-10500000D02*
X13900000Y-10500000D01*
X13900000Y-15000000D01*
X10600000Y-15000000D01*
X10600000Y-10500000D01*
X4000000Y-10500000D02*
X10500000Y-10500000D01*
X10500000Y-15000000D01*
X4000000Y-15000000D01*
X4000000Y-10500000D01*
D11*
D12*
X5685000Y-12673000D02*
X5715000Y-12703000D01*
X5715000Y-12673000D02*
X5685000Y-12703000D01*
X5715000Y-11445000D02*
X5745000Y-11475000D01*
X5745000Y-11445000D02*
X5715000Y-11475000D01*
X6365000Y-11805000D02*
X6395000Y-11835000D01*
X6395000Y-11805000D02*
X6365000Y-11835000D01*
X6385000Y-11535000D02*
X6415000Y-11565000D01*
X6415000Y-11535000D02*
X6385000Y-11565000D01*
X6645000Y-12535000D02*
X6675000Y-12565000D01*
X6675000Y-12535000D02*
X6645000Y-12565000D01*
X7335000Y-11275000D02*
X7365000Y-11305000D01*
X7365000Y-11275000D02*
X7335000Y-11305000D01*
X7775000Y-13525000D02*
X7805000Y-13555000D01*
X7805000Y-13525000D02*
X7775000Y-13555000D01*
X7830000Y-11420000D02*
X7860000Y-11450000D01*
X7860000Y-11420000D02*
X7830000Y-11450000D01*
X7885000Y-12295000D02*
X7915000Y-12325000D01*
X7915000Y-12295000D02*
X7885000Y-12325000D01*
X8055000Y-13665000D02*
X8085000Y-13695000D01*
X8085000Y-13665000D02*
X8055000Y-13695000D01*
X8055000Y-13795000D02*
X8085000Y-13825000D01*
X8085000Y-13795000D02*
X8055000Y-13825000D01*
X8059000Y-13925000D02*
X8089000Y-13955000D01*
X8089000Y-13925000D02*
X8059000Y-13955000D01*
X8915000Y-13735000D02*
X8945000Y-13765000D01*
X8945000Y-13735000D02*
X8915000Y-13765000D01*
X8915000Y-13865000D02*
X8945000Y-13895000D01*
X8945000Y-13865000D02*
X8915000Y-13895000D01*
X8915000Y-14035000D02*
X8945000Y-14065000D01*
X8945000Y-14035000D02*
X8915000Y-14065000D01*
X8940000Y-13245000D02*
X8970000Y-13275000D01*
X8970000Y-13245000D02*
X8940000Y-13275000D01*
X9075000Y-12545000D02*
X9105000Y-12575000D01*
X9105000Y-12545000D02*
X9075000Y-12575000D01*
X9185000Y-14255000D02*
X9215000Y-14285000D01*
X9215000Y-14255000D02*
X9185000Y-14285000D01*
X9365000Y-13605000D02*
X9395000Y-13635000D01*
X9395000Y-13605000D02*
X9365000Y-13635000D01*
X9785000Y-11275000D02*
X9815000Y-11305000D01*
X9815000Y-11275000D02*
X9785000Y-11305000D01*
X12085000Y-11635000D02*
X12115000Y-11665000D01*
X12115000Y-11635000D02*
X12085000Y-11665000D01*
X12085000Y-13095000D02*
X12115000Y-13125000D01*
X12115000Y-13095000D02*
X12085000Y-13125000D01*
X12085000Y-14465000D02*
X12115000Y-14495000D01*
X12115000Y-14465000D02*
X12085000Y-14495000D01*
X12885000Y-11205000D02*
X12915000Y-11235000D01*
X12915000Y-11205000D02*
X12885000Y-11235000D01*
X12895000Y-14015000D02*
X12925000Y-14045000D01*
X12925000Y-14015000D02*
X12895000Y-14045000D01*
X12905000Y-12585000D02*
X12935000Y-12615000D01*
X12935000Y-12585000D02*
X12905000Y-12615000D01*
X9510000Y-12260000D02*
G75*
G02*
X9430000Y-12260000I-40000J0D01*
G01*
X9430000Y-12260000D02*
G75*
G02*
X9510000Y-12260000I40000J0D01*
G01*
X9510000Y-12514000D02*
G75*
G02*
X9430000Y-12514000I-40000J0D01*
G01*
X9430000Y-12514000D02*
G75*
G02*
X9510000Y-12514000I40000J0D01*
G01*
X9510000Y-12768000D02*
G75*
G02*
X9430000Y-12768000I-40000J0D01*
G01*
X9430000Y-12768000D02*
G75*
G02*
X9510000Y-12768000I40000J0D01*
G01*
X9510000Y-13022000D02*
G75*
G02*
X9430000Y-13022000I-40000J0D01*
G01*
X9430000Y-13022000D02*
G75*
G02*
X9510000Y-13022000I40000J0D01*
G01*
X10280000Y-11560000D02*
G75*
G02*
X10200000Y-11560000I-40000J0D01*
G01*
X10200000Y-11560000D02*
G75*
G02*
X10280000Y-11560000I40000J0D01*
G01*
X10280000Y-11814000D02*
G75*
G02*
X10200000Y-11814000I-40000J0D01*
G01*
X10200000Y-11814000D02*
G75*
G02*
X10280000Y-11814000I40000J0D01*
G01*
X10280000Y-12068000D02*
G75*
G02*
X10200000Y-12068000I-40000J0D01*
G01*
X10200000Y-12068000D02*
G75*
G02*
X10280000Y-12068000I40000J0D01*
G01*
X10280000Y-12322000D02*
G75*
G02*
X10200000Y-12322000I-40000J0D01*
G01*
X10200000Y-12322000D02*
G75*
G02*
X10280000Y-12322000I40000J0D01*
G01*
X10280000Y-12576000D02*
G75*
G02*
X10200000Y-12576000I-40000J0D01*
G01*
X10200000Y-12576000D02*
G75*
G02*
X10280000Y-12576000I40000J0D01*
G01*
X10280000Y-12830000D02*
G75*
G02*
X10200000Y-12830000I-40000J0D01*
G01*
X10200000Y-12830000D02*
G75*
G02*
X10280000Y-12830000I40000J0D01*
G01*
X10280000Y-13260000D02*
G75*
G02*
X10200000Y-13260000I-40000J0D01*
G01*
X10200000Y-13260000D02*
G75*
G02*
X10280000Y-13260000I40000J0D01*
G01*
X10280000Y-13514000D02*
G75*
G02*
X10200000Y-13514000I-40000J0D01*
G01*
X10200000Y-13514000D02*
G75*
G02*
X10280000Y-13514000I40000J0D01*
G01*
X10280000Y-13768000D02*
G75*
G02*
X10200000Y-13768000I-40000J0D01*
G01*
X10200000Y-13768000D02*
G75*
G02*
X10280000Y-13768000I40000J0D01*
G01*
X10280000Y-14022000D02*
G75*
G02*
X10200000Y-14022000I-40000J0D01*
G01*
X10200000Y-14022000D02*
G75*
G02*
X10280000Y-14022000I40000J0D01*
G01*
X10280000Y-14276000D02*
G75*
G02*
X10200000Y-14276000I-40000J0D01*
G01*
X10200000Y-14276000D02*
G75*
G02*
X10280000Y-14276000I40000J0D01*
G01*
X10280000Y-14530000D02*
G75*
G02*
X10200000Y-14530000I-40000J0D01*
G01*
X10200000Y-14530000D02*
G75*
G02*
X10280000Y-14530000I40000J0D01*
G01*
X10900000Y-11570000D02*
G75*
G02*
X10820000Y-11570000I-40000J0D01*
G01*
X10820000Y-11570000D02*
G75*
G02*
X10900000Y-11570000I40000J0D01*
G01*
X10900000Y-11824000D02*
G75*
G02*
X10820000Y-11824000I-40000J0D01*
G01*
X10820000Y-11824000D02*
G75*
G02*
X10900000Y-11824000I40000J0D01*
G01*
X10900000Y-12078000D02*
G75*
G02*
X10820000Y-12078000I-40000J0D01*
G01*
X10820000Y-12078000D02*
G75*
G02*
X10900000Y-12078000I40000J0D01*
G01*
X10900000Y-12332000D02*
G75*
G02*
X10820000Y-12332000I-40000J0D01*
G01*
X10820000Y-12332000D02*
G75*
G02*
X10900000Y-12332000I40000J0D01*
G01*
X10900000Y-12586000D02*
G75*
G02*
X10820000Y-12586000I-40000J0D01*
G01*
X10820000Y-12586000D02*
G75*
G02*
X10900000Y-12586000I40000J0D01*
G01*
X10900000Y-12840000D02*
G75*
G02*
X10820000Y-12840000I-40000J0D01*
G01*
X10820000Y-12840000D02*
G75*
G02*
X10900000Y-12840000I40000J0D01*
G01*
X10900000Y-13270000D02*
G75*
G02*
X10820000Y-13270000I-40000J0D01*
G01*
X10820000Y-13270000D02*
G75*
G02*
X10900000Y-13270000I40000J0D01*
G01*
X10900000Y-13524000D02*
G75*
G02*
X10820000Y-13524000I-40000J0D01*
G01*
X10820000Y-13524000D02*
G75*
G02*
X10900000Y-13524000I40000J0D01*
G01*
X10900000Y-13778000D02*
G75*
G02*
X10820000Y-13778000I-40000J0D01*
G01*
X10820000Y-13778000D02*
G75*
G02*
X10900000Y-13778000I40000J0D01*
G01*
X10900000Y-14032000D02*
G75*
G02*
X10820000Y-14032000I-40000J0D01*
G01*
X10820000Y-14032000D02*
G75*
G02*
X10900000Y-14032000I40000J0D01*
G01*
X10900000Y-14286000D02*
G75*
G02*
X10820000Y-14286000I-40000J0D01*
G01*
X10820000Y-14286000D02*
G75*
G02*
X10900000Y-14286000I40000J0D01*
G01*
X10900000Y-14540000D02*
G75*
G02*
X10820000Y-14540000I-40000J0D01*
G01*
X10820000Y-14540000D02*
G75*
G02*
X10900000Y-14540000I40000J0D01*
G01*
X6060000Y-10860000D02*
X6060000Y-10960000D01*
X6010000Y-10910000D02*
X6110000Y-10910000D01*
X6060000Y-11114000D02*
X6060000Y-11214000D01*
X6010000Y-11164000D02*
X6110000Y-11164000D01*
X6060000Y-11368000D02*
X6060000Y-11468000D01*
X6010000Y-11418000D02*
X6110000Y-11418000D01*
X6060000Y-11622000D02*
X6060000Y-11722000D01*
X6010000Y-11672000D02*
X6110000Y-11672000D01*
X6060000Y-11876000D02*
X6060000Y-11976000D01*
X6010000Y-11926000D02*
X6110000Y-11926000D01*
X6060000Y-12130000D02*
X6060000Y-12230000D01*
X6010000Y-12180000D02*
X6110000Y-12180000D01*
X6060000Y-12384000D02*
X6060000Y-12484000D01*
X6010000Y-12434000D02*
X6110000Y-12434000D01*
X6060000Y-12638000D02*
X6060000Y-12738000D01*
X6010000Y-12688000D02*
X6110000Y-12688000D01*
X6060000Y-12892000D02*
X6060000Y-12992000D01*
X6010000Y-12942000D02*
X6110000Y-12942000D01*
X6060000Y-13146000D02*
X6060000Y-13246000D01*
X6010000Y-13196000D02*
X6110000Y-13196000D01*
X6060000Y-13400000D02*
X6060000Y-13500000D01*
X6010000Y-13450000D02*
X6110000Y-13450000D01*
X6060000Y-13654000D02*
X6060000Y-13754000D01*
X6010000Y-13704000D02*
X6110000Y-13704000D01*
X6060000Y-13908000D02*
X6060000Y-14008000D01*
X6010000Y-13958000D02*
X6110000Y-13958000D01*
X6060000Y-14162000D02*
X6060000Y-14262000D01*
X6010000Y-14212000D02*
X6110000Y-14212000D01*
X6060000Y-14416000D02*
X6060000Y-14516000D01*
X6010000Y-14466000D02*
X6110000Y-14466000D01*
X7584000Y-10860000D02*
X7584000Y-10960000D01*
X7534000Y-10910000D02*
X7634000Y-10910000D01*
X7584000Y-11114000D02*
X7584000Y-11214000D01*
X7534000Y-11164000D02*
X7634000Y-11164000D01*
X7584000Y-11368000D02*
X7584000Y-11468000D01*
X7534000Y-11418000D02*
X7634000Y-11418000D01*
X7584000Y-11622000D02*
X7584000Y-11722000D01*
X7534000Y-11672000D02*
X7634000Y-11672000D01*
X7584000Y-11876000D02*
X7584000Y-11976000D01*
X7534000Y-11926000D02*
X7634000Y-11926000D01*
X7584000Y-12130000D02*
X7584000Y-12230000D01*
X7534000Y-12180000D02*
X7634000Y-12180000D01*
X7584000Y-12384000D02*
X7584000Y-12484000D01*
X7534000Y-12434000D02*
X7634000Y-12434000D01*
X7584000Y-12638000D02*
X7584000Y-12738000D01*
X7534000Y-12688000D02*
X7634000Y-12688000D01*
X7584000Y-12892000D02*
X7584000Y-12992000D01*
X7534000Y-12942000D02*
X7634000Y-12942000D01*
X7584000Y-13146000D02*
X7584000Y-13246000D01*
X7534000Y-13196000D02*
X7634000Y-13196000D01*
X7584000Y-13400000D02*
X7584000Y-13500000D01*
X7534000Y-13450000D02*
X7634000Y-13450000D01*
X7584000Y-13654000D02*
X7584000Y-13754000D01*
X7534000Y-13704000D02*
X7634000Y-13704000D01*
X7584000Y-13908000D02*
X7584000Y-14008000D01*
X7534000Y-13958000D02*
X7634000Y-13958000D01*
X7584000Y-14162000D02*
X7584000Y-14262000D01*
X7534000Y-14212000D02*
X7634000Y-14212000D01*
X7584000Y-14416000D02*
X7584000Y-14516000D01*
X7534000Y-14466000D02*
X7634000Y-14466000D01*
D13*
X4688891Y-12648891D02*
X4688891Y-12571109D01*
X4611109Y-12571109D01*
X4611109Y-12648891D01*
X4688891Y-12648891D01*
X4688891Y-13098891D02*
X4688891Y-13021109D01*
X4611109Y-13021109D01*
X4611109Y-13098891D01*
X4688891Y-13098891D01*
X4698891Y-11358891D02*
X4698891Y-11281109D01*
X4621109Y-11281109D01*
X4621109Y-11358891D01*
X4698891Y-11358891D01*
X4698891Y-11808891D02*
X4698891Y-11731109D01*
X4621109Y-11731109D01*
X4621109Y-11808891D01*
X4698891Y-11808891D01*
X4698891Y-13958891D02*
X4698891Y-13881109D01*
X4621109Y-13881109D01*
X4621109Y-13958891D01*
X4698891Y-13958891D01*
X4698891Y-14408891D02*
X4698891Y-14331109D01*
X4621109Y-14331109D01*
X4621109Y-14408891D01*
X4698891Y-14408891D01*
X5338891Y-12648891D02*
X5338891Y-12571109D01*
X5261109Y-12571109D01*
X5261109Y-12648891D01*
X5338891Y-12648891D01*
X5338891Y-13098891D02*
X5338891Y-13021109D01*
X5261109Y-13021109D01*
X5261109Y-13098891D01*
X5338891Y-13098891D01*
X5348891Y-11358891D02*
X5348891Y-11281109D01*
X5271109Y-11281109D01*
X5271109Y-11358891D01*
X5348891Y-11358891D01*
X5348891Y-11808891D02*
X5348891Y-11731109D01*
X5271109Y-11731109D01*
X5271109Y-11808891D01*
X5348891Y-11808891D01*
X5348891Y-13958891D02*
X5348891Y-13881109D01*
X5271109Y-13881109D01*
X5271109Y-13958891D01*
X5348891Y-13958891D01*
X5348891Y-14408891D02*
X5348891Y-14331109D01*
X5271109Y-14331109D01*
X5271109Y-14408891D01*
X5348891Y-14408891D01*
D14*
X4200000Y-10775000D02*
X4275000Y-10700000D01*
X4200000Y-10625000D01*
X4125000Y-10700000D01*
X4200000Y-10775000D01*
X4200000Y-14875000D02*
X4275000Y-14800000D01*
X4200000Y-14725000D01*
X4125000Y-14800000D01*
X4200000Y-14875000D01*
X6480000Y-14415000D02*
X6555000Y-14340000D01*
X6480000Y-14265000D01*
X6405000Y-14340000D01*
X6480000Y-14415000D01*
X6500000Y-11185000D02*
X6575000Y-11110000D01*
X6500000Y-11035000D01*
X6425000Y-11110000D01*
X6500000Y-11185000D01*
X10290000Y-14875000D02*
X10365000Y-14800000D01*
X10290000Y-14725000D01*
X10215000Y-14800000D01*
X10290000Y-14875000D01*
X10300000Y-10775000D02*
X10375000Y-10700000D01*
X10300000Y-10625000D01*
X10225000Y-10700000D01*
X10300000Y-10775000D01*
X10780000Y-10765000D02*
X10855000Y-10690000D01*
X10780000Y-10615000D01*
X10705000Y-10690000D01*
X10780000Y-10765000D01*
X10790000Y-14885000D02*
X10865000Y-14810000D01*
X10790000Y-14735000D01*
X10715000Y-14810000D01*
X10790000Y-14885000D01*
X13700000Y-14885000D02*
X13775000Y-14810000D01*
X13700000Y-14735000D01*
X13625000Y-14810000D01*
X13700000Y-14885000D01*
X13710000Y-10755000D02*
X13785000Y-10680000D01*
X13710000Y-10605000D01*
X13635000Y-10680000D01*
X13710000Y-10755000D01*
D11*
X4258277Y-15313984D02*
X4258277Y-15113984D01*
X4258277Y-15113984D02*
X4305896Y-15113984D01*
X4305896Y-15113984D02*
X4334467Y-15123508D01*
X4334467Y-15123508D02*
X4353515Y-15142555D01*
X4353515Y-15142555D02*
X4363039Y-15161603D01*
X4363039Y-15161603D02*
X4372563Y-15199698D01*
X4372563Y-15199698D02*
X4372563Y-15228269D01*
X4372563Y-15228269D02*
X4363039Y-15266365D01*
X4363039Y-15266365D02*
X4353515Y-15285412D01*
X4353515Y-15285412D02*
X4334467Y-15304460D01*
X4334467Y-15304460D02*
X4305896Y-15313984D01*
X4305896Y-15313984D02*
X4258277Y-15313984D01*
X4458277Y-15313984D02*
X4458277Y-15180650D01*
X4458277Y-15218746D02*
X4467801Y-15199698D01*
X4467801Y-15199698D02*
X4477324Y-15190174D01*
X4477324Y-15190174D02*
X4496372Y-15180650D01*
X4496372Y-15180650D02*
X4515420Y-15180650D01*
X4582086Y-15313984D02*
X4582086Y-15180650D01*
X4582086Y-15113984D02*
X4572563Y-15123508D01*
X4572563Y-15123508D02*
X4582086Y-15133031D01*
X4582086Y-15133031D02*
X4591610Y-15123508D01*
X4591610Y-15123508D02*
X4582086Y-15113984D01*
X4582086Y-15113984D02*
X4582086Y-15133031D01*
X4705896Y-15313984D02*
X4686848Y-15304460D01*
X4686848Y-15304460D02*
X4677324Y-15285412D01*
X4677324Y-15285412D02*
X4677324Y-15113984D01*
X4810658Y-15313984D02*
X4791610Y-15304460D01*
X4791610Y-15304460D02*
X4782086Y-15285412D01*
X4782086Y-15285412D02*
X4782086Y-15113984D01*
X5039229Y-15313984D02*
X5039229Y-15113984D01*
X5039229Y-15113984D02*
X5105896Y-15256841D01*
X5105896Y-15256841D02*
X5172563Y-15113984D01*
X5172563Y-15113984D02*
X5172563Y-15313984D01*
X5353515Y-15313984D02*
X5353515Y-15209222D01*
X5353515Y-15209222D02*
X5343991Y-15190174D01*
X5343991Y-15190174D02*
X5324944Y-15180650D01*
X5324944Y-15180650D02*
X5286848Y-15180650D01*
X5286848Y-15180650D02*
X5267801Y-15190174D01*
X5353515Y-15304460D02*
X5334467Y-15313984D01*
X5334467Y-15313984D02*
X5286848Y-15313984D01*
X5286848Y-15313984D02*
X5267801Y-15304460D01*
X5267801Y-15304460D02*
X5258277Y-15285412D01*
X5258277Y-15285412D02*
X5258277Y-15266365D01*
X5258277Y-15266365D02*
X5267801Y-15247317D01*
X5267801Y-15247317D02*
X5286848Y-15237793D01*
X5286848Y-15237793D02*
X5334467Y-15237793D01*
X5334467Y-15237793D02*
X5353515Y-15228269D01*
X5448753Y-15180650D02*
X5448753Y-15380650D01*
X5448753Y-15190174D02*
X5467801Y-15180650D01*
X5467801Y-15180650D02*
X5505896Y-15180650D01*
X5505896Y-15180650D02*
X5524944Y-15190174D01*
X5524944Y-15190174D02*
X5534467Y-15199698D01*
X5534467Y-15199698D02*
X5543991Y-15218746D01*
X5543991Y-15218746D02*
X5543991Y-15275888D01*
X5543991Y-15275888D02*
X5534467Y-15294936D01*
X5534467Y-15294936D02*
X5524944Y-15304460D01*
X5524944Y-15304460D02*
X5505896Y-15313984D01*
X5505896Y-15313984D02*
X5467801Y-15313984D01*
X5467801Y-15313984D02*
X5448753Y-15304460D01*
X5629705Y-15294936D02*
X5639229Y-15304460D01*
X5639229Y-15304460D02*
X5629705Y-15313984D01*
X5629705Y-15313984D02*
X5620182Y-15304460D01*
X5620182Y-15304460D02*
X5629705Y-15294936D01*
X5629705Y-15294936D02*
X5629705Y-15313984D01*
X5629705Y-15190174D02*
X5639229Y-15199698D01*
X5639229Y-15199698D02*
X5629705Y-15209222D01*
X5629705Y-15209222D02*
X5620182Y-15199698D01*
X5620182Y-15199698D02*
X5629705Y-15190174D01*
X5629705Y-15190174D02*
X5629705Y-15209222D01*
D12*
X3967500Y-15627500D02*
X3997500Y-15657500D01*
X3997500Y-15627500D02*
X3967500Y-15657500D01*
D11*
X4296372Y-15533984D02*
X4315420Y-15533984D01*
X4315420Y-15533984D02*
X4334467Y-15543508D01*
X4334467Y-15543508D02*
X4343991Y-15553031D01*
X4343991Y-15553031D02*
X4353515Y-15572079D01*
X4353515Y-15572079D02*
X4363039Y-15610174D01*
X4363039Y-15610174D02*
X4363039Y-15657793D01*
X4363039Y-15657793D02*
X4353515Y-15695888D01*
X4353515Y-15695888D02*
X4343991Y-15714936D01*
X4343991Y-15714936D02*
X4334467Y-15724460D01*
X4334467Y-15724460D02*
X4315420Y-15733984D01*
X4315420Y-15733984D02*
X4296372Y-15733984D01*
X4296372Y-15733984D02*
X4277324Y-15724460D01*
X4277324Y-15724460D02*
X4267801Y-15714936D01*
X4267801Y-15714936D02*
X4258277Y-15695888D01*
X4258277Y-15695888D02*
X4248753Y-15657793D01*
X4248753Y-15657793D02*
X4248753Y-15610174D01*
X4248753Y-15610174D02*
X4258277Y-15572079D01*
X4258277Y-15572079D02*
X4267801Y-15553031D01*
X4267801Y-15553031D02*
X4277324Y-15543508D01*
X4277324Y-15543508D02*
X4296372Y-15533984D01*
X4448753Y-15714936D02*
X4458277Y-15724460D01*
X4458277Y-15724460D02*
X4448753Y-15733984D01*
X4448753Y-15733984D02*
X4439229Y-15724460D01*
X4439229Y-15724460D02*
X4448753Y-15714936D01*
X4448753Y-15714936D02*
X4448753Y-15733984D01*
X4524944Y-15533984D02*
X4648753Y-15533984D01*
X4648753Y-15533984D02*
X4582086Y-15610174D01*
X4582086Y-15610174D02*
X4610658Y-15610174D01*
X4610658Y-15610174D02*
X4629705Y-15619698D01*
X4629705Y-15619698D02*
X4639229Y-15629222D01*
X4639229Y-15629222D02*
X4648753Y-15648269D01*
X4648753Y-15648269D02*
X4648753Y-15695888D01*
X4648753Y-15695888D02*
X4639229Y-15714936D01*
X4639229Y-15714936D02*
X4629705Y-15724460D01*
X4629705Y-15724460D02*
X4610658Y-15733984D01*
X4610658Y-15733984D02*
X4553515Y-15733984D01*
X4553515Y-15733984D02*
X4534467Y-15724460D01*
X4534467Y-15724460D02*
X4524944Y-15714936D01*
X4772563Y-15533984D02*
X4791610Y-15533984D01*
X4791610Y-15533984D02*
X4810658Y-15543508D01*
X4810658Y-15543508D02*
X4820182Y-15553031D01*
X4820182Y-15553031D02*
X4829705Y-15572079D01*
X4829705Y-15572079D02*
X4839229Y-15610174D01*
X4839229Y-15610174D02*
X4839229Y-15657793D01*
X4839229Y-15657793D02*
X4829705Y-15695888D01*
X4829705Y-15695888D02*
X4820182Y-15714936D01*
X4820182Y-15714936D02*
X4810658Y-15724460D01*
X4810658Y-15724460D02*
X4791610Y-15733984D01*
X4791610Y-15733984D02*
X4772563Y-15733984D01*
X4772563Y-15733984D02*
X4753515Y-15724460D01*
X4753515Y-15724460D02*
X4743991Y-15714936D01*
X4743991Y-15714936D02*
X4734467Y-15695888D01*
X4734467Y-15695888D02*
X4724944Y-15657793D01*
X4724944Y-15657793D02*
X4724944Y-15610174D01*
X4724944Y-15610174D02*
X4734467Y-15572079D01*
X4734467Y-15572079D02*
X4743991Y-15553031D01*
X4743991Y-15553031D02*
X4753515Y-15543508D01*
X4753515Y-15543508D02*
X4772563Y-15533984D01*
X4963039Y-15533984D02*
X4982086Y-15533984D01*
X4982086Y-15533984D02*
X5001134Y-15543508D01*
X5001134Y-15543508D02*
X5010658Y-15553031D01*
X5010658Y-15553031D02*
X5020182Y-15572079D01*
X5020182Y-15572079D02*
X5029705Y-15610174D01*
X5029705Y-15610174D02*
X5029705Y-15657793D01*
X5029705Y-15657793D02*
X5020182Y-15695888D01*
X5020182Y-15695888D02*
X5010658Y-15714936D01*
X5010658Y-15714936D02*
X5001134Y-15724460D01*
X5001134Y-15724460D02*
X4982086Y-15733984D01*
X4982086Y-15733984D02*
X4963039Y-15733984D01*
X4963039Y-15733984D02*
X4943991Y-15724460D01*
X4943991Y-15724460D02*
X4934467Y-15714936D01*
X4934467Y-15714936D02*
X4924944Y-15695888D01*
X4924944Y-15695888D02*
X4915420Y-15657793D01*
X4915420Y-15657793D02*
X4915420Y-15610174D01*
X4915420Y-15610174D02*
X4924944Y-15572079D01*
X4924944Y-15572079D02*
X4934467Y-15553031D01*
X4934467Y-15553031D02*
X4943991Y-15543508D01*
X4943991Y-15543508D02*
X4963039Y-15533984D01*
X5115420Y-15733984D02*
X5115420Y-15600650D01*
X5115420Y-15619698D02*
X5124944Y-15610174D01*
X5124944Y-15610174D02*
X5143991Y-15600650D01*
X5143991Y-15600650D02*
X5172563Y-15600650D01*
X5172563Y-15600650D02*
X5191610Y-15610174D01*
X5191610Y-15610174D02*
X5201134Y-15629222D01*
X5201134Y-15629222D02*
X5201134Y-15733984D01*
X5201134Y-15629222D02*
X5210658Y-15610174D01*
X5210658Y-15610174D02*
X5229705Y-15600650D01*
X5229705Y-15600650D02*
X5258277Y-15600650D01*
X5258277Y-15600650D02*
X5277325Y-15610174D01*
X5277325Y-15610174D02*
X5286848Y-15629222D01*
X5286848Y-15629222D02*
X5286848Y-15733984D01*
X5382086Y-15733984D02*
X5382086Y-15600650D01*
X5382086Y-15619698D02*
X5391610Y-15610174D01*
X5391610Y-15610174D02*
X5410658Y-15600650D01*
X5410658Y-15600650D02*
X5439229Y-15600650D01*
X5439229Y-15600650D02*
X5458277Y-15610174D01*
X5458277Y-15610174D02*
X5467801Y-15629222D01*
X5467801Y-15629222D02*
X5467801Y-15733984D01*
X5467801Y-15629222D02*
X5477325Y-15610174D01*
X5477325Y-15610174D02*
X5496372Y-15600650D01*
X5496372Y-15600650D02*
X5524944Y-15600650D01*
X5524944Y-15600650D02*
X5543991Y-15610174D01*
X5543991Y-15610174D02*
X5553515Y-15629222D01*
X5553515Y-15629222D02*
X5553515Y-15733984D01*
X5943991Y-15524460D02*
X5772563Y-15781603D01*
X6201134Y-15533984D02*
X6220182Y-15533984D01*
X6220182Y-15533984D02*
X6239229Y-15543508D01*
X6239229Y-15543508D02*
X6248753Y-15553031D01*
X6248753Y-15553031D02*
X6258277Y-15572079D01*
X6258277Y-15572079D02*
X6267801Y-15610174D01*
X6267801Y-15610174D02*
X6267801Y-15657793D01*
X6267801Y-15657793D02*
X6258277Y-15695888D01*
X6258277Y-15695888D02*
X6248753Y-15714936D01*
X6248753Y-15714936D02*
X6239229Y-15724460D01*
X6239229Y-15724460D02*
X6220182Y-15733984D01*
X6220182Y-15733984D02*
X6201134Y-15733984D01*
X6201134Y-15733984D02*
X6182086Y-15724460D01*
X6182086Y-15724460D02*
X6172563Y-15714936D01*
X6172563Y-15714936D02*
X6163039Y-15695888D01*
X6163039Y-15695888D02*
X6153515Y-15657793D01*
X6153515Y-15657793D02*
X6153515Y-15610174D01*
X6153515Y-15610174D02*
X6163039Y-15572079D01*
X6163039Y-15572079D02*
X6172563Y-15553031D01*
X6172563Y-15553031D02*
X6182086Y-15543508D01*
X6182086Y-15543508D02*
X6201134Y-15533984D01*
X6353515Y-15714936D02*
X6363039Y-15724460D01*
X6363039Y-15724460D02*
X6353515Y-15733984D01*
X6353515Y-15733984D02*
X6343991Y-15724460D01*
X6343991Y-15724460D02*
X6353515Y-15714936D01*
X6353515Y-15714936D02*
X6353515Y-15733984D01*
X6486848Y-15533984D02*
X6505896Y-15533984D01*
X6505896Y-15533984D02*
X6524944Y-15543508D01*
X6524944Y-15543508D02*
X6534467Y-15553031D01*
X6534467Y-15553031D02*
X6543991Y-15572079D01*
X6543991Y-15572079D02*
X6553515Y-15610174D01*
X6553515Y-15610174D02*
X6553515Y-15657793D01*
X6553515Y-15657793D02*
X6543991Y-15695888D01*
X6543991Y-15695888D02*
X6534467Y-15714936D01*
X6534467Y-15714936D02*
X6524944Y-15724460D01*
X6524944Y-15724460D02*
X6505896Y-15733984D01*
X6505896Y-15733984D02*
X6486848Y-15733984D01*
X6486848Y-15733984D02*
X6467801Y-15724460D01*
X6467801Y-15724460D02*
X6458277Y-15714936D01*
X6458277Y-15714936D02*
X6448753Y-15695888D01*
X6448753Y-15695888D02*
X6439229Y-15657793D01*
X6439229Y-15657793D02*
X6439229Y-15610174D01*
X6439229Y-15610174D02*
X6448753Y-15572079D01*
X6448753Y-15572079D02*
X6458277Y-15553031D01*
X6458277Y-15553031D02*
X6467801Y-15543508D01*
X6467801Y-15543508D02*
X6486848Y-15533984D01*
X6743991Y-15733984D02*
X6629706Y-15733984D01*
X6686848Y-15733984D02*
X6686848Y-15533984D01*
X6686848Y-15533984D02*
X6667801Y-15562555D01*
X6667801Y-15562555D02*
X6648753Y-15581603D01*
X6648753Y-15581603D02*
X6629706Y-15591127D01*
X6934467Y-15733984D02*
X6820182Y-15733984D01*
X6877325Y-15733984D02*
X6877325Y-15533984D01*
X6877325Y-15533984D02*
X6858277Y-15562555D01*
X6858277Y-15562555D02*
X6839229Y-15581603D01*
X6839229Y-15581603D02*
X6820182Y-15591127D01*
X7048753Y-15619698D02*
X7029706Y-15610174D01*
X7029706Y-15610174D02*
X7020182Y-15600650D01*
X7020182Y-15600650D02*
X7010658Y-15581603D01*
X7010658Y-15581603D02*
X7010658Y-15572079D01*
X7010658Y-15572079D02*
X7020182Y-15553031D01*
X7020182Y-15553031D02*
X7029706Y-15543508D01*
X7029706Y-15543508D02*
X7048753Y-15533984D01*
X7048753Y-15533984D02*
X7086848Y-15533984D01*
X7086848Y-15533984D02*
X7105896Y-15543508D01*
X7105896Y-15543508D02*
X7115420Y-15553031D01*
X7115420Y-15553031D02*
X7124944Y-15572079D01*
X7124944Y-15572079D02*
X7124944Y-15581603D01*
X7124944Y-15581603D02*
X7115420Y-15600650D01*
X7115420Y-15600650D02*
X7105896Y-15610174D01*
X7105896Y-15610174D02*
X7086848Y-15619698D01*
X7086848Y-15619698D02*
X7048753Y-15619698D01*
X7048753Y-15619698D02*
X7029706Y-15629222D01*
X7029706Y-15629222D02*
X7020182Y-15638746D01*
X7020182Y-15638746D02*
X7010658Y-15657793D01*
X7010658Y-15657793D02*
X7010658Y-15695888D01*
X7010658Y-15695888D02*
X7020182Y-15714936D01*
X7020182Y-15714936D02*
X7029706Y-15724460D01*
X7029706Y-15724460D02*
X7048753Y-15733984D01*
X7048753Y-15733984D02*
X7086848Y-15733984D01*
X7086848Y-15733984D02*
X7105896Y-15724460D01*
X7105896Y-15724460D02*
X7115420Y-15714936D01*
X7115420Y-15714936D02*
X7124944Y-15695888D01*
X7124944Y-15695888D02*
X7124944Y-15657793D01*
X7124944Y-15657793D02*
X7115420Y-15638746D01*
X7115420Y-15638746D02*
X7105896Y-15629222D01*
X7105896Y-15629222D02*
X7086848Y-15619698D01*
X7201134Y-15533984D02*
X7201134Y-15572079D01*
X7277325Y-15533984D02*
X7277325Y-15572079D01*
X7572563Y-15810174D02*
X7563039Y-15800650D01*
X7563039Y-15800650D02*
X7543991Y-15772079D01*
X7543991Y-15772079D02*
X7534468Y-15753031D01*
X7534468Y-15753031D02*
X7524944Y-15724460D01*
X7524944Y-15724460D02*
X7515420Y-15676841D01*
X7515420Y-15676841D02*
X7515420Y-15638746D01*
X7515420Y-15638746D02*
X7524944Y-15591127D01*
X7524944Y-15591127D02*
X7534468Y-15562555D01*
X7534468Y-15562555D02*
X7543991Y-15543508D01*
X7543991Y-15543508D02*
X7563039Y-15514936D01*
X7563039Y-15514936D02*
X7572563Y-15505412D01*
X7639229Y-15553031D02*
X7648753Y-15543508D01*
X7648753Y-15543508D02*
X7667801Y-15533984D01*
X7667801Y-15533984D02*
X7715420Y-15533984D01*
X7715420Y-15533984D02*
X7734468Y-15543508D01*
X7734468Y-15543508D02*
X7743991Y-15553031D01*
X7743991Y-15553031D02*
X7753515Y-15572079D01*
X7753515Y-15572079D02*
X7753515Y-15591127D01*
X7753515Y-15591127D02*
X7743991Y-15619698D01*
X7743991Y-15619698D02*
X7629706Y-15733984D01*
X7629706Y-15733984D02*
X7753515Y-15733984D01*
X7924944Y-15533984D02*
X7886848Y-15533984D01*
X7886848Y-15533984D02*
X7867801Y-15543508D01*
X7867801Y-15543508D02*
X7858277Y-15553031D01*
X7858277Y-15553031D02*
X7839229Y-15581603D01*
X7839229Y-15581603D02*
X7829706Y-15619698D01*
X7829706Y-15619698D02*
X7829706Y-15695888D01*
X7829706Y-15695888D02*
X7839229Y-15714936D01*
X7839229Y-15714936D02*
X7848753Y-15724460D01*
X7848753Y-15724460D02*
X7867801Y-15733984D01*
X7867801Y-15733984D02*
X7905896Y-15733984D01*
X7905896Y-15733984D02*
X7924944Y-15724460D01*
X7924944Y-15724460D02*
X7934468Y-15714936D01*
X7934468Y-15714936D02*
X7943991Y-15695888D01*
X7943991Y-15695888D02*
X7943991Y-15648269D01*
X7943991Y-15648269D02*
X7934468Y-15629222D01*
X7934468Y-15629222D02*
X7924944Y-15619698D01*
X7924944Y-15619698D02*
X7905896Y-15610174D01*
X7905896Y-15610174D02*
X7867801Y-15610174D01*
X7867801Y-15610174D02*
X7848753Y-15619698D01*
X7848753Y-15619698D02*
X7839229Y-15629222D01*
X7839229Y-15629222D02*
X7829706Y-15648269D01*
X8182087Y-15733984D02*
X8182087Y-15533984D01*
X8267801Y-15733984D02*
X8267801Y-15629222D01*
X8267801Y-15629222D02*
X8258277Y-15610174D01*
X8258277Y-15610174D02*
X8239230Y-15600650D01*
X8239230Y-15600650D02*
X8210658Y-15600650D01*
X8210658Y-15600650D02*
X8191610Y-15610174D01*
X8191610Y-15610174D02*
X8182087Y-15619698D01*
X8391611Y-15733984D02*
X8372563Y-15724460D01*
X8372563Y-15724460D02*
X8363039Y-15714936D01*
X8363039Y-15714936D02*
X8353515Y-15695888D01*
X8353515Y-15695888D02*
X8353515Y-15638746D01*
X8353515Y-15638746D02*
X8363039Y-15619698D01*
X8363039Y-15619698D02*
X8372563Y-15610174D01*
X8372563Y-15610174D02*
X8391611Y-15600650D01*
X8391611Y-15600650D02*
X8420182Y-15600650D01*
X8420182Y-15600650D02*
X8439230Y-15610174D01*
X8439230Y-15610174D02*
X8448753Y-15619698D01*
X8448753Y-15619698D02*
X8458277Y-15638746D01*
X8458277Y-15638746D02*
X8458277Y-15695888D01*
X8458277Y-15695888D02*
X8448753Y-15714936D01*
X8448753Y-15714936D02*
X8439230Y-15724460D01*
X8439230Y-15724460D02*
X8420182Y-15733984D01*
X8420182Y-15733984D02*
X8391611Y-15733984D01*
X8572563Y-15733984D02*
X8553515Y-15724460D01*
X8553515Y-15724460D02*
X8543992Y-15705412D01*
X8543992Y-15705412D02*
X8543992Y-15533984D01*
X8724944Y-15724460D02*
X8705896Y-15733984D01*
X8705896Y-15733984D02*
X8667801Y-15733984D01*
X8667801Y-15733984D02*
X8648753Y-15724460D01*
X8648753Y-15724460D02*
X8639230Y-15705412D01*
X8639230Y-15705412D02*
X8639230Y-15629222D01*
X8639230Y-15629222D02*
X8648753Y-15610174D01*
X8648753Y-15610174D02*
X8667801Y-15600650D01*
X8667801Y-15600650D02*
X8705896Y-15600650D01*
X8705896Y-15600650D02*
X8724944Y-15610174D01*
X8724944Y-15610174D02*
X8734468Y-15629222D01*
X8734468Y-15629222D02*
X8734468Y-15648269D01*
X8734468Y-15648269D02*
X8639230Y-15667317D01*
X8810658Y-15724460D02*
X8829706Y-15733984D01*
X8829706Y-15733984D02*
X8867801Y-15733984D01*
X8867801Y-15733984D02*
X8886849Y-15724460D01*
X8886849Y-15724460D02*
X8896373Y-15705412D01*
X8896373Y-15705412D02*
X8896373Y-15695888D01*
X8896373Y-15695888D02*
X8886849Y-15676841D01*
X8886849Y-15676841D02*
X8867801Y-15667317D01*
X8867801Y-15667317D02*
X8839230Y-15667317D01*
X8839230Y-15667317D02*
X8820182Y-15657793D01*
X8820182Y-15657793D02*
X8810658Y-15638746D01*
X8810658Y-15638746D02*
X8810658Y-15629222D01*
X8810658Y-15629222D02*
X8820182Y-15610174D01*
X8820182Y-15610174D02*
X8839230Y-15600650D01*
X8839230Y-15600650D02*
X8867801Y-15600650D01*
X8867801Y-15600650D02*
X8886849Y-15610174D01*
X8963039Y-15810174D02*
X8972563Y-15800650D01*
X8972563Y-15800650D02*
X8991611Y-15772079D01*
X8991611Y-15772079D02*
X9001134Y-15753031D01*
X9001134Y-15753031D02*
X9010658Y-15724460D01*
X9010658Y-15724460D02*
X9020182Y-15676841D01*
X9020182Y-15676841D02*
X9020182Y-15638746D01*
X9020182Y-15638746D02*
X9010658Y-15591127D01*
X9010658Y-15591127D02*
X9001134Y-15562555D01*
X9001134Y-15562555D02*
X8991611Y-15543508D01*
X8991611Y-15543508D02*
X8972563Y-15514936D01*
X8972563Y-15514936D02*
X8963039Y-15505412D01*
D12*
X3997500Y-15906500D02*
G75*
G02*
X3917500Y-15906500I-40000J0D01*
G01*
X3917500Y-15906500D02*
G75*
G02*
X3997500Y-15906500I40000J0D01*
G01*
D11*
X4296372Y-15797984D02*
X4315420Y-15797984D01*
X4315420Y-15797984D02*
X4334467Y-15807508D01*
X4334467Y-15807508D02*
X4343991Y-15817031D01*
X4343991Y-15817031D02*
X4353515Y-15836079D01*
X4353515Y-15836079D02*
X4363039Y-15874174D01*
X4363039Y-15874174D02*
X4363039Y-15921793D01*
X4363039Y-15921793D02*
X4353515Y-15959888D01*
X4353515Y-15959888D02*
X4343991Y-15978936D01*
X4343991Y-15978936D02*
X4334467Y-15988460D01*
X4334467Y-15988460D02*
X4315420Y-15997984D01*
X4315420Y-15997984D02*
X4296372Y-15997984D01*
X4296372Y-15997984D02*
X4277324Y-15988460D01*
X4277324Y-15988460D02*
X4267801Y-15978936D01*
X4267801Y-15978936D02*
X4258277Y-15959888D01*
X4258277Y-15959888D02*
X4248753Y-15921793D01*
X4248753Y-15921793D02*
X4248753Y-15874174D01*
X4248753Y-15874174D02*
X4258277Y-15836079D01*
X4258277Y-15836079D02*
X4267801Y-15817031D01*
X4267801Y-15817031D02*
X4277324Y-15807508D01*
X4277324Y-15807508D02*
X4296372Y-15797984D01*
X4448753Y-15978936D02*
X4458277Y-15988460D01*
X4458277Y-15988460D02*
X4448753Y-15997984D01*
X4448753Y-15997984D02*
X4439229Y-15988460D01*
X4439229Y-15988460D02*
X4448753Y-15978936D01*
X4448753Y-15978936D02*
X4448753Y-15997984D01*
X4572563Y-15883698D02*
X4553515Y-15874174D01*
X4553515Y-15874174D02*
X4543991Y-15864650D01*
X4543991Y-15864650D02*
X4534467Y-15845603D01*
X4534467Y-15845603D02*
X4534467Y-15836079D01*
X4534467Y-15836079D02*
X4543991Y-15817031D01*
X4543991Y-15817031D02*
X4553515Y-15807508D01*
X4553515Y-15807508D02*
X4572563Y-15797984D01*
X4572563Y-15797984D02*
X4610658Y-15797984D01*
X4610658Y-15797984D02*
X4629705Y-15807508D01*
X4629705Y-15807508D02*
X4639229Y-15817031D01*
X4639229Y-15817031D02*
X4648753Y-15836079D01*
X4648753Y-15836079D02*
X4648753Y-15845603D01*
X4648753Y-15845603D02*
X4639229Y-15864650D01*
X4639229Y-15864650D02*
X4629705Y-15874174D01*
X4629705Y-15874174D02*
X4610658Y-15883698D01*
X4610658Y-15883698D02*
X4572563Y-15883698D01*
X4572563Y-15883698D02*
X4553515Y-15893222D01*
X4553515Y-15893222D02*
X4543991Y-15902746D01*
X4543991Y-15902746D02*
X4534467Y-15921793D01*
X4534467Y-15921793D02*
X4534467Y-15959888D01*
X4534467Y-15959888D02*
X4543991Y-15978936D01*
X4543991Y-15978936D02*
X4553515Y-15988460D01*
X4553515Y-15988460D02*
X4572563Y-15997984D01*
X4572563Y-15997984D02*
X4610658Y-15997984D01*
X4610658Y-15997984D02*
X4629705Y-15988460D01*
X4629705Y-15988460D02*
X4639229Y-15978936D01*
X4639229Y-15978936D02*
X4648753Y-15959888D01*
X4648753Y-15959888D02*
X4648753Y-15921793D01*
X4648753Y-15921793D02*
X4639229Y-15902746D01*
X4639229Y-15902746D02*
X4629705Y-15893222D01*
X4629705Y-15893222D02*
X4610658Y-15883698D01*
X4772563Y-15797984D02*
X4791610Y-15797984D01*
X4791610Y-15797984D02*
X4810658Y-15807508D01*
X4810658Y-15807508D02*
X4820182Y-15817031D01*
X4820182Y-15817031D02*
X4829705Y-15836079D01*
X4829705Y-15836079D02*
X4839229Y-15874174D01*
X4839229Y-15874174D02*
X4839229Y-15921793D01*
X4839229Y-15921793D02*
X4829705Y-15959888D01*
X4829705Y-15959888D02*
X4820182Y-15978936D01*
X4820182Y-15978936D02*
X4810658Y-15988460D01*
X4810658Y-15988460D02*
X4791610Y-15997984D01*
X4791610Y-15997984D02*
X4772563Y-15997984D01*
X4772563Y-15997984D02*
X4753515Y-15988460D01*
X4753515Y-15988460D02*
X4743991Y-15978936D01*
X4743991Y-15978936D02*
X4734467Y-15959888D01*
X4734467Y-15959888D02*
X4724944Y-15921793D01*
X4724944Y-15921793D02*
X4724944Y-15874174D01*
X4724944Y-15874174D02*
X4734467Y-15836079D01*
X4734467Y-15836079D02*
X4743991Y-15817031D01*
X4743991Y-15817031D02*
X4753515Y-15807508D01*
X4753515Y-15807508D02*
X4772563Y-15797984D01*
X4963039Y-15797984D02*
X4982086Y-15797984D01*
X4982086Y-15797984D02*
X5001134Y-15807508D01*
X5001134Y-15807508D02*
X5010658Y-15817031D01*
X5010658Y-15817031D02*
X5020182Y-15836079D01*
X5020182Y-15836079D02*
X5029705Y-15874174D01*
X5029705Y-15874174D02*
X5029705Y-15921793D01*
X5029705Y-15921793D02*
X5020182Y-15959888D01*
X5020182Y-15959888D02*
X5010658Y-15978936D01*
X5010658Y-15978936D02*
X5001134Y-15988460D01*
X5001134Y-15988460D02*
X4982086Y-15997984D01*
X4982086Y-15997984D02*
X4963039Y-15997984D01*
X4963039Y-15997984D02*
X4943991Y-15988460D01*
X4943991Y-15988460D02*
X4934467Y-15978936D01*
X4934467Y-15978936D02*
X4924944Y-15959888D01*
X4924944Y-15959888D02*
X4915420Y-15921793D01*
X4915420Y-15921793D02*
X4915420Y-15874174D01*
X4915420Y-15874174D02*
X4924944Y-15836079D01*
X4924944Y-15836079D02*
X4934467Y-15817031D01*
X4934467Y-15817031D02*
X4943991Y-15807508D01*
X4943991Y-15807508D02*
X4963039Y-15797984D01*
X5115420Y-15997984D02*
X5115420Y-15864650D01*
X5115420Y-15883698D02*
X5124944Y-15874174D01*
X5124944Y-15874174D02*
X5143991Y-15864650D01*
X5143991Y-15864650D02*
X5172563Y-15864650D01*
X5172563Y-15864650D02*
X5191610Y-15874174D01*
X5191610Y-15874174D02*
X5201134Y-15893222D01*
X5201134Y-15893222D02*
X5201134Y-15997984D01*
X5201134Y-15893222D02*
X5210658Y-15874174D01*
X5210658Y-15874174D02*
X5229705Y-15864650D01*
X5229705Y-15864650D02*
X5258277Y-15864650D01*
X5258277Y-15864650D02*
X5277325Y-15874174D01*
X5277325Y-15874174D02*
X5286848Y-15893222D01*
X5286848Y-15893222D02*
X5286848Y-15997984D01*
X5382086Y-15997984D02*
X5382086Y-15864650D01*
X5382086Y-15883698D02*
X5391610Y-15874174D01*
X5391610Y-15874174D02*
X5410658Y-15864650D01*
X5410658Y-15864650D02*
X5439229Y-15864650D01*
X5439229Y-15864650D02*
X5458277Y-15874174D01*
X5458277Y-15874174D02*
X5467801Y-15893222D01*
X5467801Y-15893222D02*
X5467801Y-15997984D01*
X5467801Y-15893222D02*
X5477325Y-15874174D01*
X5477325Y-15874174D02*
X5496372Y-15864650D01*
X5496372Y-15864650D02*
X5524944Y-15864650D01*
X5524944Y-15864650D02*
X5543991Y-15874174D01*
X5543991Y-15874174D02*
X5553515Y-15893222D01*
X5553515Y-15893222D02*
X5553515Y-15997984D01*
X5943991Y-15788460D02*
X5772563Y-16045603D01*
X6201134Y-15797984D02*
X6220182Y-15797984D01*
X6220182Y-15797984D02*
X6239229Y-15807508D01*
X6239229Y-15807508D02*
X6248753Y-15817031D01*
X6248753Y-15817031D02*
X6258277Y-15836079D01*
X6258277Y-15836079D02*
X6267801Y-15874174D01*
X6267801Y-15874174D02*
X6267801Y-15921793D01*
X6267801Y-15921793D02*
X6258277Y-15959888D01*
X6258277Y-15959888D02*
X6248753Y-15978936D01*
X6248753Y-15978936D02*
X6239229Y-15988460D01*
X6239229Y-15988460D02*
X6220182Y-15997984D01*
X6220182Y-15997984D02*
X6201134Y-15997984D01*
X6201134Y-15997984D02*
X6182086Y-15988460D01*
X6182086Y-15988460D02*
X6172563Y-15978936D01*
X6172563Y-15978936D02*
X6163039Y-15959888D01*
X6163039Y-15959888D02*
X6153515Y-15921793D01*
X6153515Y-15921793D02*
X6153515Y-15874174D01*
X6153515Y-15874174D02*
X6163039Y-15836079D01*
X6163039Y-15836079D02*
X6172563Y-15817031D01*
X6172563Y-15817031D02*
X6182086Y-15807508D01*
X6182086Y-15807508D02*
X6201134Y-15797984D01*
X6353515Y-15978936D02*
X6363039Y-15988460D01*
X6363039Y-15988460D02*
X6353515Y-15997984D01*
X6353515Y-15997984D02*
X6343991Y-15988460D01*
X6343991Y-15988460D02*
X6353515Y-15978936D01*
X6353515Y-15978936D02*
X6353515Y-15997984D01*
X6486848Y-15797984D02*
X6505896Y-15797984D01*
X6505896Y-15797984D02*
X6524944Y-15807508D01*
X6524944Y-15807508D02*
X6534467Y-15817031D01*
X6534467Y-15817031D02*
X6543991Y-15836079D01*
X6543991Y-15836079D02*
X6553515Y-15874174D01*
X6553515Y-15874174D02*
X6553515Y-15921793D01*
X6553515Y-15921793D02*
X6543991Y-15959888D01*
X6543991Y-15959888D02*
X6534467Y-15978936D01*
X6534467Y-15978936D02*
X6524944Y-15988460D01*
X6524944Y-15988460D02*
X6505896Y-15997984D01*
X6505896Y-15997984D02*
X6486848Y-15997984D01*
X6486848Y-15997984D02*
X6467801Y-15988460D01*
X6467801Y-15988460D02*
X6458277Y-15978936D01*
X6458277Y-15978936D02*
X6448753Y-15959888D01*
X6448753Y-15959888D02*
X6439229Y-15921793D01*
X6439229Y-15921793D02*
X6439229Y-15874174D01*
X6439229Y-15874174D02*
X6448753Y-15836079D01*
X6448753Y-15836079D02*
X6458277Y-15817031D01*
X6458277Y-15817031D02*
X6467801Y-15807508D01*
X6467801Y-15807508D02*
X6486848Y-15797984D01*
X6620182Y-15797984D02*
X6743991Y-15797984D01*
X6743991Y-15797984D02*
X6677325Y-15874174D01*
X6677325Y-15874174D02*
X6705896Y-15874174D01*
X6705896Y-15874174D02*
X6724944Y-15883698D01*
X6724944Y-15883698D02*
X6734467Y-15893222D01*
X6734467Y-15893222D02*
X6743991Y-15912269D01*
X6743991Y-15912269D02*
X6743991Y-15959888D01*
X6743991Y-15959888D02*
X6734467Y-15978936D01*
X6734467Y-15978936D02*
X6724944Y-15988460D01*
X6724944Y-15988460D02*
X6705896Y-15997984D01*
X6705896Y-15997984D02*
X6648753Y-15997984D01*
X6648753Y-15997984D02*
X6629706Y-15988460D01*
X6629706Y-15988460D02*
X6620182Y-15978936D01*
X6934467Y-15997984D02*
X6820182Y-15997984D01*
X6877325Y-15997984D02*
X6877325Y-15797984D01*
X6877325Y-15797984D02*
X6858277Y-15826555D01*
X6858277Y-15826555D02*
X6839229Y-15845603D01*
X6839229Y-15845603D02*
X6820182Y-15855127D01*
X7115420Y-15797984D02*
X7020182Y-15797984D01*
X7020182Y-15797984D02*
X7010658Y-15893222D01*
X7010658Y-15893222D02*
X7020182Y-15883698D01*
X7020182Y-15883698D02*
X7039229Y-15874174D01*
X7039229Y-15874174D02*
X7086848Y-15874174D01*
X7086848Y-15874174D02*
X7105896Y-15883698D01*
X7105896Y-15883698D02*
X7115420Y-15893222D01*
X7115420Y-15893222D02*
X7124944Y-15912269D01*
X7124944Y-15912269D02*
X7124944Y-15959888D01*
X7124944Y-15959888D02*
X7115420Y-15978936D01*
X7115420Y-15978936D02*
X7105896Y-15988460D01*
X7105896Y-15988460D02*
X7086848Y-15997984D01*
X7086848Y-15997984D02*
X7039229Y-15997984D01*
X7039229Y-15997984D02*
X7020182Y-15988460D01*
X7020182Y-15988460D02*
X7010658Y-15978936D01*
X7201134Y-15797984D02*
X7201134Y-15836079D01*
X7277325Y-15797984D02*
X7277325Y-15836079D01*
X7572563Y-16074174D02*
X7563039Y-16064650D01*
X7563039Y-16064650D02*
X7543991Y-16036079D01*
X7543991Y-16036079D02*
X7534468Y-16017031D01*
X7534468Y-16017031D02*
X7524944Y-15988460D01*
X7524944Y-15988460D02*
X7515420Y-15940841D01*
X7515420Y-15940841D02*
X7515420Y-15902746D01*
X7515420Y-15902746D02*
X7524944Y-15855127D01*
X7524944Y-15855127D02*
X7534468Y-15826555D01*
X7534468Y-15826555D02*
X7543991Y-15807508D01*
X7543991Y-15807508D02*
X7563039Y-15778936D01*
X7563039Y-15778936D02*
X7572563Y-15769412D01*
X7639229Y-15817031D02*
X7648753Y-15807508D01*
X7648753Y-15807508D02*
X7667801Y-15797984D01*
X7667801Y-15797984D02*
X7715420Y-15797984D01*
X7715420Y-15797984D02*
X7734468Y-15807508D01*
X7734468Y-15807508D02*
X7743991Y-15817031D01*
X7743991Y-15817031D02*
X7753515Y-15836079D01*
X7753515Y-15836079D02*
X7753515Y-15855127D01*
X7753515Y-15855127D02*
X7743991Y-15883698D01*
X7743991Y-15883698D02*
X7629706Y-15997984D01*
X7629706Y-15997984D02*
X7753515Y-15997984D01*
X7867801Y-15883698D02*
X7848753Y-15874174D01*
X7848753Y-15874174D02*
X7839229Y-15864650D01*
X7839229Y-15864650D02*
X7829706Y-15845603D01*
X7829706Y-15845603D02*
X7829706Y-15836079D01*
X7829706Y-15836079D02*
X7839229Y-15817031D01*
X7839229Y-15817031D02*
X7848753Y-15807508D01*
X7848753Y-15807508D02*
X7867801Y-15797984D01*
X7867801Y-15797984D02*
X7905896Y-15797984D01*
X7905896Y-15797984D02*
X7924944Y-15807508D01*
X7924944Y-15807508D02*
X7934468Y-15817031D01*
X7934468Y-15817031D02*
X7943991Y-15836079D01*
X7943991Y-15836079D02*
X7943991Y-15845603D01*
X7943991Y-15845603D02*
X7934468Y-15864650D01*
X7934468Y-15864650D02*
X7924944Y-15874174D01*
X7924944Y-15874174D02*
X7905896Y-15883698D01*
X7905896Y-15883698D02*
X7867801Y-15883698D01*
X7867801Y-15883698D02*
X7848753Y-15893222D01*
X7848753Y-15893222D02*
X7839229Y-15902746D01*
X7839229Y-15902746D02*
X7829706Y-15921793D01*
X7829706Y-15921793D02*
X7829706Y-15959888D01*
X7829706Y-15959888D02*
X7839229Y-15978936D01*
X7839229Y-15978936D02*
X7848753Y-15988460D01*
X7848753Y-15988460D02*
X7867801Y-15997984D01*
X7867801Y-15997984D02*
X7905896Y-15997984D01*
X7905896Y-15997984D02*
X7924944Y-15988460D01*
X7924944Y-15988460D02*
X7934468Y-15978936D01*
X7934468Y-15978936D02*
X7943991Y-15959888D01*
X7943991Y-15959888D02*
X7943991Y-15921793D01*
X7943991Y-15921793D02*
X7934468Y-15902746D01*
X7934468Y-15902746D02*
X7924944Y-15893222D01*
X7924944Y-15893222D02*
X7905896Y-15883698D01*
X8182087Y-15997984D02*
X8182087Y-15797984D01*
X8267801Y-15997984D02*
X8267801Y-15893222D01*
X8267801Y-15893222D02*
X8258277Y-15874174D01*
X8258277Y-15874174D02*
X8239230Y-15864650D01*
X8239230Y-15864650D02*
X8210658Y-15864650D01*
X8210658Y-15864650D02*
X8191610Y-15874174D01*
X8191610Y-15874174D02*
X8182087Y-15883698D01*
X8391611Y-15997984D02*
X8372563Y-15988460D01*
X8372563Y-15988460D02*
X8363039Y-15978936D01*
X8363039Y-15978936D02*
X8353515Y-15959888D01*
X8353515Y-15959888D02*
X8353515Y-15902746D01*
X8353515Y-15902746D02*
X8363039Y-15883698D01*
X8363039Y-15883698D02*
X8372563Y-15874174D01*
X8372563Y-15874174D02*
X8391611Y-15864650D01*
X8391611Y-15864650D02*
X8420182Y-15864650D01*
X8420182Y-15864650D02*
X8439230Y-15874174D01*
X8439230Y-15874174D02*
X8448753Y-15883698D01*
X8448753Y-15883698D02*
X8458277Y-15902746D01*
X8458277Y-15902746D02*
X8458277Y-15959888D01*
X8458277Y-15959888D02*
X8448753Y-15978936D01*
X8448753Y-15978936D02*
X8439230Y-15988460D01*
X8439230Y-15988460D02*
X8420182Y-15997984D01*
X8420182Y-15997984D02*
X8391611Y-15997984D01*
X8572563Y-15997984D02*
X8553515Y-15988460D01*
X8553515Y-15988460D02*
X8543992Y-15969412D01*
X8543992Y-15969412D02*
X8543992Y-15797984D01*
X8724944Y-15988460D02*
X8705896Y-15997984D01*
X8705896Y-15997984D02*
X8667801Y-15997984D01*
X8667801Y-15997984D02*
X8648753Y-15988460D01*
X8648753Y-15988460D02*
X8639230Y-15969412D01*
X8639230Y-15969412D02*
X8639230Y-15893222D01*
X8639230Y-15893222D02*
X8648753Y-15874174D01*
X8648753Y-15874174D02*
X8667801Y-15864650D01*
X8667801Y-15864650D02*
X8705896Y-15864650D01*
X8705896Y-15864650D02*
X8724944Y-15874174D01*
X8724944Y-15874174D02*
X8734468Y-15893222D01*
X8734468Y-15893222D02*
X8734468Y-15912269D01*
X8734468Y-15912269D02*
X8639230Y-15931317D01*
X8810658Y-15988460D02*
X8829706Y-15997984D01*
X8829706Y-15997984D02*
X8867801Y-15997984D01*
X8867801Y-15997984D02*
X8886849Y-15988460D01*
X8886849Y-15988460D02*
X8896373Y-15969412D01*
X8896373Y-15969412D02*
X8896373Y-15959888D01*
X8896373Y-15959888D02*
X8886849Y-15940841D01*
X8886849Y-15940841D02*
X8867801Y-15931317D01*
X8867801Y-15931317D02*
X8839230Y-15931317D01*
X8839230Y-15931317D02*
X8820182Y-15921793D01*
X8820182Y-15921793D02*
X8810658Y-15902746D01*
X8810658Y-15902746D02*
X8810658Y-15893222D01*
X8810658Y-15893222D02*
X8820182Y-15874174D01*
X8820182Y-15874174D02*
X8839230Y-15864650D01*
X8839230Y-15864650D02*
X8867801Y-15864650D01*
X8867801Y-15864650D02*
X8886849Y-15874174D01*
X8963039Y-16074174D02*
X8972563Y-16064650D01*
X8972563Y-16064650D02*
X8991611Y-16036079D01*
X8991611Y-16036079D02*
X9001134Y-16017031D01*
X9001134Y-16017031D02*
X9010658Y-15988460D01*
X9010658Y-15988460D02*
X9020182Y-15940841D01*
X9020182Y-15940841D02*
X9020182Y-15902746D01*
X9020182Y-15902746D02*
X9010658Y-15855127D01*
X9010658Y-15855127D02*
X9001134Y-15826555D01*
X9001134Y-15826555D02*
X8991611Y-15807508D01*
X8991611Y-15807508D02*
X8972563Y-15778936D01*
X8972563Y-15778936D02*
X8963039Y-15769412D01*
D12*
X3947500Y-16120500D02*
X3947500Y-16220500D01*
X3897500Y-16170500D02*
X3997500Y-16170500D01*
D11*
X4363039Y-16261984D02*
X4248753Y-16261984D01*
X4305896Y-16261984D02*
X4305896Y-16061984D01*
X4305896Y-16061984D02*
X4286848Y-16090555D01*
X4286848Y-16090555D02*
X4267801Y-16109603D01*
X4267801Y-16109603D02*
X4248753Y-16119127D01*
X4448753Y-16242936D02*
X4458277Y-16252460D01*
X4458277Y-16252460D02*
X4448753Y-16261984D01*
X4448753Y-16261984D02*
X4439229Y-16252460D01*
X4439229Y-16252460D02*
X4448753Y-16242936D01*
X4448753Y-16242936D02*
X4448753Y-16261984D01*
X4582086Y-16061984D02*
X4601134Y-16061984D01*
X4601134Y-16061984D02*
X4620182Y-16071508D01*
X4620182Y-16071508D02*
X4629705Y-16081031D01*
X4629705Y-16081031D02*
X4639229Y-16100079D01*
X4639229Y-16100079D02*
X4648753Y-16138174D01*
X4648753Y-16138174D02*
X4648753Y-16185793D01*
X4648753Y-16185793D02*
X4639229Y-16223888D01*
X4639229Y-16223888D02*
X4629705Y-16242936D01*
X4629705Y-16242936D02*
X4620182Y-16252460D01*
X4620182Y-16252460D02*
X4601134Y-16261984D01*
X4601134Y-16261984D02*
X4582086Y-16261984D01*
X4582086Y-16261984D02*
X4563039Y-16252460D01*
X4563039Y-16252460D02*
X4553515Y-16242936D01*
X4553515Y-16242936D02*
X4543991Y-16223888D01*
X4543991Y-16223888D02*
X4534467Y-16185793D01*
X4534467Y-16185793D02*
X4534467Y-16138174D01*
X4534467Y-16138174D02*
X4543991Y-16100079D01*
X4543991Y-16100079D02*
X4553515Y-16081031D01*
X4553515Y-16081031D02*
X4563039Y-16071508D01*
X4563039Y-16071508D02*
X4582086Y-16061984D01*
X4772563Y-16061984D02*
X4791610Y-16061984D01*
X4791610Y-16061984D02*
X4810658Y-16071508D01*
X4810658Y-16071508D02*
X4820182Y-16081031D01*
X4820182Y-16081031D02*
X4829705Y-16100079D01*
X4829705Y-16100079D02*
X4839229Y-16138174D01*
X4839229Y-16138174D02*
X4839229Y-16185793D01*
X4839229Y-16185793D02*
X4829705Y-16223888D01*
X4829705Y-16223888D02*
X4820182Y-16242936D01*
X4820182Y-16242936D02*
X4810658Y-16252460D01*
X4810658Y-16252460D02*
X4791610Y-16261984D01*
X4791610Y-16261984D02*
X4772563Y-16261984D01*
X4772563Y-16261984D02*
X4753515Y-16252460D01*
X4753515Y-16252460D02*
X4743991Y-16242936D01*
X4743991Y-16242936D02*
X4734467Y-16223888D01*
X4734467Y-16223888D02*
X4724944Y-16185793D01*
X4724944Y-16185793D02*
X4724944Y-16138174D01*
X4724944Y-16138174D02*
X4734467Y-16100079D01*
X4734467Y-16100079D02*
X4743991Y-16081031D01*
X4743991Y-16081031D02*
X4753515Y-16071508D01*
X4753515Y-16071508D02*
X4772563Y-16061984D01*
X4963039Y-16061984D02*
X4982086Y-16061984D01*
X4982086Y-16061984D02*
X5001134Y-16071508D01*
X5001134Y-16071508D02*
X5010658Y-16081031D01*
X5010658Y-16081031D02*
X5020182Y-16100079D01*
X5020182Y-16100079D02*
X5029705Y-16138174D01*
X5029705Y-16138174D02*
X5029705Y-16185793D01*
X5029705Y-16185793D02*
X5020182Y-16223888D01*
X5020182Y-16223888D02*
X5010658Y-16242936D01*
X5010658Y-16242936D02*
X5001134Y-16252460D01*
X5001134Y-16252460D02*
X4982086Y-16261984D01*
X4982086Y-16261984D02*
X4963039Y-16261984D01*
X4963039Y-16261984D02*
X4943991Y-16252460D01*
X4943991Y-16252460D02*
X4934467Y-16242936D01*
X4934467Y-16242936D02*
X4924944Y-16223888D01*
X4924944Y-16223888D02*
X4915420Y-16185793D01*
X4915420Y-16185793D02*
X4915420Y-16138174D01*
X4915420Y-16138174D02*
X4924944Y-16100079D01*
X4924944Y-16100079D02*
X4934467Y-16081031D01*
X4934467Y-16081031D02*
X4943991Y-16071508D01*
X4943991Y-16071508D02*
X4963039Y-16061984D01*
X5115420Y-16261984D02*
X5115420Y-16128650D01*
X5115420Y-16147698D02*
X5124944Y-16138174D01*
X5124944Y-16138174D02*
X5143991Y-16128650D01*
X5143991Y-16128650D02*
X5172563Y-16128650D01*
X5172563Y-16128650D02*
X5191610Y-16138174D01*
X5191610Y-16138174D02*
X5201134Y-16157222D01*
X5201134Y-16157222D02*
X5201134Y-16261984D01*
X5201134Y-16157222D02*
X5210658Y-16138174D01*
X5210658Y-16138174D02*
X5229705Y-16128650D01*
X5229705Y-16128650D02*
X5258277Y-16128650D01*
X5258277Y-16128650D02*
X5277325Y-16138174D01*
X5277325Y-16138174D02*
X5286848Y-16157222D01*
X5286848Y-16157222D02*
X5286848Y-16261984D01*
X5382086Y-16261984D02*
X5382086Y-16128650D01*
X5382086Y-16147698D02*
X5391610Y-16138174D01*
X5391610Y-16138174D02*
X5410658Y-16128650D01*
X5410658Y-16128650D02*
X5439229Y-16128650D01*
X5439229Y-16128650D02*
X5458277Y-16138174D01*
X5458277Y-16138174D02*
X5467801Y-16157222D01*
X5467801Y-16157222D02*
X5467801Y-16261984D01*
X5467801Y-16157222D02*
X5477325Y-16138174D01*
X5477325Y-16138174D02*
X5496372Y-16128650D01*
X5496372Y-16128650D02*
X5524944Y-16128650D01*
X5524944Y-16128650D02*
X5543991Y-16138174D01*
X5543991Y-16138174D02*
X5553515Y-16157222D01*
X5553515Y-16157222D02*
X5553515Y-16261984D01*
X5943991Y-16052460D02*
X5772563Y-16309603D01*
X6201134Y-16061984D02*
X6220182Y-16061984D01*
X6220182Y-16061984D02*
X6239229Y-16071508D01*
X6239229Y-16071508D02*
X6248753Y-16081031D01*
X6248753Y-16081031D02*
X6258277Y-16100079D01*
X6258277Y-16100079D02*
X6267801Y-16138174D01*
X6267801Y-16138174D02*
X6267801Y-16185793D01*
X6267801Y-16185793D02*
X6258277Y-16223888D01*
X6258277Y-16223888D02*
X6248753Y-16242936D01*
X6248753Y-16242936D02*
X6239229Y-16252460D01*
X6239229Y-16252460D02*
X6220182Y-16261984D01*
X6220182Y-16261984D02*
X6201134Y-16261984D01*
X6201134Y-16261984D02*
X6182086Y-16252460D01*
X6182086Y-16252460D02*
X6172563Y-16242936D01*
X6172563Y-16242936D02*
X6163039Y-16223888D01*
X6163039Y-16223888D02*
X6153515Y-16185793D01*
X6153515Y-16185793D02*
X6153515Y-16138174D01*
X6153515Y-16138174D02*
X6163039Y-16100079D01*
X6163039Y-16100079D02*
X6172563Y-16081031D01*
X6172563Y-16081031D02*
X6182086Y-16071508D01*
X6182086Y-16071508D02*
X6201134Y-16061984D01*
X6353515Y-16242936D02*
X6363039Y-16252460D01*
X6363039Y-16252460D02*
X6353515Y-16261984D01*
X6353515Y-16261984D02*
X6343991Y-16252460D01*
X6343991Y-16252460D02*
X6353515Y-16242936D01*
X6353515Y-16242936D02*
X6353515Y-16261984D01*
X6486848Y-16061984D02*
X6505896Y-16061984D01*
X6505896Y-16061984D02*
X6524944Y-16071508D01*
X6524944Y-16071508D02*
X6534467Y-16081031D01*
X6534467Y-16081031D02*
X6543991Y-16100079D01*
X6543991Y-16100079D02*
X6553515Y-16138174D01*
X6553515Y-16138174D02*
X6553515Y-16185793D01*
X6553515Y-16185793D02*
X6543991Y-16223888D01*
X6543991Y-16223888D02*
X6534467Y-16242936D01*
X6534467Y-16242936D02*
X6524944Y-16252460D01*
X6524944Y-16252460D02*
X6505896Y-16261984D01*
X6505896Y-16261984D02*
X6486848Y-16261984D01*
X6486848Y-16261984D02*
X6467801Y-16252460D01*
X6467801Y-16252460D02*
X6458277Y-16242936D01*
X6458277Y-16242936D02*
X6448753Y-16223888D01*
X6448753Y-16223888D02*
X6439229Y-16185793D01*
X6439229Y-16185793D02*
X6439229Y-16138174D01*
X6439229Y-16138174D02*
X6448753Y-16100079D01*
X6448753Y-16100079D02*
X6458277Y-16081031D01*
X6458277Y-16081031D02*
X6467801Y-16071508D01*
X6467801Y-16071508D02*
X6486848Y-16061984D01*
X6620182Y-16061984D02*
X6743991Y-16061984D01*
X6743991Y-16061984D02*
X6677325Y-16138174D01*
X6677325Y-16138174D02*
X6705896Y-16138174D01*
X6705896Y-16138174D02*
X6724944Y-16147698D01*
X6724944Y-16147698D02*
X6734467Y-16157222D01*
X6734467Y-16157222D02*
X6743991Y-16176269D01*
X6743991Y-16176269D02*
X6743991Y-16223888D01*
X6743991Y-16223888D02*
X6734467Y-16242936D01*
X6734467Y-16242936D02*
X6724944Y-16252460D01*
X6724944Y-16252460D02*
X6705896Y-16261984D01*
X6705896Y-16261984D02*
X6648753Y-16261984D01*
X6648753Y-16261984D02*
X6629706Y-16252460D01*
X6629706Y-16252460D02*
X6620182Y-16242936D01*
X6839229Y-16261984D02*
X6877325Y-16261984D01*
X6877325Y-16261984D02*
X6896372Y-16252460D01*
X6896372Y-16252460D02*
X6905896Y-16242936D01*
X6905896Y-16242936D02*
X6924944Y-16214365D01*
X6924944Y-16214365D02*
X6934467Y-16176269D01*
X6934467Y-16176269D02*
X6934467Y-16100079D01*
X6934467Y-16100079D02*
X6924944Y-16081031D01*
X6924944Y-16081031D02*
X6915420Y-16071508D01*
X6915420Y-16071508D02*
X6896372Y-16061984D01*
X6896372Y-16061984D02*
X6858277Y-16061984D01*
X6858277Y-16061984D02*
X6839229Y-16071508D01*
X6839229Y-16071508D02*
X6829706Y-16081031D01*
X6829706Y-16081031D02*
X6820182Y-16100079D01*
X6820182Y-16100079D02*
X6820182Y-16147698D01*
X6820182Y-16147698D02*
X6829706Y-16166746D01*
X6829706Y-16166746D02*
X6839229Y-16176269D01*
X6839229Y-16176269D02*
X6858277Y-16185793D01*
X6858277Y-16185793D02*
X6896372Y-16185793D01*
X6896372Y-16185793D02*
X6915420Y-16176269D01*
X6915420Y-16176269D02*
X6924944Y-16166746D01*
X6924944Y-16166746D02*
X6934467Y-16147698D01*
X7105896Y-16128650D02*
X7105896Y-16261984D01*
X7058277Y-16052460D02*
X7010658Y-16195317D01*
X7010658Y-16195317D02*
X7134467Y-16195317D01*
X7201134Y-16061984D02*
X7201134Y-16100079D01*
X7277325Y-16061984D02*
X7277325Y-16100079D01*
X7572563Y-16338174D02*
X7563039Y-16328650D01*
X7563039Y-16328650D02*
X7543991Y-16300079D01*
X7543991Y-16300079D02*
X7534468Y-16281031D01*
X7534468Y-16281031D02*
X7524944Y-16252460D01*
X7524944Y-16252460D02*
X7515420Y-16204841D01*
X7515420Y-16204841D02*
X7515420Y-16166746D01*
X7515420Y-16166746D02*
X7524944Y-16119127D01*
X7524944Y-16119127D02*
X7534468Y-16090555D01*
X7534468Y-16090555D02*
X7543991Y-16071508D01*
X7543991Y-16071508D02*
X7563039Y-16042936D01*
X7563039Y-16042936D02*
X7572563Y-16033412D01*
X7629706Y-16061984D02*
X7753515Y-16061984D01*
X7753515Y-16061984D02*
X7686848Y-16138174D01*
X7686848Y-16138174D02*
X7715420Y-16138174D01*
X7715420Y-16138174D02*
X7734468Y-16147698D01*
X7734468Y-16147698D02*
X7743991Y-16157222D01*
X7743991Y-16157222D02*
X7753515Y-16176269D01*
X7753515Y-16176269D02*
X7753515Y-16223888D01*
X7753515Y-16223888D02*
X7743991Y-16242936D01*
X7743991Y-16242936D02*
X7734468Y-16252460D01*
X7734468Y-16252460D02*
X7715420Y-16261984D01*
X7715420Y-16261984D02*
X7658277Y-16261984D01*
X7658277Y-16261984D02*
X7639229Y-16252460D01*
X7639229Y-16252460D02*
X7629706Y-16242936D01*
X7877325Y-16061984D02*
X7896372Y-16061984D01*
X7896372Y-16061984D02*
X7915420Y-16071508D01*
X7915420Y-16071508D02*
X7924944Y-16081031D01*
X7924944Y-16081031D02*
X7934468Y-16100079D01*
X7934468Y-16100079D02*
X7943991Y-16138174D01*
X7943991Y-16138174D02*
X7943991Y-16185793D01*
X7943991Y-16185793D02*
X7934468Y-16223888D01*
X7934468Y-16223888D02*
X7924944Y-16242936D01*
X7924944Y-16242936D02*
X7915420Y-16252460D01*
X7915420Y-16252460D02*
X7896372Y-16261984D01*
X7896372Y-16261984D02*
X7877325Y-16261984D01*
X7877325Y-16261984D02*
X7858277Y-16252460D01*
X7858277Y-16252460D02*
X7848753Y-16242936D01*
X7848753Y-16242936D02*
X7839229Y-16223888D01*
X7839229Y-16223888D02*
X7829706Y-16185793D01*
X7829706Y-16185793D02*
X7829706Y-16138174D01*
X7829706Y-16138174D02*
X7839229Y-16100079D01*
X7839229Y-16100079D02*
X7848753Y-16081031D01*
X7848753Y-16081031D02*
X7858277Y-16071508D01*
X7858277Y-16071508D02*
X7877325Y-16061984D01*
X8182087Y-16261984D02*
X8182087Y-16061984D01*
X8267801Y-16261984D02*
X8267801Y-16157222D01*
X8267801Y-16157222D02*
X8258277Y-16138174D01*
X8258277Y-16138174D02*
X8239230Y-16128650D01*
X8239230Y-16128650D02*
X8210658Y-16128650D01*
X8210658Y-16128650D02*
X8191610Y-16138174D01*
X8191610Y-16138174D02*
X8182087Y-16147698D01*
X8391611Y-16261984D02*
X8372563Y-16252460D01*
X8372563Y-16252460D02*
X8363039Y-16242936D01*
X8363039Y-16242936D02*
X8353515Y-16223888D01*
X8353515Y-16223888D02*
X8353515Y-16166746D01*
X8353515Y-16166746D02*
X8363039Y-16147698D01*
X8363039Y-16147698D02*
X8372563Y-16138174D01*
X8372563Y-16138174D02*
X8391611Y-16128650D01*
X8391611Y-16128650D02*
X8420182Y-16128650D01*
X8420182Y-16128650D02*
X8439230Y-16138174D01*
X8439230Y-16138174D02*
X8448753Y-16147698D01*
X8448753Y-16147698D02*
X8458277Y-16166746D01*
X8458277Y-16166746D02*
X8458277Y-16223888D01*
X8458277Y-16223888D02*
X8448753Y-16242936D01*
X8448753Y-16242936D02*
X8439230Y-16252460D01*
X8439230Y-16252460D02*
X8420182Y-16261984D01*
X8420182Y-16261984D02*
X8391611Y-16261984D01*
X8572563Y-16261984D02*
X8553515Y-16252460D01*
X8553515Y-16252460D02*
X8543992Y-16233412D01*
X8543992Y-16233412D02*
X8543992Y-16061984D01*
X8724944Y-16252460D02*
X8705896Y-16261984D01*
X8705896Y-16261984D02*
X8667801Y-16261984D01*
X8667801Y-16261984D02*
X8648753Y-16252460D01*
X8648753Y-16252460D02*
X8639230Y-16233412D01*
X8639230Y-16233412D02*
X8639230Y-16157222D01*
X8639230Y-16157222D02*
X8648753Y-16138174D01*
X8648753Y-16138174D02*
X8667801Y-16128650D01*
X8667801Y-16128650D02*
X8705896Y-16128650D01*
X8705896Y-16128650D02*
X8724944Y-16138174D01*
X8724944Y-16138174D02*
X8734468Y-16157222D01*
X8734468Y-16157222D02*
X8734468Y-16176269D01*
X8734468Y-16176269D02*
X8639230Y-16195317D01*
X8810658Y-16252460D02*
X8829706Y-16261984D01*
X8829706Y-16261984D02*
X8867801Y-16261984D01*
X8867801Y-16261984D02*
X8886849Y-16252460D01*
X8886849Y-16252460D02*
X8896373Y-16233412D01*
X8896373Y-16233412D02*
X8896373Y-16223888D01*
X8896373Y-16223888D02*
X8886849Y-16204841D01*
X8886849Y-16204841D02*
X8867801Y-16195317D01*
X8867801Y-16195317D02*
X8839230Y-16195317D01*
X8839230Y-16195317D02*
X8820182Y-16185793D01*
X8820182Y-16185793D02*
X8810658Y-16166746D01*
X8810658Y-16166746D02*
X8810658Y-16157222D01*
X8810658Y-16157222D02*
X8820182Y-16138174D01*
X8820182Y-16138174D02*
X8839230Y-16128650D01*
X8839230Y-16128650D02*
X8867801Y-16128650D01*
X8867801Y-16128650D02*
X8886849Y-16138174D01*
X8963039Y-16338174D02*
X8972563Y-16328650D01*
X8972563Y-16328650D02*
X8991611Y-16300079D01*
X8991611Y-16300079D02*
X9001134Y-16281031D01*
X9001134Y-16281031D02*
X9010658Y-16252460D01*
X9010658Y-16252460D02*
X9020182Y-16204841D01*
X9020182Y-16204841D02*
X9020182Y-16166746D01*
X9020182Y-16166746D02*
X9010658Y-16119127D01*
X9010658Y-16119127D02*
X9001134Y-16090555D01*
X9001134Y-16090555D02*
X8991611Y-16071508D01*
X8991611Y-16071508D02*
X8972563Y-16042936D01*
X8972563Y-16042936D02*
X8963039Y-16033412D01*
D13*
X3981391Y-16473391D02*
X3981391Y-16395609D01*
X3903609Y-16395609D01*
X3903609Y-16473391D01*
X3981391Y-16473391D01*
D11*
X4363039Y-16525984D02*
X4248753Y-16525984D01*
X4305896Y-16525984D02*
X4305896Y-16325984D01*
X4305896Y-16325984D02*
X4286848Y-16354555D01*
X4286848Y-16354555D02*
X4267801Y-16373603D01*
X4267801Y-16373603D02*
X4248753Y-16383127D01*
X4448753Y-16506936D02*
X4458277Y-16516460D01*
X4458277Y-16516460D02*
X4448753Y-16525984D01*
X4448753Y-16525984D02*
X4439229Y-16516460D01*
X4439229Y-16516460D02*
X4448753Y-16506936D01*
X4448753Y-16506936D02*
X4448753Y-16525984D01*
X4648753Y-16525984D02*
X4534467Y-16525984D01*
X4591610Y-16525984D02*
X4591610Y-16325984D01*
X4591610Y-16325984D02*
X4572563Y-16354555D01*
X4572563Y-16354555D02*
X4553515Y-16373603D01*
X4553515Y-16373603D02*
X4534467Y-16383127D01*
X4772563Y-16325984D02*
X4791610Y-16325984D01*
X4791610Y-16325984D02*
X4810658Y-16335508D01*
X4810658Y-16335508D02*
X4820182Y-16345031D01*
X4820182Y-16345031D02*
X4829705Y-16364079D01*
X4829705Y-16364079D02*
X4839229Y-16402174D01*
X4839229Y-16402174D02*
X4839229Y-16449793D01*
X4839229Y-16449793D02*
X4829705Y-16487888D01*
X4829705Y-16487888D02*
X4820182Y-16506936D01*
X4820182Y-16506936D02*
X4810658Y-16516460D01*
X4810658Y-16516460D02*
X4791610Y-16525984D01*
X4791610Y-16525984D02*
X4772563Y-16525984D01*
X4772563Y-16525984D02*
X4753515Y-16516460D01*
X4753515Y-16516460D02*
X4743991Y-16506936D01*
X4743991Y-16506936D02*
X4734467Y-16487888D01*
X4734467Y-16487888D02*
X4724944Y-16449793D01*
X4724944Y-16449793D02*
X4724944Y-16402174D01*
X4724944Y-16402174D02*
X4734467Y-16364079D01*
X4734467Y-16364079D02*
X4743991Y-16345031D01*
X4743991Y-16345031D02*
X4753515Y-16335508D01*
X4753515Y-16335508D02*
X4772563Y-16325984D01*
X4963039Y-16325984D02*
X4982086Y-16325984D01*
X4982086Y-16325984D02*
X5001134Y-16335508D01*
X5001134Y-16335508D02*
X5010658Y-16345031D01*
X5010658Y-16345031D02*
X5020182Y-16364079D01*
X5020182Y-16364079D02*
X5029705Y-16402174D01*
X5029705Y-16402174D02*
X5029705Y-16449793D01*
X5029705Y-16449793D02*
X5020182Y-16487888D01*
X5020182Y-16487888D02*
X5010658Y-16506936D01*
X5010658Y-16506936D02*
X5001134Y-16516460D01*
X5001134Y-16516460D02*
X4982086Y-16525984D01*
X4982086Y-16525984D02*
X4963039Y-16525984D01*
X4963039Y-16525984D02*
X4943991Y-16516460D01*
X4943991Y-16516460D02*
X4934467Y-16506936D01*
X4934467Y-16506936D02*
X4924944Y-16487888D01*
X4924944Y-16487888D02*
X4915420Y-16449793D01*
X4915420Y-16449793D02*
X4915420Y-16402174D01*
X4915420Y-16402174D02*
X4924944Y-16364079D01*
X4924944Y-16364079D02*
X4934467Y-16345031D01*
X4934467Y-16345031D02*
X4943991Y-16335508D01*
X4943991Y-16335508D02*
X4963039Y-16325984D01*
X5115420Y-16525984D02*
X5115420Y-16392650D01*
X5115420Y-16411698D02*
X5124944Y-16402174D01*
X5124944Y-16402174D02*
X5143991Y-16392650D01*
X5143991Y-16392650D02*
X5172563Y-16392650D01*
X5172563Y-16392650D02*
X5191610Y-16402174D01*
X5191610Y-16402174D02*
X5201134Y-16421222D01*
X5201134Y-16421222D02*
X5201134Y-16525984D01*
X5201134Y-16421222D02*
X5210658Y-16402174D01*
X5210658Y-16402174D02*
X5229705Y-16392650D01*
X5229705Y-16392650D02*
X5258277Y-16392650D01*
X5258277Y-16392650D02*
X5277325Y-16402174D01*
X5277325Y-16402174D02*
X5286848Y-16421222D01*
X5286848Y-16421222D02*
X5286848Y-16525984D01*
X5382086Y-16525984D02*
X5382086Y-16392650D01*
X5382086Y-16411698D02*
X5391610Y-16402174D01*
X5391610Y-16402174D02*
X5410658Y-16392650D01*
X5410658Y-16392650D02*
X5439229Y-16392650D01*
X5439229Y-16392650D02*
X5458277Y-16402174D01*
X5458277Y-16402174D02*
X5467801Y-16421222D01*
X5467801Y-16421222D02*
X5467801Y-16525984D01*
X5467801Y-16421222D02*
X5477325Y-16402174D01*
X5477325Y-16402174D02*
X5496372Y-16392650D01*
X5496372Y-16392650D02*
X5524944Y-16392650D01*
X5524944Y-16392650D02*
X5543991Y-16402174D01*
X5543991Y-16402174D02*
X5553515Y-16421222D01*
X5553515Y-16421222D02*
X5553515Y-16525984D01*
X5943991Y-16316460D02*
X5772563Y-16573603D01*
X6201134Y-16325984D02*
X6220182Y-16325984D01*
X6220182Y-16325984D02*
X6239229Y-16335508D01*
X6239229Y-16335508D02*
X6248753Y-16345031D01*
X6248753Y-16345031D02*
X6258277Y-16364079D01*
X6258277Y-16364079D02*
X6267801Y-16402174D01*
X6267801Y-16402174D02*
X6267801Y-16449793D01*
X6267801Y-16449793D02*
X6258277Y-16487888D01*
X6258277Y-16487888D02*
X6248753Y-16506936D01*
X6248753Y-16506936D02*
X6239229Y-16516460D01*
X6239229Y-16516460D02*
X6220182Y-16525984D01*
X6220182Y-16525984D02*
X6201134Y-16525984D01*
X6201134Y-16525984D02*
X6182086Y-16516460D01*
X6182086Y-16516460D02*
X6172563Y-16506936D01*
X6172563Y-16506936D02*
X6163039Y-16487888D01*
X6163039Y-16487888D02*
X6153515Y-16449793D01*
X6153515Y-16449793D02*
X6153515Y-16402174D01*
X6153515Y-16402174D02*
X6163039Y-16364079D01*
X6163039Y-16364079D02*
X6172563Y-16345031D01*
X6172563Y-16345031D02*
X6182086Y-16335508D01*
X6182086Y-16335508D02*
X6201134Y-16325984D01*
X6353515Y-16506936D02*
X6363039Y-16516460D01*
X6363039Y-16516460D02*
X6353515Y-16525984D01*
X6353515Y-16525984D02*
X6343991Y-16516460D01*
X6343991Y-16516460D02*
X6353515Y-16506936D01*
X6353515Y-16506936D02*
X6353515Y-16525984D01*
X6486848Y-16325984D02*
X6505896Y-16325984D01*
X6505896Y-16325984D02*
X6524944Y-16335508D01*
X6524944Y-16335508D02*
X6534467Y-16345031D01*
X6534467Y-16345031D02*
X6543991Y-16364079D01*
X6543991Y-16364079D02*
X6553515Y-16402174D01*
X6553515Y-16402174D02*
X6553515Y-16449793D01*
X6553515Y-16449793D02*
X6543991Y-16487888D01*
X6543991Y-16487888D02*
X6534467Y-16506936D01*
X6534467Y-16506936D02*
X6524944Y-16516460D01*
X6524944Y-16516460D02*
X6505896Y-16525984D01*
X6505896Y-16525984D02*
X6486848Y-16525984D01*
X6486848Y-16525984D02*
X6467801Y-16516460D01*
X6467801Y-16516460D02*
X6458277Y-16506936D01*
X6458277Y-16506936D02*
X6448753Y-16487888D01*
X6448753Y-16487888D02*
X6439229Y-16449793D01*
X6439229Y-16449793D02*
X6439229Y-16402174D01*
X6439229Y-16402174D02*
X6448753Y-16364079D01*
X6448753Y-16364079D02*
X6458277Y-16345031D01*
X6458277Y-16345031D02*
X6467801Y-16335508D01*
X6467801Y-16335508D02*
X6486848Y-16325984D01*
X6724944Y-16392650D02*
X6724944Y-16525984D01*
X6677325Y-16316460D02*
X6629706Y-16459317D01*
X6629706Y-16459317D02*
X6753515Y-16459317D01*
X6810658Y-16325984D02*
X6934467Y-16325984D01*
X6934467Y-16325984D02*
X6867801Y-16402174D01*
X6867801Y-16402174D02*
X6896372Y-16402174D01*
X6896372Y-16402174D02*
X6915420Y-16411698D01*
X6915420Y-16411698D02*
X6924944Y-16421222D01*
X6924944Y-16421222D02*
X6934467Y-16440269D01*
X6934467Y-16440269D02*
X6934467Y-16487888D01*
X6934467Y-16487888D02*
X6924944Y-16506936D01*
X6924944Y-16506936D02*
X6915420Y-16516460D01*
X6915420Y-16516460D02*
X6896372Y-16525984D01*
X6896372Y-16525984D02*
X6839229Y-16525984D01*
X6839229Y-16525984D02*
X6820182Y-16516460D01*
X6820182Y-16516460D02*
X6810658Y-16506936D01*
X7001134Y-16325984D02*
X7124944Y-16325984D01*
X7124944Y-16325984D02*
X7058277Y-16402174D01*
X7058277Y-16402174D02*
X7086848Y-16402174D01*
X7086848Y-16402174D02*
X7105896Y-16411698D01*
X7105896Y-16411698D02*
X7115420Y-16421222D01*
X7115420Y-16421222D02*
X7124944Y-16440269D01*
X7124944Y-16440269D02*
X7124944Y-16487888D01*
X7124944Y-16487888D02*
X7115420Y-16506936D01*
X7115420Y-16506936D02*
X7105896Y-16516460D01*
X7105896Y-16516460D02*
X7086848Y-16525984D01*
X7086848Y-16525984D02*
X7029706Y-16525984D01*
X7029706Y-16525984D02*
X7010658Y-16516460D01*
X7010658Y-16516460D02*
X7001134Y-16506936D01*
X7201134Y-16325984D02*
X7201134Y-16364079D01*
X7277325Y-16325984D02*
X7277325Y-16364079D01*
X7572563Y-16602174D02*
X7563039Y-16592650D01*
X7563039Y-16592650D02*
X7543991Y-16564079D01*
X7543991Y-16564079D02*
X7534468Y-16545031D01*
X7534468Y-16545031D02*
X7524944Y-16516460D01*
X7524944Y-16516460D02*
X7515420Y-16468841D01*
X7515420Y-16468841D02*
X7515420Y-16430746D01*
X7515420Y-16430746D02*
X7524944Y-16383127D01*
X7524944Y-16383127D02*
X7534468Y-16354555D01*
X7534468Y-16354555D02*
X7543991Y-16335508D01*
X7543991Y-16335508D02*
X7563039Y-16306936D01*
X7563039Y-16306936D02*
X7572563Y-16297412D01*
X7753515Y-16525984D02*
X7639229Y-16525984D01*
X7696372Y-16525984D02*
X7696372Y-16325984D01*
X7696372Y-16325984D02*
X7677325Y-16354555D01*
X7677325Y-16354555D02*
X7658277Y-16373603D01*
X7658277Y-16373603D02*
X7639229Y-16383127D01*
X7829706Y-16345031D02*
X7839229Y-16335508D01*
X7839229Y-16335508D02*
X7858277Y-16325984D01*
X7858277Y-16325984D02*
X7905896Y-16325984D01*
X7905896Y-16325984D02*
X7924944Y-16335508D01*
X7924944Y-16335508D02*
X7934468Y-16345031D01*
X7934468Y-16345031D02*
X7943991Y-16364079D01*
X7943991Y-16364079D02*
X7943991Y-16383127D01*
X7943991Y-16383127D02*
X7934468Y-16411698D01*
X7934468Y-16411698D02*
X7820182Y-16525984D01*
X7820182Y-16525984D02*
X7943991Y-16525984D01*
X8182087Y-16525984D02*
X8182087Y-16325984D01*
X8267801Y-16525984D02*
X8267801Y-16421222D01*
X8267801Y-16421222D02*
X8258277Y-16402174D01*
X8258277Y-16402174D02*
X8239230Y-16392650D01*
X8239230Y-16392650D02*
X8210658Y-16392650D01*
X8210658Y-16392650D02*
X8191610Y-16402174D01*
X8191610Y-16402174D02*
X8182087Y-16411698D01*
X8391611Y-16525984D02*
X8372563Y-16516460D01*
X8372563Y-16516460D02*
X8363039Y-16506936D01*
X8363039Y-16506936D02*
X8353515Y-16487888D01*
X8353515Y-16487888D02*
X8353515Y-16430746D01*
X8353515Y-16430746D02*
X8363039Y-16411698D01*
X8363039Y-16411698D02*
X8372563Y-16402174D01*
X8372563Y-16402174D02*
X8391611Y-16392650D01*
X8391611Y-16392650D02*
X8420182Y-16392650D01*
X8420182Y-16392650D02*
X8439230Y-16402174D01*
X8439230Y-16402174D02*
X8448753Y-16411698D01*
X8448753Y-16411698D02*
X8458277Y-16430746D01*
X8458277Y-16430746D02*
X8458277Y-16487888D01*
X8458277Y-16487888D02*
X8448753Y-16506936D01*
X8448753Y-16506936D02*
X8439230Y-16516460D01*
X8439230Y-16516460D02*
X8420182Y-16525984D01*
X8420182Y-16525984D02*
X8391611Y-16525984D01*
X8572563Y-16525984D02*
X8553515Y-16516460D01*
X8553515Y-16516460D02*
X8543992Y-16497412D01*
X8543992Y-16497412D02*
X8543992Y-16325984D01*
X8724944Y-16516460D02*
X8705896Y-16525984D01*
X8705896Y-16525984D02*
X8667801Y-16525984D01*
X8667801Y-16525984D02*
X8648753Y-16516460D01*
X8648753Y-16516460D02*
X8639230Y-16497412D01*
X8639230Y-16497412D02*
X8639230Y-16421222D01*
X8639230Y-16421222D02*
X8648753Y-16402174D01*
X8648753Y-16402174D02*
X8667801Y-16392650D01*
X8667801Y-16392650D02*
X8705896Y-16392650D01*
X8705896Y-16392650D02*
X8724944Y-16402174D01*
X8724944Y-16402174D02*
X8734468Y-16421222D01*
X8734468Y-16421222D02*
X8734468Y-16440269D01*
X8734468Y-16440269D02*
X8639230Y-16459317D01*
X8810658Y-16516460D02*
X8829706Y-16525984D01*
X8829706Y-16525984D02*
X8867801Y-16525984D01*
X8867801Y-16525984D02*
X8886849Y-16516460D01*
X8886849Y-16516460D02*
X8896373Y-16497412D01*
X8896373Y-16497412D02*
X8896373Y-16487888D01*
X8896373Y-16487888D02*
X8886849Y-16468841D01*
X8886849Y-16468841D02*
X8867801Y-16459317D01*
X8867801Y-16459317D02*
X8839230Y-16459317D01*
X8839230Y-16459317D02*
X8820182Y-16449793D01*
X8820182Y-16449793D02*
X8810658Y-16430746D01*
X8810658Y-16430746D02*
X8810658Y-16421222D01*
X8810658Y-16421222D02*
X8820182Y-16402174D01*
X8820182Y-16402174D02*
X8839230Y-16392650D01*
X8839230Y-16392650D02*
X8867801Y-16392650D01*
X8867801Y-16392650D02*
X8886849Y-16402174D01*
X8963039Y-16602174D02*
X8972563Y-16592650D01*
X8972563Y-16592650D02*
X8991611Y-16564079D01*
X8991611Y-16564079D02*
X9001134Y-16545031D01*
X9001134Y-16545031D02*
X9010658Y-16516460D01*
X9010658Y-16516460D02*
X9020182Y-16468841D01*
X9020182Y-16468841D02*
X9020182Y-16430746D01*
X9020182Y-16430746D02*
X9010658Y-16383127D01*
X9010658Y-16383127D02*
X9001134Y-16354555D01*
X9001134Y-16354555D02*
X8991611Y-16335508D01*
X8991611Y-16335508D02*
X8972563Y-16306936D01*
X8972563Y-16306936D02*
X8963039Y-16297412D01*
D14*
X3922500Y-16773500D02*
X3997500Y-16698500D01*
X3922500Y-16623500D01*
X3847500Y-16698500D01*
X3922500Y-16773500D01*
D11*
X4363039Y-16789984D02*
X4248753Y-16789984D01*
X4305896Y-16789984D02*
X4305896Y-16589984D01*
X4305896Y-16589984D02*
X4286848Y-16618555D01*
X4286848Y-16618555D02*
X4267801Y-16637603D01*
X4267801Y-16637603D02*
X4248753Y-16647127D01*
X4448753Y-16770936D02*
X4458277Y-16780460D01*
X4458277Y-16780460D02*
X4448753Y-16789984D01*
X4448753Y-16789984D02*
X4439229Y-16780460D01*
X4439229Y-16780460D02*
X4448753Y-16770936D01*
X4448753Y-16770936D02*
X4448753Y-16789984D01*
X4639229Y-16589984D02*
X4543991Y-16589984D01*
X4543991Y-16589984D02*
X4534467Y-16685222D01*
X4534467Y-16685222D02*
X4543991Y-16675698D01*
X4543991Y-16675698D02*
X4563039Y-16666174D01*
X4563039Y-16666174D02*
X4610658Y-16666174D01*
X4610658Y-16666174D02*
X4629705Y-16675698D01*
X4629705Y-16675698D02*
X4639229Y-16685222D01*
X4639229Y-16685222D02*
X4648753Y-16704269D01*
X4648753Y-16704269D02*
X4648753Y-16751888D01*
X4648753Y-16751888D02*
X4639229Y-16770936D01*
X4639229Y-16770936D02*
X4629705Y-16780460D01*
X4629705Y-16780460D02*
X4610658Y-16789984D01*
X4610658Y-16789984D02*
X4563039Y-16789984D01*
X4563039Y-16789984D02*
X4543991Y-16780460D01*
X4543991Y-16780460D02*
X4534467Y-16770936D01*
X4772563Y-16589984D02*
X4791610Y-16589984D01*
X4791610Y-16589984D02*
X4810658Y-16599508D01*
X4810658Y-16599508D02*
X4820182Y-16609031D01*
X4820182Y-16609031D02*
X4829705Y-16628079D01*
X4829705Y-16628079D02*
X4839229Y-16666174D01*
X4839229Y-16666174D02*
X4839229Y-16713793D01*
X4839229Y-16713793D02*
X4829705Y-16751888D01*
X4829705Y-16751888D02*
X4820182Y-16770936D01*
X4820182Y-16770936D02*
X4810658Y-16780460D01*
X4810658Y-16780460D02*
X4791610Y-16789984D01*
X4791610Y-16789984D02*
X4772563Y-16789984D01*
X4772563Y-16789984D02*
X4753515Y-16780460D01*
X4753515Y-16780460D02*
X4743991Y-16770936D01*
X4743991Y-16770936D02*
X4734467Y-16751888D01*
X4734467Y-16751888D02*
X4724944Y-16713793D01*
X4724944Y-16713793D02*
X4724944Y-16666174D01*
X4724944Y-16666174D02*
X4734467Y-16628079D01*
X4734467Y-16628079D02*
X4743991Y-16609031D01*
X4743991Y-16609031D02*
X4753515Y-16599508D01*
X4753515Y-16599508D02*
X4772563Y-16589984D01*
X4963039Y-16589984D02*
X4982086Y-16589984D01*
X4982086Y-16589984D02*
X5001134Y-16599508D01*
X5001134Y-16599508D02*
X5010658Y-16609031D01*
X5010658Y-16609031D02*
X5020182Y-16628079D01*
X5020182Y-16628079D02*
X5029705Y-16666174D01*
X5029705Y-16666174D02*
X5029705Y-16713793D01*
X5029705Y-16713793D02*
X5020182Y-16751888D01*
X5020182Y-16751888D02*
X5010658Y-16770936D01*
X5010658Y-16770936D02*
X5001134Y-16780460D01*
X5001134Y-16780460D02*
X4982086Y-16789984D01*
X4982086Y-16789984D02*
X4963039Y-16789984D01*
X4963039Y-16789984D02*
X4943991Y-16780460D01*
X4943991Y-16780460D02*
X4934467Y-16770936D01*
X4934467Y-16770936D02*
X4924944Y-16751888D01*
X4924944Y-16751888D02*
X4915420Y-16713793D01*
X4915420Y-16713793D02*
X4915420Y-16666174D01*
X4915420Y-16666174D02*
X4924944Y-16628079D01*
X4924944Y-16628079D02*
X4934467Y-16609031D01*
X4934467Y-16609031D02*
X4943991Y-16599508D01*
X4943991Y-16599508D02*
X4963039Y-16589984D01*
X5115420Y-16789984D02*
X5115420Y-16656650D01*
X5115420Y-16675698D02*
X5124944Y-16666174D01*
X5124944Y-16666174D02*
X5143991Y-16656650D01*
X5143991Y-16656650D02*
X5172563Y-16656650D01*
X5172563Y-16656650D02*
X5191610Y-16666174D01*
X5191610Y-16666174D02*
X5201134Y-16685222D01*
X5201134Y-16685222D02*
X5201134Y-16789984D01*
X5201134Y-16685222D02*
X5210658Y-16666174D01*
X5210658Y-16666174D02*
X5229705Y-16656650D01*
X5229705Y-16656650D02*
X5258277Y-16656650D01*
X5258277Y-16656650D02*
X5277325Y-16666174D01*
X5277325Y-16666174D02*
X5286848Y-16685222D01*
X5286848Y-16685222D02*
X5286848Y-16789984D01*
X5382086Y-16789984D02*
X5382086Y-16656650D01*
X5382086Y-16675698D02*
X5391610Y-16666174D01*
X5391610Y-16666174D02*
X5410658Y-16656650D01*
X5410658Y-16656650D02*
X5439229Y-16656650D01*
X5439229Y-16656650D02*
X5458277Y-16666174D01*
X5458277Y-16666174D02*
X5467801Y-16685222D01*
X5467801Y-16685222D02*
X5467801Y-16789984D01*
X5467801Y-16685222D02*
X5477325Y-16666174D01*
X5477325Y-16666174D02*
X5496372Y-16656650D01*
X5496372Y-16656650D02*
X5524944Y-16656650D01*
X5524944Y-16656650D02*
X5543991Y-16666174D01*
X5543991Y-16666174D02*
X5553515Y-16685222D01*
X5553515Y-16685222D02*
X5553515Y-16789984D01*
X5943991Y-16580460D02*
X5772563Y-16837603D01*
X6201134Y-16589984D02*
X6220182Y-16589984D01*
X6220182Y-16589984D02*
X6239229Y-16599508D01*
X6239229Y-16599508D02*
X6248753Y-16609031D01*
X6248753Y-16609031D02*
X6258277Y-16628079D01*
X6258277Y-16628079D02*
X6267801Y-16666174D01*
X6267801Y-16666174D02*
X6267801Y-16713793D01*
X6267801Y-16713793D02*
X6258277Y-16751888D01*
X6258277Y-16751888D02*
X6248753Y-16770936D01*
X6248753Y-16770936D02*
X6239229Y-16780460D01*
X6239229Y-16780460D02*
X6220182Y-16789984D01*
X6220182Y-16789984D02*
X6201134Y-16789984D01*
X6201134Y-16789984D02*
X6182086Y-16780460D01*
X6182086Y-16780460D02*
X6172563Y-16770936D01*
X6172563Y-16770936D02*
X6163039Y-16751888D01*
X6163039Y-16751888D02*
X6153515Y-16713793D01*
X6153515Y-16713793D02*
X6153515Y-16666174D01*
X6153515Y-16666174D02*
X6163039Y-16628079D01*
X6163039Y-16628079D02*
X6172563Y-16609031D01*
X6172563Y-16609031D02*
X6182086Y-16599508D01*
X6182086Y-16599508D02*
X6201134Y-16589984D01*
X6353515Y-16770936D02*
X6363039Y-16780460D01*
X6363039Y-16780460D02*
X6353515Y-16789984D01*
X6353515Y-16789984D02*
X6343991Y-16780460D01*
X6343991Y-16780460D02*
X6353515Y-16770936D01*
X6353515Y-16770936D02*
X6353515Y-16789984D01*
X6486848Y-16589984D02*
X6505896Y-16589984D01*
X6505896Y-16589984D02*
X6524944Y-16599508D01*
X6524944Y-16599508D02*
X6534467Y-16609031D01*
X6534467Y-16609031D02*
X6543991Y-16628079D01*
X6543991Y-16628079D02*
X6553515Y-16666174D01*
X6553515Y-16666174D02*
X6553515Y-16713793D01*
X6553515Y-16713793D02*
X6543991Y-16751888D01*
X6543991Y-16751888D02*
X6534467Y-16770936D01*
X6534467Y-16770936D02*
X6524944Y-16780460D01*
X6524944Y-16780460D02*
X6505896Y-16789984D01*
X6505896Y-16789984D02*
X6486848Y-16789984D01*
X6486848Y-16789984D02*
X6467801Y-16780460D01*
X6467801Y-16780460D02*
X6458277Y-16770936D01*
X6458277Y-16770936D02*
X6448753Y-16751888D01*
X6448753Y-16751888D02*
X6439229Y-16713793D01*
X6439229Y-16713793D02*
X6439229Y-16666174D01*
X6439229Y-16666174D02*
X6448753Y-16628079D01*
X6448753Y-16628079D02*
X6458277Y-16609031D01*
X6458277Y-16609031D02*
X6467801Y-16599508D01*
X6467801Y-16599508D02*
X6486848Y-16589984D01*
X6734467Y-16589984D02*
X6639229Y-16589984D01*
X6639229Y-16589984D02*
X6629706Y-16685222D01*
X6629706Y-16685222D02*
X6639229Y-16675698D01*
X6639229Y-16675698D02*
X6658277Y-16666174D01*
X6658277Y-16666174D02*
X6705896Y-16666174D01*
X6705896Y-16666174D02*
X6724944Y-16675698D01*
X6724944Y-16675698D02*
X6734467Y-16685222D01*
X6734467Y-16685222D02*
X6743991Y-16704269D01*
X6743991Y-16704269D02*
X6743991Y-16751888D01*
X6743991Y-16751888D02*
X6734467Y-16770936D01*
X6734467Y-16770936D02*
X6724944Y-16780460D01*
X6724944Y-16780460D02*
X6705896Y-16789984D01*
X6705896Y-16789984D02*
X6658277Y-16789984D01*
X6658277Y-16789984D02*
X6639229Y-16780460D01*
X6639229Y-16780460D02*
X6629706Y-16770936D01*
X6839229Y-16789984D02*
X6877325Y-16789984D01*
X6877325Y-16789984D02*
X6896372Y-16780460D01*
X6896372Y-16780460D02*
X6905896Y-16770936D01*
X6905896Y-16770936D02*
X6924944Y-16742365D01*
X6924944Y-16742365D02*
X6934467Y-16704269D01*
X6934467Y-16704269D02*
X6934467Y-16628079D01*
X6934467Y-16628079D02*
X6924944Y-16609031D01*
X6924944Y-16609031D02*
X6915420Y-16599508D01*
X6915420Y-16599508D02*
X6896372Y-16589984D01*
X6896372Y-16589984D02*
X6858277Y-16589984D01*
X6858277Y-16589984D02*
X6839229Y-16599508D01*
X6839229Y-16599508D02*
X6829706Y-16609031D01*
X6829706Y-16609031D02*
X6820182Y-16628079D01*
X6820182Y-16628079D02*
X6820182Y-16675698D01*
X6820182Y-16675698D02*
X6829706Y-16694746D01*
X6829706Y-16694746D02*
X6839229Y-16704269D01*
X6839229Y-16704269D02*
X6858277Y-16713793D01*
X6858277Y-16713793D02*
X6896372Y-16713793D01*
X6896372Y-16713793D02*
X6915420Y-16704269D01*
X6915420Y-16704269D02*
X6924944Y-16694746D01*
X6924944Y-16694746D02*
X6934467Y-16675698D01*
X7124944Y-16789984D02*
X7010658Y-16789984D01*
X7067801Y-16789984D02*
X7067801Y-16589984D01*
X7067801Y-16589984D02*
X7048753Y-16618555D01*
X7048753Y-16618555D02*
X7029706Y-16637603D01*
X7029706Y-16637603D02*
X7010658Y-16647127D01*
X7201134Y-16589984D02*
X7201134Y-16628079D01*
X7277325Y-16589984D02*
X7277325Y-16628079D01*
X7572563Y-16866174D02*
X7563039Y-16856650D01*
X7563039Y-16856650D02*
X7543991Y-16828079D01*
X7543991Y-16828079D02*
X7534468Y-16809031D01*
X7534468Y-16809031D02*
X7524944Y-16780460D01*
X7524944Y-16780460D02*
X7515420Y-16732841D01*
X7515420Y-16732841D02*
X7515420Y-16694746D01*
X7515420Y-16694746D02*
X7524944Y-16647127D01*
X7524944Y-16647127D02*
X7534468Y-16618555D01*
X7534468Y-16618555D02*
X7543991Y-16599508D01*
X7543991Y-16599508D02*
X7563039Y-16570936D01*
X7563039Y-16570936D02*
X7572563Y-16561412D01*
X7753515Y-16789984D02*
X7639229Y-16789984D01*
X7696372Y-16789984D02*
X7696372Y-16589984D01*
X7696372Y-16589984D02*
X7677325Y-16618555D01*
X7677325Y-16618555D02*
X7658277Y-16637603D01*
X7658277Y-16637603D02*
X7639229Y-16647127D01*
X7877325Y-16589984D02*
X7896372Y-16589984D01*
X7896372Y-16589984D02*
X7915420Y-16599508D01*
X7915420Y-16599508D02*
X7924944Y-16609031D01*
X7924944Y-16609031D02*
X7934468Y-16628079D01*
X7934468Y-16628079D02*
X7943991Y-16666174D01*
X7943991Y-16666174D02*
X7943991Y-16713793D01*
X7943991Y-16713793D02*
X7934468Y-16751888D01*
X7934468Y-16751888D02*
X7924944Y-16770936D01*
X7924944Y-16770936D02*
X7915420Y-16780460D01*
X7915420Y-16780460D02*
X7896372Y-16789984D01*
X7896372Y-16789984D02*
X7877325Y-16789984D01*
X7877325Y-16789984D02*
X7858277Y-16780460D01*
X7858277Y-16780460D02*
X7848753Y-16770936D01*
X7848753Y-16770936D02*
X7839229Y-16751888D01*
X7839229Y-16751888D02*
X7829706Y-16713793D01*
X7829706Y-16713793D02*
X7829706Y-16666174D01*
X7829706Y-16666174D02*
X7839229Y-16628079D01*
X7839229Y-16628079D02*
X7848753Y-16609031D01*
X7848753Y-16609031D02*
X7858277Y-16599508D01*
X7858277Y-16599508D02*
X7877325Y-16589984D01*
X8182087Y-16789984D02*
X8182087Y-16589984D01*
X8267801Y-16789984D02*
X8267801Y-16685222D01*
X8267801Y-16685222D02*
X8258277Y-16666174D01*
X8258277Y-16666174D02*
X8239230Y-16656650D01*
X8239230Y-16656650D02*
X8210658Y-16656650D01*
X8210658Y-16656650D02*
X8191610Y-16666174D01*
X8191610Y-16666174D02*
X8182087Y-16675698D01*
X8391611Y-16789984D02*
X8372563Y-16780460D01*
X8372563Y-16780460D02*
X8363039Y-16770936D01*
X8363039Y-16770936D02*
X8353515Y-16751888D01*
X8353515Y-16751888D02*
X8353515Y-16694746D01*
X8353515Y-16694746D02*
X8363039Y-16675698D01*
X8363039Y-16675698D02*
X8372563Y-16666174D01*
X8372563Y-16666174D02*
X8391611Y-16656650D01*
X8391611Y-16656650D02*
X8420182Y-16656650D01*
X8420182Y-16656650D02*
X8439230Y-16666174D01*
X8439230Y-16666174D02*
X8448753Y-16675698D01*
X8448753Y-16675698D02*
X8458277Y-16694746D01*
X8458277Y-16694746D02*
X8458277Y-16751888D01*
X8458277Y-16751888D02*
X8448753Y-16770936D01*
X8448753Y-16770936D02*
X8439230Y-16780460D01*
X8439230Y-16780460D02*
X8420182Y-16789984D01*
X8420182Y-16789984D02*
X8391611Y-16789984D01*
X8572563Y-16789984D02*
X8553515Y-16780460D01*
X8553515Y-16780460D02*
X8543992Y-16761412D01*
X8543992Y-16761412D02*
X8543992Y-16589984D01*
X8724944Y-16780460D02*
X8705896Y-16789984D01*
X8705896Y-16789984D02*
X8667801Y-16789984D01*
X8667801Y-16789984D02*
X8648753Y-16780460D01*
X8648753Y-16780460D02*
X8639230Y-16761412D01*
X8639230Y-16761412D02*
X8639230Y-16685222D01*
X8639230Y-16685222D02*
X8648753Y-16666174D01*
X8648753Y-16666174D02*
X8667801Y-16656650D01*
X8667801Y-16656650D02*
X8705896Y-16656650D01*
X8705896Y-16656650D02*
X8724944Y-16666174D01*
X8724944Y-16666174D02*
X8734468Y-16685222D01*
X8734468Y-16685222D02*
X8734468Y-16704269D01*
X8734468Y-16704269D02*
X8639230Y-16723317D01*
X8810658Y-16780460D02*
X8829706Y-16789984D01*
X8829706Y-16789984D02*
X8867801Y-16789984D01*
X8867801Y-16789984D02*
X8886849Y-16780460D01*
X8886849Y-16780460D02*
X8896373Y-16761412D01*
X8896373Y-16761412D02*
X8896373Y-16751888D01*
X8896373Y-16751888D02*
X8886849Y-16732841D01*
X8886849Y-16732841D02*
X8867801Y-16723317D01*
X8867801Y-16723317D02*
X8839230Y-16723317D01*
X8839230Y-16723317D02*
X8820182Y-16713793D01*
X8820182Y-16713793D02*
X8810658Y-16694746D01*
X8810658Y-16694746D02*
X8810658Y-16685222D01*
X8810658Y-16685222D02*
X8820182Y-16666174D01*
X8820182Y-16666174D02*
X8839230Y-16656650D01*
X8839230Y-16656650D02*
X8867801Y-16656650D01*
X8867801Y-16656650D02*
X8886849Y-16666174D01*
X8963039Y-16866174D02*
X8972563Y-16856650D01*
X8972563Y-16856650D02*
X8991611Y-16828079D01*
X8991611Y-16828079D02*
X9001134Y-16809031D01*
X9001134Y-16809031D02*
X9010658Y-16780460D01*
X9010658Y-16780460D02*
X9020182Y-16732841D01*
X9020182Y-16732841D02*
X9020182Y-16694746D01*
X9020182Y-16694746D02*
X9010658Y-16647127D01*
X9010658Y-16647127D02*
X9001134Y-16618555D01*
X9001134Y-16618555D02*
X8991611Y-16599508D01*
X8991611Y-16599508D02*
X8972563Y-16570936D01*
X8972563Y-16570936D02*
X8963039Y-16561412D01*
M02*
