M48
; DRILL file {KiCad 9.0.7} date 2026-01-06T19:33:02-0800
; FORMAT={-:-/ absolute / metric / decimal}
; #@! TF.CreationDate,2026-01-06T19:33:02-08:00
; #@! TF.GenerationSoftware,Kicad,Pcbnew,9.0.7
; #@! TF.FileFunction,Plated,1,2,PTH
FMAT,2
METRIC
; #@! TA.AperFunction,Plated,PTH,ViaDrill
T1C0.300
; #@! TA.AperFunction,Plated,PTH,ComponentDrill
T2C0.800
; #@! TA.AperFunction,Plated,PTH,ComponentDrill
T3C1.000
; #@! TA.AperFunction,Plated,PTH,ComponentDrill
T4C1.100
; #@! TA.AperFunction,Plated,PTH,ViaDrill
T5C1.500
%
G90
G05
T1
X57.0Y-126.88
X57.3Y-114.6
X63.8Y-118.2
X64.0Y-115.5
X66.6Y-125.5
X73.5Y-112.9
X77.9Y-135.4
X78.45Y-114.35
X79.0Y-123.1
X80.7Y-136.8
X80.7Y-138.1
X80.74Y-139.4
X89.3Y-137.5
X89.3Y-138.8
X89.3Y-140.5
X89.55Y-132.6
X90.9Y-125.6
X92.0Y-142.7
X93.8Y-136.2
X98.0Y-112.9
X121.0Y-116.5
X121.0Y-131.1
X121.0Y-144.8
X129.0Y-112.2
X129.1Y-140.3
X129.2Y-126.0
T2
X94.7Y-122.6
X94.7Y-125.14
X94.7Y-127.68
X94.7Y-130.22
X102.4Y-115.6
X102.4Y-118.14
X102.4Y-120.68
X102.4Y-123.22
X102.4Y-125.76
X102.4Y-128.3
X102.4Y-132.6
X102.4Y-135.14
X102.4Y-137.68
X102.4Y-140.22
X102.4Y-142.76
X102.4Y-145.3
X108.6Y-115.7
X108.6Y-118.24
X108.6Y-120.78
X108.6Y-123.32
X108.6Y-125.86
X108.6Y-128.4
X108.6Y-132.7
X108.6Y-135.24
X108.6Y-137.78
X108.6Y-140.32
X108.6Y-142.86
X108.6Y-145.4
T3
X60.6Y-109.1
X60.6Y-111.64
X60.6Y-114.18
X60.6Y-116.72
X60.6Y-119.26
X60.6Y-121.8
X60.6Y-124.34
X60.6Y-126.88
X60.6Y-129.42
X60.6Y-131.96
X60.6Y-134.5
X60.6Y-137.04
X60.6Y-139.58
X60.6Y-142.12
X60.6Y-144.66
X75.84Y-109.1
X75.84Y-111.64
X75.84Y-114.18
X75.84Y-116.72
X75.84Y-119.26
X75.84Y-121.8
X75.84Y-124.34
X75.84Y-126.88
X75.84Y-129.42
X75.84Y-131.96
X75.84Y-134.5
X75.84Y-137.04
X75.84Y-139.58
X75.84Y-142.12
X75.84Y-144.66
T4
X46.5Y-126.1
X46.5Y-130.6
X46.6Y-113.2
X46.6Y-117.7
X46.6Y-139.2
X46.6Y-143.7
X53.0Y-126.1
X53.0Y-130.6
X53.1Y-113.2
X53.1Y-117.7
X53.1Y-139.2
X53.1Y-143.7
T5
X42.0Y-107.0
X42.0Y-148.0
X64.8Y-143.4
X65.0Y-111.1
X102.9Y-148.0
X103.0Y-107.0
X107.8Y-106.9
X107.9Y-148.1
X137.0Y-148.1
X137.1Y-106.8
M30
