%TF.GenerationSoftware,KiCad,Pcbnew,9.0.7*%
%TF.CreationDate,2026-01-06T19:32:14-08:00*%
%TF.ProjectId,v1.2,76312e32-2e6b-4696-9361-645f70636258,rev?*%
%TF.SameCoordinates,Original*%
%TF.FileFunction,Legend,Bot*%
%TF.FilePolarity,Positive*%
%FSLAX46Y46*%
G04 Gerber Fmt 4.6, Leading zero omitted, Abs format (unit mm)*
G04 Created by KiCad (PCBNEW 9.0.7) date 2026-01-06 19:32:14*
%MOMM*%
%LPD*%
G01*
G04 APERTURE LIST*
%ADD10C,0.100000*%
%ADD11C,0.150000*%
%ADD12C,0.120000*%
G04 APERTURE END LIST*
D10*
X131524800Y-110456265D02*
X131572419Y-110599122D01*
X131572419Y-110599122D02*
X131572419Y-110837217D01*
X131572419Y-110837217D02*
X131524800Y-110932455D01*
X131524800Y-110932455D02*
X131477180Y-110980074D01*
X131477180Y-110980074D02*
X131381942Y-111027693D01*
X131381942Y-111027693D02*
X131286704Y-111027693D01*
X131286704Y-111027693D02*
X131191466Y-110980074D01*
X131191466Y-110980074D02*
X131143847Y-110932455D01*
X131143847Y-110932455D02*
X131096228Y-110837217D01*
X131096228Y-110837217D02*
X131048609Y-110646741D01*
X131048609Y-110646741D02*
X131000990Y-110551503D01*
X131000990Y-110551503D02*
X130953371Y-110503884D01*
X130953371Y-110503884D02*
X130858133Y-110456265D01*
X130858133Y-110456265D02*
X130762895Y-110456265D01*
X130762895Y-110456265D02*
X130667657Y-110503884D01*
X130667657Y-110503884D02*
X130620038Y-110551503D01*
X130620038Y-110551503D02*
X130572419Y-110646741D01*
X130572419Y-110646741D02*
X130572419Y-110884836D01*
X130572419Y-110884836D02*
X130620038Y-111027693D01*
X131524800Y-111837217D02*
X131572419Y-111741979D01*
X131572419Y-111741979D02*
X131572419Y-111551503D01*
X131572419Y-111551503D02*
X131524800Y-111456265D01*
X131524800Y-111456265D02*
X131429561Y-111408646D01*
X131429561Y-111408646D02*
X131048609Y-111408646D01*
X131048609Y-111408646D02*
X130953371Y-111456265D01*
X130953371Y-111456265D02*
X130905752Y-111551503D01*
X130905752Y-111551503D02*
X130905752Y-111741979D01*
X130905752Y-111741979D02*
X130953371Y-111837217D01*
X130953371Y-111837217D02*
X131048609Y-111884836D01*
X131048609Y-111884836D02*
X131143847Y-111884836D01*
X131143847Y-111884836D02*
X131239085Y-111408646D01*
X130905752Y-112313408D02*
X131572419Y-112313408D01*
X131000990Y-112313408D02*
X130953371Y-112361027D01*
X130953371Y-112361027D02*
X130905752Y-112456265D01*
X130905752Y-112456265D02*
X130905752Y-112599122D01*
X130905752Y-112599122D02*
X130953371Y-112694360D01*
X130953371Y-112694360D02*
X131048609Y-112741979D01*
X131048609Y-112741979D02*
X131572419Y-112741979D01*
X131524800Y-113170551D02*
X131572419Y-113265789D01*
X131572419Y-113265789D02*
X131572419Y-113456265D01*
X131572419Y-113456265D02*
X131524800Y-113551503D01*
X131524800Y-113551503D02*
X131429561Y-113599122D01*
X131429561Y-113599122D02*
X131381942Y-113599122D01*
X131381942Y-113599122D02*
X131286704Y-113551503D01*
X131286704Y-113551503D02*
X131239085Y-113456265D01*
X131239085Y-113456265D02*
X131239085Y-113313408D01*
X131239085Y-113313408D02*
X131191466Y-113218170D01*
X131191466Y-113218170D02*
X131096228Y-113170551D01*
X131096228Y-113170551D02*
X131048609Y-113170551D01*
X131048609Y-113170551D02*
X130953371Y-113218170D01*
X130953371Y-113218170D02*
X130905752Y-113313408D01*
X130905752Y-113313408D02*
X130905752Y-113456265D01*
X130905752Y-113456265D02*
X130953371Y-113551503D01*
X131572419Y-114170551D02*
X131524800Y-114075313D01*
X131524800Y-114075313D02*
X131477180Y-114027694D01*
X131477180Y-114027694D02*
X131381942Y-113980075D01*
X131381942Y-113980075D02*
X131096228Y-113980075D01*
X131096228Y-113980075D02*
X131000990Y-114027694D01*
X131000990Y-114027694D02*
X130953371Y-114075313D01*
X130953371Y-114075313D02*
X130905752Y-114170551D01*
X130905752Y-114170551D02*
X130905752Y-114313408D01*
X130905752Y-114313408D02*
X130953371Y-114408646D01*
X130953371Y-114408646D02*
X131000990Y-114456265D01*
X131000990Y-114456265D02*
X131096228Y-114503884D01*
X131096228Y-114503884D02*
X131381942Y-114503884D01*
X131381942Y-114503884D02*
X131477180Y-114456265D01*
X131477180Y-114456265D02*
X131524800Y-114408646D01*
X131524800Y-114408646D02*
X131572419Y-114313408D01*
X131572419Y-114313408D02*
X131572419Y-114170551D01*
X131572419Y-114932456D02*
X130905752Y-114932456D01*
X131096228Y-114932456D02*
X131000990Y-114980075D01*
X131000990Y-114980075D02*
X130953371Y-115027694D01*
X130953371Y-115027694D02*
X130905752Y-115122932D01*
X130905752Y-115122932D02*
X130905752Y-115218170D01*
X131572419Y-116789599D02*
X131572419Y-116313409D01*
X131572419Y-116313409D02*
X130572419Y-116313409D01*
X131524800Y-138356265D02*
X131572419Y-138499122D01*
X131572419Y-138499122D02*
X131572419Y-138737217D01*
X131572419Y-138737217D02*
X131524800Y-138832455D01*
X131524800Y-138832455D02*
X131477180Y-138880074D01*
X131477180Y-138880074D02*
X131381942Y-138927693D01*
X131381942Y-138927693D02*
X131286704Y-138927693D01*
X131286704Y-138927693D02*
X131191466Y-138880074D01*
X131191466Y-138880074D02*
X131143847Y-138832455D01*
X131143847Y-138832455D02*
X131096228Y-138737217D01*
X131096228Y-138737217D02*
X131048609Y-138546741D01*
X131048609Y-138546741D02*
X131000990Y-138451503D01*
X131000990Y-138451503D02*
X130953371Y-138403884D01*
X130953371Y-138403884D02*
X130858133Y-138356265D01*
X130858133Y-138356265D02*
X130762895Y-138356265D01*
X130762895Y-138356265D02*
X130667657Y-138403884D01*
X130667657Y-138403884D02*
X130620038Y-138451503D01*
X130620038Y-138451503D02*
X130572419Y-138546741D01*
X130572419Y-138546741D02*
X130572419Y-138784836D01*
X130572419Y-138784836D02*
X130620038Y-138927693D01*
X131524800Y-139737217D02*
X131572419Y-139641979D01*
X131572419Y-139641979D02*
X131572419Y-139451503D01*
X131572419Y-139451503D02*
X131524800Y-139356265D01*
X131524800Y-139356265D02*
X131429561Y-139308646D01*
X131429561Y-139308646D02*
X131048609Y-139308646D01*
X131048609Y-139308646D02*
X130953371Y-139356265D01*
X130953371Y-139356265D02*
X130905752Y-139451503D01*
X130905752Y-139451503D02*
X130905752Y-139641979D01*
X130905752Y-139641979D02*
X130953371Y-139737217D01*
X130953371Y-139737217D02*
X131048609Y-139784836D01*
X131048609Y-139784836D02*
X131143847Y-139784836D01*
X131143847Y-139784836D02*
X131239085Y-139308646D01*
X130905752Y-140213408D02*
X131572419Y-140213408D01*
X131000990Y-140213408D02*
X130953371Y-140261027D01*
X130953371Y-140261027D02*
X130905752Y-140356265D01*
X130905752Y-140356265D02*
X130905752Y-140499122D01*
X130905752Y-140499122D02*
X130953371Y-140594360D01*
X130953371Y-140594360D02*
X131048609Y-140641979D01*
X131048609Y-140641979D02*
X131572419Y-140641979D01*
X131524800Y-141070551D02*
X131572419Y-141165789D01*
X131572419Y-141165789D02*
X131572419Y-141356265D01*
X131572419Y-141356265D02*
X131524800Y-141451503D01*
X131524800Y-141451503D02*
X131429561Y-141499122D01*
X131429561Y-141499122D02*
X131381942Y-141499122D01*
X131381942Y-141499122D02*
X131286704Y-141451503D01*
X131286704Y-141451503D02*
X131239085Y-141356265D01*
X131239085Y-141356265D02*
X131239085Y-141213408D01*
X131239085Y-141213408D02*
X131191466Y-141118170D01*
X131191466Y-141118170D02*
X131096228Y-141070551D01*
X131096228Y-141070551D02*
X131048609Y-141070551D01*
X131048609Y-141070551D02*
X130953371Y-141118170D01*
X130953371Y-141118170D02*
X130905752Y-141213408D01*
X130905752Y-141213408D02*
X130905752Y-141356265D01*
X130905752Y-141356265D02*
X130953371Y-141451503D01*
X131572419Y-142070551D02*
X131524800Y-141975313D01*
X131524800Y-141975313D02*
X131477180Y-141927694D01*
X131477180Y-141927694D02*
X131381942Y-141880075D01*
X131381942Y-141880075D02*
X131096228Y-141880075D01*
X131096228Y-141880075D02*
X131000990Y-141927694D01*
X131000990Y-141927694D02*
X130953371Y-141975313D01*
X130953371Y-141975313D02*
X130905752Y-142070551D01*
X130905752Y-142070551D02*
X130905752Y-142213408D01*
X130905752Y-142213408D02*
X130953371Y-142308646D01*
X130953371Y-142308646D02*
X131000990Y-142356265D01*
X131000990Y-142356265D02*
X131096228Y-142403884D01*
X131096228Y-142403884D02*
X131381942Y-142403884D01*
X131381942Y-142403884D02*
X131477180Y-142356265D01*
X131477180Y-142356265D02*
X131524800Y-142308646D01*
X131524800Y-142308646D02*
X131572419Y-142213408D01*
X131572419Y-142213408D02*
X131572419Y-142070551D01*
X131572419Y-142832456D02*
X130905752Y-142832456D01*
X131096228Y-142832456D02*
X131000990Y-142880075D01*
X131000990Y-142880075D02*
X130953371Y-142927694D01*
X130953371Y-142927694D02*
X130905752Y-143022932D01*
X130905752Y-143022932D02*
X130905752Y-143118170D01*
X131572419Y-144784837D02*
X131096228Y-144451504D01*
X131572419Y-144213409D02*
X130572419Y-144213409D01*
X130572419Y-144213409D02*
X130572419Y-144594361D01*
X130572419Y-144594361D02*
X130620038Y-144689599D01*
X130620038Y-144689599D02*
X130667657Y-144737218D01*
X130667657Y-144737218D02*
X130762895Y-144784837D01*
X130762895Y-144784837D02*
X130905752Y-144784837D01*
X130905752Y-144784837D02*
X131000990Y-144737218D01*
X131000990Y-144737218D02*
X131048609Y-144689599D01*
X131048609Y-144689599D02*
X131096228Y-144594361D01*
X131096228Y-144594361D02*
X131096228Y-144213409D01*
X131524800Y-124756265D02*
X131572419Y-124899122D01*
X131572419Y-124899122D02*
X131572419Y-125137217D01*
X131572419Y-125137217D02*
X131524800Y-125232455D01*
X131524800Y-125232455D02*
X131477180Y-125280074D01*
X131477180Y-125280074D02*
X131381942Y-125327693D01*
X131381942Y-125327693D02*
X131286704Y-125327693D01*
X131286704Y-125327693D02*
X131191466Y-125280074D01*
X131191466Y-125280074D02*
X131143847Y-125232455D01*
X131143847Y-125232455D02*
X131096228Y-125137217D01*
X131096228Y-125137217D02*
X131048609Y-124946741D01*
X131048609Y-124946741D02*
X131000990Y-124851503D01*
X131000990Y-124851503D02*
X130953371Y-124803884D01*
X130953371Y-124803884D02*
X130858133Y-124756265D01*
X130858133Y-124756265D02*
X130762895Y-124756265D01*
X130762895Y-124756265D02*
X130667657Y-124803884D01*
X130667657Y-124803884D02*
X130620038Y-124851503D01*
X130620038Y-124851503D02*
X130572419Y-124946741D01*
X130572419Y-124946741D02*
X130572419Y-125184836D01*
X130572419Y-125184836D02*
X130620038Y-125327693D01*
X131524800Y-126137217D02*
X131572419Y-126041979D01*
X131572419Y-126041979D02*
X131572419Y-125851503D01*
X131572419Y-125851503D02*
X131524800Y-125756265D01*
X131524800Y-125756265D02*
X131429561Y-125708646D01*
X131429561Y-125708646D02*
X131048609Y-125708646D01*
X131048609Y-125708646D02*
X130953371Y-125756265D01*
X130953371Y-125756265D02*
X130905752Y-125851503D01*
X130905752Y-125851503D02*
X130905752Y-126041979D01*
X130905752Y-126041979D02*
X130953371Y-126137217D01*
X130953371Y-126137217D02*
X131048609Y-126184836D01*
X131048609Y-126184836D02*
X131143847Y-126184836D01*
X131143847Y-126184836D02*
X131239085Y-125708646D01*
X130905752Y-126613408D02*
X131572419Y-126613408D01*
X131000990Y-126613408D02*
X130953371Y-126661027D01*
X130953371Y-126661027D02*
X130905752Y-126756265D01*
X130905752Y-126756265D02*
X130905752Y-126899122D01*
X130905752Y-126899122D02*
X130953371Y-126994360D01*
X130953371Y-126994360D02*
X131048609Y-127041979D01*
X131048609Y-127041979D02*
X131572419Y-127041979D01*
X131524800Y-127470551D02*
X131572419Y-127565789D01*
X131572419Y-127565789D02*
X131572419Y-127756265D01*
X131572419Y-127756265D02*
X131524800Y-127851503D01*
X131524800Y-127851503D02*
X131429561Y-127899122D01*
X131429561Y-127899122D02*
X131381942Y-127899122D01*
X131381942Y-127899122D02*
X131286704Y-127851503D01*
X131286704Y-127851503D02*
X131239085Y-127756265D01*
X131239085Y-127756265D02*
X131239085Y-127613408D01*
X131239085Y-127613408D02*
X131191466Y-127518170D01*
X131191466Y-127518170D02*
X131096228Y-127470551D01*
X131096228Y-127470551D02*
X131048609Y-127470551D01*
X131048609Y-127470551D02*
X130953371Y-127518170D01*
X130953371Y-127518170D02*
X130905752Y-127613408D01*
X130905752Y-127613408D02*
X130905752Y-127756265D01*
X130905752Y-127756265D02*
X130953371Y-127851503D01*
X131572419Y-128470551D02*
X131524800Y-128375313D01*
X131524800Y-128375313D02*
X131477180Y-128327694D01*
X131477180Y-128327694D02*
X131381942Y-128280075D01*
X131381942Y-128280075D02*
X131096228Y-128280075D01*
X131096228Y-128280075D02*
X131000990Y-128327694D01*
X131000990Y-128327694D02*
X130953371Y-128375313D01*
X130953371Y-128375313D02*
X130905752Y-128470551D01*
X130905752Y-128470551D02*
X130905752Y-128613408D01*
X130905752Y-128613408D02*
X130953371Y-128708646D01*
X130953371Y-128708646D02*
X131000990Y-128756265D01*
X131000990Y-128756265D02*
X131096228Y-128803884D01*
X131096228Y-128803884D02*
X131381942Y-128803884D01*
X131381942Y-128803884D02*
X131477180Y-128756265D01*
X131477180Y-128756265D02*
X131524800Y-128708646D01*
X131524800Y-128708646D02*
X131572419Y-128613408D01*
X131572419Y-128613408D02*
X131572419Y-128470551D01*
X131572419Y-129232456D02*
X130905752Y-129232456D01*
X131096228Y-129232456D02*
X131000990Y-129280075D01*
X131000990Y-129280075D02*
X130953371Y-129327694D01*
X130953371Y-129327694D02*
X130905752Y-129422932D01*
X130905752Y-129422932D02*
X130905752Y-129518170D01*
X131477180Y-131184837D02*
X131524800Y-131137218D01*
X131524800Y-131137218D02*
X131572419Y-130994361D01*
X131572419Y-130994361D02*
X131572419Y-130899123D01*
X131572419Y-130899123D02*
X131524800Y-130756266D01*
X131524800Y-130756266D02*
X131429561Y-130661028D01*
X131429561Y-130661028D02*
X131334323Y-130613409D01*
X131334323Y-130613409D02*
X131143847Y-130565790D01*
X131143847Y-130565790D02*
X131000990Y-130565790D01*
X131000990Y-130565790D02*
X130810514Y-130613409D01*
X130810514Y-130613409D02*
X130715276Y-130661028D01*
X130715276Y-130661028D02*
X130620038Y-130756266D01*
X130620038Y-130756266D02*
X130572419Y-130899123D01*
X130572419Y-130899123D02*
X130572419Y-130994361D01*
X130572419Y-130994361D02*
X130620038Y-131137218D01*
X130620038Y-131137218D02*
X130667657Y-131184837D01*
X119562782Y-110248609D02*
X119896115Y-110248609D01*
X119896115Y-110772419D02*
X119896115Y-109772419D01*
X119896115Y-109772419D02*
X119419925Y-109772419D01*
X119038972Y-110772419D02*
X119038972Y-110105752D01*
X119038972Y-109772419D02*
X119086591Y-109820038D01*
X119086591Y-109820038D02*
X119038972Y-109867657D01*
X119038972Y-109867657D02*
X118991353Y-109820038D01*
X118991353Y-109820038D02*
X119038972Y-109772419D01*
X119038972Y-109772419D02*
X119038972Y-109867657D01*
X118419925Y-110772419D02*
X118515163Y-110724800D01*
X118515163Y-110724800D02*
X118562782Y-110629561D01*
X118562782Y-110629561D02*
X118562782Y-109772419D01*
X118038972Y-110772419D02*
X118038972Y-110105752D01*
X118038972Y-110200990D02*
X117991353Y-110153371D01*
X117991353Y-110153371D02*
X117896115Y-110105752D01*
X117896115Y-110105752D02*
X117753258Y-110105752D01*
X117753258Y-110105752D02*
X117658020Y-110153371D01*
X117658020Y-110153371D02*
X117610401Y-110248609D01*
X117610401Y-110248609D02*
X117610401Y-110772419D01*
X117610401Y-110248609D02*
X117562782Y-110153371D01*
X117562782Y-110153371D02*
X117467544Y-110105752D01*
X117467544Y-110105752D02*
X117324687Y-110105752D01*
X117324687Y-110105752D02*
X117229448Y-110153371D01*
X117229448Y-110153371D02*
X117181829Y-110248609D01*
X117181829Y-110248609D02*
X117181829Y-110772419D01*
X115943734Y-110772419D02*
X115943734Y-109772419D01*
X115943734Y-109772419D02*
X115562782Y-109772419D01*
X115562782Y-109772419D02*
X115467544Y-109820038D01*
X115467544Y-109820038D02*
X115419925Y-109867657D01*
X115419925Y-109867657D02*
X115372306Y-109962895D01*
X115372306Y-109962895D02*
X115372306Y-110105752D01*
X115372306Y-110105752D02*
X115419925Y-110200990D01*
X115419925Y-110200990D02*
X115467544Y-110248609D01*
X115467544Y-110248609D02*
X115562782Y-110296228D01*
X115562782Y-110296228D02*
X115943734Y-110296228D01*
X114800877Y-110772419D02*
X114896115Y-110724800D01*
X114896115Y-110724800D02*
X114943734Y-110629561D01*
X114943734Y-110629561D02*
X114943734Y-109772419D01*
X113991353Y-110772419D02*
X113991353Y-110248609D01*
X113991353Y-110248609D02*
X114038972Y-110153371D01*
X114038972Y-110153371D02*
X114134210Y-110105752D01*
X114134210Y-110105752D02*
X114324686Y-110105752D01*
X114324686Y-110105752D02*
X114419924Y-110153371D01*
X113991353Y-110724800D02*
X114086591Y-110772419D01*
X114086591Y-110772419D02*
X114324686Y-110772419D01*
X114324686Y-110772419D02*
X114419924Y-110724800D01*
X114419924Y-110724800D02*
X114467543Y-110629561D01*
X114467543Y-110629561D02*
X114467543Y-110534323D01*
X114467543Y-110534323D02*
X114419924Y-110439085D01*
X114419924Y-110439085D02*
X114324686Y-110391466D01*
X114324686Y-110391466D02*
X114086591Y-110391466D01*
X114086591Y-110391466D02*
X113991353Y-110343847D01*
X113515162Y-110105752D02*
X113515162Y-110772419D01*
X113515162Y-110200990D02*
X113467543Y-110153371D01*
X113467543Y-110153371D02*
X113372305Y-110105752D01*
X113372305Y-110105752D02*
X113229448Y-110105752D01*
X113229448Y-110105752D02*
X113134210Y-110153371D01*
X113134210Y-110153371D02*
X113086591Y-110248609D01*
X113086591Y-110248609D02*
X113086591Y-110772419D01*
X112229448Y-110724800D02*
X112324686Y-110772419D01*
X112324686Y-110772419D02*
X112515162Y-110772419D01*
X112515162Y-110772419D02*
X112610400Y-110724800D01*
X112610400Y-110724800D02*
X112658019Y-110629561D01*
X112658019Y-110629561D02*
X112658019Y-110248609D01*
X112658019Y-110248609D02*
X112610400Y-110153371D01*
X112610400Y-110153371D02*
X112515162Y-110105752D01*
X112515162Y-110105752D02*
X112324686Y-110105752D01*
X112324686Y-110105752D02*
X112229448Y-110153371D01*
X112229448Y-110153371D02*
X112181829Y-110248609D01*
X112181829Y-110248609D02*
X112181829Y-110343847D01*
X112181829Y-110343847D02*
X112658019Y-110439085D01*
X111900000Y-109500000D02*
X135900000Y-109500000D01*
X135900000Y-145500000D01*
X111900000Y-145500000D01*
X111900000Y-109500000D01*
D11*
X51183332Y-111607200D02*
X51040475Y-111654819D01*
X51040475Y-111654819D02*
X50802380Y-111654819D01*
X50802380Y-111654819D02*
X50707142Y-111607200D01*
X50707142Y-111607200D02*
X50659523Y-111559580D01*
X50659523Y-111559580D02*
X50611904Y-111464342D01*
X50611904Y-111464342D02*
X50611904Y-111369104D01*
X50611904Y-111369104D02*
X50659523Y-111273866D01*
X50659523Y-111273866D02*
X50707142Y-111226247D01*
X50707142Y-111226247D02*
X50802380Y-111178628D01*
X50802380Y-111178628D02*
X50992856Y-111131009D01*
X50992856Y-111131009D02*
X51088094Y-111083390D01*
X51088094Y-111083390D02*
X51135713Y-111035771D01*
X51135713Y-111035771D02*
X51183332Y-110940533D01*
X51183332Y-110940533D02*
X51183332Y-110845295D01*
X51183332Y-110845295D02*
X51135713Y-110750057D01*
X51135713Y-110750057D02*
X51088094Y-110702438D01*
X51088094Y-110702438D02*
X50992856Y-110654819D01*
X50992856Y-110654819D02*
X50754761Y-110654819D01*
X50754761Y-110654819D02*
X50611904Y-110702438D01*
X50278570Y-110654819D02*
X50040475Y-111654819D01*
X50040475Y-111654819D02*
X49849999Y-110940533D01*
X49849999Y-110940533D02*
X49659523Y-111654819D01*
X49659523Y-111654819D02*
X49421428Y-110654819D01*
X49135713Y-110654819D02*
X48516666Y-110654819D01*
X48516666Y-110654819D02*
X48849999Y-111035771D01*
X48849999Y-111035771D02*
X48707142Y-111035771D01*
X48707142Y-111035771D02*
X48611904Y-111083390D01*
X48611904Y-111083390D02*
X48564285Y-111131009D01*
X48564285Y-111131009D02*
X48516666Y-111226247D01*
X48516666Y-111226247D02*
X48516666Y-111464342D01*
X48516666Y-111464342D02*
X48564285Y-111559580D01*
X48564285Y-111559580D02*
X48611904Y-111607200D01*
X48611904Y-111607200D02*
X48707142Y-111654819D01*
X48707142Y-111654819D02*
X48992856Y-111654819D01*
X48992856Y-111654819D02*
X49088094Y-111607200D01*
X49088094Y-111607200D02*
X49135713Y-111559580D01*
X51083332Y-124507200D02*
X50940475Y-124554819D01*
X50940475Y-124554819D02*
X50702380Y-124554819D01*
X50702380Y-124554819D02*
X50607142Y-124507200D01*
X50607142Y-124507200D02*
X50559523Y-124459580D01*
X50559523Y-124459580D02*
X50511904Y-124364342D01*
X50511904Y-124364342D02*
X50511904Y-124269104D01*
X50511904Y-124269104D02*
X50559523Y-124173866D01*
X50559523Y-124173866D02*
X50607142Y-124126247D01*
X50607142Y-124126247D02*
X50702380Y-124078628D01*
X50702380Y-124078628D02*
X50892856Y-124031009D01*
X50892856Y-124031009D02*
X50988094Y-123983390D01*
X50988094Y-123983390D02*
X51035713Y-123935771D01*
X51035713Y-123935771D02*
X51083332Y-123840533D01*
X51083332Y-123840533D02*
X51083332Y-123745295D01*
X51083332Y-123745295D02*
X51035713Y-123650057D01*
X51035713Y-123650057D02*
X50988094Y-123602438D01*
X50988094Y-123602438D02*
X50892856Y-123554819D01*
X50892856Y-123554819D02*
X50654761Y-123554819D01*
X50654761Y-123554819D02*
X50511904Y-123602438D01*
X50178570Y-123554819D02*
X49940475Y-124554819D01*
X49940475Y-124554819D02*
X49749999Y-123840533D01*
X49749999Y-123840533D02*
X49559523Y-124554819D01*
X49559523Y-124554819D02*
X49321428Y-123554819D01*
X48988094Y-123650057D02*
X48940475Y-123602438D01*
X48940475Y-123602438D02*
X48845237Y-123554819D01*
X48845237Y-123554819D02*
X48607142Y-123554819D01*
X48607142Y-123554819D02*
X48511904Y-123602438D01*
X48511904Y-123602438D02*
X48464285Y-123650057D01*
X48464285Y-123650057D02*
X48416666Y-123745295D01*
X48416666Y-123745295D02*
X48416666Y-123840533D01*
X48416666Y-123840533D02*
X48464285Y-123983390D01*
X48464285Y-123983390D02*
X49035713Y-124554819D01*
X49035713Y-124554819D02*
X48416666Y-124554819D01*
X51183332Y-137607200D02*
X51040475Y-137654819D01*
X51040475Y-137654819D02*
X50802380Y-137654819D01*
X50802380Y-137654819D02*
X50707142Y-137607200D01*
X50707142Y-137607200D02*
X50659523Y-137559580D01*
X50659523Y-137559580D02*
X50611904Y-137464342D01*
X50611904Y-137464342D02*
X50611904Y-137369104D01*
X50611904Y-137369104D02*
X50659523Y-137273866D01*
X50659523Y-137273866D02*
X50707142Y-137226247D01*
X50707142Y-137226247D02*
X50802380Y-137178628D01*
X50802380Y-137178628D02*
X50992856Y-137131009D01*
X50992856Y-137131009D02*
X51088094Y-137083390D01*
X51088094Y-137083390D02*
X51135713Y-137035771D01*
X51135713Y-137035771D02*
X51183332Y-136940533D01*
X51183332Y-136940533D02*
X51183332Y-136845295D01*
X51183332Y-136845295D02*
X51135713Y-136750057D01*
X51135713Y-136750057D02*
X51088094Y-136702438D01*
X51088094Y-136702438D02*
X50992856Y-136654819D01*
X50992856Y-136654819D02*
X50754761Y-136654819D01*
X50754761Y-136654819D02*
X50611904Y-136702438D01*
X50278570Y-136654819D02*
X50040475Y-137654819D01*
X50040475Y-137654819D02*
X49849999Y-136940533D01*
X49849999Y-136940533D02*
X49659523Y-137654819D01*
X49659523Y-137654819D02*
X49421428Y-136654819D01*
X48516666Y-137654819D02*
X49088094Y-137654819D01*
X48802380Y-137654819D02*
X48802380Y-136654819D01*
X48802380Y-136654819D02*
X48897618Y-136797676D01*
X48897618Y-136797676D02*
X48992856Y-136892914D01*
X48992856Y-136892914D02*
X49088094Y-136940533D01*
X124778094Y-138954819D02*
X124778094Y-137954819D01*
X124778094Y-137954819D02*
X124539999Y-137954819D01*
X124539999Y-137954819D02*
X124397142Y-138002438D01*
X124397142Y-138002438D02*
X124301904Y-138097676D01*
X124301904Y-138097676D02*
X124254285Y-138192914D01*
X124254285Y-138192914D02*
X124206666Y-138383390D01*
X124206666Y-138383390D02*
X124206666Y-138526247D01*
X124206666Y-138526247D02*
X124254285Y-138716723D01*
X124254285Y-138716723D02*
X124301904Y-138811961D01*
X124301904Y-138811961D02*
X124397142Y-138907200D01*
X124397142Y-138907200D02*
X124539999Y-138954819D01*
X124539999Y-138954819D02*
X124778094Y-138954819D01*
X123825713Y-138050057D02*
X123778094Y-138002438D01*
X123778094Y-138002438D02*
X123682856Y-137954819D01*
X123682856Y-137954819D02*
X123444761Y-137954819D01*
X123444761Y-137954819D02*
X123349523Y-138002438D01*
X123349523Y-138002438D02*
X123301904Y-138050057D01*
X123301904Y-138050057D02*
X123254285Y-138145295D01*
X123254285Y-138145295D02*
X123254285Y-138240533D01*
X123254285Y-138240533D02*
X123301904Y-138383390D01*
X123301904Y-138383390D02*
X123873332Y-138954819D01*
X123873332Y-138954819D02*
X123254285Y-138954819D01*
X124838094Y-110854819D02*
X124838094Y-109854819D01*
X124838094Y-109854819D02*
X124599999Y-109854819D01*
X124599999Y-109854819D02*
X124457142Y-109902438D01*
X124457142Y-109902438D02*
X124361904Y-109997676D01*
X124361904Y-109997676D02*
X124314285Y-110092914D01*
X124314285Y-110092914D02*
X124266666Y-110283390D01*
X124266666Y-110283390D02*
X124266666Y-110426247D01*
X124266666Y-110426247D02*
X124314285Y-110616723D01*
X124314285Y-110616723D02*
X124361904Y-110711961D01*
X124361904Y-110711961D02*
X124457142Y-110807200D01*
X124457142Y-110807200D02*
X124599999Y-110854819D01*
X124599999Y-110854819D02*
X124838094Y-110854819D01*
X123933332Y-109854819D02*
X123314285Y-109854819D01*
X123314285Y-109854819D02*
X123647618Y-110235771D01*
X123647618Y-110235771D02*
X123504761Y-110235771D01*
X123504761Y-110235771D02*
X123409523Y-110283390D01*
X123409523Y-110283390D02*
X123361904Y-110331009D01*
X123361904Y-110331009D02*
X123314285Y-110426247D01*
X123314285Y-110426247D02*
X123314285Y-110664342D01*
X123314285Y-110664342D02*
X123361904Y-110759580D01*
X123361904Y-110759580D02*
X123409523Y-110807200D01*
X123409523Y-110807200D02*
X123504761Y-110854819D01*
X123504761Y-110854819D02*
X123790475Y-110854819D01*
X123790475Y-110854819D02*
X123885713Y-110807200D01*
X123885713Y-110807200D02*
X123933332Y-110759580D01*
X124778094Y-124754819D02*
X124778094Y-123754819D01*
X124778094Y-123754819D02*
X124539999Y-123754819D01*
X124539999Y-123754819D02*
X124397142Y-123802438D01*
X124397142Y-123802438D02*
X124301904Y-123897676D01*
X124301904Y-123897676D02*
X124254285Y-123992914D01*
X124254285Y-123992914D02*
X124206666Y-124183390D01*
X124206666Y-124183390D02*
X124206666Y-124326247D01*
X124206666Y-124326247D02*
X124254285Y-124516723D01*
X124254285Y-124516723D02*
X124301904Y-124611961D01*
X124301904Y-124611961D02*
X124397142Y-124707200D01*
X124397142Y-124707200D02*
X124539999Y-124754819D01*
X124539999Y-124754819D02*
X124778094Y-124754819D01*
X123349523Y-124088152D02*
X123349523Y-124754819D01*
X123587618Y-123707200D02*
X123825713Y-124421485D01*
X123825713Y-124421485D02*
X123206666Y-124421485D01*
X87954819Y-126766666D02*
X88669104Y-126766666D01*
X88669104Y-126766666D02*
X88811961Y-126719047D01*
X88811961Y-126719047D02*
X88907200Y-126623809D01*
X88907200Y-126623809D02*
X88954819Y-126480952D01*
X88954819Y-126480952D02*
X88954819Y-126385714D01*
X88954819Y-127766666D02*
X88954819Y-127195238D01*
X88954819Y-127480952D02*
X87954819Y-127480952D01*
X87954819Y-127480952D02*
X88097676Y-127385714D01*
X88097676Y-127385714D02*
X88192914Y-127290476D01*
X88192914Y-127290476D02*
X88240533Y-127195238D01*
D10*
X92913104Y-131498020D02*
X92113104Y-131231353D01*
X92113104Y-131231353D02*
X92913104Y-130964687D01*
X92189295Y-130240877D02*
X92151200Y-130278973D01*
X92151200Y-130278973D02*
X92113104Y-130393258D01*
X92113104Y-130393258D02*
X92113104Y-130469449D01*
X92113104Y-130469449D02*
X92151200Y-130583735D01*
X92151200Y-130583735D02*
X92227390Y-130659925D01*
X92227390Y-130659925D02*
X92303580Y-130698020D01*
X92303580Y-130698020D02*
X92455961Y-130736116D01*
X92455961Y-130736116D02*
X92570247Y-130736116D01*
X92570247Y-130736116D02*
X92722628Y-130698020D01*
X92722628Y-130698020D02*
X92798819Y-130659925D01*
X92798819Y-130659925D02*
X92875009Y-130583735D01*
X92875009Y-130583735D02*
X92913104Y-130469449D01*
X92913104Y-130469449D02*
X92913104Y-130393258D01*
X92913104Y-130393258D02*
X92875009Y-130278973D01*
X92875009Y-130278973D02*
X92836914Y-130240877D01*
X92189295Y-129440877D02*
X92151200Y-129478973D01*
X92151200Y-129478973D02*
X92113104Y-129593258D01*
X92113104Y-129593258D02*
X92113104Y-129669449D01*
X92113104Y-129669449D02*
X92151200Y-129783735D01*
X92151200Y-129783735D02*
X92227390Y-129859925D01*
X92227390Y-129859925D02*
X92303580Y-129898020D01*
X92303580Y-129898020D02*
X92455961Y-129936116D01*
X92455961Y-129936116D02*
X92570247Y-129936116D01*
X92570247Y-129936116D02*
X92722628Y-129898020D01*
X92722628Y-129898020D02*
X92798819Y-129859925D01*
X92798819Y-129859925D02*
X92875009Y-129783735D01*
X92875009Y-129783735D02*
X92913104Y-129669449D01*
X92913104Y-129669449D02*
X92913104Y-129593258D01*
X92913104Y-129593258D02*
X92875009Y-129478973D01*
X92875009Y-129478973D02*
X92836914Y-129440877D01*
X92875009Y-127964687D02*
X92913104Y-128040877D01*
X92913104Y-128040877D02*
X92913104Y-128155163D01*
X92913104Y-128155163D02*
X92875009Y-128269449D01*
X92875009Y-128269449D02*
X92798819Y-128345639D01*
X92798819Y-128345639D02*
X92722628Y-128383734D01*
X92722628Y-128383734D02*
X92570247Y-128421830D01*
X92570247Y-128421830D02*
X92455961Y-128421830D01*
X92455961Y-128421830D02*
X92303580Y-128383734D01*
X92303580Y-128383734D02*
X92227390Y-128345639D01*
X92227390Y-128345639D02*
X92151200Y-128269449D01*
X92151200Y-128269449D02*
X92113104Y-128155163D01*
X92113104Y-128155163D02*
X92113104Y-128078972D01*
X92113104Y-128078972D02*
X92151200Y-127964687D01*
X92151200Y-127964687D02*
X92189295Y-127926591D01*
X92189295Y-127926591D02*
X92455961Y-127926591D01*
X92455961Y-127926591D02*
X92455961Y-128078972D01*
X92113104Y-127583734D02*
X92913104Y-127583734D01*
X92913104Y-127583734D02*
X92113104Y-127126591D01*
X92113104Y-127126591D02*
X92913104Y-127126591D01*
X92113104Y-126745639D02*
X92913104Y-126745639D01*
X92913104Y-126745639D02*
X92913104Y-126555163D01*
X92913104Y-126555163D02*
X92875009Y-126440877D01*
X92875009Y-126440877D02*
X92798819Y-126364687D01*
X92798819Y-126364687D02*
X92722628Y-126326592D01*
X92722628Y-126326592D02*
X92570247Y-126288496D01*
X92570247Y-126288496D02*
X92455961Y-126288496D01*
X92455961Y-126288496D02*
X92303580Y-126326592D01*
X92303580Y-126326592D02*
X92227390Y-126364687D01*
X92227390Y-126364687D02*
X92151200Y-126440877D01*
X92151200Y-126440877D02*
X92113104Y-126555163D01*
X92113104Y-126555163D02*
X92113104Y-126745639D01*
X92151200Y-125421830D02*
X92113104Y-125307544D01*
X92113104Y-125307544D02*
X92113104Y-125117068D01*
X92113104Y-125117068D02*
X92151200Y-125040877D01*
X92151200Y-125040877D02*
X92189295Y-125002782D01*
X92189295Y-125002782D02*
X92265485Y-124964687D01*
X92265485Y-124964687D02*
X92341676Y-124964687D01*
X92341676Y-124964687D02*
X92417866Y-125002782D01*
X92417866Y-125002782D02*
X92455961Y-125040877D01*
X92455961Y-125040877D02*
X92494057Y-125117068D01*
X92494057Y-125117068D02*
X92532152Y-125269449D01*
X92532152Y-125269449D02*
X92570247Y-125345639D01*
X92570247Y-125345639D02*
X92608342Y-125383734D01*
X92608342Y-125383734D02*
X92684533Y-125421830D01*
X92684533Y-125421830D02*
X92760723Y-125421830D01*
X92760723Y-125421830D02*
X92836914Y-125383734D01*
X92836914Y-125383734D02*
X92875009Y-125345639D01*
X92875009Y-125345639D02*
X92913104Y-125269449D01*
X92913104Y-125269449D02*
X92913104Y-125078972D01*
X92913104Y-125078972D02*
X92875009Y-124964687D01*
X92189295Y-124164686D02*
X92151200Y-124202782D01*
X92151200Y-124202782D02*
X92113104Y-124317067D01*
X92113104Y-124317067D02*
X92113104Y-124393258D01*
X92113104Y-124393258D02*
X92151200Y-124507544D01*
X92151200Y-124507544D02*
X92227390Y-124583734D01*
X92227390Y-124583734D02*
X92303580Y-124621829D01*
X92303580Y-124621829D02*
X92455961Y-124659925D01*
X92455961Y-124659925D02*
X92570247Y-124659925D01*
X92570247Y-124659925D02*
X92722628Y-124621829D01*
X92722628Y-124621829D02*
X92798819Y-124583734D01*
X92798819Y-124583734D02*
X92875009Y-124507544D01*
X92875009Y-124507544D02*
X92913104Y-124393258D01*
X92913104Y-124393258D02*
X92913104Y-124317067D01*
X92913104Y-124317067D02*
X92875009Y-124202782D01*
X92875009Y-124202782D02*
X92836914Y-124164686D01*
X92113104Y-123440877D02*
X92113104Y-123821829D01*
X92113104Y-123821829D02*
X92913104Y-123821829D01*
X92151200Y-122421830D02*
X92113104Y-122307544D01*
X92113104Y-122307544D02*
X92113104Y-122117068D01*
X92113104Y-122117068D02*
X92151200Y-122040877D01*
X92151200Y-122040877D02*
X92189295Y-122002782D01*
X92189295Y-122002782D02*
X92265485Y-121964687D01*
X92265485Y-121964687D02*
X92341676Y-121964687D01*
X92341676Y-121964687D02*
X92417866Y-122002782D01*
X92417866Y-122002782D02*
X92455961Y-122040877D01*
X92455961Y-122040877D02*
X92494057Y-122117068D01*
X92494057Y-122117068D02*
X92532152Y-122269449D01*
X92532152Y-122269449D02*
X92570247Y-122345639D01*
X92570247Y-122345639D02*
X92608342Y-122383734D01*
X92608342Y-122383734D02*
X92684533Y-122421830D01*
X92684533Y-122421830D02*
X92760723Y-122421830D01*
X92760723Y-122421830D02*
X92836914Y-122383734D01*
X92836914Y-122383734D02*
X92875009Y-122345639D01*
X92875009Y-122345639D02*
X92913104Y-122269449D01*
X92913104Y-122269449D02*
X92913104Y-122078972D01*
X92913104Y-122078972D02*
X92875009Y-121964687D01*
X92113104Y-121621829D02*
X92913104Y-121621829D01*
X92913104Y-121621829D02*
X92913104Y-121431353D01*
X92913104Y-121431353D02*
X92875009Y-121317067D01*
X92875009Y-121317067D02*
X92798819Y-121240877D01*
X92798819Y-121240877D02*
X92722628Y-121202782D01*
X92722628Y-121202782D02*
X92570247Y-121164686D01*
X92570247Y-121164686D02*
X92455961Y-121164686D01*
X92455961Y-121164686D02*
X92303580Y-121202782D01*
X92303580Y-121202782D02*
X92227390Y-121240877D01*
X92227390Y-121240877D02*
X92151200Y-121317067D01*
X92151200Y-121317067D02*
X92113104Y-121431353D01*
X92113104Y-121431353D02*
X92113104Y-121621829D01*
X92341676Y-120859925D02*
X92341676Y-120478972D01*
X92113104Y-120936115D02*
X92913104Y-120669448D01*
X92913104Y-120669448D02*
X92113104Y-120402782D01*
D11*
X84666666Y-139859580D02*
X84714285Y-139907200D01*
X84714285Y-139907200D02*
X84857142Y-139954819D01*
X84857142Y-139954819D02*
X84952380Y-139954819D01*
X84952380Y-139954819D02*
X85095237Y-139907200D01*
X85095237Y-139907200D02*
X85190475Y-139811961D01*
X85190475Y-139811961D02*
X85238094Y-139716723D01*
X85238094Y-139716723D02*
X85285713Y-139526247D01*
X85285713Y-139526247D02*
X85285713Y-139383390D01*
X85285713Y-139383390D02*
X85238094Y-139192914D01*
X85238094Y-139192914D02*
X85190475Y-139097676D01*
X85190475Y-139097676D02*
X85095237Y-139002438D01*
X85095237Y-139002438D02*
X84952380Y-138954819D01*
X84952380Y-138954819D02*
X84857142Y-138954819D01*
X84857142Y-138954819D02*
X84714285Y-139002438D01*
X84714285Y-139002438D02*
X84666666Y-139050057D01*
X84333332Y-138954819D02*
X83714285Y-138954819D01*
X83714285Y-138954819D02*
X84047618Y-139335771D01*
X84047618Y-139335771D02*
X83904761Y-139335771D01*
X83904761Y-139335771D02*
X83809523Y-139383390D01*
X83809523Y-139383390D02*
X83761904Y-139431009D01*
X83761904Y-139431009D02*
X83714285Y-139526247D01*
X83714285Y-139526247D02*
X83714285Y-139764342D01*
X83714285Y-139764342D02*
X83761904Y-139859580D01*
X83761904Y-139859580D02*
X83809523Y-139907200D01*
X83809523Y-139907200D02*
X83904761Y-139954819D01*
X83904761Y-139954819D02*
X84190475Y-139954819D01*
X84190475Y-139954819D02*
X84285713Y-139907200D01*
X84285713Y-139907200D02*
X84333332Y-139859580D01*
X84666666Y-141659580D02*
X84714285Y-141707200D01*
X84714285Y-141707200D02*
X84857142Y-141754819D01*
X84857142Y-141754819D02*
X84952380Y-141754819D01*
X84952380Y-141754819D02*
X85095237Y-141707200D01*
X85095237Y-141707200D02*
X85190475Y-141611961D01*
X85190475Y-141611961D02*
X85238094Y-141516723D01*
X85238094Y-141516723D02*
X85285713Y-141326247D01*
X85285713Y-141326247D02*
X85285713Y-141183390D01*
X85285713Y-141183390D02*
X85238094Y-140992914D01*
X85238094Y-140992914D02*
X85190475Y-140897676D01*
X85190475Y-140897676D02*
X85095237Y-140802438D01*
X85095237Y-140802438D02*
X84952380Y-140754819D01*
X84952380Y-140754819D02*
X84857142Y-140754819D01*
X84857142Y-140754819D02*
X84714285Y-140802438D01*
X84714285Y-140802438D02*
X84666666Y-140850057D01*
X83714285Y-141754819D02*
X84285713Y-141754819D01*
X83999999Y-141754819D02*
X83999999Y-140754819D01*
X83999999Y-140754819D02*
X84095237Y-140897676D01*
X84095237Y-140897676D02*
X84190475Y-140992914D01*
X84190475Y-140992914D02*
X84285713Y-141040533D01*
X84766666Y-137859580D02*
X84814285Y-137907200D01*
X84814285Y-137907200D02*
X84957142Y-137954819D01*
X84957142Y-137954819D02*
X85052380Y-137954819D01*
X85052380Y-137954819D02*
X85195237Y-137907200D01*
X85195237Y-137907200D02*
X85290475Y-137811961D01*
X85290475Y-137811961D02*
X85338094Y-137716723D01*
X85338094Y-137716723D02*
X85385713Y-137526247D01*
X85385713Y-137526247D02*
X85385713Y-137383390D01*
X85385713Y-137383390D02*
X85338094Y-137192914D01*
X85338094Y-137192914D02*
X85290475Y-137097676D01*
X85290475Y-137097676D02*
X85195237Y-137002438D01*
X85195237Y-137002438D02*
X85052380Y-136954819D01*
X85052380Y-136954819D02*
X84957142Y-136954819D01*
X84957142Y-136954819D02*
X84814285Y-137002438D01*
X84814285Y-137002438D02*
X84766666Y-137050057D01*
X84385713Y-137050057D02*
X84338094Y-137002438D01*
X84338094Y-137002438D02*
X84242856Y-136954819D01*
X84242856Y-136954819D02*
X84004761Y-136954819D01*
X84004761Y-136954819D02*
X83909523Y-137002438D01*
X83909523Y-137002438D02*
X83861904Y-137050057D01*
X83861904Y-137050057D02*
X83814285Y-137145295D01*
X83814285Y-137145295D02*
X83814285Y-137240533D01*
X83814285Y-137240533D02*
X83861904Y-137383390D01*
X83861904Y-137383390D02*
X84433332Y-137954819D01*
X84433332Y-137954819D02*
X83814285Y-137954819D01*
D12*
%TO.C,SW3*%
X46350000Y-116200000D02*
X46350000Y-114700000D01*
X47600000Y-112200000D02*
X52100000Y-112200000D01*
X52100000Y-118700000D02*
X47600000Y-118700000D01*
X53350000Y-114700000D02*
X53350000Y-116200000D01*
%TO.C,SW2*%
X53250000Y-127600000D02*
X53250000Y-129100000D01*
X52000000Y-131600000D02*
X47500000Y-131600000D01*
X47500000Y-125100000D02*
X52000000Y-125100000D01*
X46250000Y-129100000D02*
X46250000Y-127600000D01*
%TO.C,SW1*%
X53350000Y-140700000D02*
X53350000Y-142200000D01*
X52100000Y-144700000D02*
X47600000Y-144700000D01*
X47600000Y-138200000D02*
X52100000Y-138200000D01*
X46350000Y-142200000D02*
X46350000Y-140700000D01*
%TO.C,D2*%
X127640000Y-143010000D02*
X126450000Y-143010000D01*
X126460000Y-140300000D02*
X127640000Y-140300000D01*
X126450000Y-143900000D02*
X121650000Y-143900000D01*
X126450000Y-143010000D02*
X126450000Y-143900000D01*
X126450000Y-139500000D02*
X126450000Y-140300000D01*
X121650000Y-143900000D02*
X121650000Y-143010000D01*
X121650000Y-140300000D02*
X121650000Y-139500000D01*
X121650000Y-139500000D02*
X126450000Y-139500000D01*
%TO.C,D3*%
X127590000Y-114610000D02*
X126400000Y-114610000D01*
X126410000Y-111900000D02*
X127590000Y-111900000D01*
X126400000Y-115500000D02*
X121600000Y-115500000D01*
X126400000Y-114610000D02*
X126400000Y-115500000D01*
X126400000Y-111100000D02*
X126400000Y-111900000D01*
X121600000Y-115500000D02*
X121600000Y-114610000D01*
X121600000Y-111900000D02*
X121600000Y-111100000D01*
X121600000Y-111100000D02*
X126400000Y-111100000D01*
%TO.C,D4*%
X127640000Y-128810000D02*
X126450000Y-128810000D01*
X126460000Y-126100000D02*
X127640000Y-126100000D01*
X126450000Y-129700000D02*
X121650000Y-129700000D01*
X126450000Y-128810000D02*
X126450000Y-129700000D01*
X126450000Y-125300000D02*
X126450000Y-126100000D01*
X121650000Y-129700000D02*
X121650000Y-128810000D01*
X121650000Y-126100000D02*
X121650000Y-125300000D01*
X121650000Y-125300000D02*
X126450000Y-125300000D01*
%TO.C,J1*%
D10*
X97010000Y-145140000D02*
X63010000Y-145140000D01*
X63010000Y-109140000D01*
X97010000Y-109140000D01*
X97010000Y-145140000D01*
D12*
X96010000Y-131570000D02*
X93390000Y-131570000D01*
X93390000Y-121250000D01*
X96010000Y-121250000D01*
X96010000Y-131570000D01*
X96010000Y-128950000D02*
X93390000Y-128950000D01*
%TO.C,C3*%
X87465580Y-138890000D02*
X87184420Y-138890000D01*
X87465580Y-139910000D02*
X87184420Y-139910000D01*
%TO.C,C1*%
X87465580Y-140790000D02*
X87184420Y-140790000D01*
X87465580Y-141810000D02*
X87184420Y-141810000D01*
%TO.C,C2*%
X87465580Y-136990000D02*
X87184420Y-136990000D01*
X87465580Y-138010000D02*
X87184420Y-138010000D01*
%TD*%
M02*
